<?xml version="1.0" encoding="UTF-8" standalone="no"?>
<!-- Created with Inkscape (http://www.inkscape.org/) -->

<svg
   width="49.580353mm"
   height="30.059999mm"
   viewBox="0 0 49.580353 30.059999"
   version="1.1"
   id="svg1"
   sodipodi:docname="logo.svg"
   inkscape:version="1.4-beta (62f545ba, 2024-04-22)"
   xmlns:inkscape="http://www.inkscape.org/namespaces/inkscape"
   xmlns:sodipodi="http://sodipodi.sourceforge.net/DTD/sodipodi-0.dtd"
   xmlns:xlink="http://www.w3.org/1999/xlink"
   xmlns="http://www.w3.org/2000/svg"
   xmlns:svg="http://www.w3.org/2000/svg">
  <sodipodi:namedview
     id="namedview1"
     pagecolor="#ffffff"
     bordercolor="#000000"
     borderopacity="0.25"
     inkscape:showpageshadow="2"
     inkscape:pageopacity="0.0"
     inkscape:pagecheckerboard="0"
     inkscape:deskcolor="#d1d1d1"
     inkscape:document-units="mm"
     inkscape:zoom="2.0130902"
     inkscape:cx="85.440782"
     inkscape:cy="53.152114"
     inkscape:window-width="1648"
     inkscape:window-height="1027"
     inkscape:window-x="0"
     inkscape:window-y="25"
     inkscape:window-maximized="0"
     inkscape:current-layer="layer1" />
  <defs
     id="defs1">
    <pattern
       inkscape:collect="always"
       xlink:href="#Bricks"
       id="pattern6"
       patternTransform="scale(0.05)"
       x="0"
       y="0"
       preserveAspectRatio="xMidYMid" />
    <pattern
       patternUnits="userSpaceOnUse"
       width="100"
       height="100"
       id="Bricks"
       style="fill:#7d1d1d"
       patternTransform="scale(0.25,0.25)"
       inkscape:collect="always"
       inkscape:label="Bricks"
       inkscape:isstock="true">
      <g
         id="g13367">
        <rect
           style="fill:none;stroke:none;stroke-width:0"
           id="rect13349"
           width="100"
           height="100"
           x="0"
           y="0" />
        <rect
           style="fill-opacity:1;stroke-width:0"
           id="rect13351"
           width="40"
           height="40"
           x="0"
           y="60" />
        <rect
           style="fill-opacity:1;stroke-width:0"
           id="rect13353"
           width="90"
           height="40"
           x="0"
           y="10" />
        <rect
           style="fill-opacity:1;stroke-width:0"
           id="rect13355"
           width="50"
           height="40"
           x="50"
           y="60" />
      </g>
    </pattern>
    <linearGradient
       id="linearGradient2">
      <stop
         style="stop-color:#e3e3e3;stop-opacity:1;"
         offset="0"
         id="stop3" />
      <stop
         style="stop-color:#aaaaaa;stop-opacity:1;"
         offset="1"
         id="stop4" />
    </linearGradient>
    <linearGradient
       id="linearGradient2-1">
      <stop
         style="stop-color:#e3e3e3;stop-opacity:1;"
         offset="0"
         id="stop1" />
      <stop
         style="stop-color:#aaaaaa;stop-opacity:1;"
         offset="1"
         id="stop2" />
    </linearGradient>
    <linearGradient
       id="linearGradient14">
      <stop
         style="stop-color:#bbbbbb;stop-opacity:1;"
         offset="0"
         id="stop19" />
      <stop
         style="stop-color:#747474;stop-opacity:1;"
         offset="1"
         id="stop20" />
    </linearGradient>
    <linearGradient
       id="linearGradient14-1">
      <stop
         style="stop-color:#bbbbbb;stop-opacity:1;"
         offset="0"
         id="stop15" />
      <stop
         style="stop-color:#747474;stop-opacity:1;"
         offset="1"
         id="stop16" />
    </linearGradient>
    <inkscape:path-effect
       effect="fillet_chamfer"
       id="path-effect14"
       is_visible="true"
       lpeversion="1"
       nodesatellites_param="F,0,0,1,0,3.1689549,0,1 @ F,0,0,1,0,3.1689549,0,1 @ F,0,0,1,0,3.1689549,0,1 @ F,0,0,1,0,3.1689549,0,1"
       radius="10"
       unit="px"
       method="auto"
       mode="F"
       chamfer_steps="1"
       flexible="false"
       use_knot_distance="true"
       apply_no_radius="true"
       apply_with_radius="true"
       only_selected="false"
       hide_knots="false" />
    <inkscape:path-effect
       effect="fillet_chamfer"
       id="path-effect14-4"
       is_visible="true"
       lpeversion="1"
       nodesatellites_param="F,0,0,1,0,3.1689549,0,1 @ F,0,0,1,0,3.1689549,0,1 @ F,0,0,1,0,3.1689549,0,1 @ F,0,0,1,0,3.1689549,0,1"
       radius="10"
       unit="px"
       method="auto"
       mode="F"
       chamfer_steps="1"
       flexible="false"
       use_knot_distance="true"
       apply_no_radius="true"
       apply_with_radius="true"
       only_selected="false"
       hide_knots="false" />
    <inkscape:path-effect
       effect="fillet_chamfer"
       id="path-effect14-4-3"
       is_visible="true"
       lpeversion="1"
       nodesatellites_param="F,0,0,1,0,3.1689549,0,1 @ F,0,0,1,0,3.1689549,0,1 @ F,0,0,1,0,3.1689549,0,1 @ F,0,0,1,0,3.1689549,0,1"
       radius="10"
       unit="px"
       method="auto"
       mode="F"
       chamfer_steps="1"
       flexible="false"
       use_knot_distance="true"
       apply_no_radius="true"
       apply_with_radius="true"
       only_selected="false"
       hide_knots="false" />
    <inkscape:path-effect
       effect="fillet_chamfer"
       id="path-effect14-5"
       is_visible="true"
       lpeversion="1"
       nodesatellites_param="F,0,0,1,0,3.1689549,0,1 @ F,0,0,1,0,3.1689549,0,1 @ F,0,0,1,0,3.1689549,0,1 @ F,0,0,1,0,3.1689549,0,1"
       radius="10"
       unit="px"
       method="auto"
       mode="F"
       chamfer_steps="1"
       flexible="false"
       use_knot_distance="true"
       apply_no_radius="true"
       apply_with_radius="true"
       only_selected="false"
       hide_knots="false" />
    <inkscape:path-effect
       effect="fillet_chamfer"
       id="path-effect14-4-3-5"
       is_visible="true"
       lpeversion="1"
       nodesatellites_param="F,0,0,1,0,3.1689549,0,1 @ F,0,0,1,0,3.1689549,0,1 @ F,0,0,1,0,3.1689549,0,1 @ F,0,0,1,0,3.1689549,0,1"
       radius="10"
       unit="px"
       method="auto"
       mode="F"
       chamfer_steps="1"
       flexible="false"
       use_knot_distance="true"
       apply_no_radius="true"
       apply_with_radius="true"
       only_selected="false"
       hide_knots="false" />
    <inkscape:path-effect
       effect="fillet_chamfer"
       id="path-effect14-4-3-3"
       is_visible="true"
       lpeversion="1"
       nodesatellites_param="F,0,0,1,0,3.1689549,0,1 @ F,0,0,1,0,3.1689549,0,1 @ F,0,0,1,0,3.1689549,0,1 @ F,0,0,1,0,3.1689549,0,1"
       radius="10"
       unit="px"
       method="auto"
       mode="F"
       chamfer_steps="1"
       flexible="false"
       use_knot_distance="true"
       apply_no_radius="true"
       apply_with_radius="true"
       only_selected="false"
       hide_knots="false" />
  </defs>
  <g
     inkscape:label="Layer 1"
     inkscape:groupmode="layer"
     id="layer1"
     transform="translate(-51.333139,-116.68004)">
    <path
       style="fill:#1d3869;fill-opacity:1;stroke:none;stroke-width:1.56993372;stroke-linejoin:round;stroke-dasharray:none;stroke-opacity:1"
       id="rect12-9-9"
       width="19.144123"
       height="32.939976"
       x="-132.03749"
       y="169.29398"
       transform="matrix(0.82163826,-0.57000845,0.95145234,0.30779406,-0.02833408,9.033538)"
       sodipodi:type="rect"
       d="m -128.86854,169.29398 h 12.80622 a 3.1689549,3.1689549 45 0 1 3.16895,3.16895 V 199.065 a 3.1689549,3.1689549 135 0 1 -3.16895,3.16895 l -12.80622,0 a 3.1689549,3.1689549 45 0 1 -3.16895,-3.16895 v -26.60207 a 3.1689549,3.1689549 135 0 1 3.16895,-3.16895 z"
       inkscape:path-effect="#path-effect14-4-3" />
    <path
       style="opacity:1;fill:url(#pattern6);fill-opacity:1;stroke:none;stroke-width:1.56993;stroke-linejoin:round;stroke-dasharray:none;stroke-opacity:1"
       id="rect12-9"
       width="19.144123"
       height="32.939976"
       x="-132.03749"
       y="169.29398"
       transform="matrix(0.82163826,-0.57000845,0.95145234,0.30779406,-2.4832683e-4,4.516769)"
       inkscape:path-effect="#path-effect14-4"
       sodipodi:type="rect"
       d="m -128.86854,169.29398 h 12.80622 a 3.1689549,3.1689549 45 0 1 3.16895,3.16895 V 199.065 a 3.1689549,3.1689549 135 0 1 -3.16895,3.16895 l -12.80622,0 a 3.1689549,3.1689549 45 0 1 -3.16895,-3.16895 v -26.60207 a 3.1689549,3.1689549 135 0 1 3.16895,-3.16895 z" />
    <path
       style="fill:#00f220;fill-opacity:1;stroke:none;stroke-width:1.56993;stroke-linejoin:round;stroke-dasharray:none;stroke-opacity:1;opacity:0.50704225"
       id="rect12-9-9-9"
       width="19.144123"
       height="32.939976"
       x="-132.03749"
       y="169.29398"
       transform="matrix(0.82163826,-0.57000845,0.95145234,0.30779406,0.0111925,-0.01866167)"
       inkscape:path-effect="#path-effect14-4-3-3"
       sodipodi:type="rect"
       d="m -128.86854,169.29398 h 12.80622 a 3.1689549,3.1689549 45 0 1 3.16895,3.16895 V 199.065 a 3.1689549,3.1689549 135 0 1 -3.16895,3.16895 l -12.80622,0 a 3.1689549,3.1689549 45 0 1 -3.16895,-3.16895 v -26.60207 a 3.1689549,3.1689549 135 0 1 3.16895,-3.16895 z" />
    <path
       style="opacity:1;fill:none;fill-opacity:1;stroke:none;stroke-width:1.56993;stroke-linejoin:round;stroke-dasharray:none;stroke-opacity:1"
       id="rect12"
       width="19.144123"
       height="32.939976"
       x="-132.03749"
       y="169.29398"
       transform="matrix(0.82163883,-0.57000845,0.951453,0.30779406,0,0)"
       inkscape:path-effect="#path-effect14"
       sodipodi:type="rect"
       d="m -128.86854,169.29398 h 12.80622 a 3.1689549,3.1689549 45 0 1 3.16895,3.16895 V 199.065 a 3.1689549,3.1689549 135 0 1 -3.16895,3.16895 l -12.80622,0 a 3.1689549,3.1689549 45 0 1 -3.16895,-3.16895 v -26.60207 a 3.1689549,3.1689549 135 0 1 3.16895,-3.16895 z" />
    <ellipse
       style="fill:#d1d1d1;stroke:#000000;stroke-width:0.248947;stroke-dasharray:none;stroke-opacity:1;fill-opacity:1"
       id="path9-2-1"
       cx="-122.46543"
       cy="195.66489"
       transform="matrix(0.82163883,-0.57000845,0.95145301,0.30779405,0,0)"
       rx="4.2118382"
       ry="3.6371841" />
    <ellipse
       style="fill:#d1d1d1;stroke:#000000;stroke-width:0.249467;stroke-dasharray:none;stroke-opacity:1;fill-opacity:1"
       id="path9-2"
       cx="-122.46543"
       cy="185.76395"
       transform="matrix(0.82163883,-0.57000845,0.95145301,0.30779405,0,0)"
       rx="4.2118382"
       ry="3.6371841" />
    <ellipse
       style="fill:#d1d1d1;stroke:#000000;stroke-width:0.249467;stroke-dasharray:none;stroke-opacity:1;fill-opacity:1"
       id="path9"
       cx="-122.46543"
       cy="175.87955"
       transform="matrix(0.82163883,-0.57000845,0.95145301,0.30779405,0,0)"
       rx="4.2118382"
       ry="3.6371841" />
    <path
       d="m -103.05929,168.97887 h -0.89382 v -0.16856 h 0.34378 v -1.10674 h -0.34378 v -0.15082 q 0.0699,0 0.14971,-0.0111 0.0798,-0.0122 0.12088,-0.0344 0.051,-0.0277 0.0798,-0.0699 0.0299,-0.0433 0.0344,-0.11533 h 0.17189 v 1.48822 h 0.33712 z"
       id="text14"
       style="font-size:2.27114px;stroke-width:4.09486"
       transform="matrix(0.99148759,-0.6878403,0.99148759,0.3207452,0,0)"
       aria-label="1" />
    <g
       id="g6"
       transform="matrix(0.7092311,-0.49202606,0.7092311,0.22943552,-69.983318,134.7212)"
       style="fill:none;stroke:#000000;stroke-opacity:1">
      <ellipse
         style="opacity:1;fill:none;stroke:#000000;stroke-width:0.311;stroke-dasharray:none;stroke-opacity:1"
         id="path5"
         cx="76.279427"
         cy="117.6316"
         rx="0.94434994"
         ry="0.94434983" />
      <ellipse
         style="fill:none;stroke:#000000;stroke-width:0.311;stroke-dasharray:none;stroke-opacity:1"
         id="path5-1"
         cx="79.215149"
         cy="117.632"
         rx="0.94434994"
         ry="0.94434983" />
      <path
         style="opacity:1;fill:none;stroke:#000000;stroke-width:0.310999;stroke-dasharray:none;stroke-opacity:1"
         d="m 76.274373,118.5805 h 2.974748"
         id="path6" />
    </g>
    <g
       id="g8"
       transform="matrix(0.7092311,-0.49202606,0.7092311,0.22943552,-65.725873,136.83392)"
       style="fill:#000000;fill-opacity:1">
      <path
         d="m 75.326726,121.53145 h -0.342615 v 0.64957 h -0.297656 v -0.64957 h -1.105359 v -0.35657 l 1.117761,-1.30224 h 0.285254 v 1.41076 h 0.342615 z m -0.640271,-0.24805 v -1.04179 l -0.894519,1.04179 z"
         id="text2"
         style="font-size:3.175px;stroke-width:5.72452"
         aria-label="4" />
      <path
         d="m 77.852457,124.62543 q 0,0.44029 -0.199988,0.64647 -0.199988,0.20619 -0.615466,0.20619 -0.137977,0 -0.269751,-0.0202 -0.130225,-0.0186 -0.257349,-0.0543 v -0.29766 h 0.0155 q 0.07131,0.0279 0.226343,0.0682 0.155029,0.0418 0.310058,0.0418 0.148828,0 0.246497,-0.0356 0.09767,-0.0357 0.151929,-0.0992 0.05426,-0.0605 0.07751,-0.14573 0.02326,-0.0853 0.02326,-0.19069 v -0.15813 q -0.131775,0.10542 -0.252698,0.15813 -0.119373,0.0512 -0.305408,0.0512 -0.310058,0 -0.492993,-0.22324 -0.181384,-0.22479 -0.181384,-0.63252 0,-0.22324 0.06201,-0.38447 0.06356,-0.16278 0.172083,-0.2806 0.100769,-0.11007 0.244946,-0.17054 0.144177,-0.062 0.286804,-0.062 0.150379,0 0.251148,0.031 0.102319,0.0294 0.215491,0.0915 l 0.0186,-0.0744 h 0.272852 z m -0.291455,-0.27905 v -0.94413 q -0.116272,-0.0527 -0.217041,-0.0744 -0.09922,-0.0233 -0.198438,-0.0233 -0.240295,0 -0.378271,0.16123 -0.137976,0.16123 -0.137976,0.46819 0,0.29146 0.102319,0.44183 0.102319,0.15038 0.339514,0.15038 0.127124,0 0.254248,-0.0481 0.128674,-0.0496 0.235645,-0.13177 z m 2.313037,0.47594 h -0.291455 v -0.98599 q 0,-0.11937 -0.01395,-0.22324 -0.01395,-0.10542 -0.05116,-0.16433 -0.03876,-0.0651 -0.111621,-0.0961 -0.07286,-0.0326 -0.189136,-0.0326 -0.119372,0 -0.249597,0.0589 -0.130224,0.0589 -0.249597,0.15037 v 1.29295 h -0.291455 v -2.41226 h 0.291455 v 0.87282 q 0.136426,-0.11317 0.282153,-0.17674 0.145728,-0.0636 0.299207,-0.0636 0.280603,0 0.427881,0.16898 0.147278,0.16899 0.147278,0.4868 z m 0.874365,-2.02158 h -0.328662 v -0.30231 h 0.328662 z m -0.0186,2.02158 h -0.291455 v -1.73168 H 80.7298 Z"
         id="text5"
         style="font-size:3.175px;stroke-width:5.72452"
         aria-label="ghi" />
    </g>
    <g
       id="g9"
       transform="matrix(0.7092311,-0.49202606,0.7092311,0.22943552,-62.661128,137.94639)"
       style="fill:#000000;fill-opacity:1">
      <path
         d="m 75.160847,129.49221 -1.044897,1.96267 h -0.331763 l 1.11156,-2.03709 h -1.314648 v -0.2713 h 1.579748 z"
         id="text3"
         style="font-size:3.175px;stroke-width:5.72452"
         aria-label="7" />
      <path
         d="m 76.788182,132.28357 q 0,0.21084 -0.06046,0.38602 -0.06046,0.17363 -0.170533,0.29455 -0.102319,0.11473 -0.241845,0.17829 -0.137976,0.062 -0.293006,0.062 -0.134875,0 -0.244946,-0.0295 -0.10852,-0.0294 -0.221692,-0.0915 v 0.72553 h -0.291455 v -2.37039 h 0.291455 v 0.18138 q 0.116272,-0.0977 0.260449,-0.16278 0.145728,-0.0667 0.310059,-0.0667 0.313159,0 0.486792,0.23719 0.175183,0.23565 0.175183,0.65578 z m -0.300757,0.008 q 0,-0.31316 -0.10697,-0.46819 -0.10697,-0.15503 -0.328662,-0.15503 -0.125574,0 -0.252698,0.0543 -0.127124,0.0543 -0.243396,0.14263 v 0.98133 q 0.124024,0.0558 0.21239,0.076 0.08992,0.0202 0.203089,0.0202 0.243396,0 0.379821,-0.16433 0.136426,-0.16433 0.136426,-0.48679 z m 2.159558,1.51773 H 78.355528 V 132.975 q -0.134875,0.11627 -0.2682,0.17363 -0.133326,0.0558 -0.288355,0.0558 -0.308508,0 -0.492993,-0.23719 -0.182935,-0.23875 -0.182935,-0.65733 0,-0.22324 0.06356,-0.39377 0.06511,-0.17209 0.170533,-0.28836 0.102319,-0.11317 0.240295,-0.17518 0.137976,-0.062 0.291455,-0.062 0.139526,0 0.246497,0.031 0.10852,0.031 0.220141,0.0915 l 0.0186,-0.0744 h 0.272851 z m -0.291455,-1.079 v -0.97978 q -0.120923,-0.0543 -0.21394,-0.076 -0.09302,-0.0217 -0.201538,-0.0217 -0.252698,0 -0.384473,0.17208 -0.131775,0.17053 -0.131775,0.47129 0,0.30386 0.10542,0.46819 0.10697,0.16278 0.334863,0.16278 0.127124,0 0.254248,-0.0543 0.127124,-0.0558 0.237195,-0.14263 z m 1.945618,-0.97358 h -0.0155 q -0.06511,-0.0155 -0.127124,-0.0217 -0.06046,-0.008 -0.144177,-0.008 -0.134876,0 -0.260449,0.0605 -0.125574,0.0589 -0.241846,0.15348 v 1.22938 h -0.291455 v -1.73167 h 0.291455 v 0.25579 q 0.173633,-0.13952 0.305408,-0.19688 0.133325,-0.0589 0.271301,-0.0589 0.07596,0 0.110071,0.005 0.03411,0.003 0.102319,0.0139 z m 1.511535,0.91467 q 0,0.23719 -0.196887,0.38912 -0.195337,0.15193 -0.534851,0.15193 -0.192236,0 -0.353467,-0.045 -0.15968,-0.0465 -0.2682,-0.10077 v -0.32711 h 0.0155 q 0.137976,0.10387 0.306958,0.16588 0.168982,0.0605 0.324011,0.0605 0.192236,0 0.300757,-0.062 0.10852,-0.062 0.10852,-0.19533 0,-0.10232 -0.05891,-0.15503 -0.05891,-0.0527 -0.226343,-0.0899 -0.06201,-0.0139 -0.16278,-0.0326 -0.09922,-0.0186 -0.181385,-0.0403 -0.227893,-0.0605 -0.324011,-0.17674 -0.09457,-0.11782 -0.09457,-0.28835 0,-0.10697 0.04341,-0.20154 0.04496,-0.0946 0.134876,-0.16898 0.08682,-0.0729 0.220141,-0.11472 0.134876,-0.0434 0.300757,-0.0434 0.15503,0 0.313159,0.0388 0.159681,0.0372 0.265101,0.0915 v 0.31161 h -0.0155 q -0.111621,-0.0822 -0.271302,-0.13797 -0.15968,-0.0574 -0.313159,-0.0574 -0.15968,0 -0.269751,0.062 -0.110071,0.0605 -0.110071,0.18138 0,0.10697 0.06666,0.16123 0.06511,0.0543 0.21084,0.0884 0.08061,0.0186 0.179834,0.0372 0.100769,0.0186 0.167431,0.0341 0.203089,0.0465 0.31316,0.15968 0.11007,0.11472 0.11007,0.30386 z"
         id="text4"
         style="font-size:3.175px;stroke-width:5.72452"
         aria-label="pqrs" />
    </g>
  </g>
</svg>
