G04 #@! TF.GenerationSoftware,KiCad,Pcbnew,8.0.4*
G04 #@! TF.CreationDate,2025-03-19T09:33:49+11:00*
G04 #@! TF.ProjectId,nokia,6e6f6b69-612e-46b6-9963-61645f706362,rev?*
G04 #@! TF.SameCoordinates,Original*
G04 #@! TF.FileFunction,Paste,Bot*
G04 #@! TF.FilePolarity,Positive*
%FSLAX46Y46*%
G04 Gerber Fmt 4.6, Leading zero omitted, Abs format (unit mm)*
G04 Created by KiCad (PCBNEW 8.0.4) date 2025-03-19 09:33:49*
%MOMM*%
%LPD*%
G01*
G04 APERTURE LIST*
G04 Aperture macros list*
%AMRoundRect*
0 Rectangle with rounded corners*
0 $1 Rounding radius*
0 $2 $3 $4 $5 $6 $7 $8 $9 X,Y pos of 4 corners*
0 Add a 4 corners polygon primitive as box body*
4,1,4,$2,$3,$4,$5,$6,$7,$8,$9,$2,$3,0*
0 Add four circle primitives for the rounded corners*
1,1,$1+$1,$2,$3*
1,1,$1+$1,$4,$5*
1,1,$1+$1,$6,$7*
1,1,$1+$1,$8,$9*
0 Add four rect primitives between the rounded corners*
20,1,$1+$1,$2,$3,$4,$5,0*
20,1,$1+$1,$4,$5,$6,$7,0*
20,1,$1+$1,$6,$7,$8,$9,0*
20,1,$1+$1,$8,$9,$2,$3,0*%
%AMFreePoly0*
4,1,17,1.239561,1.918663,1.288452,1.862240,1.300426,1.807198,1.300426,-1.628440,1.279392,-1.700074,1.222969,-1.748965,1.167927,-1.760939,-1.241481,-1.760939,-1.313115,-1.739905,-1.362006,-1.683482,-1.373980,-1.628440,-1.373980,1.807198,-1.352946,1.878832,-1.296523,1.927723,-1.241481,1.939697,1.167927,1.939697,1.239561,1.918663,1.239561,1.918663,$1*%
%AMFreePoly1*
4,1,21,1.481047,1.611465,1.529938,1.555042,1.541912,1.500000,1.541912,-2.069488,1.520878,-2.141122,1.464455,-2.190013,1.409413,-2.201987,-1.000000,-2.201987,-1.071634,-2.180953,-1.120525,-2.124530,-1.132499,-2.069488,-1.132499,-0.453074,-1.143000,-0.381000,-1.143000,0.381000,-1.132499,0.453074,-1.132499,1.500000,-1.111465,1.571634,-1.055042,1.620525,-1.000000,1.632499,1.409413,1.632499,
1.481047,1.611465,1.481047,1.611465,$1*%
G04 Aperture macros list end*
%ADD10R,0.950000X3.300000*%
%ADD11RoundRect,0.160000X0.240000X0.715000X-0.240000X0.715000X-0.240000X-0.715000X0.240000X-0.715000X0*%
%ADD12RoundRect,0.160000X-0.240000X-0.715000X0.240000X-0.715000X0.240000X0.715000X-0.240000X0.715000X0*%
%ADD13RoundRect,0.160000X0.715000X-0.240000X0.715000X0.240000X-0.715000X0.240000X-0.715000X-0.240000X0*%
%ADD14RoundRect,0.160000X-0.715000X0.240000X-0.715000X-0.240000X0.715000X-0.240000X0.715000X0.240000X0*%
%ADD15RoundRect,0.250000X0.350000X-0.350000X0.350000X0.350000X-0.350000X0.350000X-0.350000X-0.350000X0*%
%ADD16RoundRect,0.055000X-0.055000X-0.441750X0.055000X-0.441750X0.055000X0.441750X-0.055000X0.441750X0*%
%ADD17RoundRect,0.052500X-0.052500X-0.444250X0.052500X-0.444250X0.052500X0.444250X-0.052500X0.444250X0*%
%ADD18RoundRect,0.055000X0.441750X-0.055000X0.441750X0.055000X-0.441750X0.055000X-0.441750X-0.055000X0*%
%ADD19RoundRect,0.052500X0.444250X-0.052500X0.444250X0.052500X-0.444250X0.052500X-0.444250X-0.052500X0*%
%ADD20R,0.133333X0.133333*%
%ADD21R,0.800000X0.500000*%
%ADD22R,1.700000X0.700000*%
%ADD23RoundRect,0.150000X0.650000X0.150000X-0.650000X0.150000X-0.650000X-0.150000X0.650000X-0.150000X0*%
%ADD24RoundRect,0.150000X0.150000X-0.587500X0.150000X0.587500X-0.150000X0.587500X-0.150000X-0.587500X0*%
%ADD25RoundRect,0.250000X0.475000X-0.250000X0.475000X0.250000X-0.475000X0.250000X-0.475000X-0.250000X0*%
%ADD26RoundRect,0.135000X-0.135000X-0.185000X0.135000X-0.185000X0.135000X0.185000X-0.135000X0.185000X0*%
%ADD27RoundRect,0.135000X0.135000X0.185000X-0.135000X0.185000X-0.135000X-0.185000X0.135000X-0.185000X0*%
%ADD28RoundRect,0.140000X-0.140000X-0.170000X0.140000X-0.170000X0.140000X0.170000X-0.140000X0.170000X0*%
%ADD29RoundRect,0.135000X0.185000X-0.135000X0.185000X0.135000X-0.185000X0.135000X-0.185000X-0.135000X0*%
%ADD30RoundRect,0.140000X0.170000X-0.140000X0.170000X0.140000X-0.170000X0.140000X-0.170000X-0.140000X0*%
%ADD31RoundRect,0.150000X0.587500X0.150000X-0.587500X0.150000X-0.587500X-0.150000X0.587500X-0.150000X0*%
%ADD32RoundRect,0.150000X-0.150000X0.512500X-0.150000X-0.512500X0.150000X-0.512500X0.150000X0.512500X0*%
%ADD33FreePoly0,180.000000*%
%ADD34FreePoly1,180.000000*%
%ADD35R,1.050000X0.650000*%
%ADD36R,0.450000X1.380000*%
%ADD37R,1.650000X1.300000*%
%ADD38R,1.425000X1.550000*%
%ADD39R,1.800000X1.900000*%
%ADD40R,1.000000X1.900000*%
%ADD41RoundRect,0.140000X-0.170000X0.140000X-0.170000X-0.140000X0.170000X-0.140000X0.170000X0.140000X0*%
%ADD42RoundRect,0.100000X1.150000X0.900000X-1.150000X0.900000X-1.150000X-0.900000X1.150000X-0.900000X0*%
%ADD43RoundRect,0.075000X0.675000X0.925000X-0.675000X0.925000X-0.675000X-0.925000X0.675000X-0.925000X0*%
%ADD44RoundRect,0.140000X0.140000X0.170000X-0.140000X0.170000X-0.140000X-0.170000X0.140000X-0.170000X0*%
%ADD45RoundRect,0.375000X-0.375000X0.625000X-0.375000X-0.625000X0.375000X-0.625000X0.375000X0.625000X0*%
%ADD46RoundRect,0.500000X-1.400000X0.500000X-1.400000X-0.500000X1.400000X-0.500000X1.400000X0.500000X0*%
%ADD47RoundRect,0.135000X-0.185000X0.135000X-0.185000X-0.135000X0.185000X-0.135000X0.185000X0.135000X0*%
%ADD48RoundRect,0.250000X1.000000X0.650000X-1.000000X0.650000X-1.000000X-0.650000X1.000000X-0.650000X0*%
%ADD49R,1.000000X3.150000*%
%ADD50RoundRect,0.250000X-0.475000X0.250000X-0.475000X-0.250000X0.475000X-0.250000X0.475000X0.250000X0*%
%ADD51RoundRect,0.250000X-0.250000X-0.475000X0.250000X-0.475000X0.250000X0.475000X-0.250000X0.475000X0*%
%ADD52RoundRect,0.550000X0.550000X1.925000X-0.550000X1.925000X-0.550000X-1.925000X0.550000X-1.925000X0*%
%ADD53RoundRect,0.250000X0.250000X0.475000X-0.250000X0.475000X-0.250000X-0.475000X0.250000X-0.475000X0*%
%ADD54RoundRect,0.147500X0.172500X-0.147500X0.172500X0.147500X-0.172500X0.147500X-0.172500X-0.147500X0*%
%ADD55RoundRect,0.250000X0.550000X0.250000X-0.550000X0.250000X-0.550000X-0.250000X0.550000X-0.250000X0*%
%ADD56RoundRect,0.250000X0.548250X0.250000X-0.548250X0.250000X-0.548250X-0.250000X0.548250X-0.250000X0*%
%ADD57RoundRect,0.150000X0.150000X-0.825000X0.150000X0.825000X-0.150000X0.825000X-0.150000X-0.825000X0*%
%ADD58R,1.200000X1.400000*%
G04 APERTURE END LIST*
D10*
X38100000Y-28000000D03*
X35100000Y-28000000D03*
D11*
X28775000Y-74350000D03*
X25725000Y-74350000D03*
D12*
X36650000Y-74350000D03*
X39700000Y-74350000D03*
D11*
X48375000Y-74350000D03*
X45325000Y-74350000D03*
X36275000Y-100000000D03*
X33225000Y-100000000D03*
D12*
X56250000Y-74375000D03*
X59300000Y-74375000D03*
D13*
X34750000Y-115125000D03*
X34750000Y-112075000D03*
D14*
X50250000Y-112100000D03*
X50250000Y-115150000D03*
X50250000Y-98500000D03*
X50250000Y-101550000D03*
D15*
X41796500Y-60900000D03*
X43196500Y-60900000D03*
X41796500Y-59500000D03*
X43196500Y-59500000D03*
D16*
X46296500Y-65203250D03*
X45896500Y-65203250D03*
X45496500Y-65203250D03*
X45096500Y-65203250D03*
X44696500Y-65203250D03*
X44296500Y-65203250D03*
X43896500Y-65203250D03*
X43496500Y-65203250D03*
X43096500Y-65203250D03*
X42696500Y-65203250D03*
X42296500Y-65203250D03*
X41896500Y-65203250D03*
X41496500Y-65203250D03*
X41096500Y-65203250D03*
X40696500Y-65203250D03*
X40296500Y-65203250D03*
D17*
X39891500Y-65203250D03*
D16*
X39496500Y-65203250D03*
X39096500Y-65203250D03*
X38696500Y-65203250D03*
D18*
X37493250Y-64000000D03*
X37493250Y-63600000D03*
X37493250Y-63200000D03*
X37493250Y-62800000D03*
X37493250Y-62400000D03*
X37493250Y-62000000D03*
X37493250Y-61600000D03*
X37493250Y-61200000D03*
X37493250Y-60800000D03*
X37493250Y-60400000D03*
X37493250Y-60000000D03*
X37493250Y-59600000D03*
X37493250Y-59200000D03*
X37493250Y-58800000D03*
X37493250Y-58400000D03*
X37493250Y-58000000D03*
X37493250Y-57600000D03*
X37493250Y-57200000D03*
X37493250Y-56800000D03*
X37493250Y-56400000D03*
D16*
X38696500Y-55196750D03*
X39096500Y-55196750D03*
X39496500Y-55196750D03*
X39896500Y-55196750D03*
X40296500Y-55196750D03*
X40696500Y-55196750D03*
X41096500Y-55196750D03*
X41496500Y-55196750D03*
D17*
X41891500Y-55196750D03*
D16*
X42296500Y-55196750D03*
X42696500Y-55196750D03*
X43096500Y-55196750D03*
X43496500Y-55196750D03*
D17*
X43891500Y-55196750D03*
D16*
X44296500Y-55196750D03*
X44696500Y-55196750D03*
X45096500Y-55196750D03*
X45496500Y-55196750D03*
X45896500Y-55196750D03*
X46296500Y-55196750D03*
D18*
X47499750Y-56400000D03*
D19*
X47499750Y-56805000D03*
D18*
X47499750Y-57200000D03*
X47499750Y-57600000D03*
X47499750Y-58000000D03*
X47499750Y-58400000D03*
D19*
X47499750Y-58805000D03*
D18*
X47499750Y-59200000D03*
X47499750Y-59600000D03*
X47499750Y-60000000D03*
X47499750Y-60400000D03*
X47499750Y-60800000D03*
X47499750Y-61200000D03*
X47499750Y-61600000D03*
X47499750Y-62000000D03*
X47499750Y-62400000D03*
X47499750Y-62800000D03*
X47499750Y-63200000D03*
X47499750Y-63600000D03*
X47499750Y-64000000D03*
D20*
X41363167Y-61333333D03*
X42496500Y-61333333D03*
X43629833Y-61333333D03*
X41363167Y-60200000D03*
X42496500Y-60200000D03*
X43629833Y-60200000D03*
X41363167Y-59066667D03*
X42496500Y-59066667D03*
X43629833Y-59066667D03*
D21*
X42000000Y-93100000D03*
X42000000Y-94000000D03*
X42000000Y-94900000D03*
X42000000Y-95800000D03*
X40800000Y-95800000D03*
X40800000Y-94900000D03*
X40800000Y-94000000D03*
X40800000Y-93100000D03*
D22*
X51391790Y-57900000D03*
X51391790Y-56500000D03*
D23*
X60400000Y-61725000D03*
X60400000Y-62995000D03*
X60400000Y-64265000D03*
X60400000Y-65535000D03*
X53200000Y-65535000D03*
X53200000Y-64265000D03*
X53200000Y-62995000D03*
X53200000Y-61725000D03*
D24*
X32475000Y-74500000D03*
X30575000Y-74500000D03*
X31525000Y-72625000D03*
X48075000Y-100875000D03*
X46175000Y-100875000D03*
X47125000Y-99000000D03*
D25*
X27040000Y-47680000D03*
X27040000Y-45780000D03*
D26*
X46990000Y-23250000D03*
X48010000Y-23250000D03*
X30080000Y-116000000D03*
X31100000Y-116000000D03*
D27*
X48500000Y-94900000D03*
X47480000Y-94900000D03*
X41520000Y-89900000D03*
X40500000Y-89900000D03*
D28*
X48510000Y-60460000D03*
X49470000Y-60460000D03*
D26*
X54180000Y-100200000D03*
X55200000Y-100200000D03*
D24*
X54100000Y-114650000D03*
X52200000Y-114650000D03*
X53150000Y-112775000D03*
D29*
X42500000Y-117420000D03*
X42500000Y-116400000D03*
D25*
X29000000Y-47650000D03*
X29000000Y-45750000D03*
D27*
X50520000Y-84500000D03*
X49500000Y-84500000D03*
D25*
X29000000Y-41950000D03*
X29000000Y-40050000D03*
D30*
X38400000Y-54080000D03*
X38400000Y-53120000D03*
D31*
X57800000Y-94000000D03*
X57800000Y-95900000D03*
X55925000Y-94950000D03*
D30*
X43325000Y-53250000D03*
X43325000Y-52290000D03*
D32*
X43600000Y-24475000D03*
X44550000Y-24475000D03*
X45500000Y-24475000D03*
X45500000Y-26750000D03*
X44550000Y-26750000D03*
X43600000Y-26750000D03*
D27*
X56200000Y-59200000D03*
X55180000Y-59200000D03*
D26*
X40690000Y-101400000D03*
X41710000Y-101400000D03*
D27*
X52870000Y-111300000D03*
X51850000Y-111300000D03*
D30*
X42200000Y-53235000D03*
X42200000Y-52275000D03*
D33*
X26178713Y-107300000D03*
D34*
X27178713Y-114300000D03*
D27*
X37400000Y-115175000D03*
X36380000Y-115175000D03*
X55300000Y-116300000D03*
X54280000Y-116300000D03*
D35*
X47850000Y-26900000D03*
X52000000Y-26900000D03*
X47850000Y-24750000D03*
X52000000Y-24750000D03*
D28*
X37040000Y-40200000D03*
X38000000Y-40200000D03*
D36*
X39462500Y-122290000D03*
X38812500Y-122290000D03*
X38162500Y-122290000D03*
X37512500Y-122290000D03*
X36862500Y-122290000D03*
D37*
X41537500Y-124950000D03*
D38*
X40650000Y-122375000D03*
D39*
X39312500Y-124950000D03*
D40*
X36612500Y-124950000D03*
D38*
X35675000Y-122375000D03*
D37*
X34787500Y-124950000D03*
D41*
X39500000Y-95020000D03*
X39500000Y-95980000D03*
D26*
X28800000Y-100200000D03*
X29820000Y-100200000D03*
D27*
X48500000Y-93900000D03*
X47480000Y-93900000D03*
D42*
X43288102Y-42600000D03*
D43*
X40288102Y-42600000D03*
X37788102Y-42600000D03*
D42*
X34788102Y-42600000D03*
D27*
X28520000Y-92000000D03*
X27500000Y-92000000D03*
D26*
X43480000Y-96500000D03*
X44500000Y-96500000D03*
D24*
X54125000Y-74475000D03*
X52225000Y-74475000D03*
X53175000Y-72600000D03*
D28*
X49325000Y-64025000D03*
X50285000Y-64025000D03*
D44*
X49560000Y-55000000D03*
X48600000Y-55000000D03*
D27*
X29395000Y-72700000D03*
X28375000Y-72700000D03*
D28*
X53240000Y-60225000D03*
X54200000Y-60225000D03*
D45*
X55200000Y-47200000D03*
X57500000Y-47200000D03*
D46*
X57500000Y-53500000D03*
D45*
X59800000Y-47200000D03*
D47*
X37200000Y-94200000D03*
X37200000Y-95220000D03*
X56375000Y-110080000D03*
X56375000Y-111100000D03*
D30*
X48580000Y-57660000D03*
X48580000Y-56700000D03*
D47*
X42500000Y-77800000D03*
X42500000Y-78820000D03*
D25*
X31000000Y-41950000D03*
X31000000Y-40050000D03*
D44*
X36200000Y-63400000D03*
X35240000Y-63400000D03*
D48*
X31060000Y-37450000D03*
X27060000Y-37450000D03*
D41*
X40475000Y-67190000D03*
X40475000Y-68150000D03*
D49*
X52250000Y-36300000D03*
X52250000Y-31250000D03*
X49710000Y-36300000D03*
X49710000Y-31250000D03*
X47170000Y-36300000D03*
X47170000Y-31250000D03*
X44630000Y-36300000D03*
X44630000Y-31250000D03*
D29*
X39500000Y-94010000D03*
X39500000Y-92990000D03*
D44*
X28230000Y-62250000D03*
X27270000Y-62250000D03*
D41*
X38300000Y-94200000D03*
X38300000Y-95160000D03*
D44*
X28230000Y-63250000D03*
X27270000Y-63250000D03*
D27*
X33760000Y-60750000D03*
X32740000Y-60750000D03*
D44*
X35980000Y-61675000D03*
X35020000Y-61675000D03*
D27*
X48995000Y-72700000D03*
X47975000Y-72700000D03*
D50*
X52250000Y-45400000D03*
X52250000Y-47300000D03*
D30*
X46800000Y-54080000D03*
X46800000Y-53120000D03*
D25*
X52250000Y-50700000D03*
X52250000Y-48800000D03*
X27000000Y-41950000D03*
X27000000Y-40050000D03*
D30*
X49590000Y-57660000D03*
X49590000Y-56700000D03*
D51*
X29350000Y-26000000D03*
X31250000Y-26000000D03*
D27*
X57420000Y-80100000D03*
X56400000Y-80100000D03*
D26*
X56300000Y-92000000D03*
X57320000Y-92000000D03*
X36025000Y-72700000D03*
X37045000Y-72700000D03*
X56175000Y-72475000D03*
X57195000Y-72475000D03*
D27*
X56200000Y-58200000D03*
X55180000Y-58200000D03*
D47*
X25750000Y-33990000D03*
X25750000Y-35010000D03*
D27*
X37175000Y-98300000D03*
X36155000Y-98300000D03*
D44*
X35480000Y-59800000D03*
X34520000Y-59800000D03*
D26*
X29480000Y-80700000D03*
X30500000Y-80700000D03*
D27*
X51510000Y-55000000D03*
X50490000Y-55000000D03*
D25*
X31030000Y-47600000D03*
X31030000Y-45700000D03*
D26*
X47615000Y-97500000D03*
X48635000Y-97500000D03*
D52*
X57100000Y-105675000D03*
X53900000Y-105675000D03*
D27*
X57340000Y-60180000D03*
X56320000Y-60180000D03*
D53*
X36000000Y-104400000D03*
X34100000Y-104400000D03*
D41*
X45620000Y-67730000D03*
X45620000Y-68690000D03*
D54*
X55300000Y-98270000D03*
X55300000Y-97300000D03*
D26*
X29490000Y-107900000D03*
X30510000Y-107900000D03*
X43390000Y-113800000D03*
X44410000Y-113800000D03*
D55*
X38000000Y-21000000D03*
D56*
X32698250Y-21000000D03*
D55*
X38000000Y-22700000D03*
D56*
X32698250Y-22700000D03*
D57*
X31060000Y-34150000D03*
X29790000Y-34150000D03*
X28520000Y-34150000D03*
X27250000Y-34150000D03*
X27250000Y-29200000D03*
X28520000Y-29200000D03*
X29790000Y-29200000D03*
X31060000Y-29200000D03*
D27*
X48510000Y-92900000D03*
X47490000Y-92900000D03*
D58*
X29550000Y-62700000D03*
X29550000Y-60500000D03*
X31250000Y-60500000D03*
X31250000Y-62700000D03*
D41*
X42625000Y-66600000D03*
X42625000Y-67560000D03*
M02*
