G04 #@! TF.GenerationSoftware,KiCad,Pcbnew,8.0.4*
G04 #@! TF.CreationDate,2025-03-19T09:33:48+11:00*
G04 #@! TF.ProjectId,nokia,6e6f6b69-612e-46b6-9963-61645f706362,rev?*
G04 #@! TF.SameCoordinates,Original*
G04 #@! TF.FileFunction,Copper,L3,Inr*
G04 #@! TF.FilePolarity,Positive*
%FSLAX46Y46*%
G04 Gerber Fmt 4.6, Leading zero omitted, Abs format (unit mm)*
G04 Created by KiCad (PCBNEW 8.0.4) date 2025-03-19 09:33:48*
%MOMM*%
%LPD*%
G01*
G04 APERTURE LIST*
G04 #@! TA.AperFunction,ComponentPad*
%ADD10C,0.600000*%
G04 #@! TD*
G04 #@! TA.AperFunction,ComponentPad*
%ADD11C,1.500000*%
G04 #@! TD*
G04 #@! TA.AperFunction,ViaPad*
%ADD12C,0.600000*%
G04 #@! TD*
G04 #@! TA.AperFunction,Conductor*
%ADD13C,0.200000*%
G04 #@! TD*
G04 #@! TA.AperFunction,Conductor*
%ADD14C,0.150000*%
G04 #@! TD*
G04 APERTURE END LIST*
D10*
X41363167Y-61333333D03*
X42496500Y-61333333D03*
X43629833Y-61333333D03*
X41363167Y-60200000D03*
X42496500Y-60200000D03*
X43629833Y-60200000D03*
X41363167Y-59066667D03*
X42496500Y-59066667D03*
X43629833Y-59066667D03*
D11*
X23750000Y-43250000D03*
X23750000Y-40500000D03*
D12*
X27500000Y-29750000D03*
X36750000Y-123519998D03*
X34000000Y-38000000D03*
X42625000Y-66575000D03*
X43325000Y-53225000D03*
X49950000Y-58530000D03*
X35450000Y-59800000D03*
X44700000Y-58600000D03*
X43300000Y-58000000D03*
X42600000Y-62500000D03*
X49321714Y-58521470D03*
X40200000Y-59800000D03*
X39630000Y-38200000D03*
X34550000Y-42650000D03*
X55160000Y-71580000D03*
X26200000Y-72310000D03*
X25810000Y-65030000D03*
X53800000Y-95800000D03*
X49550000Y-56060000D03*
X35000000Y-69800000D03*
X50375000Y-63175000D03*
X50200000Y-60525000D03*
X39500000Y-96000000D03*
X43200000Y-52300000D03*
X36370000Y-94500000D03*
X59200000Y-103625000D03*
X34600000Y-108000000D03*
X50300000Y-64000000D03*
X56000000Y-31750000D03*
X60400000Y-65600000D03*
X46000000Y-89250000D03*
X61250000Y-37250000D03*
X51750000Y-21250000D03*
X60400000Y-107260000D03*
X27230000Y-62250000D03*
X46500000Y-101400000D03*
X56600000Y-43200000D03*
X27210000Y-63300000D03*
X48000000Y-45500000D03*
X33600000Y-59800000D03*
X43400000Y-68200000D03*
X35700000Y-40200000D03*
X40250000Y-84750000D03*
X25000000Y-56500000D03*
X33800000Y-118800000D03*
X45620000Y-68690000D03*
X55600000Y-47400000D03*
X34600000Y-118900000D03*
X32575000Y-62725000D03*
X57315000Y-115594000D03*
X33982352Y-62010000D03*
X42500000Y-26361522D03*
X23610000Y-105180000D03*
X32750000Y-86420000D03*
X33000000Y-81750000D03*
X50110000Y-80480000D03*
X47175000Y-80825000D03*
X27180000Y-86970000D03*
X25420000Y-97780000D03*
X23000000Y-34750000D03*
X48870000Y-56120000D03*
X45000000Y-77750000D03*
X39840000Y-69290000D03*
X35300000Y-117100000D03*
X39871500Y-68210000D03*
X51000000Y-123250000D03*
X31750000Y-124250000D03*
X52960000Y-76260000D03*
X42200000Y-52300000D03*
X34275000Y-63325000D03*
X26055000Y-79408326D03*
X22270000Y-68220000D03*
X60500000Y-56250000D03*
X58250000Y-89000000D03*
X48400000Y-55000000D03*
X50960000Y-94830000D03*
X31250000Y-50500000D03*
X46800000Y-53120000D03*
X24250000Y-51750000D03*
X52250000Y-48800000D03*
X60500000Y-43250000D03*
X57250000Y-68500000D03*
X39475000Y-72475000D03*
X22750000Y-89750000D03*
X53750000Y-93000000D03*
X52250000Y-47300000D03*
X40750000Y-39000000D03*
X53750000Y-80250000D03*
X55400000Y-84510000D03*
X38500000Y-117180000D03*
X57800000Y-96000000D03*
X45000000Y-102750000D03*
X45000000Y-111000000D03*
X38430000Y-91460000D03*
X36030000Y-80180000D03*
X35000000Y-64900000D03*
X29500000Y-22000000D03*
X45000000Y-119000000D03*
X38300000Y-95200000D03*
X36650000Y-81850000D03*
X48250000Y-53160000D03*
X38312865Y-52777140D03*
X47500000Y-107500000D03*
X34175000Y-104300000D03*
X32000000Y-109000000D03*
X32500000Y-117000000D03*
X28275000Y-60150000D03*
X55025000Y-60225000D03*
X35960000Y-88200000D03*
X45730000Y-98490000D03*
X31000000Y-93000000D03*
X36750000Y-86050000D03*
X48520000Y-60450000D03*
X36000000Y-104400000D03*
X46370000Y-57600000D03*
X59150000Y-112700000D03*
X46125000Y-97350000D03*
X52375000Y-60200000D03*
X32000000Y-112000000D03*
X46425000Y-54025000D03*
X57530000Y-47290000D03*
X27525000Y-72850000D03*
X39871501Y-67343388D03*
X46500000Y-39200000D03*
X37500000Y-54275000D03*
X49330000Y-64060000D03*
X45450000Y-67175000D03*
X45365000Y-74900000D03*
X52250000Y-50700000D03*
X57900000Y-53500000D03*
X51500000Y-55100000D03*
X49775000Y-118925000D03*
X42125000Y-54150000D03*
X33250000Y-98000000D03*
X61405000Y-92350000D03*
X58000000Y-76250000D03*
X39725000Y-74425000D03*
X26055000Y-80628500D03*
X35975000Y-62500000D03*
X57125000Y-113075000D03*
X58805000Y-118700000D03*
X38000000Y-120500000D03*
X56200000Y-59200000D03*
X39000000Y-120500000D03*
X56200000Y-58200000D03*
X52250000Y-31250000D03*
X30000000Y-57750000D03*
X49750000Y-31250000D03*
X31500000Y-57750000D03*
X58650000Y-62900000D03*
X49325000Y-62100000D03*
X44200000Y-38800000D03*
X45000000Y-48400000D03*
X56270000Y-91975000D03*
X48400000Y-68157274D03*
X59800000Y-47200000D03*
X52250000Y-45400000D03*
X46000000Y-63000000D03*
X47250000Y-36250000D03*
X55398236Y-109978521D03*
X39750000Y-71000000D03*
X42000000Y-102750000D03*
X49750000Y-70750000D03*
X42500000Y-119000000D03*
X38250000Y-107500000D03*
X45675000Y-60125000D03*
X54700000Y-64100000D03*
X44500000Y-36250000D03*
X48500000Y-63500000D03*
X35002443Y-66532446D03*
X29520000Y-107927384D03*
X44624761Y-69600000D03*
X56200000Y-80100000D03*
X55332623Y-116287623D03*
X49945000Y-65750000D03*
X30020000Y-115975000D03*
X35000000Y-65750000D03*
X29770000Y-100225000D03*
X35002854Y-67316925D03*
X43000000Y-69000000D03*
X42520000Y-110975000D03*
X38500000Y-52000000D03*
X38500000Y-39000000D03*
X25750000Y-107750000D03*
X29600000Y-64000000D03*
X48375000Y-69245000D03*
X49500000Y-84500000D03*
X58500000Y-64225000D03*
X46199852Y-62070403D03*
X53450000Y-63000000D03*
X46375000Y-59675000D03*
X46100000Y-61200000D03*
X53175000Y-65575000D03*
X55270000Y-100225000D03*
X47800000Y-67342371D03*
X42250000Y-50250000D03*
X45250000Y-39000000D03*
X46200000Y-63800000D03*
X61025000Y-95000000D03*
X41890000Y-38200000D03*
X42250000Y-49250000D03*
X35002543Y-68887016D03*
X30550000Y-80700000D03*
X35003672Y-68100997D03*
X28520000Y-91975000D03*
X35700000Y-89900000D03*
X41500000Y-89800000D03*
X43497502Y-94471276D03*
X43000000Y-39000000D03*
X42250000Y-48250000D03*
X42520000Y-77750000D03*
X42277065Y-68459576D03*
X54000000Y-105800000D03*
X55400000Y-97200000D03*
X45300000Y-52400000D03*
X47500000Y-93900000D03*
X44400000Y-53100000D03*
X47500000Y-94900000D03*
X47500000Y-92900000D03*
X42000000Y-57200000D03*
X56200000Y-60200000D03*
X58750000Y-38750000D03*
X35100000Y-28080000D03*
X35250000Y-45500000D03*
X28750000Y-29750000D03*
X26000000Y-35000000D03*
X28750000Y-34750000D03*
X30000000Y-34500000D03*
X27420000Y-34150000D03*
X42250000Y-27500000D03*
X29500000Y-52500000D03*
X55300000Y-76000000D03*
X41100000Y-64000000D03*
X32500000Y-74575000D03*
X45500000Y-24500000D03*
X35250000Y-56750000D03*
D13*
X60445000Y-104250000D02*
X60445000Y-70947046D01*
D14*
X25375000Y-107340111D02*
X25195000Y-107520111D01*
X22840000Y-96451579D02*
X22840000Y-89840000D01*
X26339261Y-120626283D02*
X26339261Y-109590840D01*
X23800000Y-63305000D02*
X23800000Y-68333310D01*
X22840000Y-62160000D02*
X25600000Y-59400000D01*
X25375000Y-102375000D02*
X25375000Y-107340111D01*
D13*
X57895000Y-120150000D02*
X57895000Y-106800000D01*
D14*
X23770000Y-68363310D02*
X23770000Y-100770000D01*
D13*
X60445000Y-70947046D02*
X59652954Y-70155000D01*
X41001293Y-120395000D02*
X57650000Y-120395000D01*
D14*
X32050000Y-119000000D02*
X32660000Y-119610000D01*
D13*
X51048977Y-66551023D02*
X49925779Y-66551023D01*
D14*
X25195000Y-107979889D02*
X25520111Y-108305000D01*
D13*
X49925779Y-66551023D02*
X49365000Y-65990244D01*
D14*
X24865000Y-108116579D02*
X24865000Y-104773380D01*
X26462978Y-120750000D02*
X26339261Y-120626283D01*
X24865000Y-104773380D02*
X24750000Y-104658380D01*
D13*
X49365000Y-65990244D02*
X49365000Y-65990000D01*
D14*
X22750000Y-89750000D02*
X22840000Y-89660000D01*
D13*
X57895000Y-106800000D02*
X60445000Y-104250000D01*
D14*
X25530000Y-108305000D02*
X26669261Y-109444261D01*
X24750000Y-104658380D02*
X24750000Y-98361579D01*
X23770000Y-100770000D02*
X25375000Y-102375000D01*
X23395000Y-62900000D02*
X23800000Y-63305000D01*
X25195000Y-107520111D02*
X25195000Y-107979889D01*
X23800000Y-68333310D02*
X23770000Y-68363310D01*
X22840000Y-89840000D02*
X22750000Y-89750000D01*
X32925000Y-121875000D02*
X31800000Y-120750000D01*
D13*
X59652954Y-70155000D02*
X54652954Y-70155000D01*
D14*
X31800000Y-120750000D02*
X26462978Y-120750000D01*
D13*
X54652954Y-70155000D02*
X51048977Y-66551023D01*
D14*
X22840000Y-89660000D02*
X22840000Y-62160000D01*
X25520111Y-108305000D02*
X25530000Y-108305000D01*
X26669261Y-109444261D02*
X26669261Y-119000000D01*
D13*
X57650000Y-120395000D02*
X57895000Y-120150000D01*
D14*
X26669261Y-119000000D02*
X32050000Y-119000000D01*
X24750000Y-98361579D02*
X22840000Y-96451579D01*
X26339261Y-109590840D02*
X24865000Y-108116579D01*
D13*
X56300000Y-55100000D02*
X57900000Y-53500000D01*
D14*
X48520000Y-60450000D02*
X49000000Y-59970000D01*
D13*
X51500000Y-55100000D02*
X56300000Y-55100000D01*
D14*
X52145000Y-59970000D02*
X52375000Y-60200000D01*
X49000000Y-59970000D02*
X52145000Y-59970000D01*
D13*
X58000000Y-45400000D02*
X59800000Y-47200000D01*
X52250000Y-45400000D02*
X58000000Y-45400000D01*
X47380000Y-39130000D02*
X47380000Y-62380000D01*
X47380000Y-62380000D02*
X48500000Y-63500000D01*
X44500000Y-36250000D02*
X47380000Y-39130000D01*
D14*
X26000000Y-99144889D02*
X26000000Y-107500000D01*
X25000000Y-97415111D02*
X24865000Y-97550111D01*
X24570000Y-68030000D02*
X24570000Y-78379889D01*
X24570000Y-78379889D02*
X25000000Y-78809889D01*
X25000000Y-78809889D02*
X25000000Y-97415111D01*
X24865000Y-98009889D02*
X26000000Y-99144889D01*
X26000000Y-107500000D02*
X25750000Y-107750000D01*
X28600000Y-64000000D02*
X24570000Y-68030000D01*
X24865000Y-97550111D02*
X24865000Y-98009889D01*
X29600000Y-64000000D02*
X28600000Y-64000000D01*
X42250000Y-50250000D02*
X45250000Y-47250000D01*
X45250000Y-47250000D02*
X45250000Y-39000000D01*
D13*
X50205356Y-65170000D02*
X47570000Y-65170000D01*
X60825000Y-70789644D02*
X59810356Y-69775000D01*
X59810356Y-69775000D02*
X54810356Y-69775000D01*
X61025000Y-95000000D02*
X60825000Y-94800000D01*
X54810356Y-69775000D02*
X50205356Y-65170000D01*
X60825000Y-94800000D02*
X60825000Y-70789644D01*
X47570000Y-65170000D02*
X46200000Y-63800000D01*
D14*
X43695000Y-47805000D02*
X42250000Y-49250000D01*
X43695000Y-42425000D02*
X43695000Y-47805000D01*
X41890000Y-38200000D02*
X41890000Y-40620000D01*
X41890000Y-40620000D02*
X43695000Y-42425000D01*
X48700000Y-72200000D02*
X44860111Y-72200000D01*
X44860111Y-72200000D02*
X44000000Y-71339889D01*
X48800000Y-72300000D02*
X48700000Y-72200000D01*
X44929889Y-61970111D02*
X44929889Y-59155000D01*
X44929889Y-59155000D02*
X45300000Y-58784889D01*
X45300000Y-58784889D02*
X45300000Y-52400000D01*
X44000000Y-62900000D02*
X44929889Y-61970111D01*
X47500000Y-93900000D02*
X48800000Y-92600000D01*
X48800000Y-92600000D02*
X48800000Y-72300000D01*
X44000000Y-71339889D02*
X44000000Y-62900000D01*
X41722065Y-87122065D02*
X47500000Y-92900000D01*
X41722065Y-62477120D02*
X41722065Y-87122065D01*
X39231371Y-59268629D02*
X39231371Y-59986426D01*
X41300000Y-57200000D02*
X39231371Y-59268629D01*
X42000000Y-57200000D02*
X41300000Y-57200000D01*
X39231371Y-59986426D02*
X41722065Y-62477120D01*
D13*
X28420000Y-35080000D02*
X26080000Y-35080000D01*
X28750000Y-34750000D02*
X28420000Y-35080000D01*
X26080000Y-35080000D02*
X26000000Y-35000000D01*
X29330000Y-52420000D02*
X29330000Y-30920000D01*
X29330000Y-30920000D02*
X32750000Y-27500000D01*
X29250000Y-52500000D02*
X29500000Y-52500000D01*
X32750000Y-27500000D02*
X36250000Y-27500000D01*
X29500000Y-52500000D02*
X29330000Y-52420000D01*
X36250000Y-27500000D02*
X42250000Y-27500000D01*
X45500000Y-24500000D02*
X45500000Y-24250000D01*
X35250000Y-56750000D02*
X36750000Y-55250000D01*
X36750000Y-55250000D02*
X36750000Y-33820244D01*
X36750000Y-33820244D02*
X45500000Y-25070244D01*
X45500000Y-25070244D02*
X45500000Y-24500000D01*
G04 #@! TA.AperFunction,Conductor*
G36*
X32402539Y-19631599D02*
G01*
X32448294Y-19684403D01*
X32459500Y-19735914D01*
X32459500Y-19961586D01*
X32459500Y-20061242D01*
X32497636Y-20153311D01*
X32568103Y-20223778D01*
X32660172Y-20261914D01*
X32660174Y-20261914D01*
X38759826Y-20261914D01*
X38759828Y-20261914D01*
X38851897Y-20223778D01*
X38922364Y-20153311D01*
X38960500Y-20061242D01*
X38960500Y-19735914D01*
X38980185Y-19668875D01*
X39032989Y-19623120D01*
X39084500Y-19611914D01*
X53625500Y-19611914D01*
X53692539Y-19631599D01*
X53738294Y-19684403D01*
X53749500Y-19735914D01*
X53749500Y-22049828D01*
X53787636Y-22141897D01*
X53858103Y-22212364D01*
X53950172Y-22250500D01*
X54049828Y-22250500D01*
X55850172Y-22250500D01*
X57888475Y-22250500D01*
X57955514Y-22270185D01*
X57976155Y-22286817D01*
X58456773Y-22767439D01*
X58490257Y-22828761D01*
X58493091Y-22855121D01*
X58493064Y-24497932D01*
X58489681Y-24521916D01*
X58489056Y-24529345D01*
X58489056Y-24529346D01*
X58491983Y-24555287D01*
X58492281Y-24557922D01*
X58493063Y-24571827D01*
X58493063Y-24600590D01*
X58494515Y-24607895D01*
X58500569Y-24631357D01*
X58550211Y-25071160D01*
X58550681Y-25076277D01*
X58553662Y-25118225D01*
X58554292Y-25120525D01*
X58554511Y-25121665D01*
X58555506Y-25125024D01*
X58555945Y-25126104D01*
X58556669Y-25128374D01*
X58577035Y-25165207D01*
X58579428Y-25169755D01*
X58658052Y-25327005D01*
X58667262Y-25351678D01*
X58669702Y-25361199D01*
X58669703Y-25361203D01*
X58679338Y-25374049D01*
X58691047Y-25392994D01*
X58698228Y-25407355D01*
X58698230Y-25407359D01*
X58704898Y-25413142D01*
X58705651Y-25413795D01*
X58723603Y-25433069D01*
X58821272Y-25563294D01*
X58836630Y-25590233D01*
X58837634Y-25592658D01*
X58837638Y-25592663D01*
X58854048Y-25609073D01*
X58865566Y-25622352D01*
X58879497Y-25640926D01*
X58881746Y-25642258D01*
X58906252Y-25661277D01*
X59013462Y-25768487D01*
X59019457Y-25774922D01*
X59043405Y-25802534D01*
X59050561Y-25808088D01*
X59058099Y-25813124D01*
X59058103Y-25813128D01*
X59091865Y-25827112D01*
X59099847Y-25830754D01*
X59258753Y-25910207D01*
X59277116Y-25921483D01*
X59290905Y-25931700D01*
X59299364Y-25933815D01*
X59324745Y-25943204D01*
X59332541Y-25947102D01*
X59345313Y-25948009D01*
X59349645Y-25948317D01*
X59370936Y-25951707D01*
X59512362Y-25987064D01*
X59529740Y-25992801D01*
X59550169Y-26001263D01*
X59550170Y-26001263D01*
X59550172Y-26001264D01*
X59553895Y-26001264D01*
X59583969Y-26004966D01*
X59587585Y-26005870D01*
X59607594Y-26002892D01*
X59609459Y-26002615D01*
X59627711Y-26001264D01*
X59688157Y-26001264D01*
X59690293Y-26001470D01*
X59701032Y-26001433D01*
X59701034Y-26001434D01*
X59750154Y-26001264D01*
X59750580Y-26001264D01*
X59810622Y-26001264D01*
X59812745Y-26001049D01*
X59950091Y-26000576D01*
X59950490Y-26000576D01*
X61288951Y-26001113D01*
X61355982Y-26020824D01*
X61401716Y-26073647D01*
X61412901Y-26125113D01*
X61412901Y-29408409D01*
X61412538Y-29417892D01*
X61409824Y-29453276D01*
X61410994Y-29462998D01*
X61412901Y-29472585D01*
X61426483Y-29505375D01*
X61429776Y-29514274D01*
X62526540Y-32867134D01*
X62531029Y-32885491D01*
X62534483Y-32906416D01*
X62534483Y-32906417D01*
X62536939Y-32910367D01*
X62549486Y-32937281D01*
X62550932Y-32941701D01*
X62564734Y-32957796D01*
X62575905Y-32973035D01*
X62766908Y-33280222D01*
X62785604Y-33345698D01*
X62785604Y-63349829D01*
X62805589Y-63398077D01*
X62823740Y-63441897D01*
X62894207Y-63512364D01*
X62986276Y-63550500D01*
X63161604Y-63550500D01*
X63228643Y-63570185D01*
X63274398Y-63622989D01*
X63285604Y-63674500D01*
X63285604Y-69925500D01*
X63265919Y-69992539D01*
X63213115Y-70038294D01*
X63161604Y-70049500D01*
X62986274Y-70049500D01*
X62894206Y-70087636D01*
X62823740Y-70158102D01*
X62785604Y-70250170D01*
X62785604Y-101575500D01*
X62765919Y-101642539D01*
X62713115Y-101688294D01*
X62661604Y-101699500D01*
X61350170Y-101699500D01*
X61258102Y-101737636D01*
X61187636Y-101808102D01*
X61149500Y-101900170D01*
X61149500Y-103648794D01*
X61149498Y-103649565D01*
X61149194Y-103698297D01*
X61149275Y-103698701D01*
X61149417Y-103699425D01*
X61149490Y-103699804D01*
X61168119Y-103744781D01*
X61168411Y-103745491D01*
X61186767Y-103790597D01*
X61186966Y-103790895D01*
X61187393Y-103791538D01*
X61187619Y-103791880D01*
X61221983Y-103826244D01*
X61222415Y-103826678D01*
X61256784Y-103861477D01*
X61256799Y-103861492D01*
X61257139Y-103861719D01*
X61257753Y-103862132D01*
X61258086Y-103862357D01*
X61258103Y-103862364D01*
X61303138Y-103881017D01*
X61303606Y-103881213D01*
X61348614Y-103900185D01*
X61348615Y-103900185D01*
X61348637Y-103900194D01*
X61349082Y-103900283D01*
X61349858Y-103900440D01*
X61350150Y-103900500D01*
X61350172Y-103900500D01*
X61398776Y-103900500D01*
X61399548Y-103900502D01*
X61404917Y-103900535D01*
X62276845Y-103905961D01*
X62343759Y-103926063D01*
X62389185Y-103979150D01*
X62398698Y-104048369D01*
X62394836Y-104065613D01*
X61003682Y-108699513D01*
X60997808Y-108715160D01*
X60971721Y-108772566D01*
X60926065Y-108825455D01*
X60859063Y-108845265D01*
X58944849Y-108845265D01*
X58942311Y-108845239D01*
X58896099Y-108844292D01*
X58894987Y-108844514D01*
X58892503Y-108844981D01*
X58891442Y-108845169D01*
X58848726Y-108862863D01*
X58846372Y-108863810D01*
X58803287Y-108880631D01*
X58802373Y-108881243D01*
X58800219Y-108882650D01*
X58799320Y-108883224D01*
X58766579Y-108915963D01*
X58764771Y-108917735D01*
X58731443Y-108949726D01*
X58730821Y-108950658D01*
X58729387Y-108952757D01*
X58728772Y-108953637D01*
X58711065Y-108996384D01*
X58710072Y-108998715D01*
X58691509Y-109041057D01*
X58691294Y-109042142D01*
X58690771Y-109044638D01*
X58690541Y-109045682D01*
X58690541Y-109091947D01*
X58690515Y-109094486D01*
X58650802Y-111033782D01*
X58649581Y-111044933D01*
X58649505Y-111096050D01*
X58649479Y-111098402D01*
X58648527Y-111144905D01*
X58648726Y-111145912D01*
X58649160Y-111148229D01*
X58649341Y-111149249D01*
X58649427Y-111149457D01*
X58649427Y-111149458D01*
X58658810Y-111172207D01*
X58667045Y-111192170D01*
X58667921Y-111194353D01*
X58684854Y-111237723D01*
X58685410Y-111238557D01*
X58686708Y-111240545D01*
X58687269Y-111241423D01*
X58687425Y-111241580D01*
X58687427Y-111241583D01*
X58720129Y-111274383D01*
X58721716Y-111276005D01*
X58753785Y-111309414D01*
X58753940Y-111309575D01*
X58754826Y-111310169D01*
X58756758Y-111311490D01*
X58757589Y-111312070D01*
X58757787Y-111312152D01*
X58757789Y-111312154D01*
X58800607Y-111329963D01*
X58802661Y-111330841D01*
X58827828Y-111341875D01*
X58845248Y-111349512D01*
X58846288Y-111349721D01*
X58848582Y-111350204D01*
X58849588Y-111350425D01*
X58849800Y-111350425D01*
X58849802Y-111350426D01*
X58896097Y-111350494D01*
X58898397Y-111350519D01*
X58944689Y-111351468D01*
X58944691Y-111351467D01*
X58949565Y-111351567D01*
X58960747Y-111350589D01*
X60376280Y-111352680D01*
X60443289Y-111372464D01*
X60488966Y-111425335D01*
X60498808Y-111494508D01*
X60498448Y-111496828D01*
X60440015Y-111851681D01*
X60439431Y-111854955D01*
X59857569Y-114879968D01*
X59852585Y-114898229D01*
X59851519Y-114901214D01*
X59845428Y-114942469D01*
X59844526Y-114947776D01*
X59836653Y-114988710D01*
X59836673Y-114991882D01*
X59835346Y-115010765D01*
X59352038Y-118284759D01*
X59322774Y-118348205D01*
X59263854Y-118385758D01*
X59193985Y-118385495D01*
X59135654Y-118347851D01*
X59122896Y-118333128D01*
X59122891Y-118333124D01*
X59006661Y-118258427D01*
X59006656Y-118258425D01*
X58874087Y-118219500D01*
X58874085Y-118219500D01*
X58735915Y-118219500D01*
X58735912Y-118219500D01*
X58603343Y-118258425D01*
X58603338Y-118258427D01*
X58487108Y-118333124D01*
X58487106Y-118333126D01*
X58487104Y-118333127D01*
X58487104Y-118333128D01*
X58474040Y-118348205D01*
X58396621Y-118437551D01*
X58396620Y-118437552D01*
X58339222Y-118563234D01*
X58319559Y-118700000D01*
X58339222Y-118836765D01*
X58396620Y-118962447D01*
X58396621Y-118962449D01*
X58487104Y-119066872D01*
X58487106Y-119066873D01*
X58487108Y-119066875D01*
X58603338Y-119141572D01*
X58603343Y-119141574D01*
X58735912Y-119180499D01*
X58735914Y-119180500D01*
X58735915Y-119180500D01*
X58874086Y-119180500D01*
X58874086Y-119180499D01*
X59006656Y-119141574D01*
X59006657Y-119141574D01*
X59006661Y-119141572D01*
X59018936Y-119133682D01*
X59085975Y-119113998D01*
X59153015Y-119133682D01*
X59198770Y-119186486D01*
X59208714Y-119255644D01*
X59208647Y-119256107D01*
X58883087Y-121461488D01*
X58853823Y-121524934D01*
X58794903Y-121562487D01*
X58749699Y-121566915D01*
X56431327Y-121365793D01*
X56400779Y-121358952D01*
X56399587Y-121358762D01*
X56373231Y-121359780D01*
X56357737Y-121359408D01*
X56331474Y-121357130D01*
X56330267Y-121357263D01*
X56299435Y-121362632D01*
X55350822Y-121399280D01*
X55343861Y-121399353D01*
X55306286Y-121398693D01*
X55304578Y-121398664D01*
X55304577Y-121398664D01*
X55304576Y-121398664D01*
X55297505Y-121399941D01*
X55290538Y-121401609D01*
X55254810Y-121418051D01*
X55248409Y-121420782D01*
X55211850Y-121435179D01*
X55205813Y-121439060D01*
X55200009Y-121443272D01*
X55173294Y-121472133D01*
X55168426Y-121477104D01*
X55140161Y-121504394D01*
X55136049Y-121510319D01*
X55132317Y-121516402D01*
X55118684Y-121553284D01*
X55116087Y-121559744D01*
X55100414Y-121595780D01*
X55098888Y-121602804D01*
X55097762Y-121609881D01*
X55099280Y-121649176D01*
X55099353Y-121656137D01*
X55066403Y-123532430D01*
X55066012Y-123535879D01*
X55065310Y-123594484D01*
X55065300Y-123595172D01*
X55064444Y-123643965D01*
X55064506Y-123644296D01*
X55064651Y-123645082D01*
X55064695Y-123645327D01*
X55082847Y-123690680D01*
X55083101Y-123691321D01*
X55100965Y-123736685D01*
X55101223Y-123737081D01*
X55101593Y-123737653D01*
X55101721Y-123737852D01*
X55135740Y-123772694D01*
X55136223Y-123773192D01*
X55170190Y-123808373D01*
X55170469Y-123808564D01*
X55171066Y-123808975D01*
X55171337Y-123809163D01*
X55171354Y-123809170D01*
X55171355Y-123809171D01*
X55216494Y-123828503D01*
X55261562Y-123848105D01*
X55261576Y-123848111D01*
X55262005Y-123848202D01*
X55262573Y-123848324D01*
X55262946Y-123848404D01*
X55262959Y-123848404D01*
X55262961Y-123848405D01*
X55311777Y-123848988D01*
X55312346Y-123848996D01*
X55361203Y-123849855D01*
X55361204Y-123849854D01*
X55371078Y-123850028D01*
X55374528Y-123849738D01*
X55986452Y-123857056D01*
X56053249Y-123877541D01*
X56098369Y-123930888D01*
X56108967Y-123981047D01*
X56108967Y-126987030D01*
X56089282Y-127054069D01*
X56036478Y-127099824D01*
X55984967Y-127111030D01*
X46233500Y-127111030D01*
X46166461Y-127091345D01*
X46120706Y-127038541D01*
X46109500Y-126987030D01*
X46109500Y-122911173D01*
X46109499Y-122911170D01*
X46071364Y-122819103D01*
X46000897Y-122748636D01*
X45908829Y-122710500D01*
X45908828Y-122710500D01*
X43508828Y-122710500D01*
X43409172Y-122710500D01*
X43409170Y-122710500D01*
X43317102Y-122748636D01*
X43246636Y-122819102D01*
X43208500Y-122911170D01*
X43208500Y-126987030D01*
X43188815Y-127054069D01*
X43136011Y-127099824D01*
X43084500Y-127111030D01*
X29033852Y-127111030D01*
X28966813Y-127091345D01*
X28921058Y-127038541D01*
X28909852Y-126987030D01*
X28909852Y-123981045D01*
X28929537Y-123914006D01*
X28982341Y-123868251D01*
X29032367Y-123857054D01*
X29703426Y-123849024D01*
X29704681Y-123849016D01*
X29752568Y-123848957D01*
X29752570Y-123848956D01*
X29752629Y-123848956D01*
X29753302Y-123848815D01*
X29754557Y-123848557D01*
X29755191Y-123848429D01*
X29755246Y-123848405D01*
X29755250Y-123848405D01*
X29799245Y-123829560D01*
X29800393Y-123829077D01*
X29844590Y-123810707D01*
X29844590Y-123810706D01*
X29844642Y-123810685D01*
X29845129Y-123810352D01*
X29846159Y-123809655D01*
X29846807Y-123809220D01*
X29847448Y-123808564D01*
X29880194Y-123775024D01*
X29881130Y-123774075D01*
X29884658Y-123770537D01*
X29914969Y-123740152D01*
X29914969Y-123740150D01*
X29915014Y-123740106D01*
X29915370Y-123739561D01*
X29916089Y-123738469D01*
X29916450Y-123737926D01*
X29916474Y-123737866D01*
X29916475Y-123737865D01*
X29934268Y-123693408D01*
X29934731Y-123692271D01*
X29949387Y-123656763D01*
X29952990Y-123648035D01*
X29952989Y-123648033D01*
X29953015Y-123647973D01*
X29953149Y-123647259D01*
X29953396Y-123645975D01*
X29953508Y-123645407D01*
X29953114Y-123612531D01*
X29952933Y-123597478D01*
X29952925Y-123596186D01*
X29952924Y-123595172D01*
X29952830Y-123519998D01*
X36264559Y-123519998D01*
X36284222Y-123656763D01*
X36338001Y-123774521D01*
X36341621Y-123782447D01*
X36432104Y-123886870D01*
X36432106Y-123886871D01*
X36432108Y-123886873D01*
X36548338Y-123961570D01*
X36548343Y-123961572D01*
X36680912Y-124000497D01*
X36680914Y-124000498D01*
X36680915Y-124000498D01*
X36819086Y-124000498D01*
X36819086Y-124000497D01*
X36951659Y-123961571D01*
X37067896Y-123886870D01*
X37158379Y-123782447D01*
X37215777Y-123656763D01*
X37235441Y-123519998D01*
X37215777Y-123383233D01*
X37214367Y-123380146D01*
X37158379Y-123257550D01*
X37158379Y-123257549D01*
X37067896Y-123153126D01*
X37067893Y-123153124D01*
X37067891Y-123153122D01*
X36951661Y-123078425D01*
X36951656Y-123078423D01*
X36819087Y-123039498D01*
X36819085Y-123039498D01*
X36680915Y-123039498D01*
X36680912Y-123039498D01*
X36548343Y-123078423D01*
X36548338Y-123078425D01*
X36432108Y-123153122D01*
X36432106Y-123153124D01*
X36341621Y-123257549D01*
X36341620Y-123257550D01*
X36284222Y-123383232D01*
X36264559Y-123519998D01*
X29952830Y-123519998D01*
X29950508Y-121656893D01*
X29950594Y-121652198D01*
X29952191Y-121609588D01*
X29952189Y-121609584D01*
X29951987Y-121608318D01*
X29951891Y-121607122D01*
X29951882Y-121607076D01*
X29951029Y-121602339D01*
X29951020Y-121602286D01*
X29950687Y-121601112D01*
X29950438Y-121599870D01*
X29950438Y-121599860D01*
X29934083Y-121560515D01*
X29932345Y-121556093D01*
X29917531Y-121516157D01*
X29916853Y-121515055D01*
X29916307Y-121513987D01*
X29916284Y-121513953D01*
X29913685Y-121509907D01*
X29913656Y-121509860D01*
X29912902Y-121508907D01*
X29912189Y-121507843D01*
X29912187Y-121507838D01*
X29882038Y-121477764D01*
X29878743Y-121474349D01*
X29849751Y-121443099D01*
X29849750Y-121443098D01*
X29849746Y-121443094D01*
X29848696Y-121442334D01*
X29847783Y-121441556D01*
X29847746Y-121441532D01*
X29843821Y-121438806D01*
X29843773Y-121438771D01*
X29842719Y-121438183D01*
X29841632Y-121437459D01*
X29802255Y-121421205D01*
X29797879Y-121419299D01*
X29771809Y-121407338D01*
X29759169Y-121401539D01*
X29757892Y-121401235D01*
X29756754Y-121400867D01*
X29756716Y-121400860D01*
X29752047Y-121399843D01*
X29752006Y-121399833D01*
X29750808Y-121399693D01*
X29749516Y-121399437D01*
X29706922Y-121399490D01*
X29702126Y-121399403D01*
X28718995Y-121362559D01*
X28687911Y-121357192D01*
X28686909Y-121357083D01*
X28660743Y-121359397D01*
X28645185Y-121359792D01*
X28618940Y-121358809D01*
X28617956Y-121358967D01*
X28587178Y-121365906D01*
X26268576Y-121571007D01*
X26200063Y-121557306D01*
X26149833Y-121508739D01*
X26134976Y-121465573D01*
X26125285Y-121399833D01*
X25992639Y-120500000D01*
X37514559Y-120500000D01*
X37534222Y-120636765D01*
X37591620Y-120762447D01*
X37591621Y-120762449D01*
X37682104Y-120866872D01*
X37682106Y-120866873D01*
X37682108Y-120866875D01*
X37798338Y-120941572D01*
X37798343Y-120941574D01*
X37930912Y-120980499D01*
X37930914Y-120980500D01*
X37930915Y-120980500D01*
X38069086Y-120980500D01*
X38069086Y-120980499D01*
X38201659Y-120941573D01*
X38317896Y-120866872D01*
X38406287Y-120764862D01*
X38465065Y-120727089D01*
X38534935Y-120727089D01*
X38593712Y-120764862D01*
X38682104Y-120866872D01*
X38682106Y-120866873D01*
X38682108Y-120866875D01*
X38798338Y-120941572D01*
X38798343Y-120941574D01*
X38930912Y-120980499D01*
X38930914Y-120980500D01*
X38930915Y-120980500D01*
X39069086Y-120980500D01*
X39069086Y-120980499D01*
X39201659Y-120941573D01*
X39317896Y-120866872D01*
X39408379Y-120762449D01*
X39465777Y-120636765D01*
X39485441Y-120500000D01*
X39465777Y-120363235D01*
X39408379Y-120237551D01*
X39317896Y-120133128D01*
X39317893Y-120133126D01*
X39317891Y-120133124D01*
X39201661Y-120058427D01*
X39201656Y-120058425D01*
X39069087Y-120019500D01*
X39069085Y-120019500D01*
X38930915Y-120019500D01*
X38930912Y-120019500D01*
X38798343Y-120058425D01*
X38798338Y-120058427D01*
X38682108Y-120133124D01*
X38682101Y-120133130D01*
X38593712Y-120235136D01*
X38534934Y-120272910D01*
X38465064Y-120272910D01*
X38406288Y-120235136D01*
X38317898Y-120133130D01*
X38317891Y-120133124D01*
X38201661Y-120058427D01*
X38201656Y-120058425D01*
X38069087Y-120019500D01*
X38069085Y-120019500D01*
X37930915Y-120019500D01*
X37930912Y-120019500D01*
X37798343Y-120058425D01*
X37798338Y-120058427D01*
X37682108Y-120133124D01*
X37682106Y-120133126D01*
X37682104Y-120133127D01*
X37682104Y-120133128D01*
X37593714Y-120235136D01*
X37591621Y-120237551D01*
X37591620Y-120237552D01*
X37534222Y-120363234D01*
X37514559Y-120500000D01*
X25992639Y-120500000D01*
X25771520Y-119000000D01*
X42014559Y-119000000D01*
X42034222Y-119136765D01*
X42088513Y-119255644D01*
X42091621Y-119262449D01*
X42182104Y-119366872D01*
X42182106Y-119366873D01*
X42182108Y-119366875D01*
X42298338Y-119441572D01*
X42298343Y-119441574D01*
X42430912Y-119480499D01*
X42430914Y-119480500D01*
X42430915Y-119480500D01*
X42569086Y-119480500D01*
X42569086Y-119480499D01*
X42701659Y-119441573D01*
X42817896Y-119366872D01*
X42908379Y-119262449D01*
X42965777Y-119136765D01*
X42985441Y-119000000D01*
X42974658Y-118925000D01*
X49289559Y-118925000D01*
X49309222Y-119061765D01*
X49363447Y-119180499D01*
X49366621Y-119187449D01*
X49457104Y-119291872D01*
X49457106Y-119291873D01*
X49457108Y-119291875D01*
X49573338Y-119366572D01*
X49573343Y-119366574D01*
X49705912Y-119405499D01*
X49705914Y-119405500D01*
X49705915Y-119405500D01*
X49844086Y-119405500D01*
X49844086Y-119405499D01*
X49946964Y-119375292D01*
X49976656Y-119366574D01*
X49976657Y-119366573D01*
X49976659Y-119366573D01*
X50092896Y-119291872D01*
X50183379Y-119187449D01*
X50240777Y-119061765D01*
X50260441Y-118925000D01*
X50240777Y-118788235D01*
X50236083Y-118777957D01*
X50183379Y-118662552D01*
X50183379Y-118662551D01*
X50092896Y-118558128D01*
X50092893Y-118558126D01*
X50092891Y-118558124D01*
X49976661Y-118483427D01*
X49976656Y-118483425D01*
X49844087Y-118444500D01*
X49844085Y-118444500D01*
X49705915Y-118444500D01*
X49705912Y-118444500D01*
X49573343Y-118483425D01*
X49573338Y-118483427D01*
X49457108Y-118558124D01*
X49457106Y-118558126D01*
X49366621Y-118662551D01*
X49366620Y-118662552D01*
X49309222Y-118788234D01*
X49289559Y-118925000D01*
X42974658Y-118925000D01*
X42965777Y-118863235D01*
X42908379Y-118737551D01*
X42817896Y-118633128D01*
X42817893Y-118633126D01*
X42817891Y-118633124D01*
X42701661Y-118558427D01*
X42701656Y-118558425D01*
X42569087Y-118519500D01*
X42569085Y-118519500D01*
X42430915Y-118519500D01*
X42430912Y-118519500D01*
X42298343Y-118558425D01*
X42298338Y-118558427D01*
X42182108Y-118633124D01*
X42182106Y-118633126D01*
X42091621Y-118737551D01*
X42091620Y-118737552D01*
X42034222Y-118863234D01*
X42014559Y-119000000D01*
X25771520Y-119000000D01*
X25325598Y-115975000D01*
X29534559Y-115975000D01*
X29554222Y-116111765D01*
X29611620Y-116237447D01*
X29611621Y-116237449D01*
X29702104Y-116341872D01*
X29702106Y-116341873D01*
X29702108Y-116341875D01*
X29818338Y-116416572D01*
X29818343Y-116416574D01*
X29950912Y-116455499D01*
X29950914Y-116455500D01*
X29950915Y-116455500D01*
X30089086Y-116455500D01*
X30089086Y-116455499D01*
X30221659Y-116416573D01*
X30337896Y-116341872D01*
X30384903Y-116287623D01*
X54847182Y-116287623D01*
X54866845Y-116424388D01*
X54881054Y-116455500D01*
X54924244Y-116550072D01*
X55014727Y-116654495D01*
X55014729Y-116654496D01*
X55014731Y-116654498D01*
X55130961Y-116729195D01*
X55130966Y-116729197D01*
X55263535Y-116768122D01*
X55263537Y-116768123D01*
X55263538Y-116768123D01*
X55401709Y-116768123D01*
X55401709Y-116768122D01*
X55534282Y-116729196D01*
X55650519Y-116654495D01*
X55741002Y-116550072D01*
X55798400Y-116424388D01*
X55818064Y-116287623D01*
X55798400Y-116150858D01*
X55741002Y-116025174D01*
X55650519Y-115920751D01*
X55650516Y-115920749D01*
X55650514Y-115920747D01*
X55534284Y-115846050D01*
X55534279Y-115846048D01*
X55401710Y-115807123D01*
X55401708Y-115807123D01*
X55263538Y-115807123D01*
X55263535Y-115807123D01*
X55130966Y-115846048D01*
X55130961Y-115846050D01*
X55014731Y-115920747D01*
X55014729Y-115920749D01*
X54924244Y-116025174D01*
X54924243Y-116025175D01*
X54866845Y-116150857D01*
X54847182Y-116287623D01*
X30384903Y-116287623D01*
X30428379Y-116237449D01*
X30485777Y-116111765D01*
X30505441Y-115975000D01*
X30485777Y-115838235D01*
X30428379Y-115712551D01*
X30337896Y-115608128D01*
X30337893Y-115608126D01*
X30337891Y-115608124D01*
X30221661Y-115533427D01*
X30221656Y-115533425D01*
X30089087Y-115494500D01*
X30089085Y-115494500D01*
X29950915Y-115494500D01*
X29950912Y-115494500D01*
X29818343Y-115533425D01*
X29818338Y-115533427D01*
X29702108Y-115608124D01*
X29702106Y-115608126D01*
X29611621Y-115712551D01*
X29611620Y-115712552D01*
X29554222Y-115838234D01*
X29534559Y-115975000D01*
X25325598Y-115975000D01*
X25182798Y-115006288D01*
X25182852Y-114988011D01*
X25182460Y-114988029D01*
X25181921Y-114975828D01*
X25181920Y-114975826D01*
X25181921Y-114975825D01*
X25174249Y-114944546D01*
X25172010Y-114933110D01*
X25167317Y-114901268D01*
X25163213Y-114889765D01*
X25163582Y-114889633D01*
X25156636Y-114872723D01*
X25120531Y-114725500D01*
X24623845Y-112700170D01*
X33549500Y-112700170D01*
X33549500Y-114499829D01*
X33587636Y-114591897D01*
X33658103Y-114662364D01*
X33750172Y-114700500D01*
X33750174Y-114700500D01*
X35749826Y-114700500D01*
X35749828Y-114700500D01*
X35841897Y-114662364D01*
X35912364Y-114591897D01*
X35950500Y-114499828D01*
X35950500Y-112725170D01*
X49049500Y-112725170D01*
X49049500Y-112725172D01*
X49049500Y-114524828D01*
X49087636Y-114616897D01*
X49158103Y-114687364D01*
X49250172Y-114725500D01*
X49250174Y-114725500D01*
X51249826Y-114725500D01*
X51249828Y-114725500D01*
X51341897Y-114687364D01*
X51412364Y-114616897D01*
X51450500Y-114524828D01*
X51450500Y-113075000D01*
X56639559Y-113075000D01*
X56659222Y-113211765D01*
X56716620Y-113337447D01*
X56716621Y-113337449D01*
X56807104Y-113441872D01*
X56807106Y-113441873D01*
X56807108Y-113441875D01*
X56923338Y-113516572D01*
X56923343Y-113516574D01*
X57055912Y-113555499D01*
X57055914Y-113555500D01*
X57055915Y-113555500D01*
X57194086Y-113555500D01*
X57194086Y-113555499D01*
X57326659Y-113516573D01*
X57442896Y-113441872D01*
X57533379Y-113337449D01*
X57590777Y-113211765D01*
X57610441Y-113075000D01*
X57590777Y-112938235D01*
X57533379Y-112812551D01*
X57442896Y-112708128D01*
X57442893Y-112708126D01*
X57442891Y-112708124D01*
X57430250Y-112700000D01*
X58664559Y-112700000D01*
X58684222Y-112836765D01*
X58730562Y-112938234D01*
X58741621Y-112962449D01*
X58832104Y-113066872D01*
X58832106Y-113066873D01*
X58832108Y-113066875D01*
X58948338Y-113141572D01*
X58948343Y-113141574D01*
X59080912Y-113180499D01*
X59080914Y-113180500D01*
X59080915Y-113180500D01*
X59219086Y-113180500D01*
X59219086Y-113180499D01*
X59351659Y-113141573D01*
X59467896Y-113066872D01*
X59558379Y-112962449D01*
X59615777Y-112836765D01*
X59635441Y-112700000D01*
X59615777Y-112563235D01*
X59615503Y-112562636D01*
X59560216Y-112441574D01*
X59558379Y-112437551D01*
X59467896Y-112333128D01*
X59467893Y-112333126D01*
X59467891Y-112333124D01*
X59351661Y-112258427D01*
X59351656Y-112258425D01*
X59219087Y-112219500D01*
X59219085Y-112219500D01*
X59080915Y-112219500D01*
X59080912Y-112219500D01*
X58948343Y-112258425D01*
X58948338Y-112258427D01*
X58832108Y-112333124D01*
X58832106Y-112333126D01*
X58741621Y-112437551D01*
X58741620Y-112437552D01*
X58684222Y-112563234D01*
X58664559Y-112700000D01*
X57430250Y-112700000D01*
X57326661Y-112633427D01*
X57326656Y-112633425D01*
X57194087Y-112594500D01*
X57194085Y-112594500D01*
X57055915Y-112594500D01*
X57055912Y-112594500D01*
X56923343Y-112633425D01*
X56923338Y-112633427D01*
X56807108Y-112708124D01*
X56807106Y-112708126D01*
X56807104Y-112708127D01*
X56807104Y-112708128D01*
X56716621Y-112812551D01*
X56716620Y-112812552D01*
X56659222Y-112938234D01*
X56639559Y-113075000D01*
X51450500Y-113075000D01*
X51450500Y-112725172D01*
X51412364Y-112633103D01*
X51341897Y-112562636D01*
X51249829Y-112524500D01*
X51249828Y-112524500D01*
X49349828Y-112524500D01*
X49250172Y-112524500D01*
X49250170Y-112524500D01*
X49158102Y-112562636D01*
X49087636Y-112633102D01*
X49049500Y-112725170D01*
X35950500Y-112725170D01*
X35950500Y-112700172D01*
X35912364Y-112608103D01*
X35841897Y-112537636D01*
X35810184Y-112524500D01*
X35749829Y-112499500D01*
X35749828Y-112499500D01*
X33849828Y-112499500D01*
X33750172Y-112499500D01*
X33750170Y-112499500D01*
X33658102Y-112537636D01*
X33587636Y-112608102D01*
X33549500Y-112700170D01*
X24623845Y-112700170D01*
X24452138Y-112000000D01*
X31514559Y-112000000D01*
X31534222Y-112136765D01*
X31589783Y-112258425D01*
X31591621Y-112262449D01*
X31682104Y-112366872D01*
X31682106Y-112366873D01*
X31682108Y-112366875D01*
X31798338Y-112441572D01*
X31798343Y-112441574D01*
X31930912Y-112480499D01*
X31930914Y-112480500D01*
X31930915Y-112480500D01*
X32069086Y-112480500D01*
X32069086Y-112480499D01*
X32201659Y-112441573D01*
X32207918Y-112437551D01*
X32317891Y-112366875D01*
X32317890Y-112366875D01*
X32317896Y-112366872D01*
X32408379Y-112262449D01*
X32465777Y-112136765D01*
X32485441Y-112000000D01*
X32465777Y-111863235D01*
X32460500Y-111851681D01*
X32408379Y-111737552D01*
X32408379Y-111737551D01*
X32317896Y-111633128D01*
X32317893Y-111633126D01*
X32317891Y-111633124D01*
X32201661Y-111558427D01*
X32201656Y-111558425D01*
X32069087Y-111519500D01*
X32069085Y-111519500D01*
X31930915Y-111519500D01*
X31930912Y-111519500D01*
X31798343Y-111558425D01*
X31798338Y-111558427D01*
X31682108Y-111633124D01*
X31682106Y-111633126D01*
X31591621Y-111737551D01*
X31591620Y-111737552D01*
X31534222Y-111863234D01*
X31514559Y-112000000D01*
X24452138Y-112000000D01*
X24200770Y-110975000D01*
X42034559Y-110975000D01*
X42054222Y-111111765D01*
X42111620Y-111237447D01*
X42111621Y-111237449D01*
X42202104Y-111341872D01*
X42202106Y-111341873D01*
X42202108Y-111341875D01*
X42318338Y-111416572D01*
X42318343Y-111416574D01*
X42450912Y-111455499D01*
X42450914Y-111455500D01*
X42450915Y-111455500D01*
X42589086Y-111455500D01*
X42589086Y-111455499D01*
X42721659Y-111416573D01*
X42837896Y-111341872D01*
X42928379Y-111237449D01*
X42985777Y-111111765D01*
X43005441Y-110975000D01*
X42988248Y-110855426D01*
X42985777Y-110838234D01*
X42928379Y-110712552D01*
X42928379Y-110712551D01*
X42837896Y-110608128D01*
X42837893Y-110608126D01*
X42837891Y-110608124D01*
X42721661Y-110533427D01*
X42721656Y-110533425D01*
X42589087Y-110494500D01*
X42589085Y-110494500D01*
X42450915Y-110494500D01*
X42450912Y-110494500D01*
X42318343Y-110533425D01*
X42318338Y-110533427D01*
X42202108Y-110608124D01*
X42202106Y-110608126D01*
X42111621Y-110712551D01*
X42111620Y-110712552D01*
X42054222Y-110838234D01*
X42034559Y-110975000D01*
X24200770Y-110975000D01*
X23956396Y-109978521D01*
X54912795Y-109978521D01*
X54932458Y-110115286D01*
X54989856Y-110240968D01*
X54989857Y-110240970D01*
X55080340Y-110345393D01*
X55080342Y-110345394D01*
X55080344Y-110345396D01*
X55196574Y-110420093D01*
X55196579Y-110420095D01*
X55329148Y-110459020D01*
X55329150Y-110459021D01*
X55329151Y-110459021D01*
X55467322Y-110459021D01*
X55467322Y-110459020D01*
X55599895Y-110420094D01*
X55716132Y-110345393D01*
X55806615Y-110240970D01*
X55864013Y-110115286D01*
X55883677Y-109978521D01*
X55864013Y-109841756D01*
X55806615Y-109716072D01*
X55716132Y-109611649D01*
X55716129Y-109611647D01*
X55716127Y-109611645D01*
X55599897Y-109536948D01*
X55599892Y-109536946D01*
X55467323Y-109498021D01*
X55467321Y-109498021D01*
X55329151Y-109498021D01*
X55329148Y-109498021D01*
X55196579Y-109536946D01*
X55196574Y-109536948D01*
X55080344Y-109611645D01*
X55080342Y-109611647D01*
X54989857Y-109716072D01*
X54989856Y-109716073D01*
X54932458Y-109841755D01*
X54912795Y-109978521D01*
X23956396Y-109978521D01*
X22501695Y-104046703D01*
X22504845Y-103976906D01*
X22545232Y-103919891D01*
X22610032Y-103893761D01*
X22622993Y-103893173D01*
X23586589Y-103900053D01*
X23590968Y-103900500D01*
X23600172Y-103900500D01*
X23648687Y-103900500D01*
X23649572Y-103900503D01*
X23698038Y-103900849D01*
X23698038Y-103900848D01*
X23698070Y-103900849D01*
X23698574Y-103900749D01*
X23699453Y-103900578D01*
X23699801Y-103900511D01*
X23699828Y-103900500D01*
X23744726Y-103881902D01*
X23745282Y-103881673D01*
X23790377Y-103863372D01*
X23790378Y-103863370D01*
X23790404Y-103863360D01*
X23790824Y-103863080D01*
X23791482Y-103862643D01*
X23791882Y-103862379D01*
X23826252Y-103828008D01*
X23826755Y-103827507D01*
X23861345Y-103793409D01*
X23861345Y-103793406D01*
X23861363Y-103793390D01*
X23861677Y-103792922D01*
X23862126Y-103792255D01*
X23862355Y-103791916D01*
X23862362Y-103791898D01*
X23862364Y-103791897D01*
X23881131Y-103746586D01*
X23900137Y-103701615D01*
X23900137Y-103701611D01*
X23900148Y-103701586D01*
X23900270Y-103700976D01*
X23900432Y-103700178D01*
X23900500Y-103699848D01*
X23900500Y-103651273D01*
X23900503Y-103650388D01*
X23900789Y-103610312D01*
X23900849Y-103601962D01*
X23900848Y-103601960D01*
X23900914Y-103592746D01*
X23900500Y-103588375D01*
X23900500Y-101900173D01*
X23900499Y-101900170D01*
X23862364Y-101808103D01*
X23791897Y-101737636D01*
X23699829Y-101699500D01*
X23699828Y-101699500D01*
X22312602Y-101699500D01*
X22245563Y-101679815D01*
X22199808Y-101627011D01*
X22188602Y-101575500D01*
X22188602Y-70250173D01*
X22188601Y-70250170D01*
X22150466Y-70158103D01*
X22079999Y-70087636D01*
X22062769Y-70080499D01*
X21987931Y-70049500D01*
X21987930Y-70049500D01*
X21812602Y-70049500D01*
X21745563Y-70029815D01*
X21699808Y-69977011D01*
X21688602Y-69925500D01*
X21688602Y-67979178D01*
X24314500Y-67979178D01*
X24314500Y-78430709D01*
X24314501Y-78430714D01*
X24353394Y-78524615D01*
X24442707Y-78613928D01*
X24442713Y-78613933D01*
X24708181Y-78879401D01*
X24741666Y-78940724D01*
X24744500Y-78967082D01*
X24744500Y-97257917D01*
X24724815Y-97324956D01*
X24708181Y-97345598D01*
X24648398Y-97405380D01*
X24623315Y-97465936D01*
X24614691Y-97486758D01*
X24614688Y-97486763D01*
X24609500Y-97499285D01*
X24609500Y-98060709D01*
X24609501Y-98060714D01*
X24648394Y-98154615D01*
X24737707Y-98243928D01*
X24737713Y-98243933D01*
X25708181Y-99214401D01*
X25741666Y-99275724D01*
X25744500Y-99302082D01*
X25744500Y-107158004D01*
X25724815Y-107225043D01*
X25672011Y-107270798D01*
X25655435Y-107276981D01*
X25548341Y-107308426D01*
X25548338Y-107308427D01*
X25432108Y-107383124D01*
X25432106Y-107383126D01*
X25341621Y-107487551D01*
X25341620Y-107487552D01*
X25284222Y-107613234D01*
X25264559Y-107750000D01*
X25284222Y-107886765D01*
X25309253Y-107941574D01*
X25341621Y-108012449D01*
X25432104Y-108116872D01*
X25432106Y-108116873D01*
X25432108Y-108116875D01*
X25548338Y-108191572D01*
X25548343Y-108191574D01*
X25680912Y-108230499D01*
X25680914Y-108230500D01*
X25680915Y-108230500D01*
X25819086Y-108230500D01*
X25819086Y-108230499D01*
X25951659Y-108191573D01*
X25954367Y-108189833D01*
X26067891Y-108116875D01*
X26067890Y-108116875D01*
X26067896Y-108116872D01*
X26158379Y-108012449D01*
X26197227Y-107927384D01*
X29034559Y-107927384D01*
X29054222Y-108064149D01*
X29078301Y-108116873D01*
X29111621Y-108189833D01*
X29202104Y-108294256D01*
X29202106Y-108294257D01*
X29202108Y-108294259D01*
X29318338Y-108368956D01*
X29318343Y-108368958D01*
X29450912Y-108407883D01*
X29450914Y-108407884D01*
X29450915Y-108407884D01*
X29589086Y-108407884D01*
X29589086Y-108407883D01*
X29721659Y-108368957D01*
X29837896Y-108294256D01*
X29928379Y-108189833D01*
X29985777Y-108064149D01*
X30005441Y-107927384D01*
X29985777Y-107790619D01*
X29972911Y-107762447D01*
X29957078Y-107727777D01*
X29928379Y-107664935D01*
X29837896Y-107560512D01*
X29837893Y-107560510D01*
X29837891Y-107560508D01*
X29743739Y-107500000D01*
X37764559Y-107500000D01*
X37784222Y-107636765D01*
X37835936Y-107750000D01*
X37841621Y-107762449D01*
X37932104Y-107866872D01*
X37932106Y-107866873D01*
X37932108Y-107866875D01*
X38048338Y-107941572D01*
X38048343Y-107941574D01*
X38180912Y-107980499D01*
X38180914Y-107980500D01*
X38180915Y-107980500D01*
X38319086Y-107980500D01*
X38319086Y-107980499D01*
X38451659Y-107941573D01*
X38567896Y-107866872D01*
X38658379Y-107762449D01*
X38715777Y-107636765D01*
X38735441Y-107500000D01*
X38715777Y-107363235D01*
X38658379Y-107237551D01*
X38567896Y-107133128D01*
X38567893Y-107133126D01*
X38567891Y-107133124D01*
X38451661Y-107058427D01*
X38451656Y-107058425D01*
X38319087Y-107019500D01*
X38319085Y-107019500D01*
X38180915Y-107019500D01*
X38180912Y-107019500D01*
X38048343Y-107058425D01*
X38048338Y-107058427D01*
X37932108Y-107133124D01*
X37932106Y-107133126D01*
X37841621Y-107237551D01*
X37841620Y-107237552D01*
X37784222Y-107363234D01*
X37764559Y-107500000D01*
X29743739Y-107500000D01*
X29721661Y-107485811D01*
X29721656Y-107485809D01*
X29589087Y-107446884D01*
X29589085Y-107446884D01*
X29450915Y-107446884D01*
X29450912Y-107446884D01*
X29318343Y-107485809D01*
X29318338Y-107485811D01*
X29202108Y-107560508D01*
X29202106Y-107560510D01*
X29202104Y-107560511D01*
X29202104Y-107560512D01*
X29134879Y-107638094D01*
X29111621Y-107664935D01*
X29111620Y-107664936D01*
X29054222Y-107790618D01*
X29034559Y-107927384D01*
X26197227Y-107927384D01*
X26215777Y-107886765D01*
X26235441Y-107750000D01*
X26224192Y-107671763D01*
X26232368Y-107606665D01*
X26244107Y-107578327D01*
X26255500Y-107550823D01*
X26255500Y-107449178D01*
X26255500Y-105800000D01*
X53514559Y-105800000D01*
X53534222Y-105936765D01*
X53591620Y-106062447D01*
X53591621Y-106062449D01*
X53682104Y-106166872D01*
X53682106Y-106166873D01*
X53682108Y-106166875D01*
X53798338Y-106241572D01*
X53798343Y-106241574D01*
X53930912Y-106280499D01*
X53930914Y-106280500D01*
X53930915Y-106280500D01*
X54069086Y-106280500D01*
X54069086Y-106280499D01*
X54201659Y-106241573D01*
X54317896Y-106166872D01*
X54408379Y-106062449D01*
X54465777Y-105936765D01*
X54485441Y-105800000D01*
X54465777Y-105663235D01*
X54408379Y-105537551D01*
X54317896Y-105433128D01*
X54317893Y-105433126D01*
X54317891Y-105433124D01*
X54201661Y-105358427D01*
X54201656Y-105358425D01*
X54069087Y-105319500D01*
X54069085Y-105319500D01*
X53930915Y-105319500D01*
X53930912Y-105319500D01*
X53798343Y-105358425D01*
X53798338Y-105358427D01*
X53682108Y-105433124D01*
X53682106Y-105433126D01*
X53591621Y-105537551D01*
X53591620Y-105537552D01*
X53534222Y-105663234D01*
X53514559Y-105800000D01*
X26255500Y-105800000D01*
X26255500Y-104400000D01*
X35514559Y-104400000D01*
X35534222Y-104536765D01*
X35591620Y-104662447D01*
X35591621Y-104662449D01*
X35682104Y-104766872D01*
X35682106Y-104766873D01*
X35682108Y-104766875D01*
X35798338Y-104841572D01*
X35798343Y-104841574D01*
X35930912Y-104880499D01*
X35930914Y-104880500D01*
X35930915Y-104880500D01*
X36069086Y-104880500D01*
X36069086Y-104880499D01*
X36201659Y-104841573D01*
X36317896Y-104766872D01*
X36408379Y-104662449D01*
X36465777Y-104536765D01*
X36485441Y-104400000D01*
X36465777Y-104263235D01*
X36408379Y-104137551D01*
X36317896Y-104033128D01*
X36317893Y-104033126D01*
X36317891Y-104033124D01*
X36201661Y-103958427D01*
X36201656Y-103958425D01*
X36069087Y-103919500D01*
X36069085Y-103919500D01*
X35930915Y-103919500D01*
X35930912Y-103919500D01*
X35798343Y-103958425D01*
X35798338Y-103958427D01*
X35682108Y-104033124D01*
X35682106Y-104033126D01*
X35682104Y-104033127D01*
X35682104Y-104033128D01*
X35668898Y-104048369D01*
X35591621Y-104137551D01*
X35591620Y-104137552D01*
X35534222Y-104263234D01*
X35514559Y-104400000D01*
X26255500Y-104400000D01*
X26255500Y-102750000D01*
X41514559Y-102750000D01*
X41534222Y-102886765D01*
X41591620Y-103012447D01*
X41591621Y-103012449D01*
X41682104Y-103116872D01*
X41682106Y-103116873D01*
X41682108Y-103116875D01*
X41798338Y-103191572D01*
X41798343Y-103191574D01*
X41930912Y-103230499D01*
X41930914Y-103230500D01*
X41930915Y-103230500D01*
X42069086Y-103230500D01*
X42069086Y-103230499D01*
X42201659Y-103191573D01*
X42317896Y-103116872D01*
X42408379Y-103012449D01*
X42465777Y-102886765D01*
X42485441Y-102750000D01*
X42465777Y-102613235D01*
X42408379Y-102487551D01*
X42317896Y-102383128D01*
X42317893Y-102383126D01*
X42317891Y-102383124D01*
X42201661Y-102308427D01*
X42201656Y-102308425D01*
X42069087Y-102269500D01*
X42069085Y-102269500D01*
X41930915Y-102269500D01*
X41930912Y-102269500D01*
X41798343Y-102308425D01*
X41798338Y-102308427D01*
X41682108Y-102383124D01*
X41682106Y-102383126D01*
X41591621Y-102487551D01*
X41591620Y-102487552D01*
X41534222Y-102613234D01*
X41514559Y-102750000D01*
X26255500Y-102750000D01*
X26255500Y-100225000D01*
X29284559Y-100225000D01*
X29304222Y-100361765D01*
X29361620Y-100487447D01*
X29361621Y-100487449D01*
X29452104Y-100591872D01*
X29452106Y-100591873D01*
X29452108Y-100591875D01*
X29568338Y-100666572D01*
X29568343Y-100666574D01*
X29700912Y-100705499D01*
X29700914Y-100705500D01*
X29700915Y-100705500D01*
X29839086Y-100705500D01*
X29839086Y-100705499D01*
X29971659Y-100666573D01*
X30087896Y-100591872D01*
X30178379Y-100487449D01*
X30235777Y-100361765D01*
X30255441Y-100225000D01*
X30235777Y-100088235D01*
X30178379Y-99962551D01*
X30087896Y-99858128D01*
X30087893Y-99858126D01*
X30087891Y-99858124D01*
X29971661Y-99783427D01*
X29971656Y-99783425D01*
X29839087Y-99744500D01*
X29839085Y-99744500D01*
X29700915Y-99744500D01*
X29700912Y-99744500D01*
X29568343Y-99783425D01*
X29568338Y-99783427D01*
X29452108Y-99858124D01*
X29452106Y-99858126D01*
X29361621Y-99962551D01*
X29361620Y-99962552D01*
X29304222Y-100088234D01*
X29284559Y-100225000D01*
X26255500Y-100225000D01*
X26255500Y-99094067D01*
X26246686Y-99072789D01*
X26216608Y-99000170D01*
X33649500Y-99000170D01*
X33649500Y-99000172D01*
X33649500Y-100999828D01*
X33687636Y-101091897D01*
X33758103Y-101162364D01*
X33850172Y-101200500D01*
X33850174Y-101200500D01*
X35649826Y-101200500D01*
X35649828Y-101200500D01*
X35741897Y-101162364D01*
X35812364Y-101091897D01*
X35850500Y-100999828D01*
X35850500Y-99100170D01*
X49049500Y-99100170D01*
X49049500Y-99100172D01*
X49049500Y-100899828D01*
X49087636Y-100991897D01*
X49158103Y-101062364D01*
X49250172Y-101100500D01*
X49250174Y-101100500D01*
X51249826Y-101100500D01*
X51249828Y-101100500D01*
X51341897Y-101062364D01*
X51412364Y-100991897D01*
X51450500Y-100899828D01*
X51450500Y-100225000D01*
X54784559Y-100225000D01*
X54804222Y-100361765D01*
X54861620Y-100487447D01*
X54861621Y-100487449D01*
X54952104Y-100591872D01*
X54952106Y-100591873D01*
X54952108Y-100591875D01*
X55068338Y-100666572D01*
X55068343Y-100666574D01*
X55200912Y-100705499D01*
X55200914Y-100705500D01*
X55200915Y-100705500D01*
X55339086Y-100705500D01*
X55339086Y-100705499D01*
X55471659Y-100666573D01*
X55587896Y-100591872D01*
X55678379Y-100487449D01*
X55735777Y-100361765D01*
X55755441Y-100225000D01*
X55735777Y-100088235D01*
X55678379Y-99962551D01*
X55587896Y-99858128D01*
X55587893Y-99858126D01*
X55587891Y-99858124D01*
X55471661Y-99783427D01*
X55471656Y-99783425D01*
X55339087Y-99744500D01*
X55339085Y-99744500D01*
X55200915Y-99744500D01*
X55200912Y-99744500D01*
X55068343Y-99783425D01*
X55068338Y-99783427D01*
X54952108Y-99858124D01*
X54952106Y-99858126D01*
X54861621Y-99962551D01*
X54861620Y-99962552D01*
X54804222Y-100088234D01*
X54784559Y-100225000D01*
X51450500Y-100225000D01*
X51450500Y-99100172D01*
X51412364Y-99008103D01*
X51341897Y-98937636D01*
X51319322Y-98928285D01*
X51249829Y-98899500D01*
X51249828Y-98899500D01*
X49349828Y-98899500D01*
X49250172Y-98899500D01*
X49250170Y-98899500D01*
X49158102Y-98937636D01*
X49087636Y-99008102D01*
X49049500Y-99100170D01*
X35850500Y-99100170D01*
X35850500Y-99000172D01*
X35812364Y-98908103D01*
X35741897Y-98837636D01*
X35649829Y-98799500D01*
X35649828Y-98799500D01*
X33949828Y-98799500D01*
X33850172Y-98799500D01*
X33850170Y-98799500D01*
X33758102Y-98837636D01*
X33687636Y-98908102D01*
X33649500Y-99000170D01*
X26216608Y-99000170D01*
X26216605Y-99000162D01*
X26137664Y-98921221D01*
X26137657Y-98921215D01*
X25216442Y-98000000D01*
X32764559Y-98000000D01*
X32784222Y-98136765D01*
X32825200Y-98226492D01*
X32841621Y-98262449D01*
X32932104Y-98366872D01*
X32932106Y-98366873D01*
X32932108Y-98366875D01*
X33048338Y-98441572D01*
X33048343Y-98441574D01*
X33180912Y-98480499D01*
X33180914Y-98480500D01*
X33180915Y-98480500D01*
X33319086Y-98480500D01*
X33319086Y-98480499D01*
X33451659Y-98441573D01*
X33567896Y-98366872D01*
X33658379Y-98262449D01*
X33715777Y-98136765D01*
X33735441Y-98000000D01*
X33715777Y-97863235D01*
X33700827Y-97830500D01*
X33658379Y-97737552D01*
X33658379Y-97737551D01*
X33567896Y-97633128D01*
X33567893Y-97633126D01*
X33567891Y-97633124D01*
X33451661Y-97558427D01*
X33451656Y-97558425D01*
X33319087Y-97519500D01*
X33319085Y-97519500D01*
X33180915Y-97519500D01*
X33180912Y-97519500D01*
X33048343Y-97558425D01*
X33048338Y-97558427D01*
X32932108Y-97633124D01*
X32932106Y-97633126D01*
X32932104Y-97633127D01*
X32932104Y-97633128D01*
X32924786Y-97641574D01*
X32841621Y-97737551D01*
X32841620Y-97737552D01*
X32784222Y-97863234D01*
X32764559Y-98000000D01*
X25216442Y-98000000D01*
X25156819Y-97940377D01*
X25123334Y-97879054D01*
X25120500Y-97852696D01*
X25120500Y-97707305D01*
X25140185Y-97640266D01*
X25156819Y-97619624D01*
X25163996Y-97612447D01*
X25216603Y-97559840D01*
X25216603Y-97559838D01*
X25216605Y-97559837D01*
X25236051Y-97512886D01*
X25255500Y-97465933D01*
X25255500Y-97350000D01*
X45639559Y-97350000D01*
X45659222Y-97486763D01*
X45674173Y-97519500D01*
X45716621Y-97612449D01*
X45807104Y-97716872D01*
X45807106Y-97716873D01*
X45807108Y-97716875D01*
X45923338Y-97791572D01*
X45923343Y-97791574D01*
X46055912Y-97830499D01*
X46055914Y-97830500D01*
X46055915Y-97830500D01*
X46194086Y-97830500D01*
X46194086Y-97830499D01*
X46326659Y-97791573D01*
X46442896Y-97716872D01*
X46533379Y-97612449D01*
X46590777Y-97486765D01*
X46590776Y-97486765D01*
X46590778Y-97486763D01*
X46602478Y-97405380D01*
X46610441Y-97350000D01*
X46590777Y-97213235D01*
X46584733Y-97200000D01*
X54914559Y-97200000D01*
X54934222Y-97336765D01*
X54965558Y-97405380D01*
X54991621Y-97462449D01*
X55082104Y-97566872D01*
X55082106Y-97566873D01*
X55082108Y-97566875D01*
X55198338Y-97641572D01*
X55198343Y-97641574D01*
X55330912Y-97680499D01*
X55330914Y-97680500D01*
X55330915Y-97680500D01*
X55469086Y-97680500D01*
X55469086Y-97680499D01*
X55601659Y-97641573D01*
X55635813Y-97619624D01*
X55717891Y-97566875D01*
X55717890Y-97566875D01*
X55717896Y-97566872D01*
X55808379Y-97462449D01*
X55865777Y-97336765D01*
X55885441Y-97200000D01*
X55865777Y-97063235D01*
X55808379Y-96937551D01*
X55717896Y-96833128D01*
X55717893Y-96833126D01*
X55717891Y-96833124D01*
X55601661Y-96758427D01*
X55601656Y-96758425D01*
X55469087Y-96719500D01*
X55469085Y-96719500D01*
X55330915Y-96719500D01*
X55330912Y-96719500D01*
X55198343Y-96758425D01*
X55198338Y-96758427D01*
X55082108Y-96833124D01*
X55082106Y-96833126D01*
X55082104Y-96833127D01*
X55082104Y-96833128D01*
X55016859Y-96908425D01*
X54991621Y-96937551D01*
X54991620Y-96937552D01*
X54934222Y-97063234D01*
X54914559Y-97200000D01*
X46584733Y-97200000D01*
X46533379Y-97087551D01*
X46442896Y-96983128D01*
X46442893Y-96983126D01*
X46442891Y-96983124D01*
X46326661Y-96908427D01*
X46326656Y-96908425D01*
X46194087Y-96869500D01*
X46194085Y-96869500D01*
X46055915Y-96869500D01*
X46055912Y-96869500D01*
X45923343Y-96908425D01*
X45923338Y-96908427D01*
X45807108Y-96983124D01*
X45807106Y-96983126D01*
X45716621Y-97087551D01*
X45716620Y-97087552D01*
X45659222Y-97213234D01*
X45639559Y-97350000D01*
X25255500Y-97350000D01*
X25255500Y-94471276D01*
X43012061Y-94471276D01*
X43031724Y-94608041D01*
X43089122Y-94733723D01*
X43089123Y-94733725D01*
X43179606Y-94838148D01*
X43179608Y-94838149D01*
X43179610Y-94838151D01*
X43295840Y-94912848D01*
X43295845Y-94912850D01*
X43428414Y-94951775D01*
X43428416Y-94951776D01*
X43428417Y-94951776D01*
X43566588Y-94951776D01*
X43566588Y-94951775D01*
X43699161Y-94912849D01*
X43708193Y-94907045D01*
X43815393Y-94838151D01*
X43815392Y-94838151D01*
X43815398Y-94838148D01*
X43905881Y-94733725D01*
X43963279Y-94608041D01*
X43982943Y-94471276D01*
X43963279Y-94334511D01*
X43905881Y-94208827D01*
X43815398Y-94104404D01*
X43815395Y-94104402D01*
X43815393Y-94104400D01*
X43699163Y-94029703D01*
X43699158Y-94029701D01*
X43566589Y-93990776D01*
X43566587Y-93990776D01*
X43428417Y-93990776D01*
X43428414Y-93990776D01*
X43295845Y-94029701D01*
X43295840Y-94029703D01*
X43179610Y-94104400D01*
X43179608Y-94104402D01*
X43179606Y-94104403D01*
X43179606Y-94104404D01*
X43129311Y-94162448D01*
X43089123Y-94208827D01*
X43089122Y-94208828D01*
X43031724Y-94334510D01*
X43012061Y-94471276D01*
X25255500Y-94471276D01*
X25255500Y-91975000D01*
X28034559Y-91975000D01*
X28054222Y-92111765D01*
X28100562Y-92213234D01*
X28111621Y-92237449D01*
X28202104Y-92341872D01*
X28202106Y-92341873D01*
X28202108Y-92341875D01*
X28318338Y-92416572D01*
X28318343Y-92416574D01*
X28450912Y-92455499D01*
X28450914Y-92455500D01*
X28450915Y-92455500D01*
X28589086Y-92455500D01*
X28589086Y-92455499D01*
X28691964Y-92425292D01*
X28721656Y-92416574D01*
X28721657Y-92416573D01*
X28721659Y-92416573D01*
X28837896Y-92341872D01*
X28928379Y-92237449D01*
X28985777Y-92111765D01*
X29005441Y-91975000D01*
X28985777Y-91838235D01*
X28928379Y-91712551D01*
X28837896Y-91608128D01*
X28837893Y-91608126D01*
X28837891Y-91608124D01*
X28721661Y-91533427D01*
X28721656Y-91533425D01*
X28589087Y-91494500D01*
X28589085Y-91494500D01*
X28450915Y-91494500D01*
X28450912Y-91494500D01*
X28318343Y-91533425D01*
X28318338Y-91533427D01*
X28202108Y-91608124D01*
X28202106Y-91608126D01*
X28111621Y-91712551D01*
X28111620Y-91712552D01*
X28054222Y-91838234D01*
X28034559Y-91975000D01*
X25255500Y-91975000D01*
X25255500Y-89900000D01*
X35214559Y-89900000D01*
X35234222Y-90036765D01*
X35245952Y-90062449D01*
X35291621Y-90162449D01*
X35382104Y-90266872D01*
X35382106Y-90266873D01*
X35382108Y-90266875D01*
X35498338Y-90341572D01*
X35498343Y-90341574D01*
X35630912Y-90380499D01*
X35630914Y-90380500D01*
X35630915Y-90380500D01*
X35769086Y-90380500D01*
X35769086Y-90380499D01*
X35901659Y-90341573D01*
X36017896Y-90266872D01*
X36108379Y-90162449D01*
X36165777Y-90036765D01*
X36185441Y-89900000D01*
X36171063Y-89800000D01*
X41014559Y-89800000D01*
X41034222Y-89936765D01*
X41091620Y-90062447D01*
X41091621Y-90062449D01*
X41182104Y-90166872D01*
X41182106Y-90166873D01*
X41182108Y-90166875D01*
X41298338Y-90241572D01*
X41298343Y-90241574D01*
X41430912Y-90280499D01*
X41430914Y-90280500D01*
X41430915Y-90280500D01*
X41569086Y-90280500D01*
X41569086Y-90280499D01*
X41701659Y-90241573D01*
X41817896Y-90166872D01*
X41908379Y-90062449D01*
X41965777Y-89936765D01*
X41985441Y-89800000D01*
X41965777Y-89663235D01*
X41908379Y-89537551D01*
X41817896Y-89433128D01*
X41817893Y-89433126D01*
X41817891Y-89433124D01*
X41701661Y-89358427D01*
X41701656Y-89358425D01*
X41569087Y-89319500D01*
X41569085Y-89319500D01*
X41430915Y-89319500D01*
X41430912Y-89319500D01*
X41298343Y-89358425D01*
X41298338Y-89358427D01*
X41182108Y-89433124D01*
X41182106Y-89433126D01*
X41182104Y-89433127D01*
X41182104Y-89433128D01*
X41095457Y-89533124D01*
X41091621Y-89537551D01*
X41091620Y-89537552D01*
X41034222Y-89663234D01*
X41014559Y-89800000D01*
X36171063Y-89800000D01*
X36165777Y-89763235D01*
X36108379Y-89637551D01*
X36017896Y-89533128D01*
X36017893Y-89533126D01*
X36017891Y-89533124D01*
X35901661Y-89458427D01*
X35901656Y-89458425D01*
X35769087Y-89419500D01*
X35769085Y-89419500D01*
X35630915Y-89419500D01*
X35630912Y-89419500D01*
X35498343Y-89458425D01*
X35498338Y-89458427D01*
X35382108Y-89533124D01*
X35382106Y-89533126D01*
X35382104Y-89533127D01*
X35382104Y-89533128D01*
X35378271Y-89537552D01*
X35291621Y-89637551D01*
X35291620Y-89637552D01*
X35234222Y-89763234D01*
X35214559Y-89900000D01*
X25255500Y-89900000D01*
X25255500Y-86050000D01*
X36264559Y-86050000D01*
X36284222Y-86186765D01*
X36341620Y-86312447D01*
X36341621Y-86312449D01*
X36432104Y-86416872D01*
X36432106Y-86416873D01*
X36432108Y-86416875D01*
X36548338Y-86491572D01*
X36548343Y-86491574D01*
X36680912Y-86530499D01*
X36680914Y-86530500D01*
X36680915Y-86530500D01*
X36819086Y-86530500D01*
X36819086Y-86530499D01*
X36951659Y-86491573D01*
X37067896Y-86416872D01*
X37158379Y-86312449D01*
X37215777Y-86186765D01*
X37235441Y-86050000D01*
X37215777Y-85913235D01*
X37158379Y-85787551D01*
X37067896Y-85683128D01*
X37067893Y-85683126D01*
X37067891Y-85683124D01*
X36951661Y-85608427D01*
X36951656Y-85608425D01*
X36819087Y-85569500D01*
X36819085Y-85569500D01*
X36680915Y-85569500D01*
X36680912Y-85569500D01*
X36548343Y-85608425D01*
X36548338Y-85608427D01*
X36432108Y-85683124D01*
X36432106Y-85683126D01*
X36341621Y-85787551D01*
X36341620Y-85787552D01*
X36284222Y-85913234D01*
X36264559Y-86050000D01*
X25255500Y-86050000D01*
X25255500Y-80628500D01*
X25569559Y-80628500D01*
X25589222Y-80765265D01*
X25646620Y-80890947D01*
X25646621Y-80890949D01*
X25737104Y-80995372D01*
X25737106Y-80995373D01*
X25737108Y-80995375D01*
X25853338Y-81070072D01*
X25853343Y-81070074D01*
X25985912Y-81108999D01*
X25985914Y-81109000D01*
X25985915Y-81109000D01*
X26124086Y-81109000D01*
X26124086Y-81108999D01*
X26256659Y-81070073D01*
X26261636Y-81066875D01*
X26372891Y-80995375D01*
X26372890Y-80995375D01*
X26372896Y-80995372D01*
X26463379Y-80890949D01*
X26520777Y-80765265D01*
X26530161Y-80700000D01*
X30064559Y-80700000D01*
X30084222Y-80836765D01*
X30141620Y-80962447D01*
X30141621Y-80962449D01*
X30232104Y-81066872D01*
X30232106Y-81066873D01*
X30232108Y-81066875D01*
X30348338Y-81141572D01*
X30348343Y-81141574D01*
X30480912Y-81180499D01*
X30480914Y-81180500D01*
X30480915Y-81180500D01*
X30619086Y-81180500D01*
X30619086Y-81180499D01*
X30751659Y-81141573D01*
X30867896Y-81066872D01*
X30958379Y-80962449D01*
X31015777Y-80836765D01*
X31035441Y-80700000D01*
X31015777Y-80563235D01*
X31005884Y-80541573D01*
X30958379Y-80437552D01*
X30958379Y-80437551D01*
X30867896Y-80333128D01*
X30867893Y-80333126D01*
X30867891Y-80333124D01*
X30751661Y-80258427D01*
X30751656Y-80258425D01*
X30619087Y-80219500D01*
X30619085Y-80219500D01*
X30480915Y-80219500D01*
X30480912Y-80219500D01*
X30348343Y-80258425D01*
X30348338Y-80258427D01*
X30232108Y-80333124D01*
X30232106Y-80333126D01*
X30141621Y-80437551D01*
X30141620Y-80437552D01*
X30084222Y-80563234D01*
X30064559Y-80700000D01*
X26530161Y-80700000D01*
X26540441Y-80628500D01*
X26520777Y-80491735D01*
X26509422Y-80466872D01*
X26463379Y-80366052D01*
X26463379Y-80366051D01*
X26372896Y-80261628D01*
X26372893Y-80261626D01*
X26372891Y-80261624D01*
X26256661Y-80186927D01*
X26256656Y-80186925D01*
X26124087Y-80148000D01*
X26124085Y-80148000D01*
X25985915Y-80148000D01*
X25985912Y-80148000D01*
X25853343Y-80186925D01*
X25853338Y-80186927D01*
X25737108Y-80261624D01*
X25737106Y-80261626D01*
X25646621Y-80366051D01*
X25646620Y-80366052D01*
X25589222Y-80491734D01*
X25569559Y-80628500D01*
X25255500Y-80628500D01*
X25255500Y-78759067D01*
X25246686Y-78737789D01*
X25216605Y-78665162D01*
X25137664Y-78586221D01*
X25137657Y-78586215D01*
X24861819Y-78310377D01*
X24828334Y-78249054D01*
X24825500Y-78222696D01*
X24825500Y-73350170D01*
X26149500Y-73350170D01*
X26149500Y-75349829D01*
X26187636Y-75441897D01*
X26258103Y-75512364D01*
X26350172Y-75550500D01*
X26350174Y-75550500D01*
X28149826Y-75550500D01*
X28149828Y-75550500D01*
X28241897Y-75512364D01*
X28312364Y-75441897D01*
X28350500Y-75349828D01*
X28350500Y-74575000D01*
X32014559Y-74575000D01*
X32034222Y-74711765D01*
X32079976Y-74811950D01*
X32091621Y-74837449D01*
X32182104Y-74941872D01*
X32182106Y-74941873D01*
X32182108Y-74941875D01*
X32298338Y-75016572D01*
X32298343Y-75016574D01*
X32430912Y-75055499D01*
X32430914Y-75055500D01*
X32430915Y-75055500D01*
X32569086Y-75055500D01*
X32569086Y-75055499D01*
X32701659Y-75016573D01*
X32817896Y-74941872D01*
X32908379Y-74837449D01*
X32965777Y-74711765D01*
X32985441Y-74575000D01*
X32965777Y-74438235D01*
X32908379Y-74312551D01*
X32817896Y-74208128D01*
X32817893Y-74208126D01*
X32817891Y-74208124D01*
X32701661Y-74133427D01*
X32701656Y-74133425D01*
X32569087Y-74094500D01*
X32569085Y-74094500D01*
X32430915Y-74094500D01*
X32430912Y-74094500D01*
X32298343Y-74133425D01*
X32298338Y-74133427D01*
X32182108Y-74208124D01*
X32182106Y-74208126D01*
X32091621Y-74312551D01*
X32091620Y-74312552D01*
X32034222Y-74438234D01*
X32014559Y-74575000D01*
X28350500Y-74575000D01*
X28350500Y-73350172D01*
X28350499Y-73350170D01*
X37059500Y-73350170D01*
X37059500Y-75349829D01*
X37097636Y-75441897D01*
X37168103Y-75512364D01*
X37260172Y-75550500D01*
X37260174Y-75550500D01*
X39059826Y-75550500D01*
X39059828Y-75550500D01*
X39151897Y-75512364D01*
X39222364Y-75441897D01*
X39260500Y-75349828D01*
X39260500Y-74924744D01*
X39280185Y-74857705D01*
X39332989Y-74811950D01*
X39402147Y-74802006D01*
X39451540Y-74820429D01*
X39523342Y-74866574D01*
X39655912Y-74905499D01*
X39655914Y-74905500D01*
X39655915Y-74905500D01*
X39794086Y-74905500D01*
X39794086Y-74905499D01*
X39926659Y-74866573D01*
X39971979Y-74837448D01*
X40042891Y-74791875D01*
X40042890Y-74791875D01*
X40042896Y-74791872D01*
X40133379Y-74687449D01*
X40190777Y-74561765D01*
X40210441Y-74425000D01*
X40190777Y-74288235D01*
X40133379Y-74162551D01*
X40042896Y-74058128D01*
X40042893Y-74058126D01*
X40042891Y-74058124D01*
X39926661Y-73983427D01*
X39926656Y-73983425D01*
X39794087Y-73944500D01*
X39794085Y-73944500D01*
X39655915Y-73944500D01*
X39655912Y-73944500D01*
X39523343Y-73983425D01*
X39451539Y-74029571D01*
X39384499Y-74049255D01*
X39317460Y-74029570D01*
X39271705Y-73976766D01*
X39260500Y-73925255D01*
X39260500Y-73350173D01*
X39260499Y-73350170D01*
X39222364Y-73258103D01*
X39151897Y-73187636D01*
X39059829Y-73149500D01*
X39059828Y-73149500D01*
X37359828Y-73149500D01*
X37260172Y-73149500D01*
X37260170Y-73149500D01*
X37168102Y-73187636D01*
X37097636Y-73258102D01*
X37059500Y-73350170D01*
X28350499Y-73350170D01*
X28312364Y-73258103D01*
X28241897Y-73187636D01*
X28149829Y-73149500D01*
X28149828Y-73149500D01*
X28108639Y-73149500D01*
X28041600Y-73129815D01*
X27995845Y-73077011D01*
X27985901Y-73007853D01*
X27989661Y-72990567D01*
X27990777Y-72986765D01*
X28010441Y-72850000D01*
X27990777Y-72713235D01*
X27933379Y-72587551D01*
X27842896Y-72483128D01*
X27842893Y-72483126D01*
X27842891Y-72483124D01*
X27726661Y-72408427D01*
X27726656Y-72408425D01*
X27594087Y-72369500D01*
X27594085Y-72369500D01*
X27455915Y-72369500D01*
X27455912Y-72369500D01*
X27323343Y-72408425D01*
X27323338Y-72408427D01*
X27207108Y-72483124D01*
X27207106Y-72483126D01*
X27116621Y-72587551D01*
X27116620Y-72587552D01*
X27059222Y-72713234D01*
X27039559Y-72850000D01*
X27059222Y-72986765D01*
X27060339Y-72990567D01*
X27060338Y-72994527D01*
X27060485Y-72995544D01*
X27060338Y-72995565D01*
X27060337Y-73060437D01*
X27022562Y-73119214D01*
X26959006Y-73148238D01*
X26941361Y-73149500D01*
X26350170Y-73149500D01*
X26258102Y-73187636D01*
X26187636Y-73258102D01*
X26149500Y-73350170D01*
X24825500Y-73350170D01*
X24825500Y-71000000D01*
X39264559Y-71000000D01*
X39284222Y-71136765D01*
X39327030Y-71230499D01*
X39341621Y-71262449D01*
X39432104Y-71366872D01*
X39432106Y-71366873D01*
X39432108Y-71366875D01*
X39548338Y-71441572D01*
X39548343Y-71441574D01*
X39680912Y-71480499D01*
X39680914Y-71480500D01*
X39680915Y-71480500D01*
X39819086Y-71480500D01*
X39819086Y-71480499D01*
X39951659Y-71441573D01*
X40067896Y-71366872D01*
X40158379Y-71262449D01*
X40215777Y-71136765D01*
X40235441Y-71000000D01*
X40215777Y-70863235D01*
X40158379Y-70737551D01*
X40067896Y-70633128D01*
X40067893Y-70633126D01*
X40067891Y-70633124D01*
X39951661Y-70558427D01*
X39951656Y-70558425D01*
X39819087Y-70519500D01*
X39819085Y-70519500D01*
X39680915Y-70519500D01*
X39680912Y-70519500D01*
X39548343Y-70558425D01*
X39548338Y-70558427D01*
X39432108Y-70633124D01*
X39432106Y-70633126D01*
X39341621Y-70737551D01*
X39341620Y-70737552D01*
X39284222Y-70863234D01*
X39264559Y-71000000D01*
X24825500Y-71000000D01*
X24825500Y-68187193D01*
X24845185Y-68120154D01*
X24861819Y-68099512D01*
X27211332Y-65750000D01*
X34514559Y-65750000D01*
X34534222Y-65886765D01*
X34572467Y-65970508D01*
X34591621Y-66012449D01*
X34634063Y-66061430D01*
X34663088Y-66124984D01*
X34653145Y-66194143D01*
X34634064Y-66223834D01*
X34594064Y-66269997D01*
X34594063Y-66269998D01*
X34536665Y-66395680D01*
X34517002Y-66532446D01*
X34536665Y-66669211D01*
X34594063Y-66794893D01*
X34594066Y-66794899D01*
X34636370Y-66843719D01*
X34665396Y-66907274D01*
X34655453Y-66976433D01*
X34636371Y-67006124D01*
X34594477Y-67054471D01*
X34594474Y-67054477D01*
X34537076Y-67180159D01*
X34517413Y-67316925D01*
X34537076Y-67453690D01*
X34594474Y-67579372D01*
X34594477Y-67579378D01*
X34636808Y-67628229D01*
X34665834Y-67691784D01*
X34655891Y-67760943D01*
X34636810Y-67790634D01*
X34595293Y-67838548D01*
X34595292Y-67838549D01*
X34537894Y-67964231D01*
X34518231Y-68100997D01*
X34537894Y-68237762D01*
X34595292Y-68363444D01*
X34595295Y-68363450D01*
X34637496Y-68412151D01*
X34666522Y-68475706D01*
X34656579Y-68544865D01*
X34637498Y-68574556D01*
X34594164Y-68624567D01*
X34594163Y-68624568D01*
X34536765Y-68750250D01*
X34517102Y-68887016D01*
X34536765Y-69023781D01*
X34580479Y-69119500D01*
X34594164Y-69149465D01*
X34684647Y-69253888D01*
X34684649Y-69253889D01*
X34684651Y-69253891D01*
X34800881Y-69328588D01*
X34800886Y-69328590D01*
X34903763Y-69358796D01*
X34931268Y-69366873D01*
X34933455Y-69367515D01*
X34933457Y-69367516D01*
X34933458Y-69367516D01*
X35071629Y-69367516D01*
X35071629Y-69367515D01*
X35204202Y-69328589D01*
X35320439Y-69253888D01*
X35410922Y-69149465D01*
X35468320Y-69023781D01*
X35487984Y-68887016D01*
X35468320Y-68750251D01*
X35410922Y-68624567D01*
X35368716Y-68575859D01*
X35339692Y-68512306D01*
X35349635Y-68443148D01*
X35368718Y-68413455D01*
X35412048Y-68363450D01*
X35412048Y-68363448D01*
X35412051Y-68363446D01*
X35469449Y-68237762D01*
X35489113Y-68100997D01*
X35469449Y-67964232D01*
X35463714Y-67951675D01*
X35412051Y-67838549D01*
X35412051Y-67838548D01*
X35369715Y-67789690D01*
X35340691Y-67726135D01*
X35350635Y-67656977D01*
X35369711Y-67627291D01*
X35411233Y-67579374D01*
X35468631Y-67453690D01*
X35484490Y-67343388D01*
X39386060Y-67343388D01*
X39405723Y-67480153D01*
X39463121Y-67605835D01*
X39463122Y-67605837D01*
X39553605Y-67710260D01*
X39553607Y-67710261D01*
X39553609Y-67710263D01*
X39669839Y-67784960D01*
X39669844Y-67784962D01*
X39766683Y-67813396D01*
X39798952Y-67822871D01*
X39802413Y-67823887D01*
X39802415Y-67823888D01*
X39802416Y-67823888D01*
X39940587Y-67823888D01*
X39940587Y-67823887D01*
X40043465Y-67793680D01*
X40073157Y-67784962D01*
X40073158Y-67784961D01*
X40073160Y-67784961D01*
X40074743Y-67783944D01*
X40164695Y-67726135D01*
X40189397Y-67710260D01*
X40279880Y-67605837D01*
X40337278Y-67480153D01*
X40356942Y-67343388D01*
X40337278Y-67206623D01*
X40336813Y-67205605D01*
X40279880Y-67080940D01*
X40279880Y-67080939D01*
X40189397Y-66976516D01*
X40189394Y-66976514D01*
X40189392Y-66976512D01*
X40073162Y-66901815D01*
X40073157Y-66901813D01*
X39940588Y-66862888D01*
X39940586Y-66862888D01*
X39802416Y-66862888D01*
X39802413Y-66862888D01*
X39669844Y-66901813D01*
X39669839Y-66901815D01*
X39553609Y-66976512D01*
X39553607Y-66976514D01*
X39553605Y-66976515D01*
X39553605Y-66976516D01*
X39485166Y-67055499D01*
X39463122Y-67080939D01*
X39463121Y-67080940D01*
X39405723Y-67206622D01*
X39386060Y-67343388D01*
X35484490Y-67343388D01*
X35488295Y-67316925D01*
X35468631Y-67180160D01*
X35411233Y-67054476D01*
X35411231Y-67054474D01*
X35411230Y-67054471D01*
X35368926Y-67005651D01*
X35339900Y-66942096D01*
X35349843Y-66872937D01*
X35368922Y-66843250D01*
X35410822Y-66794895D01*
X35468220Y-66669211D01*
X35487884Y-66532446D01*
X35468220Y-66395681D01*
X35465621Y-66389991D01*
X35410822Y-66269998D01*
X35410819Y-66269992D01*
X35368380Y-66221016D01*
X35339354Y-66157461D01*
X35349297Y-66088302D01*
X35368376Y-66058614D01*
X35408379Y-66012449D01*
X35465777Y-65886765D01*
X35485441Y-65750000D01*
X35465777Y-65613235D01*
X35456146Y-65592147D01*
X35408379Y-65487552D01*
X35408379Y-65487551D01*
X35317896Y-65383128D01*
X35317893Y-65383126D01*
X35317891Y-65383124D01*
X35201661Y-65308427D01*
X35201656Y-65308425D01*
X35069087Y-65269500D01*
X35069085Y-65269500D01*
X34930915Y-65269500D01*
X34930912Y-65269500D01*
X34798343Y-65308425D01*
X34798338Y-65308427D01*
X34682108Y-65383124D01*
X34682106Y-65383126D01*
X34682104Y-65383127D01*
X34682104Y-65383128D01*
X34634354Y-65438235D01*
X34591621Y-65487551D01*
X34591620Y-65487552D01*
X34534222Y-65613234D01*
X34514559Y-65750000D01*
X27211332Y-65750000D01*
X28669513Y-64291819D01*
X28730836Y-64258334D01*
X28757194Y-64255500D01*
X29128971Y-64255500D01*
X29196010Y-64275185D01*
X29222681Y-64298295D01*
X29282104Y-64366872D01*
X29282106Y-64366873D01*
X29282108Y-64366875D01*
X29398338Y-64441572D01*
X29398343Y-64441574D01*
X29530912Y-64480499D01*
X29530914Y-64480500D01*
X29530915Y-64480500D01*
X29669086Y-64480500D01*
X29669086Y-64480499D01*
X29801659Y-64441573D01*
X29917896Y-64366872D01*
X30008379Y-64262449D01*
X30065777Y-64136765D01*
X30085441Y-64000000D01*
X30065777Y-63863235D01*
X30008379Y-63737551D01*
X29917896Y-63633128D01*
X29917893Y-63633126D01*
X29917891Y-63633124D01*
X29801661Y-63558427D01*
X29801656Y-63558425D01*
X29669087Y-63519500D01*
X29669085Y-63519500D01*
X29530915Y-63519500D01*
X29530912Y-63519500D01*
X29398343Y-63558425D01*
X29398338Y-63558427D01*
X29282108Y-63633124D01*
X29282106Y-63633126D01*
X29282104Y-63633127D01*
X29282104Y-63633128D01*
X29222682Y-63701703D01*
X29163906Y-63739477D01*
X29128971Y-63744500D01*
X28665265Y-63744500D01*
X28665257Y-63744499D01*
X28650823Y-63744499D01*
X28549178Y-63744499D01*
X28549177Y-63744499D01*
X28455269Y-63783398D01*
X26401221Y-65837447D01*
X24425272Y-67813396D01*
X24425271Y-67813397D01*
X24400120Y-67838548D01*
X24353396Y-67885271D01*
X24325891Y-67951675D01*
X24315951Y-67975675D01*
X24315945Y-67975691D01*
X24314500Y-67979178D01*
X21688602Y-67979178D01*
X21688602Y-63674500D01*
X21708287Y-63607461D01*
X21761091Y-63561706D01*
X21812602Y-63550500D01*
X21987928Y-63550500D01*
X21987930Y-63550500D01*
X22079999Y-63512364D01*
X22150466Y-63441897D01*
X22188602Y-63349828D01*
X22188602Y-62500000D01*
X35489559Y-62500000D01*
X35509222Y-62636765D01*
X35554121Y-62735078D01*
X35566621Y-62762449D01*
X35657104Y-62866872D01*
X35657106Y-62866873D01*
X35657108Y-62866875D01*
X35773338Y-62941572D01*
X35773343Y-62941574D01*
X35905912Y-62980499D01*
X35905914Y-62980500D01*
X35905915Y-62980500D01*
X36044086Y-62980500D01*
X36044086Y-62980499D01*
X36176659Y-62941573D01*
X36292896Y-62866872D01*
X36383379Y-62762449D01*
X36440777Y-62636765D01*
X36460441Y-62500000D01*
X36442099Y-62372427D01*
X36440777Y-62363234D01*
X36393867Y-62260517D01*
X36383379Y-62237551D01*
X36292896Y-62133128D01*
X36292893Y-62133126D01*
X36292891Y-62133124D01*
X36176661Y-62058427D01*
X36176656Y-62058425D01*
X36044087Y-62019500D01*
X36044085Y-62019500D01*
X35905915Y-62019500D01*
X35905912Y-62019500D01*
X35773343Y-62058425D01*
X35773338Y-62058427D01*
X35657108Y-62133124D01*
X35657106Y-62133126D01*
X35566621Y-62237551D01*
X35566620Y-62237552D01*
X35509222Y-62363234D01*
X35489559Y-62500000D01*
X22188602Y-62500000D01*
X22188602Y-59800000D01*
X34964559Y-59800000D01*
X34984222Y-59936765D01*
X35030111Y-60037246D01*
X35041621Y-60062449D01*
X35132104Y-60166872D01*
X35132106Y-60166873D01*
X35132108Y-60166875D01*
X35248338Y-60241572D01*
X35248343Y-60241574D01*
X35380912Y-60280499D01*
X35380914Y-60280500D01*
X35380915Y-60280500D01*
X35519086Y-60280500D01*
X35519086Y-60280499D01*
X35651659Y-60241573D01*
X35767896Y-60166872D01*
X35858379Y-60062449D01*
X35915777Y-59936765D01*
X35935441Y-59800000D01*
X35915777Y-59663235D01*
X35905884Y-59641573D01*
X35861816Y-59545078D01*
X35858379Y-59537551D01*
X35767896Y-59433128D01*
X35767893Y-59433126D01*
X35767891Y-59433124D01*
X35651661Y-59358427D01*
X35651656Y-59358425D01*
X35519087Y-59319500D01*
X35519085Y-59319500D01*
X35380915Y-59319500D01*
X35380912Y-59319500D01*
X35248343Y-59358425D01*
X35248338Y-59358427D01*
X35132108Y-59433124D01*
X35132106Y-59433126D01*
X35041621Y-59537551D01*
X35041620Y-59537552D01*
X34984222Y-59663234D01*
X34964559Y-59800000D01*
X22188602Y-59800000D01*
X22188602Y-59217808D01*
X38975871Y-59217808D01*
X38975871Y-60037246D01*
X38975872Y-60037251D01*
X39014765Y-60131152D01*
X39104078Y-60220465D01*
X39104084Y-60220470D01*
X41430246Y-62546632D01*
X41463731Y-62607955D01*
X41466565Y-62634313D01*
X41466565Y-63441202D01*
X41446880Y-63508241D01*
X41394076Y-63553996D01*
X41324918Y-63563940D01*
X41307631Y-63560179D01*
X41169088Y-63519500D01*
X41169085Y-63519500D01*
X41030915Y-63519500D01*
X41030912Y-63519500D01*
X40898343Y-63558425D01*
X40898338Y-63558427D01*
X40782108Y-63633124D01*
X40782106Y-63633126D01*
X40782104Y-63633127D01*
X40782104Y-63633128D01*
X40695457Y-63733124D01*
X40691621Y-63737551D01*
X40691620Y-63737552D01*
X40634222Y-63863234D01*
X40614559Y-64000000D01*
X40634222Y-64136765D01*
X40688447Y-64255500D01*
X40691621Y-64262449D01*
X40782104Y-64366872D01*
X40782106Y-64366873D01*
X40782108Y-64366875D01*
X40898338Y-64441572D01*
X40898343Y-64441574D01*
X41030912Y-64480499D01*
X41030914Y-64480500D01*
X41030915Y-64480500D01*
X41169085Y-64480500D01*
X41307630Y-64439820D01*
X41377500Y-64439820D01*
X41436278Y-64477594D01*
X41465303Y-64541150D01*
X41466565Y-64558797D01*
X41466565Y-87172885D01*
X41466566Y-87172890D01*
X41505459Y-87266791D01*
X41594772Y-87356104D01*
X41594778Y-87356109D01*
X46986269Y-92747600D01*
X47019754Y-92808923D01*
X47021326Y-92852926D01*
X47014559Y-92899998D01*
X47014559Y-92899999D01*
X47034222Y-93036765D01*
X47091620Y-93162447D01*
X47091621Y-93162449D01*
X47182104Y-93266872D01*
X47182106Y-93266873D01*
X47226937Y-93295685D01*
X47272692Y-93348489D01*
X47282635Y-93417648D01*
X47253610Y-93481203D01*
X47226937Y-93504315D01*
X47182106Y-93533126D01*
X47091621Y-93637551D01*
X47091620Y-93637552D01*
X47034222Y-93763234D01*
X47014559Y-93900000D01*
X47034222Y-94036765D01*
X47091620Y-94162447D01*
X47091621Y-94162449D01*
X47182104Y-94266872D01*
X47182106Y-94266873D01*
X47226937Y-94295685D01*
X47272692Y-94348489D01*
X47282635Y-94417648D01*
X47253610Y-94481203D01*
X47226937Y-94504315D01*
X47182106Y-94533126D01*
X47182104Y-94533127D01*
X47182104Y-94533128D01*
X47160180Y-94558430D01*
X47091621Y-94637551D01*
X47091620Y-94637552D01*
X47034222Y-94763234D01*
X47014559Y-94900000D01*
X47034222Y-95036765D01*
X47091620Y-95162447D01*
X47091621Y-95162449D01*
X47182104Y-95266872D01*
X47182106Y-95266873D01*
X47182108Y-95266875D01*
X47298338Y-95341572D01*
X47298343Y-95341574D01*
X47430912Y-95380499D01*
X47430914Y-95380500D01*
X47430915Y-95380500D01*
X47569086Y-95380500D01*
X47569086Y-95380499D01*
X47701659Y-95341573D01*
X47817896Y-95266872D01*
X47908379Y-95162449D01*
X47965777Y-95036765D01*
X47985441Y-94900000D01*
X47965777Y-94763235D01*
X47952299Y-94733723D01*
X47908379Y-94637552D01*
X47908379Y-94637551D01*
X47817896Y-94533128D01*
X47773062Y-94504315D01*
X47727308Y-94451512D01*
X47717364Y-94382353D01*
X47746389Y-94318798D01*
X47773061Y-94295685D01*
X47817896Y-94266872D01*
X47908379Y-94162449D01*
X47965777Y-94036765D01*
X47985441Y-93900000D01*
X47978672Y-93852926D01*
X47988615Y-93783771D01*
X48013726Y-93747603D01*
X49016603Y-92744729D01*
X49055501Y-92650822D01*
X49055501Y-92549177D01*
X49055501Y-92539188D01*
X49055500Y-92539174D01*
X49055500Y-91975000D01*
X55784559Y-91975000D01*
X55804222Y-92111765D01*
X55850562Y-92213234D01*
X55861621Y-92237449D01*
X55952104Y-92341872D01*
X55952106Y-92341873D01*
X55952108Y-92341875D01*
X56068338Y-92416572D01*
X56068343Y-92416574D01*
X56200912Y-92455499D01*
X56200914Y-92455500D01*
X56200915Y-92455500D01*
X56339086Y-92455500D01*
X56339086Y-92455499D01*
X56441964Y-92425292D01*
X56471656Y-92416574D01*
X56471657Y-92416573D01*
X56471659Y-92416573D01*
X56587896Y-92341872D01*
X56678379Y-92237449D01*
X56735777Y-92111765D01*
X56755441Y-91975000D01*
X56735777Y-91838235D01*
X56678379Y-91712551D01*
X56587896Y-91608128D01*
X56587893Y-91608126D01*
X56587891Y-91608124D01*
X56471661Y-91533427D01*
X56471656Y-91533425D01*
X56339087Y-91494500D01*
X56339085Y-91494500D01*
X56200915Y-91494500D01*
X56200912Y-91494500D01*
X56068343Y-91533425D01*
X56068338Y-91533427D01*
X55952108Y-91608124D01*
X55952106Y-91608126D01*
X55861621Y-91712551D01*
X55861620Y-91712552D01*
X55804222Y-91838234D01*
X55784559Y-91975000D01*
X49055500Y-91975000D01*
X49055500Y-85012597D01*
X49075185Y-84945558D01*
X49127989Y-84899803D01*
X49197147Y-84889859D01*
X49246538Y-84908281D01*
X49298341Y-84941573D01*
X49298343Y-84941574D01*
X49430912Y-84980499D01*
X49430914Y-84980500D01*
X49430915Y-84980500D01*
X49569086Y-84980500D01*
X49569086Y-84980499D01*
X49701659Y-84941573D01*
X49817896Y-84866872D01*
X49908379Y-84762449D01*
X49965777Y-84636765D01*
X49985441Y-84500000D01*
X49965777Y-84363235D01*
X49908379Y-84237551D01*
X49817896Y-84133128D01*
X49817893Y-84133126D01*
X49817891Y-84133124D01*
X49701661Y-84058427D01*
X49701656Y-84058425D01*
X49569087Y-84019500D01*
X49569085Y-84019500D01*
X49430915Y-84019500D01*
X49430912Y-84019500D01*
X49298343Y-84058425D01*
X49246539Y-84091718D01*
X49179499Y-84111402D01*
X49112460Y-84091717D01*
X49066705Y-84038913D01*
X49055500Y-83987402D01*
X49055500Y-80100000D01*
X55714559Y-80100000D01*
X55734222Y-80236765D01*
X55791620Y-80362447D01*
X55791621Y-80362449D01*
X55882104Y-80466872D01*
X55882106Y-80466873D01*
X55882108Y-80466875D01*
X55998338Y-80541572D01*
X55998343Y-80541574D01*
X56130912Y-80580499D01*
X56130914Y-80580500D01*
X56130915Y-80580500D01*
X56269086Y-80580500D01*
X56269086Y-80580499D01*
X56401659Y-80541573D01*
X56517896Y-80466872D01*
X56608379Y-80362449D01*
X56665777Y-80236765D01*
X56685441Y-80100000D01*
X56665777Y-79963235D01*
X56608379Y-79837551D01*
X56517896Y-79733128D01*
X56517893Y-79733126D01*
X56517891Y-79733124D01*
X56401661Y-79658427D01*
X56401656Y-79658425D01*
X56269087Y-79619500D01*
X56269085Y-79619500D01*
X56130915Y-79619500D01*
X56130912Y-79619500D01*
X55998343Y-79658425D01*
X55998338Y-79658427D01*
X55882108Y-79733124D01*
X55882106Y-79733126D01*
X55791621Y-79837551D01*
X55791620Y-79837552D01*
X55734222Y-79963234D01*
X55714559Y-80100000D01*
X49055500Y-80100000D01*
X49055500Y-76000000D01*
X54814559Y-76000000D01*
X54834222Y-76136765D01*
X54885936Y-76250000D01*
X54891621Y-76262449D01*
X54982104Y-76366872D01*
X54982106Y-76366873D01*
X54982108Y-76366875D01*
X55098338Y-76441572D01*
X55098343Y-76441574D01*
X55230912Y-76480499D01*
X55230914Y-76480500D01*
X55230915Y-76480500D01*
X55369086Y-76480500D01*
X55369086Y-76480499D01*
X55501659Y-76441573D01*
X55617896Y-76366872D01*
X55708379Y-76262449D01*
X55765777Y-76136765D01*
X55785441Y-76000000D01*
X55765777Y-75863235D01*
X55708379Y-75737551D01*
X55617896Y-75633128D01*
X55617893Y-75633126D01*
X55617891Y-75633124D01*
X55501661Y-75558427D01*
X55501656Y-75558425D01*
X55369087Y-75519500D01*
X55369085Y-75519500D01*
X55230915Y-75519500D01*
X55230912Y-75519500D01*
X55098343Y-75558425D01*
X55098338Y-75558427D01*
X54982108Y-75633124D01*
X54982106Y-75633126D01*
X54891621Y-75737551D01*
X54891620Y-75737552D01*
X54834222Y-75863234D01*
X54814559Y-76000000D01*
X49055500Y-76000000D01*
X49055500Y-73350170D01*
X56674500Y-73350170D01*
X56674500Y-75349829D01*
X56712636Y-75441897D01*
X56783103Y-75512364D01*
X56875172Y-75550500D01*
X56875174Y-75550500D01*
X57814320Y-75550500D01*
X57881359Y-75570185D01*
X57927114Y-75622989D01*
X57937058Y-75692147D01*
X57908033Y-75755703D01*
X57849255Y-75793477D01*
X57798341Y-75808426D01*
X57798338Y-75808427D01*
X57682108Y-75883124D01*
X57682106Y-75883126D01*
X57591621Y-75987551D01*
X57591620Y-75987552D01*
X57534222Y-76113234D01*
X57514559Y-76250000D01*
X57534222Y-76386765D01*
X57559253Y-76441574D01*
X57591621Y-76512449D01*
X57682104Y-76616872D01*
X57682106Y-76616873D01*
X57682108Y-76616875D01*
X57798338Y-76691572D01*
X57798343Y-76691574D01*
X57930912Y-76730499D01*
X57930914Y-76730500D01*
X57930915Y-76730500D01*
X58069086Y-76730500D01*
X58069086Y-76730499D01*
X58201659Y-76691573D01*
X58317896Y-76616872D01*
X58408379Y-76512449D01*
X58465777Y-76386765D01*
X58485441Y-76250000D01*
X58465777Y-76113235D01*
X58408379Y-75987551D01*
X58317896Y-75883128D01*
X58317893Y-75883126D01*
X58317891Y-75883124D01*
X58201661Y-75808427D01*
X58201658Y-75808426D01*
X58150745Y-75793477D01*
X58091967Y-75755703D01*
X58062942Y-75692147D01*
X58072885Y-75622989D01*
X58118640Y-75570185D01*
X58185680Y-75550500D01*
X58674826Y-75550500D01*
X58674828Y-75550500D01*
X58766897Y-75512364D01*
X58837364Y-75441897D01*
X58875500Y-75349828D01*
X58875500Y-73350172D01*
X58837364Y-73258103D01*
X58766897Y-73187636D01*
X58674829Y-73149500D01*
X58674828Y-73149500D01*
X56974828Y-73149500D01*
X56875172Y-73149500D01*
X56875170Y-73149500D01*
X56783102Y-73187636D01*
X56712636Y-73258102D01*
X56674500Y-73350170D01*
X49055500Y-73350170D01*
X49055500Y-72249179D01*
X49055498Y-72249174D01*
X49016605Y-72155273D01*
X48937664Y-72076332D01*
X48937657Y-72076326D01*
X48934043Y-72072712D01*
X48916603Y-72055271D01*
X48844729Y-71983397D01*
X48778327Y-71955892D01*
X48750823Y-71944500D01*
X45017305Y-71944500D01*
X44950266Y-71924815D01*
X44929624Y-71908181D01*
X44291819Y-71270376D01*
X44258334Y-71209053D01*
X44255500Y-71182695D01*
X44255500Y-70750000D01*
X49264559Y-70750000D01*
X49284222Y-70886765D01*
X49335936Y-71000000D01*
X49341621Y-71012449D01*
X49432104Y-71116872D01*
X49432106Y-71116873D01*
X49432108Y-71116875D01*
X49548338Y-71191572D01*
X49548343Y-71191574D01*
X49680912Y-71230499D01*
X49680914Y-71230500D01*
X49680915Y-71230500D01*
X49819086Y-71230500D01*
X49819086Y-71230499D01*
X49951659Y-71191573D01*
X49965474Y-71182695D01*
X50067891Y-71116875D01*
X50067890Y-71116875D01*
X50067896Y-71116872D01*
X50158379Y-71012449D01*
X50215777Y-70886765D01*
X50235441Y-70750000D01*
X50216378Y-70617413D01*
X50215777Y-70613234D01*
X50187078Y-70550393D01*
X50158379Y-70487551D01*
X50067896Y-70383128D01*
X50067893Y-70383126D01*
X50067891Y-70383124D01*
X49951661Y-70308427D01*
X49951656Y-70308425D01*
X49819087Y-70269500D01*
X49819085Y-70269500D01*
X49680915Y-70269500D01*
X49680912Y-70269500D01*
X49548343Y-70308425D01*
X49548338Y-70308427D01*
X49432108Y-70383124D01*
X49432106Y-70383126D01*
X49432104Y-70383127D01*
X49432104Y-70383128D01*
X49341621Y-70487551D01*
X49341620Y-70487552D01*
X49284222Y-70613234D01*
X49264559Y-70750000D01*
X44255500Y-70750000D01*
X44255500Y-70157979D01*
X44275185Y-70090940D01*
X44327989Y-70045185D01*
X44397147Y-70035241D01*
X44414232Y-70040298D01*
X44414592Y-70039075D01*
X44555673Y-70080499D01*
X44555675Y-70080500D01*
X44555676Y-70080500D01*
X44693847Y-70080500D01*
X44693847Y-70080499D01*
X44826420Y-70041573D01*
X44831523Y-70038294D01*
X44942652Y-69966875D01*
X44942651Y-69966875D01*
X44942657Y-69966872D01*
X45033140Y-69862449D01*
X45090538Y-69736765D01*
X45110202Y-69600000D01*
X45090538Y-69463235D01*
X45080645Y-69441573D01*
X45053332Y-69381765D01*
X45033140Y-69337551D01*
X44942657Y-69233128D01*
X44942654Y-69233126D01*
X44942652Y-69233124D01*
X44826422Y-69158427D01*
X44826417Y-69158425D01*
X44693848Y-69119500D01*
X44693846Y-69119500D01*
X44555676Y-69119500D01*
X44555673Y-69119500D01*
X44414592Y-69160925D01*
X44413539Y-69157340D01*
X44361753Y-69164743D01*
X44298221Y-69135666D01*
X44260494Y-69076857D01*
X44255500Y-69042020D01*
X44255500Y-67175000D01*
X44964559Y-67175000D01*
X44984222Y-67311765D01*
X45041620Y-67437447D01*
X45041621Y-67437449D01*
X45132104Y-67541872D01*
X45132106Y-67541873D01*
X45132108Y-67541875D01*
X45248338Y-67616572D01*
X45248343Y-67616574D01*
X45380912Y-67655499D01*
X45380914Y-67655500D01*
X45380915Y-67655500D01*
X45519086Y-67655500D01*
X45519086Y-67655499D01*
X45651659Y-67616573D01*
X45670780Y-67604285D01*
X45767891Y-67541875D01*
X45767890Y-67541875D01*
X45767896Y-67541872D01*
X45858379Y-67437449D01*
X45901800Y-67342371D01*
X47314559Y-67342371D01*
X47334222Y-67479136D01*
X47380000Y-67579374D01*
X47391621Y-67604820D01*
X47482104Y-67709243D01*
X47482106Y-67709244D01*
X47482108Y-67709246D01*
X47598338Y-67783943D01*
X47598343Y-67783945D01*
X47730912Y-67822870D01*
X47730914Y-67822871D01*
X47831533Y-67822871D01*
X47898572Y-67842556D01*
X47944327Y-67895360D01*
X47954271Y-67964518D01*
X47944328Y-67998382D01*
X47934222Y-68020509D01*
X47914559Y-68157274D01*
X47934222Y-68294039D01*
X47988163Y-68412151D01*
X47991621Y-68419723D01*
X48082104Y-68524146D01*
X48183010Y-68588994D01*
X48228763Y-68641796D01*
X48238707Y-68710954D01*
X48209682Y-68774510D01*
X48179719Y-68796949D01*
X48180801Y-68798632D01*
X48057108Y-68878124D01*
X48057106Y-68878126D01*
X48057104Y-68878127D01*
X48057104Y-68878128D01*
X48007501Y-68935373D01*
X47966621Y-68982551D01*
X47966620Y-68982552D01*
X47909222Y-69108234D01*
X47889559Y-69245000D01*
X47909222Y-69381765D01*
X47954313Y-69480499D01*
X47966621Y-69507449D01*
X48057104Y-69611872D01*
X48057106Y-69611873D01*
X48057108Y-69611875D01*
X48173338Y-69686572D01*
X48173343Y-69686574D01*
X48305912Y-69725499D01*
X48305914Y-69725500D01*
X48305915Y-69725500D01*
X48444086Y-69725500D01*
X48444086Y-69725499D01*
X48576659Y-69686573D01*
X48692896Y-69611872D01*
X48783379Y-69507449D01*
X48840777Y-69381765D01*
X48860441Y-69245000D01*
X48840777Y-69108235D01*
X48783379Y-68982551D01*
X48692896Y-68878128D01*
X48591989Y-68813279D01*
X48546236Y-68760477D01*
X48536292Y-68691318D01*
X48565317Y-68627763D01*
X48595285Y-68605332D01*
X48594199Y-68603642D01*
X48717891Y-68524149D01*
X48717890Y-68524149D01*
X48717896Y-68524146D01*
X48808379Y-68419723D01*
X48865777Y-68294039D01*
X48885441Y-68157274D01*
X48865777Y-68020509D01*
X48808379Y-67894825D01*
X48717896Y-67790402D01*
X48717893Y-67790400D01*
X48717891Y-67790398D01*
X48601661Y-67715701D01*
X48601656Y-67715699D01*
X48469087Y-67676774D01*
X48469085Y-67676774D01*
X48368467Y-67676774D01*
X48301428Y-67657089D01*
X48255673Y-67604285D01*
X48245729Y-67535127D01*
X48255672Y-67501263D01*
X48257005Y-67498342D01*
X48265777Y-67479136D01*
X48285441Y-67342371D01*
X48265777Y-67205606D01*
X48208379Y-67079922D01*
X48117896Y-66975499D01*
X48117893Y-66975497D01*
X48117891Y-66975495D01*
X48001661Y-66900798D01*
X48001656Y-66900796D01*
X47869087Y-66861871D01*
X47869085Y-66861871D01*
X47730915Y-66861871D01*
X47730912Y-66861871D01*
X47598343Y-66900796D01*
X47598338Y-66900798D01*
X47482108Y-66975495D01*
X47482106Y-66975497D01*
X47482104Y-66975498D01*
X47482104Y-66975499D01*
X47481223Y-66976516D01*
X47391621Y-67079922D01*
X47391620Y-67079923D01*
X47334222Y-67205605D01*
X47314559Y-67342371D01*
X45901800Y-67342371D01*
X45915777Y-67311765D01*
X45935441Y-67175000D01*
X45915777Y-67038235D01*
X45905884Y-67016573D01*
X45887078Y-66975393D01*
X45858379Y-66912551D01*
X45767896Y-66808128D01*
X45767893Y-66808126D01*
X45767891Y-66808124D01*
X45651661Y-66733427D01*
X45651656Y-66733425D01*
X45519087Y-66694500D01*
X45519085Y-66694500D01*
X45380915Y-66694500D01*
X45380912Y-66694500D01*
X45248343Y-66733425D01*
X45248338Y-66733427D01*
X45132108Y-66808124D01*
X45132106Y-66808126D01*
X45132104Y-66808127D01*
X45132104Y-66808128D01*
X45084654Y-66862888D01*
X45041621Y-66912551D01*
X45041620Y-66912552D01*
X44984222Y-67038234D01*
X44964559Y-67175000D01*
X44255500Y-67175000D01*
X44255500Y-63057193D01*
X44275185Y-62990154D01*
X44291819Y-62969512D01*
X44702905Y-62558427D01*
X45146492Y-62114840D01*
X45185390Y-62020933D01*
X45185390Y-61919288D01*
X45185390Y-61909299D01*
X45185389Y-61909285D01*
X45185389Y-60608606D01*
X45205074Y-60541567D01*
X45257878Y-60495812D01*
X45327036Y-60485868D01*
X45376427Y-60504290D01*
X45391998Y-60514297D01*
X45473342Y-60566574D01*
X45605912Y-60605499D01*
X45605914Y-60605500D01*
X45713995Y-60605500D01*
X45781034Y-60625185D01*
X45826789Y-60677989D01*
X45836733Y-60747147D01*
X45807708Y-60810703D01*
X45788690Y-60827181D01*
X45788809Y-60827318D01*
X45782106Y-60833126D01*
X45691621Y-60937551D01*
X45691620Y-60937552D01*
X45634222Y-61063234D01*
X45614559Y-61200000D01*
X45634222Y-61336765D01*
X45691620Y-61462447D01*
X45691621Y-61462449D01*
X45782104Y-61566872D01*
X45782106Y-61566873D01*
X45782106Y-61566874D01*
X45801912Y-61579602D01*
X45847668Y-61632405D01*
X45857612Y-61701564D01*
X45828588Y-61765119D01*
X45791475Y-61807950D01*
X45791472Y-61807955D01*
X45734074Y-61933637D01*
X45714411Y-62070403D01*
X45734074Y-62207168D01*
X45791472Y-62332850D01*
X45791475Y-62332856D01*
X45825764Y-62372427D01*
X45854789Y-62435982D01*
X45844845Y-62505141D01*
X45799091Y-62557944D01*
X45682106Y-62633126D01*
X45682104Y-62633127D01*
X45682104Y-62633128D01*
X45678271Y-62637552D01*
X45591621Y-62737551D01*
X45591620Y-62737552D01*
X45534222Y-62863234D01*
X45514559Y-63000000D01*
X45534222Y-63136765D01*
X45545952Y-63162449D01*
X45591621Y-63262449D01*
X45682104Y-63366872D01*
X45736642Y-63401922D01*
X45782397Y-63454725D01*
X45792341Y-63523884D01*
X45782397Y-63557749D01*
X45734222Y-63663234D01*
X45714559Y-63800000D01*
X45734222Y-63936765D01*
X45791620Y-64062447D01*
X45791621Y-64062449D01*
X45882104Y-64166872D01*
X45882106Y-64166873D01*
X45882108Y-64166875D01*
X45998338Y-64241572D01*
X45998343Y-64241574D01*
X46101220Y-64271780D01*
X46119526Y-64277156D01*
X46130912Y-64280499D01*
X46130914Y-64280500D01*
X46232452Y-64280500D01*
X46299491Y-64300185D01*
X46320132Y-64316818D01*
X47345543Y-65342230D01*
X47345544Y-65342231D01*
X47397769Y-65394456D01*
X47461731Y-65431384D01*
X47533072Y-65450500D01*
X47606929Y-65450500D01*
X49361361Y-65450500D01*
X49428400Y-65470185D01*
X49474155Y-65522989D01*
X49484099Y-65592147D01*
X49480339Y-65609433D01*
X49479222Y-65613234D01*
X49459559Y-65750000D01*
X49479222Y-65886765D01*
X49517467Y-65970508D01*
X49536621Y-66012449D01*
X49627104Y-66116872D01*
X49627106Y-66116873D01*
X49627108Y-66116875D01*
X49743338Y-66191572D01*
X49743343Y-66191574D01*
X49875912Y-66230499D01*
X49875914Y-66230500D01*
X49875915Y-66230500D01*
X50014086Y-66230500D01*
X50014086Y-66230499D01*
X50116964Y-66200292D01*
X50146656Y-66191574D01*
X50146657Y-66191573D01*
X50146659Y-66191573D01*
X50262896Y-66116872D01*
X50353379Y-66012449D01*
X50372533Y-65970505D01*
X50418287Y-65917704D01*
X50485326Y-65898019D01*
X50552366Y-65917703D01*
X50573007Y-65934337D01*
X54585899Y-69947230D01*
X54585900Y-69947231D01*
X54638125Y-69999456D01*
X54648577Y-70005490D01*
X54648579Y-70005492D01*
X54648580Y-70005492D01*
X54702087Y-70036384D01*
X54773427Y-70055500D01*
X54773428Y-70055500D01*
X59642808Y-70055500D01*
X59709847Y-70075185D01*
X59730489Y-70091819D01*
X60508181Y-70869511D01*
X60541666Y-70930834D01*
X60544500Y-70957192D01*
X60544500Y-94836928D01*
X60544828Y-94838151D01*
X60549961Y-94857308D01*
X60552923Y-94907045D01*
X60539559Y-94999999D01*
X60559222Y-95136765D01*
X60570952Y-95162449D01*
X60616621Y-95262449D01*
X60707104Y-95366872D01*
X60707106Y-95366873D01*
X60707108Y-95366875D01*
X60823338Y-95441572D01*
X60823343Y-95441574D01*
X60955912Y-95480499D01*
X60955914Y-95480500D01*
X60955915Y-95480500D01*
X61094086Y-95480500D01*
X61094086Y-95480499D01*
X61226659Y-95441573D01*
X61342896Y-95366872D01*
X61433379Y-95262449D01*
X61490777Y-95136765D01*
X61510441Y-95000000D01*
X61490777Y-94863235D01*
X61488070Y-94857308D01*
X61433379Y-94737552D01*
X61433379Y-94737551D01*
X61342896Y-94633128D01*
X61342893Y-94633126D01*
X61342891Y-94633124D01*
X61226665Y-94558430D01*
X61226661Y-94558428D01*
X61226659Y-94558427D01*
X61194563Y-94549002D01*
X61135786Y-94511227D01*
X61106762Y-94447671D01*
X61105500Y-94430026D01*
X61105500Y-92928489D01*
X61125185Y-92861450D01*
X61177989Y-92815695D01*
X61247147Y-92805751D01*
X61264435Y-92809512D01*
X61335914Y-92830500D01*
X61335915Y-92830500D01*
X61474086Y-92830500D01*
X61474086Y-92830499D01*
X61606659Y-92791573D01*
X61722896Y-92716872D01*
X61813379Y-92612449D01*
X61870777Y-92486765D01*
X61890441Y-92350000D01*
X61870777Y-92213235D01*
X61813379Y-92087551D01*
X61722896Y-91983128D01*
X61722893Y-91983126D01*
X61722891Y-91983124D01*
X61606661Y-91908427D01*
X61606656Y-91908425D01*
X61474087Y-91869500D01*
X61474085Y-91869500D01*
X61335915Y-91869500D01*
X61264433Y-91890488D01*
X61194564Y-91890487D01*
X61135786Y-91852711D01*
X61106762Y-91789155D01*
X61105500Y-91771510D01*
X61105500Y-70752718D01*
X61105500Y-70752716D01*
X61086384Y-70681375D01*
X61049456Y-70617413D01*
X60997231Y-70565188D01*
X60997230Y-70565187D01*
X60041881Y-69609839D01*
X60041880Y-69609837D01*
X59982588Y-69550545D01*
X59982587Y-69550544D01*
X59918625Y-69513616D01*
X59918622Y-69513615D01*
X59895611Y-69507448D01*
X59895611Y-69507449D01*
X59847285Y-69494500D01*
X59847284Y-69494500D01*
X54977905Y-69494500D01*
X54910866Y-69474815D01*
X54890224Y-69458181D01*
X51007042Y-65575000D01*
X52689559Y-65575000D01*
X52709222Y-65711765D01*
X52726684Y-65750000D01*
X52766621Y-65837449D01*
X52857104Y-65941872D01*
X52857106Y-65941873D01*
X52857108Y-65941875D01*
X52973338Y-66016572D01*
X52973343Y-66016574D01*
X53105912Y-66055499D01*
X53105914Y-66055500D01*
X53105915Y-66055500D01*
X53244086Y-66055500D01*
X53244086Y-66055499D01*
X53376659Y-66016573D01*
X53383080Y-66012447D01*
X53443169Y-65973829D01*
X53492896Y-65941872D01*
X53583379Y-65837449D01*
X53640777Y-65711765D01*
X53660441Y-65575000D01*
X53640777Y-65438235D01*
X53637648Y-65431384D01*
X53583379Y-65312552D01*
X53583379Y-65312551D01*
X53492896Y-65208128D01*
X53492893Y-65208126D01*
X53492891Y-65208124D01*
X53376661Y-65133427D01*
X53376656Y-65133425D01*
X53244087Y-65094500D01*
X53244085Y-65094500D01*
X53105915Y-65094500D01*
X53105912Y-65094500D01*
X52973343Y-65133425D01*
X52973338Y-65133427D01*
X52857108Y-65208124D01*
X52857106Y-65208126D01*
X52766621Y-65312551D01*
X52766620Y-65312552D01*
X52709222Y-65438234D01*
X52689559Y-65575000D01*
X51007042Y-65575000D01*
X50436882Y-65004840D01*
X50436880Y-65004837D01*
X50377588Y-64945545D01*
X50377587Y-64945544D01*
X50313625Y-64908616D01*
X50313626Y-64908616D01*
X50289845Y-64902244D01*
X50242285Y-64889500D01*
X50242284Y-64889500D01*
X50242283Y-64889500D01*
X47737549Y-64889500D01*
X47670510Y-64869815D01*
X47649868Y-64853181D01*
X46718174Y-63921487D01*
X46684689Y-63860164D01*
X46683118Y-63816156D01*
X46685441Y-63800001D01*
X46685441Y-63800000D01*
X46665777Y-63663234D01*
X46618713Y-63560179D01*
X46608379Y-63537551D01*
X46517896Y-63433128D01*
X46517893Y-63433126D01*
X46463357Y-63398077D01*
X46417602Y-63345273D01*
X46407659Y-63276114D01*
X46417601Y-63242253D01*
X46465777Y-63136765D01*
X46485441Y-63000000D01*
X46465777Y-62863235D01*
X46459357Y-62849178D01*
X46420108Y-62763234D01*
X46408379Y-62737551D01*
X46374086Y-62697975D01*
X46345062Y-62634420D01*
X46355006Y-62565261D01*
X46400761Y-62512457D01*
X46401508Y-62511976D01*
X46401511Y-62511976D01*
X46517748Y-62437275D01*
X46608231Y-62332852D01*
X46665629Y-62207168D01*
X46685293Y-62070403D01*
X46665629Y-61933638D01*
X46659074Y-61919285D01*
X46621748Y-61837552D01*
X46608231Y-61807954D01*
X46517748Y-61703531D01*
X46517745Y-61703529D01*
X46517743Y-61703527D01*
X46497938Y-61690799D01*
X46452183Y-61637995D01*
X46442239Y-61568837D01*
X46471263Y-61505283D01*
X46508379Y-61462449D01*
X46565777Y-61336765D01*
X46585441Y-61200000D01*
X46565777Y-61063235D01*
X46508379Y-60937551D01*
X46417896Y-60833128D01*
X46417893Y-60833126D01*
X46417891Y-60833124D01*
X46301661Y-60758427D01*
X46301656Y-60758425D01*
X46169087Y-60719500D01*
X46169085Y-60719500D01*
X46061005Y-60719500D01*
X45993966Y-60699815D01*
X45948211Y-60647011D01*
X45938267Y-60577853D01*
X45967292Y-60514297D01*
X45986309Y-60497818D01*
X45986191Y-60497682D01*
X45992888Y-60491876D01*
X45992896Y-60491872D01*
X46083379Y-60387449D01*
X46140777Y-60261765D01*
X46141760Y-60254930D01*
X46170783Y-60191374D01*
X46229560Y-60153598D01*
X46299430Y-60153596D01*
X46299432Y-60153597D01*
X46305912Y-60155499D01*
X46305914Y-60155500D01*
X46305915Y-60155500D01*
X46444086Y-60155500D01*
X46444086Y-60155499D01*
X46576659Y-60116573D01*
X46592209Y-60106580D01*
X46643169Y-60073829D01*
X46692896Y-60041872D01*
X46783379Y-59937449D01*
X46840777Y-59811765D01*
X46852762Y-59728407D01*
X46878225Y-59672649D01*
X46856523Y-59638879D01*
X46852762Y-59621591D01*
X46840777Y-59538234D01*
X46792774Y-59433124D01*
X46783379Y-59412551D01*
X46692896Y-59308128D01*
X46692893Y-59308126D01*
X46692891Y-59308124D01*
X46576661Y-59233427D01*
X46576656Y-59233425D01*
X46444087Y-59194500D01*
X46444085Y-59194500D01*
X46305915Y-59194500D01*
X46305912Y-59194500D01*
X46173343Y-59233425D01*
X46173338Y-59233427D01*
X46057108Y-59308124D01*
X46057106Y-59308126D01*
X46057104Y-59308127D01*
X46057104Y-59308128D01*
X46013520Y-59358427D01*
X45966621Y-59412551D01*
X45966620Y-59412552D01*
X45909222Y-59538235D01*
X45909221Y-59538236D01*
X45908238Y-59545078D01*
X45879210Y-59608632D01*
X45820430Y-59646404D01*
X45750572Y-59646404D01*
X45744086Y-59644500D01*
X45744085Y-59644500D01*
X45605915Y-59644500D01*
X45605912Y-59644500D01*
X45473343Y-59683425D01*
X45376428Y-59745709D01*
X45309389Y-59765393D01*
X45242349Y-59745708D01*
X45196594Y-59692904D01*
X45185389Y-59641393D01*
X45185389Y-59312192D01*
X45205074Y-59245153D01*
X45221704Y-59224515D01*
X45427287Y-59018931D01*
X45427290Y-59018930D01*
X45444728Y-59001492D01*
X45444729Y-59001492D01*
X45516603Y-58929618D01*
X45549780Y-58849520D01*
X45555500Y-58835712D01*
X45555500Y-58734066D01*
X45555500Y-57600000D01*
X45884559Y-57600000D01*
X45904222Y-57736765D01*
X45961620Y-57862447D01*
X45961621Y-57862449D01*
X46052104Y-57966872D01*
X46052106Y-57966873D01*
X46052108Y-57966875D01*
X46168338Y-58041572D01*
X46168343Y-58041574D01*
X46242112Y-58063234D01*
X46298861Y-58079897D01*
X46300912Y-58080499D01*
X46300914Y-58080500D01*
X46300915Y-58080500D01*
X46439086Y-58080500D01*
X46439086Y-58080499D01*
X46571659Y-58041573D01*
X46572598Y-58040970D01*
X46687891Y-57966875D01*
X46687890Y-57966875D01*
X46687896Y-57966872D01*
X46778379Y-57862449D01*
X46835777Y-57736765D01*
X46852762Y-57618631D01*
X46859657Y-57603532D01*
X46856523Y-57598655D01*
X46852762Y-57581367D01*
X46835777Y-57463234D01*
X46799192Y-57383126D01*
X46778379Y-57337551D01*
X46687896Y-57233128D01*
X46687893Y-57233126D01*
X46687891Y-57233124D01*
X46571661Y-57158427D01*
X46571656Y-57158425D01*
X46439087Y-57119500D01*
X46439085Y-57119500D01*
X46300915Y-57119500D01*
X46300912Y-57119500D01*
X46168343Y-57158425D01*
X46168338Y-57158427D01*
X46052108Y-57233124D01*
X46052106Y-57233126D01*
X46052104Y-57233127D01*
X46052104Y-57233128D01*
X45986859Y-57308425D01*
X45961621Y-57337551D01*
X45961620Y-57337552D01*
X45904222Y-57463234D01*
X45884559Y-57600000D01*
X45555500Y-57600000D01*
X45555500Y-52874680D01*
X45575185Y-52807641D01*
X45612465Y-52770362D01*
X45617894Y-52766873D01*
X45617893Y-52766873D01*
X45617896Y-52766872D01*
X45708379Y-52662449D01*
X45765777Y-52536765D01*
X45785441Y-52400000D01*
X45765777Y-52263235D01*
X45765417Y-52262447D01*
X45708379Y-52137552D01*
X45708379Y-52137551D01*
X45617896Y-52033128D01*
X45617893Y-52033126D01*
X45617891Y-52033124D01*
X45501661Y-51958427D01*
X45501656Y-51958425D01*
X45369087Y-51919500D01*
X45369085Y-51919500D01*
X45230915Y-51919500D01*
X45230912Y-51919500D01*
X45098343Y-51958425D01*
X45098338Y-51958427D01*
X44982108Y-52033124D01*
X44982106Y-52033126D01*
X44982104Y-52033127D01*
X44982104Y-52033128D01*
X44960180Y-52058430D01*
X44891621Y-52137551D01*
X44891620Y-52137552D01*
X44834222Y-52263234D01*
X44814559Y-52400000D01*
X44834223Y-52536766D01*
X44836721Y-52545274D01*
X44835380Y-52545667D01*
X44843985Y-52605538D01*
X44814956Y-52669092D01*
X44756175Y-52706862D01*
X44686305Y-52706858D01*
X44654209Y-52692199D01*
X44601659Y-52658427D01*
X44601657Y-52658426D01*
X44601655Y-52658425D01*
X44601656Y-52658425D01*
X44469087Y-52619500D01*
X44469085Y-52619500D01*
X44330915Y-52619500D01*
X44330912Y-52619500D01*
X44198343Y-52658425D01*
X44198338Y-52658427D01*
X44082108Y-52733124D01*
X44082106Y-52733126D01*
X44082104Y-52733127D01*
X44082104Y-52733128D01*
X44038520Y-52783427D01*
X43991621Y-52837551D01*
X43991620Y-52837552D01*
X43945261Y-52939063D01*
X43899506Y-52991867D01*
X43832466Y-53011551D01*
X43765427Y-52991866D01*
X43738754Y-52968754D01*
X43715201Y-52941573D01*
X43642896Y-52858128D01*
X43642893Y-52858126D01*
X43642891Y-52858124D01*
X43526661Y-52783427D01*
X43526656Y-52783425D01*
X43394087Y-52744500D01*
X43394085Y-52744500D01*
X43255915Y-52744500D01*
X43255912Y-52744500D01*
X43123343Y-52783425D01*
X43123338Y-52783427D01*
X43007108Y-52858124D01*
X43007106Y-52858126D01*
X43007104Y-52858127D01*
X43007104Y-52858128D01*
X42934799Y-52941572D01*
X42916621Y-52962551D01*
X42916620Y-52962552D01*
X42859222Y-53088234D01*
X42839559Y-53225000D01*
X42859222Y-53361765D01*
X42907224Y-53466872D01*
X42916621Y-53487449D01*
X43007104Y-53591872D01*
X43007106Y-53591873D01*
X43007108Y-53591875D01*
X43123338Y-53666572D01*
X43123343Y-53666574D01*
X43255912Y-53705499D01*
X43255914Y-53705500D01*
X43255915Y-53705500D01*
X43394086Y-53705500D01*
X43394086Y-53705499D01*
X43496964Y-53675292D01*
X43526656Y-53666574D01*
X43526657Y-53666573D01*
X43526659Y-53666573D01*
X43642896Y-53591872D01*
X43733379Y-53487449D01*
X43779739Y-53385934D01*
X43825492Y-53333133D01*
X43892532Y-53313448D01*
X43959571Y-53333132D01*
X43986245Y-53356245D01*
X44082105Y-53466873D01*
X44082108Y-53466875D01*
X44198338Y-53541572D01*
X44198343Y-53541574D01*
X44330912Y-53580499D01*
X44330914Y-53580500D01*
X44330915Y-53580500D01*
X44469086Y-53580500D01*
X44469086Y-53580499D01*
X44571964Y-53550292D01*
X44601656Y-53541574D01*
X44601657Y-53541573D01*
X44601659Y-53541573D01*
X44641203Y-53516160D01*
X44668169Y-53498829D01*
X44717896Y-53466872D01*
X44808379Y-53362449D01*
X44808383Y-53362440D01*
X44813173Y-53354989D01*
X44814634Y-53355928D01*
X44853456Y-53311122D01*
X44920494Y-53291434D01*
X44987535Y-53311115D01*
X45033292Y-53363917D01*
X45044500Y-53415434D01*
X45044500Y-58034723D01*
X45024815Y-58101762D01*
X44972011Y-58147517D01*
X44902853Y-58157461D01*
X44885566Y-58153700D01*
X44769088Y-58119500D01*
X44769085Y-58119500D01*
X44630915Y-58119500D01*
X44630912Y-58119500D01*
X44498343Y-58158425D01*
X44498338Y-58158427D01*
X44382108Y-58233124D01*
X44382106Y-58233126D01*
X44382104Y-58233127D01*
X44382104Y-58233128D01*
X44292302Y-58336765D01*
X44291621Y-58337551D01*
X44291620Y-58337552D01*
X44234222Y-58463234D01*
X44214559Y-58600000D01*
X44234222Y-58736765D01*
X44285719Y-58849526D01*
X44291621Y-58862449D01*
X44382104Y-58966872D01*
X44382106Y-58966873D01*
X44382108Y-58966875D01*
X44498338Y-59041572D01*
X44498342Y-59041574D01*
X44585323Y-59067113D01*
X44644101Y-59104886D01*
X44673127Y-59168442D01*
X44674389Y-59186090D01*
X44674389Y-61812917D01*
X44654704Y-61879956D01*
X44638070Y-61900598D01*
X43783396Y-62755271D01*
X43783394Y-62755273D01*
X43744501Y-62849174D01*
X43744500Y-62849179D01*
X43744500Y-71390709D01*
X43744501Y-71390714D01*
X43783394Y-71484615D01*
X43872707Y-71573928D01*
X43872713Y-71573933D01*
X44715379Y-72416601D01*
X44715380Y-72416601D01*
X44715382Y-72416603D01*
X44809289Y-72455501D01*
X44809290Y-72455501D01*
X44925368Y-72455501D01*
X44925376Y-72455500D01*
X48420500Y-72455500D01*
X48487539Y-72475185D01*
X48533294Y-72527989D01*
X48544500Y-72579500D01*
X48544500Y-92442805D01*
X48524815Y-92509844D01*
X48508181Y-92530486D01*
X48179867Y-92858800D01*
X48118544Y-92892285D01*
X48048852Y-92887301D01*
X47992919Y-92845429D01*
X47969448Y-92788766D01*
X47965777Y-92763234D01*
X47937078Y-92700393D01*
X47908379Y-92637551D01*
X47817896Y-92533128D01*
X47817893Y-92533126D01*
X47817891Y-92533124D01*
X47701661Y-92458427D01*
X47701656Y-92458425D01*
X47569087Y-92419500D01*
X47569085Y-92419500D01*
X47432193Y-92419500D01*
X47365154Y-92399815D01*
X47344512Y-92383181D01*
X42013884Y-87052553D01*
X41980399Y-86991230D01*
X41977565Y-86964872D01*
X41977565Y-78190196D01*
X41997250Y-78123157D01*
X42050054Y-78077402D01*
X42119212Y-78067458D01*
X42182768Y-78096483D01*
X42195269Y-78108984D01*
X42202104Y-78116872D01*
X42202106Y-78116873D01*
X42202108Y-78116875D01*
X42318338Y-78191572D01*
X42318343Y-78191574D01*
X42450912Y-78230499D01*
X42450914Y-78230500D01*
X42450915Y-78230500D01*
X42589086Y-78230500D01*
X42589086Y-78230499D01*
X42721659Y-78191573D01*
X42837896Y-78116872D01*
X42928379Y-78012449D01*
X42985777Y-77886765D01*
X43005441Y-77750000D01*
X42985777Y-77613235D01*
X42928379Y-77487551D01*
X42837896Y-77383128D01*
X42837893Y-77383126D01*
X42837891Y-77383124D01*
X42721661Y-77308427D01*
X42721656Y-77308425D01*
X42589087Y-77269500D01*
X42589085Y-77269500D01*
X42450915Y-77269500D01*
X42450912Y-77269500D01*
X42318343Y-77308425D01*
X42318338Y-77308427D01*
X42202108Y-77383124D01*
X42202104Y-77383127D01*
X42196499Y-77389595D01*
X42195280Y-77391004D01*
X42195277Y-77391007D01*
X42136498Y-77428781D01*
X42066628Y-77428780D01*
X42007851Y-77391004D01*
X41978827Y-77327448D01*
X41977565Y-77309803D01*
X41977565Y-74900000D01*
X44879559Y-74900000D01*
X44899222Y-75036765D01*
X44956620Y-75162447D01*
X44956621Y-75162449D01*
X45047104Y-75266872D01*
X45047106Y-75266873D01*
X45047108Y-75266875D01*
X45163338Y-75341572D01*
X45163343Y-75341574D01*
X45295912Y-75380499D01*
X45295914Y-75380500D01*
X45295915Y-75380500D01*
X45434086Y-75380500D01*
X45434086Y-75380499D01*
X45566659Y-75341573D01*
X45595386Y-75323110D01*
X45662423Y-75303426D01*
X45729462Y-75323109D01*
X45775218Y-75375912D01*
X45776985Y-75379971D01*
X45802636Y-75441897D01*
X45873103Y-75512364D01*
X45965172Y-75550500D01*
X45965174Y-75550500D01*
X47764826Y-75550500D01*
X47764828Y-75550500D01*
X47856897Y-75512364D01*
X47927364Y-75441897D01*
X47965500Y-75349828D01*
X47965500Y-73350172D01*
X47927364Y-73258103D01*
X47856897Y-73187636D01*
X47764829Y-73149500D01*
X47764828Y-73149500D01*
X46064828Y-73149500D01*
X45965172Y-73149500D01*
X45965170Y-73149500D01*
X45873102Y-73187636D01*
X45802636Y-73258102D01*
X45764500Y-73350170D01*
X45764500Y-74358482D01*
X45744815Y-74425521D01*
X45692011Y-74471276D01*
X45622853Y-74481220D01*
X45573464Y-74462800D01*
X45566656Y-74458425D01*
X45434087Y-74419500D01*
X45434085Y-74419500D01*
X45295915Y-74419500D01*
X45295912Y-74419500D01*
X45163343Y-74458425D01*
X45163338Y-74458427D01*
X45047108Y-74533124D01*
X45047106Y-74533126D01*
X44956621Y-74637551D01*
X44956620Y-74637552D01*
X44899222Y-74763234D01*
X44879559Y-74900000D01*
X41977565Y-74900000D01*
X41977565Y-69038065D01*
X41997250Y-68971026D01*
X42050054Y-68925271D01*
X42119212Y-68915327D01*
X42136500Y-68919088D01*
X42207979Y-68940076D01*
X42207980Y-68940076D01*
X42346148Y-68940076D01*
X42346150Y-68940076D01*
X42362163Y-68935373D01*
X42432031Y-68935373D01*
X42490810Y-68973147D01*
X42519836Y-69036702D01*
X42519836Y-69036704D01*
X42534222Y-69136765D01*
X42583652Y-69245000D01*
X42591621Y-69262449D01*
X42682104Y-69366872D01*
X42682106Y-69366873D01*
X42682108Y-69366875D01*
X42798338Y-69441572D01*
X42798343Y-69441574D01*
X42930912Y-69480499D01*
X42930914Y-69480500D01*
X42930915Y-69480500D01*
X43069086Y-69480500D01*
X43069086Y-69480499D01*
X43201659Y-69441573D01*
X43317896Y-69366872D01*
X43408379Y-69262449D01*
X43465777Y-69136765D01*
X43485441Y-69000000D01*
X43465777Y-68863235D01*
X43408379Y-68737551D01*
X43317896Y-68633128D01*
X43317893Y-68633126D01*
X43317891Y-68633124D01*
X43201661Y-68558427D01*
X43201656Y-68558425D01*
X43069087Y-68519500D01*
X43069085Y-68519500D01*
X42930915Y-68519500D01*
X42930911Y-68519500D01*
X42914897Y-68524202D01*
X42845027Y-68524200D01*
X42786250Y-68486424D01*
X42757228Y-68422870D01*
X42756775Y-68419722D01*
X42742842Y-68322811D01*
X42729702Y-68294039D01*
X42685444Y-68197128D01*
X42685444Y-68197127D01*
X42594961Y-68092704D01*
X42594958Y-68092702D01*
X42594956Y-68092700D01*
X42478726Y-68018003D01*
X42478721Y-68018001D01*
X42346152Y-67979076D01*
X42346150Y-67979076D01*
X42207980Y-67979076D01*
X42136498Y-68000064D01*
X42066629Y-68000063D01*
X42007851Y-67962287D01*
X41978827Y-67898731D01*
X41977565Y-67881086D01*
X41977565Y-66884008D01*
X41997250Y-66816969D01*
X42050054Y-66771214D01*
X42119212Y-66761270D01*
X42182768Y-66790295D01*
X42214359Y-66832497D01*
X42216618Y-66837445D01*
X42216620Y-66837447D01*
X42216621Y-66837449D01*
X42307104Y-66941872D01*
X42307106Y-66941873D01*
X42307108Y-66941875D01*
X42423338Y-67016572D01*
X42423343Y-67016574D01*
X42555912Y-67055499D01*
X42555914Y-67055500D01*
X42555915Y-67055500D01*
X42694086Y-67055500D01*
X42694086Y-67055499D01*
X42826659Y-67016573D01*
X42890575Y-66975497D01*
X42942891Y-66941875D01*
X42942890Y-66941875D01*
X42942896Y-66941872D01*
X43033379Y-66837449D01*
X43090777Y-66711765D01*
X43110441Y-66575000D01*
X43090777Y-66438235D01*
X43033379Y-66312551D01*
X42942896Y-66208128D01*
X42942893Y-66208126D01*
X42942891Y-66208124D01*
X42826661Y-66133427D01*
X42826656Y-66133425D01*
X42694087Y-66094500D01*
X42694085Y-66094500D01*
X42555915Y-66094500D01*
X42555912Y-66094500D01*
X42423343Y-66133425D01*
X42423338Y-66133427D01*
X42307108Y-66208124D01*
X42307106Y-66208126D01*
X42307104Y-66208127D01*
X42307104Y-66208128D01*
X42253499Y-66269992D01*
X42216621Y-66312551D01*
X42216619Y-66312554D01*
X42214358Y-66317505D01*
X42168602Y-66370308D01*
X42101562Y-66389991D01*
X42034523Y-66370305D01*
X41988769Y-66317499D01*
X41977565Y-66265991D01*
X41977565Y-62847872D01*
X41997250Y-62780833D01*
X42050054Y-62735078D01*
X42119212Y-62725134D01*
X42182768Y-62754159D01*
X42195275Y-62766666D01*
X42282104Y-62866872D01*
X42282106Y-62866873D01*
X42282108Y-62866875D01*
X42398338Y-62941572D01*
X42398343Y-62941574D01*
X42530912Y-62980499D01*
X42530914Y-62980500D01*
X42530915Y-62980500D01*
X42669086Y-62980500D01*
X42669086Y-62980499D01*
X42801659Y-62941573D01*
X42917896Y-62866872D01*
X43008379Y-62762449D01*
X43065777Y-62636765D01*
X43085441Y-62500000D01*
X43067099Y-62372427D01*
X43065777Y-62363234D01*
X43018867Y-62260517D01*
X43008379Y-62237551D01*
X42917896Y-62133128D01*
X42917893Y-62133126D01*
X42917891Y-62133124D01*
X42801661Y-62058427D01*
X42801656Y-62058425D01*
X42669087Y-62019500D01*
X42669085Y-62019500D01*
X42530915Y-62019500D01*
X42530912Y-62019500D01*
X42398343Y-62058425D01*
X42398338Y-62058427D01*
X42282108Y-62133124D01*
X42282106Y-62133126D01*
X42191621Y-62237550D01*
X42155562Y-62316507D01*
X42109806Y-62369310D01*
X42042766Y-62388994D01*
X41975727Y-62369309D01*
X41939666Y-62333885D01*
X41938667Y-62332390D01*
X41859729Y-62253452D01*
X41859722Y-62253446D01*
X40098457Y-60492181D01*
X40064972Y-60430858D01*
X40069956Y-60361166D01*
X40111828Y-60305233D01*
X40177292Y-60280816D01*
X40186138Y-60280500D01*
X40269086Y-60280500D01*
X40269086Y-60280499D01*
X40401659Y-60241573D01*
X40517896Y-60166872D01*
X40608379Y-60062449D01*
X40665777Y-59936765D01*
X40685441Y-59800000D01*
X40665777Y-59663235D01*
X40655884Y-59641573D01*
X40611816Y-59545078D01*
X40608379Y-59537551D01*
X40517896Y-59433128D01*
X40517893Y-59433126D01*
X40517891Y-59433124D01*
X40401661Y-59358427D01*
X40401656Y-59358425D01*
X40269087Y-59319500D01*
X40269085Y-59319500D01*
X40130915Y-59319500D01*
X40130912Y-59319500D01*
X39998343Y-59358425D01*
X39998338Y-59358427D01*
X39882108Y-59433124D01*
X39882106Y-59433126D01*
X39791621Y-59537551D01*
X39791620Y-59537552D01*
X39734222Y-59663234D01*
X39733609Y-59667504D01*
X39731816Y-59671428D01*
X39731724Y-59671744D01*
X39731678Y-59671730D01*
X39704583Y-59731060D01*
X39645805Y-59768833D01*
X39575935Y-59768833D01*
X39517157Y-59731058D01*
X39488133Y-59667502D01*
X39486871Y-59649856D01*
X39486871Y-59425822D01*
X39506556Y-59358783D01*
X39523190Y-59338141D01*
X40861331Y-58000000D01*
X42814559Y-58000000D01*
X42834222Y-58136765D01*
X42890055Y-58259021D01*
X42891621Y-58262449D01*
X42982104Y-58366872D01*
X42982106Y-58366873D01*
X42982108Y-58366875D01*
X43098338Y-58441572D01*
X43098343Y-58441574D01*
X43230912Y-58480499D01*
X43230914Y-58480500D01*
X43230915Y-58480500D01*
X43369086Y-58480500D01*
X43369086Y-58480499D01*
X43501659Y-58441573D01*
X43617896Y-58366872D01*
X43708379Y-58262449D01*
X43765777Y-58136765D01*
X43785441Y-58000000D01*
X43765777Y-57863235D01*
X43765417Y-57862447D01*
X43737078Y-57800393D01*
X43708379Y-57737551D01*
X43617896Y-57633128D01*
X43617893Y-57633126D01*
X43617891Y-57633124D01*
X43501661Y-57558427D01*
X43501656Y-57558425D01*
X43369087Y-57519500D01*
X43369085Y-57519500D01*
X43230915Y-57519500D01*
X43230912Y-57519500D01*
X43098343Y-57558425D01*
X43098338Y-57558427D01*
X42982108Y-57633124D01*
X42982106Y-57633126D01*
X42982104Y-57633127D01*
X42982104Y-57633128D01*
X42974786Y-57641574D01*
X42891621Y-57737551D01*
X42891620Y-57737552D01*
X42834222Y-57863234D01*
X42814559Y-58000000D01*
X40861331Y-58000000D01*
X41369512Y-57491819D01*
X41430835Y-57458334D01*
X41457193Y-57455500D01*
X41528971Y-57455500D01*
X41596010Y-57475185D01*
X41622681Y-57498295D01*
X41682104Y-57566872D01*
X41682106Y-57566873D01*
X41682108Y-57566875D01*
X41798338Y-57641572D01*
X41798343Y-57641574D01*
X41930912Y-57680499D01*
X41930914Y-57680500D01*
X41930915Y-57680500D01*
X42069086Y-57680500D01*
X42069086Y-57680499D01*
X42201659Y-57641573D01*
X42317896Y-57566872D01*
X42408379Y-57462449D01*
X42465777Y-57336765D01*
X42485441Y-57200000D01*
X42465777Y-57063235D01*
X42462140Y-57055272D01*
X42416756Y-56955894D01*
X42408379Y-56937551D01*
X42317896Y-56833128D01*
X42317893Y-56833126D01*
X42317891Y-56833124D01*
X42201661Y-56758427D01*
X42201656Y-56758425D01*
X42069087Y-56719500D01*
X42069085Y-56719500D01*
X41930915Y-56719500D01*
X41930912Y-56719500D01*
X41798343Y-56758425D01*
X41798338Y-56758427D01*
X41682108Y-56833124D01*
X41682106Y-56833126D01*
X41682104Y-56833127D01*
X41682104Y-56833128D01*
X41622682Y-56901703D01*
X41563906Y-56939477D01*
X41528971Y-56944500D01*
X41350822Y-56944500D01*
X41249177Y-56944500D01*
X41223836Y-56954995D01*
X41221667Y-56955894D01*
X41221666Y-56955893D01*
X41155271Y-56983396D01*
X41126221Y-57012447D01*
X41083397Y-57055271D01*
X39014767Y-59123900D01*
X39014765Y-59123902D01*
X38975872Y-59217803D01*
X38975871Y-59217808D01*
X22188602Y-59217808D01*
X22188602Y-57750000D01*
X29514559Y-57750000D01*
X29534222Y-57886765D01*
X29570807Y-57966873D01*
X29591621Y-58012449D01*
X29682104Y-58116872D01*
X29682106Y-58116873D01*
X29682108Y-58116875D01*
X29798338Y-58191572D01*
X29798343Y-58191574D01*
X29930912Y-58230499D01*
X29930914Y-58230500D01*
X29930915Y-58230500D01*
X30069086Y-58230500D01*
X30069086Y-58230499D01*
X30201659Y-58191573D01*
X30245924Y-58163126D01*
X30292721Y-58133051D01*
X30317896Y-58116872D01*
X30408379Y-58012449D01*
X30465777Y-57886765D01*
X30485441Y-57750000D01*
X31014559Y-57750000D01*
X31034222Y-57886765D01*
X31070807Y-57966873D01*
X31091621Y-58012449D01*
X31182104Y-58116872D01*
X31182106Y-58116873D01*
X31182108Y-58116875D01*
X31298338Y-58191572D01*
X31298343Y-58191574D01*
X31430912Y-58230499D01*
X31430914Y-58230500D01*
X31430915Y-58230500D01*
X31569086Y-58230500D01*
X31569086Y-58230499D01*
X31701659Y-58191573D01*
X31745924Y-58163126D01*
X31792721Y-58133051D01*
X31817896Y-58116872D01*
X31908379Y-58012449D01*
X31965777Y-57886765D01*
X31985441Y-57750000D01*
X31965777Y-57613235D01*
X31951223Y-57581367D01*
X31937078Y-57550393D01*
X31908379Y-57487551D01*
X31817896Y-57383128D01*
X31817893Y-57383126D01*
X31817891Y-57383124D01*
X31701661Y-57308427D01*
X31701656Y-57308425D01*
X31569087Y-57269500D01*
X31569085Y-57269500D01*
X31430915Y-57269500D01*
X31430912Y-57269500D01*
X31298343Y-57308425D01*
X31298338Y-57308427D01*
X31182108Y-57383124D01*
X31182106Y-57383126D01*
X31091621Y-57487551D01*
X31091620Y-57487552D01*
X31034222Y-57613234D01*
X31014559Y-57750000D01*
X30485441Y-57750000D01*
X30465777Y-57613235D01*
X30451223Y-57581367D01*
X30437078Y-57550393D01*
X30408379Y-57487551D01*
X30317896Y-57383128D01*
X30317893Y-57383126D01*
X30317891Y-57383124D01*
X30201661Y-57308427D01*
X30201656Y-57308425D01*
X30069087Y-57269500D01*
X30069085Y-57269500D01*
X29930915Y-57269500D01*
X29930912Y-57269500D01*
X29798343Y-57308425D01*
X29798338Y-57308427D01*
X29682108Y-57383124D01*
X29682106Y-57383126D01*
X29591621Y-57487551D01*
X29591620Y-57487552D01*
X29534222Y-57613234D01*
X29514559Y-57750000D01*
X22188602Y-57750000D01*
X22188602Y-43250000D01*
X22814375Y-43250000D01*
X22834821Y-43444528D01*
X22895264Y-43630555D01*
X22895265Y-43630556D01*
X22993060Y-43799942D01*
X22993063Y-43799947D01*
X23123945Y-43945305D01*
X23238916Y-44028836D01*
X23282188Y-44060276D01*
X23460876Y-44139832D01*
X23652201Y-44180500D01*
X23847799Y-44180500D01*
X24039124Y-44139832D01*
X24217813Y-44060275D01*
X24376055Y-43945305D01*
X24506937Y-43799947D01*
X24604736Y-43630553D01*
X24665179Y-43444527D01*
X24685625Y-43250000D01*
X24665179Y-43055473D01*
X24604736Y-42869447D01*
X24604735Y-42869446D01*
X24604735Y-42869444D01*
X24604734Y-42869443D01*
X24506939Y-42700057D01*
X24506937Y-42700053D01*
X24376055Y-42554695D01*
X24293221Y-42494512D01*
X24217811Y-42439723D01*
X24039123Y-42360167D01*
X23847799Y-42319500D01*
X23652201Y-42319500D01*
X23460876Y-42360167D01*
X23460871Y-42360169D01*
X23282188Y-42439725D01*
X23282183Y-42439727D01*
X23123948Y-42554692D01*
X23123945Y-42554694D01*
X23123945Y-42554695D01*
X22993063Y-42700053D01*
X22993061Y-42700054D01*
X22993060Y-42700057D01*
X22895265Y-42869443D01*
X22895264Y-42869444D01*
X22834821Y-43055471D01*
X22814375Y-43250000D01*
X22188602Y-43250000D01*
X22188602Y-40500000D01*
X22814375Y-40500000D01*
X22834821Y-40694528D01*
X22895264Y-40880555D01*
X22895265Y-40880556D01*
X22977186Y-41022447D01*
X22993063Y-41049947D01*
X23123945Y-41195305D01*
X23214171Y-41260858D01*
X23282188Y-41310276D01*
X23432616Y-41377250D01*
X23460876Y-41389832D01*
X23652201Y-41430500D01*
X23847799Y-41430500D01*
X24039124Y-41389832D01*
X24067384Y-41377250D01*
X24217811Y-41310276D01*
X24217811Y-41310275D01*
X24217813Y-41310275D01*
X24376055Y-41195305D01*
X24506937Y-41049947D01*
X24604736Y-40880553D01*
X24665179Y-40694527D01*
X24685625Y-40500000D01*
X24665179Y-40305473D01*
X24604736Y-40119447D01*
X24604735Y-40119446D01*
X24604735Y-40119444D01*
X24604734Y-40119443D01*
X24545991Y-40017697D01*
X24506937Y-39950053D01*
X24376055Y-39804695D01*
X24289839Y-39742055D01*
X24217811Y-39689723D01*
X24039123Y-39610167D01*
X23847799Y-39569500D01*
X23652201Y-39569500D01*
X23460876Y-39610167D01*
X23460871Y-39610169D01*
X23282188Y-39689725D01*
X23282183Y-39689727D01*
X23123948Y-39804692D01*
X23123945Y-39804694D01*
X23123945Y-39804695D01*
X22993063Y-39950053D01*
X22993061Y-39950054D01*
X22993060Y-39950057D01*
X22895265Y-40119443D01*
X22895264Y-40119444D01*
X22834821Y-40305471D01*
X22814375Y-40500000D01*
X22188602Y-40500000D01*
X22188602Y-35000000D01*
X25514559Y-35000000D01*
X25534222Y-35136765D01*
X25591620Y-35262447D01*
X25591621Y-35262449D01*
X25682104Y-35366872D01*
X25682106Y-35366873D01*
X25682108Y-35366875D01*
X25798338Y-35441572D01*
X25798343Y-35441574D01*
X25930912Y-35480499D01*
X25930914Y-35480500D01*
X25930915Y-35480500D01*
X26069086Y-35480500D01*
X26069086Y-35480499D01*
X26201656Y-35441574D01*
X26201657Y-35441574D01*
X26201659Y-35441573D01*
X26297181Y-35380184D01*
X26364220Y-35360500D01*
X28456927Y-35360500D01*
X28456929Y-35360500D01*
X28528269Y-35341384D01*
X28551360Y-35328051D01*
X28551364Y-35328051D01*
X28551364Y-35328050D01*
X28592231Y-35304456D01*
X28629868Y-35266819D01*
X28691191Y-35233334D01*
X28717549Y-35230500D01*
X28819085Y-35230500D01*
X28890565Y-35209512D01*
X28960435Y-35209512D01*
X29019213Y-35247286D01*
X29048238Y-35310842D01*
X29049500Y-35328489D01*
X29049500Y-52254456D01*
X29029815Y-52321495D01*
X29026187Y-52326654D01*
X28988616Y-52391730D01*
X28988616Y-52391731D01*
X28969500Y-52463072D01*
X28969500Y-52536928D01*
X28988616Y-52608269D01*
X29019896Y-52662449D01*
X29025543Y-52672229D01*
X29025545Y-52672232D01*
X29055509Y-52702196D01*
X29080622Y-52738365D01*
X29091621Y-52762449D01*
X29182104Y-52866872D01*
X29182106Y-52866873D01*
X29182108Y-52866875D01*
X29298338Y-52941572D01*
X29298343Y-52941574D01*
X29430912Y-52980499D01*
X29430914Y-52980500D01*
X29430915Y-52980500D01*
X29569086Y-52980500D01*
X29569086Y-52980499D01*
X29701659Y-52941573D01*
X29817896Y-52866872D01*
X29908379Y-52762449D01*
X29965777Y-52636765D01*
X29985441Y-52500000D01*
X29965777Y-52363235D01*
X29908379Y-52237551D01*
X29817896Y-52133128D01*
X29817893Y-52133126D01*
X29817891Y-52133124D01*
X29701665Y-52058430D01*
X29701660Y-52058428D01*
X29701659Y-52058427D01*
X29699560Y-52057810D01*
X29697724Y-52056630D01*
X29693593Y-52054744D01*
X29693864Y-52054149D01*
X29640784Y-52020035D01*
X29611762Y-51956478D01*
X29610500Y-51938835D01*
X29610500Y-45500000D01*
X34764559Y-45500000D01*
X34784222Y-45636765D01*
X34820782Y-45716819D01*
X34841621Y-45762449D01*
X34932104Y-45866872D01*
X34932106Y-45866873D01*
X34932108Y-45866875D01*
X35048338Y-45941572D01*
X35048343Y-45941574D01*
X35180912Y-45980499D01*
X35180914Y-45980500D01*
X35180915Y-45980500D01*
X35319086Y-45980500D01*
X35319086Y-45980499D01*
X35451659Y-45941573D01*
X35567896Y-45866872D01*
X35658379Y-45762449D01*
X35715777Y-45636765D01*
X35735441Y-45500000D01*
X35715777Y-45363235D01*
X35658379Y-45237551D01*
X35567896Y-45133128D01*
X35567893Y-45133126D01*
X35567891Y-45133124D01*
X35451661Y-45058427D01*
X35451656Y-45058425D01*
X35319087Y-45019500D01*
X35319085Y-45019500D01*
X35180915Y-45019500D01*
X35180912Y-45019500D01*
X35048343Y-45058425D01*
X35048338Y-45058427D01*
X34932108Y-45133124D01*
X34932106Y-45133126D01*
X34932104Y-45133127D01*
X34932104Y-45133128D01*
X34850097Y-45227769D01*
X34841621Y-45237551D01*
X34841620Y-45237552D01*
X34784222Y-45363234D01*
X34764559Y-45500000D01*
X29610500Y-45500000D01*
X29610500Y-38000000D01*
X33514559Y-38000000D01*
X33534222Y-38136765D01*
X33563101Y-38200000D01*
X33591621Y-38262449D01*
X33682104Y-38366872D01*
X33682106Y-38366873D01*
X33682108Y-38366875D01*
X33798338Y-38441572D01*
X33798343Y-38441574D01*
X33930912Y-38480499D01*
X33930914Y-38480500D01*
X33930915Y-38480500D01*
X34069086Y-38480500D01*
X34069086Y-38480499D01*
X34201659Y-38441573D01*
X34317896Y-38366872D01*
X34408379Y-38262449D01*
X34465777Y-38136765D01*
X34485441Y-38000000D01*
X34465777Y-37863235D01*
X34408379Y-37737551D01*
X34317896Y-37633128D01*
X34317893Y-37633126D01*
X34317891Y-37633124D01*
X34201661Y-37558427D01*
X34201656Y-37558425D01*
X34069087Y-37519500D01*
X34069085Y-37519500D01*
X33930915Y-37519500D01*
X33930912Y-37519500D01*
X33798343Y-37558425D01*
X33798338Y-37558427D01*
X33682108Y-37633124D01*
X33682106Y-37633126D01*
X33591621Y-37737551D01*
X33591620Y-37737552D01*
X33534222Y-37863234D01*
X33514559Y-38000000D01*
X29610500Y-38000000D01*
X29610500Y-35047943D01*
X29630185Y-34980904D01*
X29682989Y-34935149D01*
X29752147Y-34925205D01*
X29789675Y-34939205D01*
X29790276Y-34937890D01*
X29798343Y-34941574D01*
X29930912Y-34980499D01*
X29930914Y-34980500D01*
X29930915Y-34980500D01*
X30069086Y-34980500D01*
X30069086Y-34980499D01*
X30201659Y-34941573D01*
X30317896Y-34866872D01*
X30408379Y-34762449D01*
X30465777Y-34636765D01*
X30485441Y-34500000D01*
X30465777Y-34363235D01*
X30408379Y-34237551D01*
X30317896Y-34133128D01*
X30317893Y-34133126D01*
X30317891Y-34133124D01*
X30201661Y-34058427D01*
X30201656Y-34058425D01*
X30069087Y-34019500D01*
X30069085Y-34019500D01*
X29930915Y-34019500D01*
X29930912Y-34019500D01*
X29798343Y-34058425D01*
X29790276Y-34062110D01*
X29789297Y-34059966D01*
X29734500Y-34076056D01*
X29667460Y-34056371D01*
X29621705Y-34003567D01*
X29610500Y-33952056D01*
X29610500Y-31087548D01*
X29630185Y-31020509D01*
X29646819Y-30999867D01*
X32829868Y-27816819D01*
X32891191Y-27783334D01*
X32917549Y-27780500D01*
X34516361Y-27780500D01*
X34583400Y-27800185D01*
X34629155Y-27852989D01*
X34639099Y-27922147D01*
X34635339Y-27939433D01*
X34634222Y-27943234D01*
X34614559Y-28080000D01*
X34634222Y-28216765D01*
X34691620Y-28342447D01*
X34691621Y-28342449D01*
X34782104Y-28446872D01*
X34782106Y-28446873D01*
X34782108Y-28446875D01*
X34898338Y-28521572D01*
X34898343Y-28521574D01*
X35030912Y-28560499D01*
X35030914Y-28560500D01*
X35030915Y-28560500D01*
X35169086Y-28560500D01*
X35169086Y-28560499D01*
X35301659Y-28521573D01*
X35417896Y-28446872D01*
X35508379Y-28342449D01*
X35565777Y-28216765D01*
X35585441Y-28080000D01*
X35565777Y-27943235D01*
X35565777Y-27943234D01*
X35564661Y-27939433D01*
X35564661Y-27935472D01*
X35564515Y-27934456D01*
X35564661Y-27934434D01*
X35564663Y-27869563D01*
X35602438Y-27810786D01*
X35665994Y-27781762D01*
X35683639Y-27780500D01*
X36213072Y-27780500D01*
X41800633Y-27780500D01*
X41867672Y-27800185D01*
X41894345Y-27823296D01*
X41932104Y-27866872D01*
X42030690Y-27930229D01*
X42076444Y-27983032D01*
X42086388Y-28052191D01*
X42057363Y-28115746D01*
X42051331Y-28122225D01*
X36577771Y-33595786D01*
X36525545Y-33648011D01*
X36525543Y-33648014D01*
X36488616Y-33711974D01*
X36488616Y-33711975D01*
X36469500Y-33783316D01*
X36469500Y-33783318D01*
X36469500Y-55082451D01*
X36449815Y-55149490D01*
X36433181Y-55170132D01*
X35370132Y-56233181D01*
X35308809Y-56266666D01*
X35282451Y-56269500D01*
X35180912Y-56269500D01*
X35048343Y-56308425D01*
X35048338Y-56308427D01*
X34932108Y-56383124D01*
X34932106Y-56383126D01*
X34841621Y-56487551D01*
X34841620Y-56487552D01*
X34784222Y-56613234D01*
X34764559Y-56750000D01*
X34784222Y-56886765D01*
X34815793Y-56955894D01*
X34841621Y-57012449D01*
X34932104Y-57116872D01*
X34932106Y-57116873D01*
X34932108Y-57116875D01*
X35048338Y-57191572D01*
X35048343Y-57191574D01*
X35180912Y-57230499D01*
X35180914Y-57230500D01*
X35180915Y-57230500D01*
X35319086Y-57230500D01*
X35319086Y-57230499D01*
X35451659Y-57191573D01*
X35567896Y-57116872D01*
X35658379Y-57012449D01*
X35715777Y-56886765D01*
X35735441Y-56750000D01*
X35733117Y-56733840D01*
X35743058Y-56664685D01*
X35768170Y-56628515D01*
X36974455Y-55422232D01*
X37011384Y-55358269D01*
X37030500Y-55286929D01*
X37030500Y-55213072D01*
X37030500Y-54771531D01*
X37050185Y-54704492D01*
X37102989Y-54658737D01*
X37172147Y-54648793D01*
X37221540Y-54667216D01*
X37298341Y-54716573D01*
X37298342Y-54716573D01*
X37298343Y-54716574D01*
X37430912Y-54755499D01*
X37430914Y-54755500D01*
X37430915Y-54755500D01*
X37569086Y-54755500D01*
X37569086Y-54755499D01*
X37701659Y-54716573D01*
X37720458Y-54704492D01*
X37778460Y-54667216D01*
X37817896Y-54641872D01*
X37908379Y-54537449D01*
X37965777Y-54411765D01*
X37985441Y-54275000D01*
X37967469Y-54150000D01*
X41639559Y-54150000D01*
X41659222Y-54286765D01*
X41704483Y-54385871D01*
X41716621Y-54412449D01*
X41807104Y-54516872D01*
X41807106Y-54516873D01*
X41807108Y-54516875D01*
X41923338Y-54591572D01*
X41923343Y-54591574D01*
X42055912Y-54630499D01*
X42055914Y-54630500D01*
X42055915Y-54630500D01*
X42194086Y-54630500D01*
X42194086Y-54630499D01*
X42326659Y-54591573D01*
X42442896Y-54516872D01*
X42533379Y-54412449D01*
X42590777Y-54286765D01*
X42610441Y-54150000D01*
X42590777Y-54013235D01*
X42590465Y-54012552D01*
X42540191Y-53902468D01*
X42533379Y-53887551D01*
X42442896Y-53783128D01*
X42442893Y-53783126D01*
X42442891Y-53783124D01*
X42326661Y-53708427D01*
X42326656Y-53708425D01*
X42194087Y-53669500D01*
X42194085Y-53669500D01*
X42055915Y-53669500D01*
X42055912Y-53669500D01*
X41923343Y-53708425D01*
X41923338Y-53708427D01*
X41807108Y-53783124D01*
X41807106Y-53783126D01*
X41807104Y-53783127D01*
X41807104Y-53783128D01*
X41720752Y-53882784D01*
X41716621Y-53887551D01*
X41716620Y-53887552D01*
X41659222Y-54013234D01*
X41639559Y-54150000D01*
X37967469Y-54150000D01*
X37965777Y-54138235D01*
X37908379Y-54012551D01*
X37817896Y-53908128D01*
X37817893Y-53908126D01*
X37817891Y-53908124D01*
X37701661Y-53833427D01*
X37701656Y-53833425D01*
X37569087Y-53794500D01*
X37569085Y-53794500D01*
X37430915Y-53794500D01*
X37430912Y-53794500D01*
X37298343Y-53833425D01*
X37221539Y-53882784D01*
X37154499Y-53902468D01*
X37087460Y-53882783D01*
X37041705Y-53829979D01*
X37030500Y-53778468D01*
X37030500Y-52000000D01*
X38014559Y-52000000D01*
X38034222Y-52136765D01*
X38080250Y-52237551D01*
X38091621Y-52262449D01*
X38182104Y-52366872D01*
X38182106Y-52366873D01*
X38182108Y-52366875D01*
X38298338Y-52441572D01*
X38298343Y-52441574D01*
X38430912Y-52480499D01*
X38430914Y-52480500D01*
X38430915Y-52480500D01*
X38569086Y-52480500D01*
X38569086Y-52480499D01*
X38701659Y-52441573D01*
X38817896Y-52366872D01*
X38908379Y-52262449D01*
X38965777Y-52136765D01*
X38985441Y-52000000D01*
X38965777Y-51863235D01*
X38908379Y-51737551D01*
X38817896Y-51633128D01*
X38817893Y-51633126D01*
X38817891Y-51633124D01*
X38701661Y-51558427D01*
X38701656Y-51558425D01*
X38569087Y-51519500D01*
X38569085Y-51519500D01*
X38430915Y-51519500D01*
X38430912Y-51519500D01*
X38298343Y-51558425D01*
X38298338Y-51558427D01*
X38182108Y-51633124D01*
X38182106Y-51633126D01*
X38091621Y-51737551D01*
X38091620Y-51737552D01*
X38034222Y-51863234D01*
X38014559Y-52000000D01*
X37030500Y-52000000D01*
X37030500Y-39000000D01*
X38014559Y-39000000D01*
X38034222Y-39136765D01*
X38084194Y-39246186D01*
X38091621Y-39262449D01*
X38182104Y-39366872D01*
X38182106Y-39366873D01*
X38182108Y-39366875D01*
X38298338Y-39441572D01*
X38298343Y-39441574D01*
X38383838Y-39466677D01*
X38427073Y-39479372D01*
X38430912Y-39480499D01*
X38430914Y-39480500D01*
X38430915Y-39480500D01*
X38569086Y-39480500D01*
X38569086Y-39480499D01*
X38694194Y-39443765D01*
X38701656Y-39441574D01*
X38701657Y-39441573D01*
X38701659Y-39441573D01*
X38702735Y-39440882D01*
X38817891Y-39366875D01*
X38817890Y-39366875D01*
X38817896Y-39366872D01*
X38908379Y-39262449D01*
X38965777Y-39136765D01*
X38985441Y-39000000D01*
X38965777Y-38863235D01*
X38908379Y-38737551D01*
X38817896Y-38633128D01*
X38817893Y-38633126D01*
X38817891Y-38633124D01*
X38701661Y-38558427D01*
X38701656Y-38558425D01*
X38569087Y-38519500D01*
X38569085Y-38519500D01*
X38430915Y-38519500D01*
X38430912Y-38519500D01*
X38298343Y-38558425D01*
X38298338Y-38558427D01*
X38182108Y-38633124D01*
X38182106Y-38633126D01*
X38182104Y-38633127D01*
X38182104Y-38633128D01*
X38174786Y-38641574D01*
X38091621Y-38737551D01*
X38091620Y-38737552D01*
X38034222Y-38863234D01*
X38014559Y-39000000D01*
X37030500Y-39000000D01*
X37030500Y-38200000D01*
X39144559Y-38200000D01*
X39164222Y-38336765D01*
X39221620Y-38462447D01*
X39221621Y-38462449D01*
X39312104Y-38566872D01*
X39312106Y-38566873D01*
X39312108Y-38566875D01*
X39428338Y-38641572D01*
X39428343Y-38641574D01*
X39560912Y-38680499D01*
X39560914Y-38680500D01*
X39560915Y-38680500D01*
X39699086Y-38680500D01*
X39699086Y-38680499D01*
X39831659Y-38641573D01*
X39947896Y-38566872D01*
X40038379Y-38462449D01*
X40095777Y-38336765D01*
X40115441Y-38200000D01*
X41404559Y-38200000D01*
X41424222Y-38336765D01*
X41481620Y-38462447D01*
X41481621Y-38462449D01*
X41572104Y-38566872D01*
X41572105Y-38566873D01*
X41577535Y-38570362D01*
X41623292Y-38623164D01*
X41634500Y-38674680D01*
X41634500Y-40670825D01*
X41640814Y-40686067D01*
X41673394Y-40764726D01*
X41762707Y-40854039D01*
X41762713Y-40854044D01*
X43403181Y-42494512D01*
X43436666Y-42555835D01*
X43439500Y-42582193D01*
X43439500Y-47647805D01*
X43419815Y-47714844D01*
X43403181Y-47735486D01*
X42929867Y-48208800D01*
X42868544Y-48242285D01*
X42798852Y-48237301D01*
X42742919Y-48195429D01*
X42719448Y-48138766D01*
X42715777Y-48113234D01*
X42679192Y-48033126D01*
X42658379Y-47987551D01*
X42567896Y-47883128D01*
X42567893Y-47883126D01*
X42567891Y-47883124D01*
X42451661Y-47808427D01*
X42451656Y-47808425D01*
X42319087Y-47769500D01*
X42319085Y-47769500D01*
X42180915Y-47769500D01*
X42180912Y-47769500D01*
X42048343Y-47808425D01*
X42048338Y-47808427D01*
X41932108Y-47883124D01*
X41932106Y-47883126D01*
X41932104Y-47883127D01*
X41932104Y-47883128D01*
X41874597Y-47949495D01*
X41841621Y-47987551D01*
X41841620Y-47987552D01*
X41784222Y-48113234D01*
X41764559Y-48250000D01*
X41784222Y-48386765D01*
X41829376Y-48485637D01*
X41841621Y-48512449D01*
X41932104Y-48616872D01*
X41932106Y-48616873D01*
X41976937Y-48645685D01*
X42022692Y-48698489D01*
X42032635Y-48767648D01*
X42003610Y-48831203D01*
X41976937Y-48854315D01*
X41932106Y-48883126D01*
X41841621Y-48987551D01*
X41841620Y-48987552D01*
X41784222Y-49113234D01*
X41764559Y-49250000D01*
X41784222Y-49386765D01*
X41814589Y-49453258D01*
X41841621Y-49512449D01*
X41932104Y-49616872D01*
X41932106Y-49616873D01*
X41976937Y-49645685D01*
X42022692Y-49698489D01*
X42032635Y-49767648D01*
X42003610Y-49831203D01*
X41976937Y-49854315D01*
X41932106Y-49883126D01*
X41841621Y-49987551D01*
X41841620Y-49987552D01*
X41784222Y-50113234D01*
X41764559Y-50250000D01*
X41784222Y-50386765D01*
X41841620Y-50512447D01*
X41841621Y-50512449D01*
X41932104Y-50616872D01*
X41932106Y-50616873D01*
X41932108Y-50616875D01*
X42048338Y-50691572D01*
X42048343Y-50691574D01*
X42180912Y-50730499D01*
X42180914Y-50730500D01*
X42180915Y-50730500D01*
X42319086Y-50730500D01*
X42319086Y-50730499D01*
X42451659Y-50691573D01*
X42567896Y-50616872D01*
X42658379Y-50512449D01*
X42715777Y-50386765D01*
X42735441Y-50250000D01*
X42728672Y-50202926D01*
X42738615Y-50133771D01*
X42763726Y-50097603D01*
X44342209Y-48519120D01*
X44403531Y-48485637D01*
X44473223Y-48490621D01*
X44529156Y-48532493D01*
X44542683Y-48555291D01*
X44570807Y-48616873D01*
X44591621Y-48662449D01*
X44682104Y-48766872D01*
X44682106Y-48766873D01*
X44682108Y-48766875D01*
X44798338Y-48841572D01*
X44798343Y-48841574D01*
X44930912Y-48880499D01*
X44930914Y-48880500D01*
X44930915Y-48880500D01*
X45069086Y-48880500D01*
X45069086Y-48880499D01*
X45201659Y-48841573D01*
X45317896Y-48766872D01*
X45408379Y-48662449D01*
X45465777Y-48536765D01*
X45485441Y-48400000D01*
X45465777Y-48263235D01*
X45456209Y-48242285D01*
X45434811Y-48195429D01*
X45408379Y-48137551D01*
X45317896Y-48033128D01*
X45317893Y-48033126D01*
X45317891Y-48033124D01*
X45201661Y-47958427D01*
X45201656Y-47958425D01*
X45171241Y-47949495D01*
X45112463Y-47911721D01*
X45083437Y-47848166D01*
X45093380Y-47779007D01*
X45118491Y-47742840D01*
X45466603Y-47394729D01*
X45505501Y-47300822D01*
X45505501Y-47199177D01*
X45505501Y-47189188D01*
X45505500Y-47189174D01*
X45505500Y-39474680D01*
X45525185Y-39407641D01*
X45562465Y-39370362D01*
X45567894Y-39366873D01*
X45567893Y-39366873D01*
X45567896Y-39366872D01*
X45658379Y-39262449D01*
X45715777Y-39136765D01*
X45735441Y-39000000D01*
X45715777Y-38863235D01*
X45658379Y-38737551D01*
X45567896Y-38633128D01*
X45567893Y-38633126D01*
X45567891Y-38633124D01*
X45451661Y-38558427D01*
X45451656Y-38558425D01*
X45319087Y-38519500D01*
X45319085Y-38519500D01*
X45180915Y-38519500D01*
X45180912Y-38519500D01*
X45048343Y-38558425D01*
X45048338Y-38558427D01*
X44932108Y-38633124D01*
X44932101Y-38633130D01*
X44875046Y-38698975D01*
X44816268Y-38736749D01*
X44746398Y-38736749D01*
X44687620Y-38698974D01*
X44668540Y-38669284D01*
X44621769Y-38566872D01*
X44608379Y-38537551D01*
X44517896Y-38433128D01*
X44517893Y-38433126D01*
X44517891Y-38433124D01*
X44401661Y-38358427D01*
X44401656Y-38358425D01*
X44269087Y-38319500D01*
X44269085Y-38319500D01*
X44130915Y-38319500D01*
X44130912Y-38319500D01*
X43998343Y-38358425D01*
X43998338Y-38358427D01*
X43882108Y-38433124D01*
X43882106Y-38433126D01*
X43882104Y-38433127D01*
X43882104Y-38433128D01*
X43874786Y-38441574D01*
X43791621Y-38537551D01*
X43791620Y-38537552D01*
X43734222Y-38663234D01*
X43714559Y-38800000D01*
X43734222Y-38936765D01*
X43773026Y-39021732D01*
X43791621Y-39062449D01*
X43882104Y-39166872D01*
X43882106Y-39166873D01*
X43882108Y-39166875D01*
X43998338Y-39241572D01*
X43998343Y-39241574D01*
X44130912Y-39280499D01*
X44130914Y-39280500D01*
X44130915Y-39280500D01*
X44269086Y-39280500D01*
X44269086Y-39280499D01*
X44371964Y-39250292D01*
X44401656Y-39241574D01*
X44401657Y-39241573D01*
X44401659Y-39241573D01*
X44418891Y-39230499D01*
X44479459Y-39191574D01*
X44517896Y-39166872D01*
X44574954Y-39101022D01*
X44633729Y-39063250D01*
X44703599Y-39063250D01*
X44762377Y-39101024D01*
X44781459Y-39130715D01*
X44834194Y-39246186D01*
X44841621Y-39262449D01*
X44906016Y-39336765D01*
X44932105Y-39366873D01*
X44937535Y-39370362D01*
X44983292Y-39423164D01*
X44994500Y-39474680D01*
X44994500Y-47092806D01*
X44974815Y-47159845D01*
X44958181Y-47180487D01*
X44156301Y-47982366D01*
X44094978Y-48015851D01*
X44025286Y-48010867D01*
X43969353Y-47968995D01*
X43944936Y-47903531D01*
X43950647Y-47868305D01*
X43948118Y-47867802D01*
X43950501Y-47855820D01*
X43950501Y-47744188D01*
X43950500Y-47744174D01*
X43950500Y-42374179D01*
X43950498Y-42374174D01*
X43944696Y-42360167D01*
X43927852Y-42319500D01*
X43911605Y-42280273D01*
X42181819Y-40550487D01*
X42148334Y-40489164D01*
X42145500Y-40462806D01*
X42145500Y-39000000D01*
X42514559Y-39000000D01*
X42534222Y-39136765D01*
X42584194Y-39246186D01*
X42591621Y-39262449D01*
X42682104Y-39366872D01*
X42682106Y-39366873D01*
X42682108Y-39366875D01*
X42798338Y-39441572D01*
X42798343Y-39441574D01*
X42883838Y-39466677D01*
X42927073Y-39479372D01*
X42930912Y-39480499D01*
X42930914Y-39480500D01*
X42930915Y-39480500D01*
X43069086Y-39480500D01*
X43069086Y-39480499D01*
X43194194Y-39443765D01*
X43201656Y-39441574D01*
X43201657Y-39441573D01*
X43201659Y-39441573D01*
X43202735Y-39440882D01*
X43317891Y-39366875D01*
X43317890Y-39366875D01*
X43317896Y-39366872D01*
X43408379Y-39262449D01*
X43465777Y-39136765D01*
X43485441Y-39000000D01*
X43465777Y-38863235D01*
X43408379Y-38737551D01*
X43317896Y-38633128D01*
X43317893Y-38633126D01*
X43317891Y-38633124D01*
X43201661Y-38558427D01*
X43201656Y-38558425D01*
X43069087Y-38519500D01*
X43069085Y-38519500D01*
X42930915Y-38519500D01*
X42930912Y-38519500D01*
X42798343Y-38558425D01*
X42798338Y-38558427D01*
X42682108Y-38633124D01*
X42682106Y-38633126D01*
X42682104Y-38633127D01*
X42682104Y-38633128D01*
X42674786Y-38641574D01*
X42591621Y-38737551D01*
X42591620Y-38737552D01*
X42534222Y-38863234D01*
X42514559Y-39000000D01*
X42145500Y-39000000D01*
X42145500Y-38674680D01*
X42165185Y-38607641D01*
X42202465Y-38570362D01*
X42207894Y-38566873D01*
X42207893Y-38566873D01*
X42207896Y-38566872D01*
X42298379Y-38462449D01*
X42355777Y-38336765D01*
X42375441Y-38200000D01*
X42355777Y-38063235D01*
X42298379Y-37937551D01*
X42207896Y-37833128D01*
X42207893Y-37833126D01*
X42207891Y-37833124D01*
X42091661Y-37758427D01*
X42091656Y-37758425D01*
X41959087Y-37719500D01*
X41959085Y-37719500D01*
X41820915Y-37719500D01*
X41820912Y-37719500D01*
X41688343Y-37758425D01*
X41688338Y-37758427D01*
X41572108Y-37833124D01*
X41572106Y-37833126D01*
X41481621Y-37937551D01*
X41481620Y-37937552D01*
X41424222Y-38063234D01*
X41404559Y-38200000D01*
X40115441Y-38200000D01*
X40095777Y-38063235D01*
X40038379Y-37937551D01*
X39947896Y-37833128D01*
X39947893Y-37833126D01*
X39947891Y-37833124D01*
X39831661Y-37758427D01*
X39831656Y-37758425D01*
X39699087Y-37719500D01*
X39699085Y-37719500D01*
X39560915Y-37719500D01*
X39560912Y-37719500D01*
X39428343Y-37758425D01*
X39428338Y-37758427D01*
X39312108Y-37833124D01*
X39312106Y-37833126D01*
X39221621Y-37937551D01*
X39221620Y-37937552D01*
X39164222Y-38063234D01*
X39144559Y-38200000D01*
X37030500Y-38200000D01*
X37030500Y-36250000D01*
X44014559Y-36250000D01*
X44034222Y-36386765D01*
X44091620Y-36512447D01*
X44091621Y-36512449D01*
X44182104Y-36616872D01*
X44182106Y-36616873D01*
X44182108Y-36616875D01*
X44298338Y-36691572D01*
X44298343Y-36691574D01*
X44401220Y-36721780D01*
X44419526Y-36727156D01*
X44430912Y-36730499D01*
X44430914Y-36730500D01*
X44532452Y-36730500D01*
X44599491Y-36750185D01*
X44620133Y-36766819D01*
X46392826Y-38539512D01*
X46426311Y-38600835D01*
X46421327Y-38670527D01*
X46379455Y-38726460D01*
X46340082Y-38746170D01*
X46298338Y-38758427D01*
X46182108Y-38833124D01*
X46182106Y-38833126D01*
X46091621Y-38937551D01*
X46091620Y-38937552D01*
X46034222Y-39063234D01*
X46014559Y-39200000D01*
X46034222Y-39336765D01*
X46086365Y-39450941D01*
X46091621Y-39462449D01*
X46182104Y-39566872D01*
X46182106Y-39566873D01*
X46182108Y-39566875D01*
X46298338Y-39641572D01*
X46298343Y-39641574D01*
X46430912Y-39680499D01*
X46430914Y-39680500D01*
X46430915Y-39680500D01*
X46569086Y-39680500D01*
X46569086Y-39680499D01*
X46685819Y-39646224D01*
X46701656Y-39641574D01*
X46701657Y-39641573D01*
X46701659Y-39641573D01*
X46716663Y-39631931D01*
X46798192Y-39579535D01*
X46817896Y-39566872D01*
X46881788Y-39493135D01*
X46940565Y-39455363D01*
X47010435Y-39455363D01*
X47069213Y-39493137D01*
X47098238Y-39556693D01*
X47099500Y-39574340D01*
X47099500Y-53775255D01*
X47079815Y-53842294D01*
X47027011Y-53888049D01*
X46957853Y-53897993D01*
X46894297Y-53868968D01*
X46862706Y-53826767D01*
X46840648Y-53778468D01*
X46833379Y-53762551D01*
X46742896Y-53658128D01*
X46742893Y-53658126D01*
X46742891Y-53658124D01*
X46626661Y-53583427D01*
X46626656Y-53583425D01*
X46494087Y-53544500D01*
X46494085Y-53544500D01*
X46355915Y-53544500D01*
X46355912Y-53544500D01*
X46223343Y-53583425D01*
X46223338Y-53583427D01*
X46107108Y-53658124D01*
X46107106Y-53658126D01*
X46107104Y-53658127D01*
X46107104Y-53658128D01*
X46063520Y-53708427D01*
X46016621Y-53762551D01*
X46016620Y-53762552D01*
X45959222Y-53888234D01*
X45939559Y-54025000D01*
X45959222Y-54161765D01*
X46010819Y-54274744D01*
X46016621Y-54287449D01*
X46107104Y-54391872D01*
X46107106Y-54391873D01*
X46107108Y-54391875D01*
X46223338Y-54466572D01*
X46223343Y-54466574D01*
X46355912Y-54505499D01*
X46355914Y-54505500D01*
X46355915Y-54505500D01*
X46494086Y-54505500D01*
X46494086Y-54505499D01*
X46626659Y-54466573D01*
X46742896Y-54391872D01*
X46833379Y-54287449D01*
X46833381Y-54287445D01*
X46862706Y-54223233D01*
X46908461Y-54170429D01*
X46975500Y-54150744D01*
X47042539Y-54170429D01*
X47088294Y-54223233D01*
X47099500Y-54274744D01*
X47099500Y-57563720D01*
X47089192Y-57598824D01*
X47098238Y-57618632D01*
X47099500Y-57636279D01*
X47099500Y-59603944D01*
X47079815Y-59670983D01*
X47074225Y-59675826D01*
X47098238Y-59728408D01*
X47099500Y-59746055D01*
X47099500Y-62416931D01*
X47110619Y-62458424D01*
X47110619Y-62458425D01*
X47118615Y-62488266D01*
X47118616Y-62488269D01*
X47152311Y-62546632D01*
X47155543Y-62552229D01*
X47155545Y-62552232D01*
X47214834Y-62611521D01*
X47214840Y-62611526D01*
X47981825Y-63378512D01*
X48015310Y-63439835D01*
X48016882Y-63483837D01*
X48014559Y-63499996D01*
X48014559Y-63499999D01*
X48034222Y-63636765D01*
X48083424Y-63744500D01*
X48091621Y-63762449D01*
X48182104Y-63866872D01*
X48182106Y-63866873D01*
X48182108Y-63866875D01*
X48298338Y-63941572D01*
X48298343Y-63941574D01*
X48430912Y-63980499D01*
X48430914Y-63980500D01*
X48430915Y-63980500D01*
X48569085Y-63980500D01*
X48685625Y-63946281D01*
X48755494Y-63946281D01*
X48814272Y-63984055D01*
X48843297Y-64047611D01*
X48843810Y-64054795D01*
X48864222Y-64196765D01*
X48910591Y-64298297D01*
X48921621Y-64322449D01*
X49012104Y-64426872D01*
X49012106Y-64426873D01*
X49012108Y-64426875D01*
X49128338Y-64501572D01*
X49128343Y-64501574D01*
X49260912Y-64540499D01*
X49260914Y-64540500D01*
X49260915Y-64540500D01*
X49399086Y-64540500D01*
X49399086Y-64540499D01*
X49531659Y-64501573D01*
X49553637Y-64487449D01*
X49625022Y-64441572D01*
X49647896Y-64426872D01*
X49738379Y-64322449D01*
X49795777Y-64196765D01*
X49809690Y-64100000D01*
X54214559Y-64100000D01*
X54234222Y-64236765D01*
X54291309Y-64361765D01*
X54291621Y-64362449D01*
X54382104Y-64466872D01*
X54382106Y-64466873D01*
X54382108Y-64466875D01*
X54498338Y-64541572D01*
X54498343Y-64541574D01*
X54630912Y-64580499D01*
X54630914Y-64580500D01*
X54630915Y-64580500D01*
X54769086Y-64580500D01*
X54769086Y-64580499D01*
X54901659Y-64541573D01*
X54902318Y-64541150D01*
X54968169Y-64498829D01*
X55017896Y-64466872D01*
X55108379Y-64362449D01*
X55165777Y-64236765D01*
X55167469Y-64225000D01*
X58014559Y-64225000D01*
X58034222Y-64361765D01*
X58082224Y-64466872D01*
X58091621Y-64487449D01*
X58182104Y-64591872D01*
X58182106Y-64591873D01*
X58182108Y-64591875D01*
X58298338Y-64666572D01*
X58298343Y-64666574D01*
X58430912Y-64705499D01*
X58430914Y-64705500D01*
X58430915Y-64705500D01*
X58569086Y-64705500D01*
X58569086Y-64705499D01*
X58701659Y-64666573D01*
X58817896Y-64591872D01*
X58908379Y-64487449D01*
X58965777Y-64361765D01*
X58985441Y-64225000D01*
X58965777Y-64088235D01*
X58954000Y-64062448D01*
X58925481Y-64000000D01*
X58908379Y-63962551D01*
X58817896Y-63858128D01*
X58817893Y-63858126D01*
X58817891Y-63858124D01*
X58701661Y-63783427D01*
X58701656Y-63783425D01*
X58569087Y-63744500D01*
X58569085Y-63744500D01*
X58430915Y-63744500D01*
X58430912Y-63744500D01*
X58298343Y-63783425D01*
X58298338Y-63783427D01*
X58182108Y-63858124D01*
X58182106Y-63858126D01*
X58182104Y-63858127D01*
X58182104Y-63858128D01*
X58113965Y-63936765D01*
X58091621Y-63962551D01*
X58091620Y-63962552D01*
X58034222Y-64088234D01*
X58014559Y-64225000D01*
X55167469Y-64225000D01*
X55185441Y-64100000D01*
X55165777Y-63963235D01*
X55165465Y-63962552D01*
X55108379Y-63837552D01*
X55108379Y-63837551D01*
X55017896Y-63733128D01*
X55017893Y-63733126D01*
X55017891Y-63733124D01*
X54901661Y-63658427D01*
X54901656Y-63658425D01*
X54769087Y-63619500D01*
X54769085Y-63619500D01*
X54630915Y-63619500D01*
X54630912Y-63619500D01*
X54498343Y-63658425D01*
X54498338Y-63658427D01*
X54382108Y-63733124D01*
X54382106Y-63733126D01*
X54382104Y-63733127D01*
X54382104Y-63733128D01*
X54338520Y-63783427D01*
X54291621Y-63837551D01*
X54291620Y-63837552D01*
X54234222Y-63963234D01*
X54214559Y-64100000D01*
X49809690Y-64100000D01*
X49815441Y-64060000D01*
X49795777Y-63923235D01*
X49738379Y-63797551D01*
X49647896Y-63693128D01*
X49647893Y-63693126D01*
X49647891Y-63693124D01*
X49531661Y-63618427D01*
X49531656Y-63618425D01*
X49399087Y-63579500D01*
X49399085Y-63579500D01*
X49260915Y-63579500D01*
X49260912Y-63579500D01*
X49144375Y-63613718D01*
X49074506Y-63613718D01*
X49015728Y-63575943D01*
X48986703Y-63512387D01*
X48986189Y-63505206D01*
X48985440Y-63499999D01*
X48965777Y-63363235D01*
X48963581Y-63358427D01*
X48921769Y-63266872D01*
X48908379Y-63237551D01*
X48817896Y-63133128D01*
X48817893Y-63133126D01*
X48817891Y-63133124D01*
X48701661Y-63058427D01*
X48701656Y-63058425D01*
X48569087Y-63019500D01*
X48569085Y-63019500D01*
X48467549Y-63019500D01*
X48401140Y-63000000D01*
X52964559Y-63000000D01*
X52984222Y-63136765D01*
X52995952Y-63162449D01*
X53041621Y-63262449D01*
X53132104Y-63366872D01*
X53132106Y-63366873D01*
X53132108Y-63366875D01*
X53248338Y-63441572D01*
X53248343Y-63441574D01*
X53380912Y-63480499D01*
X53380914Y-63480500D01*
X53380915Y-63480500D01*
X53519086Y-63480500D01*
X53519086Y-63480499D01*
X53651659Y-63441573D01*
X53652237Y-63441202D01*
X53767891Y-63366875D01*
X53767890Y-63366875D01*
X53767896Y-63366872D01*
X53858379Y-63262449D01*
X53915777Y-63136765D01*
X53935441Y-63000000D01*
X53921063Y-62900000D01*
X58164559Y-62900000D01*
X58184222Y-63036765D01*
X58239636Y-63158103D01*
X58241621Y-63162449D01*
X58332104Y-63266872D01*
X58332106Y-63266873D01*
X58332108Y-63266875D01*
X58448338Y-63341572D01*
X58448343Y-63341574D01*
X58522112Y-63363234D01*
X58574144Y-63378512D01*
X58580912Y-63380499D01*
X58580914Y-63380500D01*
X58580915Y-63380500D01*
X58719086Y-63380500D01*
X58719086Y-63380499D01*
X58851659Y-63341573D01*
X58853278Y-63340533D01*
X58967891Y-63266875D01*
X58967890Y-63266875D01*
X58967896Y-63266872D01*
X59058379Y-63162449D01*
X59115777Y-63036765D01*
X59135441Y-62900000D01*
X59115777Y-62763235D01*
X59115417Y-62762447D01*
X59058379Y-62637552D01*
X59058379Y-62637551D01*
X58967896Y-62533128D01*
X58967893Y-62533126D01*
X58967891Y-62533124D01*
X58851661Y-62458427D01*
X58851656Y-62458425D01*
X58719087Y-62419500D01*
X58719085Y-62419500D01*
X58580915Y-62419500D01*
X58580912Y-62419500D01*
X58448343Y-62458425D01*
X58448338Y-62458427D01*
X58332108Y-62533124D01*
X58332106Y-62533126D01*
X58332104Y-62533127D01*
X58332104Y-62533128D01*
X58304261Y-62565261D01*
X58241621Y-62637551D01*
X58241620Y-62637552D01*
X58184222Y-62763234D01*
X58164559Y-62900000D01*
X53921063Y-62900000D01*
X53915777Y-62863235D01*
X53909357Y-62849178D01*
X53870108Y-62763234D01*
X53858379Y-62737551D01*
X53767896Y-62633128D01*
X53767893Y-62633126D01*
X53767891Y-62633124D01*
X53651661Y-62558427D01*
X53651656Y-62558425D01*
X53519087Y-62519500D01*
X53519085Y-62519500D01*
X53380915Y-62519500D01*
X53380912Y-62519500D01*
X53248343Y-62558425D01*
X53248338Y-62558427D01*
X53132108Y-62633124D01*
X53132106Y-62633126D01*
X53132104Y-62633127D01*
X53132104Y-62633128D01*
X53128271Y-62637552D01*
X53041621Y-62737551D01*
X53041620Y-62737552D01*
X52984222Y-62863234D01*
X52964559Y-63000000D01*
X48401140Y-63000000D01*
X48400510Y-62999815D01*
X48379868Y-62983181D01*
X47696819Y-62300132D01*
X47663334Y-62238809D01*
X47660500Y-62212451D01*
X47660500Y-62100000D01*
X48839559Y-62100000D01*
X48859222Y-62236765D01*
X48903104Y-62332851D01*
X48916621Y-62362449D01*
X49007104Y-62466872D01*
X49007106Y-62466873D01*
X49007108Y-62466875D01*
X49123338Y-62541572D01*
X49123343Y-62541574D01*
X49255912Y-62580499D01*
X49255914Y-62580500D01*
X49255915Y-62580500D01*
X49394086Y-62580500D01*
X49394086Y-62580499D01*
X49526659Y-62541573D01*
X49571965Y-62512457D01*
X49642891Y-62466875D01*
X49642890Y-62466875D01*
X49642896Y-62466872D01*
X49733379Y-62362449D01*
X49790777Y-62236765D01*
X49810441Y-62100000D01*
X49790777Y-61963235D01*
X49777260Y-61933638D01*
X49733379Y-61837552D01*
X49733379Y-61837551D01*
X49642896Y-61733128D01*
X49642893Y-61733126D01*
X49642891Y-61733124D01*
X49526661Y-61658427D01*
X49526656Y-61658425D01*
X49394087Y-61619500D01*
X49394085Y-61619500D01*
X49255915Y-61619500D01*
X49255912Y-61619500D01*
X49123343Y-61658425D01*
X49123338Y-61658427D01*
X49007108Y-61733124D01*
X49007106Y-61733126D01*
X49007104Y-61733127D01*
X49007104Y-61733128D01*
X48916621Y-61837551D01*
X48916620Y-61837552D01*
X48859222Y-61963234D01*
X48839559Y-62100000D01*
X47660500Y-62100000D01*
X47660500Y-60450000D01*
X48034559Y-60450000D01*
X48054222Y-60586765D01*
X48097030Y-60680499D01*
X48111621Y-60712449D01*
X48202104Y-60816872D01*
X48202106Y-60816873D01*
X48202108Y-60816875D01*
X48318338Y-60891572D01*
X48318343Y-60891574D01*
X48450912Y-60930499D01*
X48450914Y-60930500D01*
X48450915Y-60930500D01*
X48589086Y-60930500D01*
X48589086Y-60930499D01*
X48721659Y-60891573D01*
X48837896Y-60816872D01*
X48928379Y-60712449D01*
X48985777Y-60586765D01*
X49005441Y-60450000D01*
X48998672Y-60402926D01*
X49008615Y-60333771D01*
X49033724Y-60297606D01*
X49069517Y-60261814D01*
X49130838Y-60228333D01*
X49157193Y-60225500D01*
X51785778Y-60225500D01*
X51852817Y-60245185D01*
X51898572Y-60297989D01*
X51908515Y-60331848D01*
X51909221Y-60336758D01*
X51909222Y-60336761D01*
X51909223Y-60336765D01*
X51966621Y-60462449D01*
X52057104Y-60566872D01*
X52057106Y-60566873D01*
X52057108Y-60566875D01*
X52173338Y-60641572D01*
X52173343Y-60641574D01*
X52276220Y-60671780D01*
X52297363Y-60677989D01*
X52305912Y-60680499D01*
X52305914Y-60680500D01*
X52305915Y-60680500D01*
X52444086Y-60680500D01*
X52444086Y-60680499D01*
X52576659Y-60641573D01*
X52692896Y-60566872D01*
X52783379Y-60462449D01*
X52840777Y-60336765D01*
X52860441Y-60200000D01*
X52840777Y-60063235D01*
X52840417Y-60062447D01*
X52803161Y-59980867D01*
X52783379Y-59937551D01*
X52692896Y-59833128D01*
X52692893Y-59833126D01*
X52692891Y-59833124D01*
X52576661Y-59758427D01*
X52576656Y-59758425D01*
X52444087Y-59719500D01*
X52444085Y-59719500D01*
X52305915Y-59719500D01*
X52305913Y-59719500D01*
X52290521Y-59724019D01*
X52220651Y-59724015D01*
X52208405Y-59719711D01*
X52208179Y-59719618D01*
X52207949Y-59719433D01*
X52207918Y-59719509D01*
X52195827Y-59714501D01*
X52195824Y-59714500D01*
X52195823Y-59714500D01*
X52195822Y-59714500D01*
X52195821Y-59714500D01*
X49065265Y-59714500D01*
X49065257Y-59714499D01*
X49050823Y-59714499D01*
X48949178Y-59714499D01*
X48949177Y-59714499D01*
X48855269Y-59753398D01*
X48675486Y-59933181D01*
X48614163Y-59966666D01*
X48587805Y-59969500D01*
X48450912Y-59969500D01*
X48318343Y-60008425D01*
X48318338Y-60008427D01*
X48202108Y-60083124D01*
X48202106Y-60083126D01*
X48202104Y-60083127D01*
X48202104Y-60083128D01*
X48139394Y-60155499D01*
X48111621Y-60187551D01*
X48111620Y-60187552D01*
X48054222Y-60313234D01*
X48034559Y-60450000D01*
X47660500Y-60450000D01*
X47660500Y-58521470D01*
X48836273Y-58521470D01*
X48855936Y-58658235D01*
X48891800Y-58736765D01*
X48913335Y-58783919D01*
X49003818Y-58888342D01*
X49003820Y-58888343D01*
X49003822Y-58888345D01*
X49120052Y-58963042D01*
X49120057Y-58963044D01*
X49252626Y-59001969D01*
X49252628Y-59001970D01*
X49252629Y-59001970D01*
X49390800Y-59001970D01*
X49390800Y-59001969D01*
X49523373Y-58963043D01*
X49562181Y-58938101D01*
X49629217Y-58918417D01*
X49696255Y-58938099D01*
X49748341Y-58971573D01*
X49748343Y-58971574D01*
X49880912Y-59010499D01*
X49880914Y-59010500D01*
X49880915Y-59010500D01*
X50019086Y-59010500D01*
X50019086Y-59010499D01*
X50151659Y-58971573D01*
X50158970Y-58966875D01*
X50267891Y-58896875D01*
X50267890Y-58896875D01*
X50267896Y-58896872D01*
X50358379Y-58792449D01*
X50415777Y-58666765D01*
X50435441Y-58530000D01*
X50415777Y-58393235D01*
X50411881Y-58384705D01*
X50358379Y-58267552D01*
X50358379Y-58267551D01*
X50299846Y-58200000D01*
X55714559Y-58200000D01*
X55734222Y-58336765D01*
X55791620Y-58462447D01*
X55791621Y-58462449D01*
X55882104Y-58566872D01*
X55882106Y-58566873D01*
X55926937Y-58595685D01*
X55972692Y-58648489D01*
X55982635Y-58717648D01*
X55953610Y-58781203D01*
X55926937Y-58804315D01*
X55882106Y-58833126D01*
X55791621Y-58937551D01*
X55791620Y-58937552D01*
X55734222Y-59063234D01*
X55714559Y-59200000D01*
X55734222Y-59336765D01*
X55791620Y-59462447D01*
X55791621Y-59462449D01*
X55882104Y-59566872D01*
X55882106Y-59566873D01*
X55926937Y-59595685D01*
X55972692Y-59648489D01*
X55982635Y-59717648D01*
X55953610Y-59781203D01*
X55926937Y-59804315D01*
X55882106Y-59833126D01*
X55791621Y-59937551D01*
X55791620Y-59937552D01*
X55734222Y-60063234D01*
X55714559Y-60200000D01*
X55734222Y-60336765D01*
X55777194Y-60430858D01*
X55791621Y-60462449D01*
X55882104Y-60566872D01*
X55882106Y-60566873D01*
X55882108Y-60566875D01*
X55998338Y-60641572D01*
X55998343Y-60641574D01*
X56101220Y-60671780D01*
X56122363Y-60677989D01*
X56130912Y-60680499D01*
X56130914Y-60680500D01*
X56130915Y-60680500D01*
X56269086Y-60680500D01*
X56269086Y-60680499D01*
X56401659Y-60641573D01*
X56517896Y-60566872D01*
X56608379Y-60462449D01*
X56665777Y-60336765D01*
X56685441Y-60200000D01*
X56665777Y-60063235D01*
X56665417Y-60062447D01*
X56628161Y-59980867D01*
X56608379Y-59937551D01*
X56517896Y-59833128D01*
X56473062Y-59804315D01*
X56427308Y-59751512D01*
X56417364Y-59682353D01*
X56446389Y-59618798D01*
X56473061Y-59595685D01*
X56517896Y-59566872D01*
X56608379Y-59462449D01*
X56665777Y-59336765D01*
X56685441Y-59200000D01*
X56665777Y-59063235D01*
X56655884Y-59041573D01*
X56608631Y-58938103D01*
X56608379Y-58937551D01*
X56517896Y-58833128D01*
X56473062Y-58804315D01*
X56427308Y-58751512D01*
X56417364Y-58682353D01*
X56446389Y-58618798D01*
X56473061Y-58595685D01*
X56517896Y-58566872D01*
X56608379Y-58462449D01*
X56665777Y-58336765D01*
X56685441Y-58200000D01*
X56665777Y-58063235D01*
X56659504Y-58049500D01*
X56608379Y-57937552D01*
X56608379Y-57937551D01*
X56517896Y-57833128D01*
X56517893Y-57833126D01*
X56517891Y-57833124D01*
X56401661Y-57758427D01*
X56401656Y-57758425D01*
X56269087Y-57719500D01*
X56269085Y-57719500D01*
X56130915Y-57719500D01*
X56130912Y-57719500D01*
X55998343Y-57758425D01*
X55998338Y-57758427D01*
X55882108Y-57833124D01*
X55882106Y-57833126D01*
X55791621Y-57937551D01*
X55791620Y-57937552D01*
X55734222Y-58063234D01*
X55714559Y-58200000D01*
X50299846Y-58200000D01*
X50267896Y-58163128D01*
X50267893Y-58163126D01*
X50267891Y-58163124D01*
X50151661Y-58088427D01*
X50151656Y-58088425D01*
X50019087Y-58049500D01*
X50019085Y-58049500D01*
X49880915Y-58049500D01*
X49880912Y-58049500D01*
X49748345Y-58088424D01*
X49748336Y-58088429D01*
X49709531Y-58113367D01*
X49642491Y-58133051D01*
X49575454Y-58113367D01*
X49523370Y-58079895D01*
X49390801Y-58040970D01*
X49390799Y-58040970D01*
X49252629Y-58040970D01*
X49252626Y-58040970D01*
X49120057Y-58079895D01*
X49120052Y-58079897D01*
X49003822Y-58154594D01*
X49003820Y-58154596D01*
X49003818Y-58154597D01*
X49003818Y-58154598D01*
X48938049Y-58230500D01*
X48913335Y-58259021D01*
X48913334Y-58259022D01*
X48855936Y-58384704D01*
X48836273Y-58521470D01*
X47660500Y-58521470D01*
X47660500Y-55100000D01*
X51014559Y-55100000D01*
X51034222Y-55236765D01*
X51057131Y-55286927D01*
X51091621Y-55362449D01*
X51182104Y-55466872D01*
X51182106Y-55466873D01*
X51182108Y-55466875D01*
X51298338Y-55541572D01*
X51298343Y-55541574D01*
X51430912Y-55580499D01*
X51430914Y-55580500D01*
X51430915Y-55580500D01*
X51569086Y-55580500D01*
X51569086Y-55580499D01*
X51701659Y-55541573D01*
X51817896Y-55466872D01*
X51855655Y-55423296D01*
X51914433Y-55385523D01*
X51949367Y-55380500D01*
X56336927Y-55380500D01*
X56336929Y-55380500D01*
X56408269Y-55361384D01*
X56413652Y-55358275D01*
X56413666Y-55358272D01*
X56413664Y-55358269D01*
X56472231Y-55324456D01*
X56524456Y-55272231D01*
X56524456Y-55272229D01*
X56534660Y-55262026D01*
X56534663Y-55262021D01*
X57779867Y-54016819D01*
X57841190Y-53983334D01*
X57867548Y-53980500D01*
X57969086Y-53980500D01*
X57969086Y-53980499D01*
X58101659Y-53941573D01*
X58153701Y-53908128D01*
X58169471Y-53897993D01*
X58217896Y-53866872D01*
X58308379Y-53762449D01*
X58365777Y-53636765D01*
X58385441Y-53500000D01*
X58365777Y-53363235D01*
X58362011Y-53354989D01*
X58337078Y-53300393D01*
X58308379Y-53237551D01*
X58217896Y-53133128D01*
X58217893Y-53133126D01*
X58217891Y-53133124D01*
X58101661Y-53058427D01*
X58101656Y-53058425D01*
X57969087Y-53019500D01*
X57969085Y-53019500D01*
X57830915Y-53019500D01*
X57830912Y-53019500D01*
X57698343Y-53058425D01*
X57698338Y-53058427D01*
X57582108Y-53133124D01*
X57582106Y-53133126D01*
X57582104Y-53133127D01*
X57582104Y-53133128D01*
X57492302Y-53236765D01*
X57491621Y-53237551D01*
X57491620Y-53237552D01*
X57434222Y-53363234D01*
X57414559Y-53500000D01*
X57414559Y-53500001D01*
X57416882Y-53516160D01*
X57406938Y-53585318D01*
X57381825Y-53621486D01*
X56220133Y-54783181D01*
X56158810Y-54816666D01*
X56132452Y-54819500D01*
X51949367Y-54819500D01*
X51882328Y-54799815D01*
X51855655Y-54776704D01*
X51851172Y-54771531D01*
X51817896Y-54733128D01*
X51817893Y-54733126D01*
X51817891Y-54733124D01*
X51701661Y-54658427D01*
X51701656Y-54658425D01*
X51569087Y-54619500D01*
X51569085Y-54619500D01*
X51430915Y-54619500D01*
X51430912Y-54619500D01*
X51298343Y-54658425D01*
X51298338Y-54658427D01*
X51182108Y-54733124D01*
X51182106Y-54733126D01*
X51182104Y-54733127D01*
X51182104Y-54733128D01*
X51109718Y-54816666D01*
X51091621Y-54837551D01*
X51091620Y-54837552D01*
X51034222Y-54963234D01*
X51014559Y-55100000D01*
X47660500Y-55100000D01*
X47660500Y-50700000D01*
X51764559Y-50700000D01*
X51784222Y-50836765D01*
X51841620Y-50962447D01*
X51841621Y-50962449D01*
X51932104Y-51066872D01*
X51932106Y-51066873D01*
X51932108Y-51066875D01*
X52048338Y-51141572D01*
X52048343Y-51141574D01*
X52180912Y-51180499D01*
X52180914Y-51180500D01*
X52180915Y-51180500D01*
X52319086Y-51180500D01*
X52319086Y-51180499D01*
X52451659Y-51141573D01*
X52567896Y-51066872D01*
X52658379Y-50962449D01*
X52715777Y-50836765D01*
X52735441Y-50700000D01*
X52715777Y-50563235D01*
X52658379Y-50437551D01*
X52567896Y-50333128D01*
X52567893Y-50333126D01*
X52567891Y-50333124D01*
X52451661Y-50258427D01*
X52451656Y-50258425D01*
X52319087Y-50219500D01*
X52319085Y-50219500D01*
X52180915Y-50219500D01*
X52180912Y-50219500D01*
X52048343Y-50258425D01*
X52048338Y-50258427D01*
X51932108Y-50333124D01*
X51932106Y-50333126D01*
X51841621Y-50437551D01*
X51841620Y-50437552D01*
X51784222Y-50563234D01*
X51764559Y-50700000D01*
X47660500Y-50700000D01*
X47660500Y-47290000D01*
X57044559Y-47290000D01*
X57064222Y-47426765D01*
X57080519Y-47462449D01*
X57121621Y-47552449D01*
X57212104Y-47656872D01*
X57212106Y-47656873D01*
X57212108Y-47656875D01*
X57328338Y-47731572D01*
X57328343Y-47731574D01*
X57431220Y-47761780D01*
X57457509Y-47769500D01*
X57460912Y-47770499D01*
X57460914Y-47770500D01*
X57460915Y-47770500D01*
X57599086Y-47770500D01*
X57599086Y-47770499D01*
X57701964Y-47740292D01*
X57731656Y-47731574D01*
X57731657Y-47731573D01*
X57731659Y-47731573D01*
X57847896Y-47656872D01*
X57938379Y-47552449D01*
X57995777Y-47426765D01*
X58015441Y-47290000D01*
X57995777Y-47153235D01*
X57991636Y-47144168D01*
X57938379Y-47027552D01*
X57938379Y-47027551D01*
X57847896Y-46923128D01*
X57847893Y-46923126D01*
X57847891Y-46923124D01*
X57731661Y-46848427D01*
X57731656Y-46848425D01*
X57599087Y-46809500D01*
X57599085Y-46809500D01*
X57460915Y-46809500D01*
X57460912Y-46809500D01*
X57328343Y-46848425D01*
X57328338Y-46848427D01*
X57212108Y-46923124D01*
X57212106Y-46923126D01*
X57212104Y-46923127D01*
X57212104Y-46923128D01*
X57199606Y-46937552D01*
X57121621Y-47027551D01*
X57121620Y-47027552D01*
X57064222Y-47153234D01*
X57044559Y-47290000D01*
X47660500Y-47290000D01*
X47660500Y-45400000D01*
X51764559Y-45400000D01*
X51784222Y-45536765D01*
X51841620Y-45662447D01*
X51841621Y-45662449D01*
X51932104Y-45766872D01*
X51932106Y-45766873D01*
X51932108Y-45766875D01*
X52048338Y-45841572D01*
X52048343Y-45841574D01*
X52180912Y-45880499D01*
X52180914Y-45880500D01*
X52180915Y-45880500D01*
X52319086Y-45880500D01*
X52319086Y-45880499D01*
X52451659Y-45841573D01*
X52567896Y-45766872D01*
X52605655Y-45723296D01*
X52664433Y-45685523D01*
X52699367Y-45680500D01*
X57832452Y-45680500D01*
X57899491Y-45700185D01*
X57920133Y-45716819D01*
X59281825Y-47078512D01*
X59315310Y-47139835D01*
X59316882Y-47183837D01*
X59314559Y-47199996D01*
X59314559Y-47199999D01*
X59334222Y-47336765D01*
X59391620Y-47462447D01*
X59391621Y-47462449D01*
X59482104Y-47566872D01*
X59482106Y-47566873D01*
X59482108Y-47566875D01*
X59598338Y-47641572D01*
X59598343Y-47641574D01*
X59730912Y-47680499D01*
X59730914Y-47680500D01*
X59730915Y-47680500D01*
X59869086Y-47680500D01*
X59869086Y-47680499D01*
X60001659Y-47641573D01*
X60117896Y-47566872D01*
X60208379Y-47462449D01*
X60265777Y-47336765D01*
X60285441Y-47200000D01*
X60265777Y-47063235D01*
X60208379Y-46937551D01*
X60117896Y-46833128D01*
X60117893Y-46833126D01*
X60117891Y-46833124D01*
X60001661Y-46758427D01*
X60001656Y-46758425D01*
X59869087Y-46719500D01*
X59869085Y-46719500D01*
X59767549Y-46719500D01*
X59700510Y-46699815D01*
X59679868Y-46683181D01*
X58231526Y-45234840D01*
X58231524Y-45234837D01*
X58172232Y-45175545D01*
X58172231Y-45175544D01*
X58108269Y-45138616D01*
X58106892Y-45138247D01*
X58087788Y-45133127D01*
X58087788Y-45133128D01*
X58036929Y-45119500D01*
X58036928Y-45119500D01*
X52699367Y-45119500D01*
X52632328Y-45099815D01*
X52605655Y-45076704D01*
X52603696Y-45074443D01*
X52567896Y-45033128D01*
X52567893Y-45033126D01*
X52567891Y-45033124D01*
X52451661Y-44958427D01*
X52451656Y-44958425D01*
X52319087Y-44919500D01*
X52319085Y-44919500D01*
X52180915Y-44919500D01*
X52180912Y-44919500D01*
X52048343Y-44958425D01*
X52048338Y-44958427D01*
X51932108Y-45033124D01*
X51932106Y-45033126D01*
X51932104Y-45033127D01*
X51932104Y-45033128D01*
X51857262Y-45119500D01*
X51841621Y-45137551D01*
X51841620Y-45137552D01*
X51784222Y-45263234D01*
X51764559Y-45400000D01*
X47660500Y-45400000D01*
X47660500Y-41539750D01*
X47680185Y-41472711D01*
X47732989Y-41426956D01*
X47802147Y-41417012D01*
X47860884Y-41442070D01*
X47862338Y-41443207D01*
X47883648Y-41464520D01*
X47884238Y-41465275D01*
X47890028Y-41470263D01*
X47898916Y-41478722D01*
X47904216Y-41484291D01*
X47904217Y-41484291D01*
X47904218Y-41484292D01*
X47904893Y-41484768D01*
X47927289Y-41505052D01*
X47927800Y-41505643D01*
X47927803Y-41505646D01*
X47927805Y-41505648D01*
X47933942Y-41510428D01*
X47943210Y-41518414D01*
X47948898Y-41523826D01*
X47948900Y-41523826D01*
X47949383Y-41524133D01*
X47972800Y-41543324D01*
X47973143Y-41543684D01*
X47973144Y-41543684D01*
X47973145Y-41543686D01*
X47979638Y-41548249D01*
X47989258Y-41555744D01*
X47995307Y-41560955D01*
X47995599Y-41561120D01*
X48019963Y-41579156D01*
X48020158Y-41579341D01*
X48020161Y-41579343D01*
X48020162Y-41579344D01*
X48026957Y-41583637D01*
X48036924Y-41590643D01*
X48043322Y-41595627D01*
X48043439Y-41595686D01*
X48068704Y-41612533D01*
X48068753Y-41612575D01*
X48068756Y-41612576D01*
X48068758Y-41612579D01*
X48075859Y-41616594D01*
X48086107Y-41623070D01*
X48092831Y-41627795D01*
X48092877Y-41627827D01*
X48118706Y-41643278D01*
X48118833Y-41643341D01*
X48118835Y-41643344D01*
X48126193Y-41647042D01*
X48136734Y-41653002D01*
X48143737Y-41657427D01*
X48143739Y-41657427D01*
X48143967Y-41657571D01*
X48170003Y-41671465D01*
X48170293Y-41671593D01*
X48170295Y-41671595D01*
X48177880Y-41674954D01*
X48188690Y-41680387D01*
X48195935Y-41684484D01*
X48196270Y-41684673D01*
X48222680Y-41697149D01*
X48223051Y-41697292D01*
X48223052Y-41697293D01*
X48230830Y-41700293D01*
X48241887Y-41705190D01*
X48248961Y-41708746D01*
X48249725Y-41709130D01*
X48276579Y-41720246D01*
X48276992Y-41720382D01*
X48276994Y-41720384D01*
X48284900Y-41722998D01*
X48296182Y-41727350D01*
X48304199Y-41730901D01*
X48331686Y-41740735D01*
X48332040Y-41740833D01*
X48332043Y-41740835D01*
X48340071Y-41743060D01*
X48351552Y-41746855D01*
X48359288Y-41749840D01*
X48359290Y-41749839D01*
X48359615Y-41749965D01*
X48387863Y-41758542D01*
X48388092Y-41758593D01*
X48388093Y-41758594D01*
X48392400Y-41759563D01*
X48396157Y-41760410D01*
X48407848Y-41763650D01*
X48415654Y-41766232D01*
X48415655Y-41766231D01*
X48415798Y-41766279D01*
X48444984Y-41773602D01*
X48445037Y-41773611D01*
X48445042Y-41773614D01*
X48453143Y-41775025D01*
X48464951Y-41777684D01*
X48472829Y-41779869D01*
X48472830Y-41779868D01*
X48472831Y-41779869D01*
X48472885Y-41779873D01*
X48502682Y-41785815D01*
X48502801Y-41785853D01*
X48502807Y-41785857D01*
X48510864Y-41786855D01*
X48522843Y-41788940D01*
X48530698Y-41790710D01*
X48530703Y-41790709D01*
X48530947Y-41790716D01*
X48560945Y-41795179D01*
X48561266Y-41795267D01*
X48561273Y-41795271D01*
X48569154Y-41795854D01*
X48569227Y-41795860D01*
X48581356Y-41797361D01*
X48589156Y-41798721D01*
X48589161Y-41798719D01*
X48589645Y-41798709D01*
X48619785Y-41801685D01*
X48620339Y-41801809D01*
X48620343Y-41801811D01*
X48628178Y-41802002D01*
X48640406Y-41802906D01*
X48648119Y-41803863D01*
X48648124Y-41803861D01*
X48648887Y-41803806D01*
X48679103Y-41805293D01*
X48679849Y-41805421D01*
X48679856Y-41805424D01*
X48687525Y-41805232D01*
X48699768Y-41805531D01*
X48707467Y-41806102D01*
X48707471Y-41806100D01*
X48708350Y-41805993D01*
X48738573Y-41805984D01*
X48739467Y-41806093D01*
X48739467Y-41806092D01*
X48739471Y-41806094D01*
X48747164Y-41805519D01*
X48759408Y-41805213D01*
X48767098Y-41805402D01*
X48767101Y-41805400D01*
X48767838Y-41805273D01*
X48798047Y-41803770D01*
X48798790Y-41803823D01*
X48798796Y-41803825D01*
X48806518Y-41802863D01*
X48818724Y-41801954D01*
X48826593Y-41801758D01*
X48826601Y-41801754D01*
X48827111Y-41801640D01*
X48857268Y-41798644D01*
X48857730Y-41798654D01*
X48857736Y-41798656D01*
X48865543Y-41797291D01*
X48877665Y-41795783D01*
X48885643Y-41795189D01*
X48885646Y-41795187D01*
X48885944Y-41795105D01*
X48915942Y-41790626D01*
X48916171Y-41790620D01*
X48916172Y-41790619D01*
X48916175Y-41790620D01*
X48924038Y-41788844D01*
X48936017Y-41786753D01*
X48944084Y-41785750D01*
X48944089Y-41785746D01*
X48944184Y-41785716D01*
X48973986Y-41779757D01*
X48974012Y-41779754D01*
X48974018Y-41779755D01*
X48981901Y-41777565D01*
X48993729Y-41774896D01*
X49001822Y-41773483D01*
X49001823Y-41773482D01*
X49001921Y-41773465D01*
X49030987Y-41766156D01*
X49031162Y-41766097D01*
X49031165Y-41766098D01*
X49038994Y-41763505D01*
X49050661Y-41760265D01*
X49058750Y-41758440D01*
X49058751Y-41758438D01*
X49059034Y-41758375D01*
X49087148Y-41749824D01*
X49087505Y-41749685D01*
X49087509Y-41749686D01*
X49095261Y-41746691D01*
X49106738Y-41742892D01*
X49114771Y-41740662D01*
X49114772Y-41740660D01*
X49115186Y-41740546D01*
X49142523Y-41730749D01*
X49142958Y-41730556D01*
X49142961Y-41730556D01*
X49150585Y-41727175D01*
X49161859Y-41722821D01*
X49169792Y-41720195D01*
X49169793Y-41720193D01*
X49170258Y-41720040D01*
X49196960Y-41708973D01*
X49197410Y-41708746D01*
X49197413Y-41708746D01*
X49204866Y-41704995D01*
X49215931Y-41700090D01*
X49217643Y-41699428D01*
X49223708Y-41697087D01*
X49223709Y-41697085D01*
X49224144Y-41696918D01*
X49250421Y-41684491D01*
X49250782Y-41684286D01*
X49250785Y-41684286D01*
X49258042Y-41680178D01*
X49268860Y-41674735D01*
X49276433Y-41671379D01*
X49276434Y-41671377D01*
X49276765Y-41671231D01*
X49302686Y-41657385D01*
X49302944Y-41657221D01*
X49302947Y-41657221D01*
X49309927Y-41652806D01*
X49320479Y-41646834D01*
X49327865Y-41643120D01*
X49327866Y-41643118D01*
X49328028Y-41643037D01*
X49353751Y-41627635D01*
X49353827Y-41627581D01*
X49353829Y-41627581D01*
X49360569Y-41622840D01*
X49370843Y-41616343D01*
X49377920Y-41612339D01*
X49377921Y-41612337D01*
X49377929Y-41612331D01*
X49403217Y-41595452D01*
X49403301Y-41595408D01*
X49403310Y-41595406D01*
X49409700Y-41590424D01*
X49419666Y-41583415D01*
X49422136Y-41581852D01*
X49426482Y-41579105D01*
X49426485Y-41579099D01*
X49426643Y-41578951D01*
X49451035Y-41560879D01*
X49451284Y-41560736D01*
X49451296Y-41560733D01*
X49457367Y-41555499D01*
X49466979Y-41548004D01*
X49473473Y-41543439D01*
X49473475Y-41543436D01*
X49473792Y-41543104D01*
X49497209Y-41523899D01*
X49497677Y-41523601D01*
X49497680Y-41523601D01*
X49503374Y-41518178D01*
X49512657Y-41510176D01*
X49513982Y-41509142D01*
X49518785Y-41505400D01*
X49518787Y-41505395D01*
X49519267Y-41504841D01*
X49541690Y-41484520D01*
X49542323Y-41484072D01*
X49542332Y-41484069D01*
X49547636Y-41478491D01*
X49556517Y-41470035D01*
X49562321Y-41465033D01*
X49562324Y-41465026D01*
X49562882Y-41464314D01*
X49584247Y-41442939D01*
X49584951Y-41442387D01*
X49584955Y-41442386D01*
X49589944Y-41436590D01*
X49598420Y-41427680D01*
X49603983Y-41422384D01*
X49603986Y-41422376D01*
X49604439Y-41421735D01*
X49624730Y-41399319D01*
X49625295Y-41398829D01*
X49625298Y-41398828D01*
X49630077Y-41392688D01*
X49638061Y-41383417D01*
X49643490Y-41377710D01*
X49643493Y-41377700D01*
X49643780Y-41377250D01*
X49662977Y-41353816D01*
X49663313Y-41353494D01*
X49663316Y-41353493D01*
X49667880Y-41346994D01*
X49675385Y-41337358D01*
X49680595Y-41331308D01*
X49680596Y-41331306D01*
X49680747Y-41331040D01*
X49698798Y-41306647D01*
X49698948Y-41306487D01*
X49698951Y-41306486D01*
X49703242Y-41299690D01*
X49710240Y-41289729D01*
X49715241Y-41283307D01*
X49715242Y-41283302D01*
X49715290Y-41283210D01*
X49732150Y-41257918D01*
X49732158Y-41257907D01*
X49732161Y-41257906D01*
X49736178Y-41250798D01*
X49742667Y-41240526D01*
X49747391Y-41233802D01*
X49747391Y-41233800D01*
X49747452Y-41233714D01*
X49762824Y-41208009D01*
X49762910Y-41207837D01*
X49762913Y-41207835D01*
X49766626Y-41200442D01*
X49772581Y-41189908D01*
X49777002Y-41182910D01*
X49777002Y-41182908D01*
X49777168Y-41182646D01*
X49790996Y-41156726D01*
X49791146Y-41156386D01*
X49791148Y-41156385D01*
X49794501Y-41148809D01*
X49799942Y-41137981D01*
X49804040Y-41130732D01*
X49804040Y-41130729D01*
X49804238Y-41130380D01*
X49816654Y-41104091D01*
X49816823Y-41103650D01*
X49816827Y-41103647D01*
X49819835Y-41095844D01*
X49824715Y-41084820D01*
X49828470Y-41077349D01*
X49828470Y-41077343D01*
X49828683Y-41076920D01*
X49839744Y-41050198D01*
X49839901Y-41049720D01*
X49839904Y-41049718D01*
X49842525Y-41041785D01*
X49846866Y-41030525D01*
X49850252Y-41022880D01*
X49850252Y-41022876D01*
X49850442Y-41022447D01*
X49860220Y-40995124D01*
X49860341Y-40994689D01*
X49862570Y-40986645D01*
X49866367Y-40975158D01*
X49869351Y-40967420D01*
X49869350Y-40967417D01*
X49869479Y-40967085D01*
X49878018Y-40938960D01*
X49878084Y-40938663D01*
X49878087Y-40938660D01*
X49879908Y-40930567D01*
X49883139Y-40918908D01*
X49885732Y-40911067D01*
X49885731Y-40911063D01*
X49885792Y-40910881D01*
X49893090Y-40881793D01*
X49893306Y-40880556D01*
X49894512Y-40873625D01*
X49897182Y-40861764D01*
X49899357Y-40853918D01*
X49899357Y-40853917D01*
X49899358Y-40853914D01*
X49899357Y-40853910D01*
X49899360Y-40853878D01*
X49905306Y-40824064D01*
X49905329Y-40823991D01*
X49905335Y-40823981D01*
X49906334Y-40815912D01*
X49908422Y-40803925D01*
X49910192Y-40796068D01*
X49910191Y-40796063D01*
X49910198Y-40795828D01*
X49914664Y-40765824D01*
X49914744Y-40765535D01*
X49914744Y-40765533D01*
X49914745Y-40765532D01*
X49915337Y-40757522D01*
X49916836Y-40745426D01*
X49918196Y-40737619D01*
X49918195Y-40737617D01*
X49918196Y-40737616D01*
X49918185Y-40737156D01*
X49921160Y-40707024D01*
X49921281Y-40706478D01*
X49921284Y-40706473D01*
X49921475Y-40698618D01*
X49922378Y-40686408D01*
X49923336Y-40678684D01*
X49923334Y-40678679D01*
X49923280Y-40677930D01*
X49924756Y-40647779D01*
X49924912Y-40646867D01*
X49924915Y-40646862D01*
X49924718Y-40639154D01*
X49925016Y-40626845D01*
X49925572Y-40619354D01*
X49925570Y-40619349D01*
X49925322Y-40617327D01*
X49925291Y-40587297D01*
X49925543Y-40585208D01*
X49925542Y-40585206D01*
X49925544Y-40585203D01*
X49925034Y-40578521D01*
X49924713Y-40566086D01*
X49924869Y-40559734D01*
X49924866Y-40559727D01*
X49924404Y-40557063D01*
X49922879Y-40527170D01*
X49923090Y-40524142D01*
X49923092Y-40524138D01*
X49922252Y-40517543D01*
X49921302Y-40505056D01*
X49921132Y-40498365D01*
X49921129Y-40498358D01*
X49920585Y-40495944D01*
X49917569Y-40466221D01*
X49917616Y-40463771D01*
X49917618Y-40463766D01*
X49916398Y-40456940D01*
X49914827Y-40444583D01*
X49914295Y-40437603D01*
X49914291Y-40437596D01*
X49913760Y-40435690D01*
X49909245Y-40406110D01*
X49909187Y-40404215D01*
X49909186Y-40404212D01*
X49909187Y-40404210D01*
X49907569Y-40397206D01*
X49905389Y-40385003D01*
X49904467Y-40377749D01*
X49904465Y-40377745D01*
X49903991Y-40376328D01*
X49897981Y-40346933D01*
X49897869Y-40345556D01*
X49897870Y-40345549D01*
X49897840Y-40345446D01*
X49895837Y-40338392D01*
X49893049Y-40326319D01*
X49891723Y-40318896D01*
X49891721Y-40318893D01*
X49891721Y-40318892D01*
X49891341Y-40317920D01*
X49883853Y-40288790D01*
X49883735Y-40287887D01*
X49881278Y-40280630D01*
X49877909Y-40268767D01*
X49876153Y-40261161D01*
X49876149Y-40261155D01*
X49875896Y-40260592D01*
X49866937Y-40231758D01*
X49866858Y-40231329D01*
X49866859Y-40231326D01*
X49863961Y-40223978D01*
X49860033Y-40212369D01*
X49857831Y-40204618D01*
X49857829Y-40204616D01*
X49857829Y-40204614D01*
X49857734Y-40204427D01*
X49847326Y-40175986D01*
X49847315Y-40175939D01*
X49847315Y-40175937D01*
X49843963Y-40168525D01*
X49839491Y-40157183D01*
X49836765Y-40149129D01*
X49825435Y-40122319D01*
X49821383Y-40114409D01*
X49816396Y-40103378D01*
X49813286Y-40095491D01*
X49813284Y-40095489D01*
X49812979Y-40094715D01*
X49801074Y-40069995D01*
X49800529Y-40069047D01*
X49800529Y-40069046D01*
X49796274Y-40061647D01*
X49790788Y-40050937D01*
X49787229Y-40043065D01*
X49787227Y-40043063D01*
X49786674Y-40041839D01*
X49774290Y-40019030D01*
X49773436Y-40017698D01*
X49773436Y-40017697D01*
X49768747Y-40010385D01*
X49762775Y-39999996D01*
X49762347Y-39999161D01*
X49758770Y-39992177D01*
X49758768Y-39992175D01*
X49757962Y-39990602D01*
X49745149Y-39969504D01*
X49743976Y-39967855D01*
X49743976Y-39967853D01*
X49738852Y-39960648D01*
X49732422Y-39950616D01*
X49730108Y-39946593D01*
X49727976Y-39942885D01*
X49727974Y-39942884D01*
X49726897Y-39941010D01*
X49713673Y-39921427D01*
X49706688Y-39912539D01*
X49699808Y-39902864D01*
X49694939Y-39895270D01*
X49694937Y-39895268D01*
X49693593Y-39893172D01*
X49679972Y-39874953D01*
X49672331Y-39866132D01*
X49665005Y-39856809D01*
X49662689Y-39853552D01*
X49659739Y-39849404D01*
X49659737Y-39849403D01*
X49658173Y-39847203D01*
X49644075Y-39830114D01*
X49635839Y-39821476D01*
X49628093Y-39812533D01*
X49622446Y-39805347D01*
X49622445Y-39805346D01*
X49620680Y-39803100D01*
X49606010Y-39786957D01*
X49597292Y-39778646D01*
X49589129Y-39770084D01*
X49587458Y-39768155D01*
X49583141Y-39763171D01*
X49583140Y-39763170D01*
X49581230Y-39760965D01*
X49565868Y-39745602D01*
X49556767Y-39737719D01*
X49548206Y-39729557D01*
X49539907Y-39720852D01*
X49523756Y-39706175D01*
X49521497Y-39704399D01*
X49514323Y-39698761D01*
X49505392Y-39691025D01*
X49498789Y-39684730D01*
X49498787Y-39684729D01*
X49496765Y-39682801D01*
X49479619Y-39668653D01*
X49470015Y-39661823D01*
X49460698Y-39654501D01*
X49451903Y-39646883D01*
X49433658Y-39633241D01*
X49423992Y-39627043D01*
X49414300Y-39620151D01*
X49405431Y-39613180D01*
X49385815Y-39599932D01*
X49376207Y-39594407D01*
X49366162Y-39587968D01*
X49358986Y-39582865D01*
X49358985Y-39582864D01*
X49357338Y-39581693D01*
X49336275Y-39568900D01*
X49334671Y-39568078D01*
X49326844Y-39564068D01*
X49316463Y-39558099D01*
X49307822Y-39552558D01*
X49284967Y-39540148D01*
X49275884Y-39536041D01*
X49265161Y-39530550D01*
X49256853Y-39525772D01*
X49232133Y-39513866D01*
X49223499Y-39510461D01*
X49212464Y-39505473D01*
X49207001Y-39502674D01*
X49205026Y-39501663D01*
X49205025Y-39501662D01*
X49204567Y-39501428D01*
X49177692Y-39490066D01*
X49169616Y-39487333D01*
X49158287Y-39482867D01*
X49150898Y-39479526D01*
X49150897Y-39479525D01*
X49150891Y-39479523D01*
X49150848Y-39479513D01*
X49122427Y-39469116D01*
X49122226Y-39469013D01*
X49114510Y-39466821D01*
X49102904Y-39462895D01*
X49096956Y-39460549D01*
X49095524Y-39459984D01*
X49095523Y-39459984D01*
X49095518Y-39459982D01*
X49095044Y-39459896D01*
X49066240Y-39450941D01*
X49065693Y-39450694D01*
X49060570Y-39449511D01*
X49058066Y-39448932D01*
X49046220Y-39445569D01*
X49038943Y-39443106D01*
X49038034Y-39442987D01*
X49008918Y-39435499D01*
X49007943Y-39435117D01*
X49000481Y-39433783D01*
X48988427Y-39431000D01*
X48981291Y-39428973D01*
X48979900Y-39428861D01*
X48950521Y-39422854D01*
X48949098Y-39422377D01*
X48949097Y-39422377D01*
X48949095Y-39422376D01*
X48949090Y-39422375D01*
X48941884Y-39421458D01*
X48929642Y-39419272D01*
X48922640Y-39417655D01*
X48920710Y-39417596D01*
X48891150Y-39413081D01*
X48889236Y-39412546D01*
X48882255Y-39412014D01*
X48869875Y-39410440D01*
X48863073Y-39409224D01*
X48860597Y-39409273D01*
X48830907Y-39406258D01*
X48828470Y-39405708D01*
X48821768Y-39405537D01*
X48809303Y-39404588D01*
X48802709Y-39403749D01*
X48799813Y-39403952D01*
X48785448Y-39403042D01*
X48785448Y-39403115D01*
X48784178Y-39403115D01*
X48777471Y-39402537D01*
X48767975Y-39401936D01*
X48760655Y-39402117D01*
X48748193Y-39401796D01*
X48741643Y-39401297D01*
X48739395Y-39401569D01*
X48709416Y-39401539D01*
X48707262Y-39401274D01*
X48707261Y-39401274D01*
X48707259Y-39401274D01*
X48707258Y-39401274D01*
X48699897Y-39401820D01*
X48687576Y-39402120D01*
X48677179Y-39401855D01*
X48662477Y-39403115D01*
X48661203Y-39403115D01*
X48661203Y-39402756D01*
X48648328Y-39403550D01*
X48647924Y-39403520D01*
X48640181Y-39404481D01*
X48627979Y-39405386D01*
X48620130Y-39405579D01*
X48619582Y-39405703D01*
X48589466Y-39408682D01*
X48588987Y-39408670D01*
X48581169Y-39410033D01*
X48569073Y-39411533D01*
X48561081Y-39412126D01*
X48560760Y-39412216D01*
X48530800Y-39416680D01*
X48530542Y-39416686D01*
X48522666Y-39418461D01*
X48510689Y-39420548D01*
X48502632Y-39421548D01*
X48502518Y-39421586D01*
X48472748Y-39427528D01*
X48472706Y-39427531D01*
X48464846Y-39429711D01*
X48453010Y-39432378D01*
X48444829Y-39433804D01*
X48415703Y-39441117D01*
X48407696Y-39443765D01*
X48396033Y-39447000D01*
X48387686Y-39448881D01*
X48359521Y-39457436D01*
X48351452Y-39460549D01*
X48339982Y-39464343D01*
X48337096Y-39465144D01*
X48331569Y-39466677D01*
X48304142Y-39476493D01*
X48296098Y-39480056D01*
X48284837Y-39484400D01*
X48276453Y-39487173D01*
X48249700Y-39498251D01*
X48241817Y-39502214D01*
X48230775Y-39507106D01*
X48222572Y-39510271D01*
X48196264Y-39522700D01*
X48188635Y-39527014D01*
X48177844Y-39532438D01*
X48170249Y-39535803D01*
X48169933Y-39535943D01*
X48143963Y-39549803D01*
X48136722Y-39554378D01*
X48126187Y-39560335D01*
X48118667Y-39564115D01*
X48092890Y-39579535D01*
X48086104Y-39584305D01*
X48075853Y-39590784D01*
X48068739Y-39594806D01*
X48068709Y-39594833D01*
X48043456Y-39611676D01*
X48043340Y-39611734D01*
X48036941Y-39616718D01*
X48026992Y-39623711D01*
X48020167Y-39628023D01*
X48019980Y-39628202D01*
X47995637Y-39646224D01*
X47995345Y-39646388D01*
X47989268Y-39651623D01*
X47979652Y-39659114D01*
X47973160Y-39663676D01*
X47972825Y-39664028D01*
X47949429Y-39683201D01*
X47948956Y-39683499D01*
X47943252Y-39688927D01*
X47933993Y-39696904D01*
X47927835Y-39701701D01*
X47927335Y-39702280D01*
X47904953Y-39722549D01*
X47904281Y-39723022D01*
X47898963Y-39728609D01*
X47890085Y-39737057D01*
X47884283Y-39742055D01*
X47883716Y-39742781D01*
X47862380Y-39764116D01*
X47860860Y-39765304D01*
X47795918Y-39791078D01*
X47727350Y-39777650D01*
X47676928Y-39729284D01*
X47660500Y-39667605D01*
X47660500Y-39093071D01*
X47652294Y-39062449D01*
X47652293Y-39062444D01*
X47641385Y-39021734D01*
X47641384Y-39021732D01*
X47641384Y-39021731D01*
X47636025Y-39012449D01*
X47604456Y-38957769D01*
X47552231Y-38905544D01*
X47552230Y-38905543D01*
X47547900Y-38901213D01*
X47547889Y-38901203D01*
X47396686Y-38750000D01*
X58264559Y-38750000D01*
X58284222Y-38886765D01*
X58335936Y-39000000D01*
X58341621Y-39012449D01*
X58432104Y-39116872D01*
X58432106Y-39116873D01*
X58432108Y-39116875D01*
X58548338Y-39191572D01*
X58548343Y-39191574D01*
X58680912Y-39230499D01*
X58680914Y-39230500D01*
X58680915Y-39230500D01*
X58819086Y-39230500D01*
X58819086Y-39230499D01*
X58951659Y-39191573D01*
X58990092Y-39166874D01*
X59067891Y-39116875D01*
X59067890Y-39116875D01*
X59067896Y-39116872D01*
X59158379Y-39012449D01*
X59215777Y-38886765D01*
X59235441Y-38750000D01*
X59215777Y-38613235D01*
X59213222Y-38607641D01*
X59181213Y-38537551D01*
X59158379Y-38487551D01*
X59067896Y-38383128D01*
X59067893Y-38383126D01*
X59067891Y-38383124D01*
X58951661Y-38308427D01*
X58951656Y-38308425D01*
X58819087Y-38269500D01*
X58819085Y-38269500D01*
X58680915Y-38269500D01*
X58680912Y-38269500D01*
X58548343Y-38308425D01*
X58548338Y-38308427D01*
X58432108Y-38383124D01*
X58432106Y-38383126D01*
X58341621Y-38487551D01*
X58341620Y-38487552D01*
X58284222Y-38613234D01*
X58264559Y-38750000D01*
X47396686Y-38750000D01*
X45018174Y-36371488D01*
X44984689Y-36310165D01*
X44983118Y-36266157D01*
X44985441Y-36250002D01*
X44985441Y-36250000D01*
X46764559Y-36250000D01*
X46784222Y-36386765D01*
X46841620Y-36512447D01*
X46841621Y-36512449D01*
X46932104Y-36616872D01*
X46932106Y-36616873D01*
X46932108Y-36616875D01*
X47048338Y-36691572D01*
X47048343Y-36691574D01*
X47151220Y-36721780D01*
X47169526Y-36727156D01*
X47180912Y-36730499D01*
X47180914Y-36730500D01*
X47180915Y-36730500D01*
X47319086Y-36730500D01*
X47319086Y-36730499D01*
X47451659Y-36691573D01*
X47567896Y-36616872D01*
X47658379Y-36512449D01*
X47715777Y-36386765D01*
X47735441Y-36250000D01*
X47715777Y-36113235D01*
X47658379Y-35987551D01*
X47567896Y-35883128D01*
X47567893Y-35883126D01*
X47567891Y-35883124D01*
X47451661Y-35808427D01*
X47451656Y-35808425D01*
X47319087Y-35769500D01*
X47319085Y-35769500D01*
X47180915Y-35769500D01*
X47180912Y-35769500D01*
X47048343Y-35808425D01*
X47048338Y-35808427D01*
X46932108Y-35883124D01*
X46932106Y-35883126D01*
X46841621Y-35987551D01*
X46841620Y-35987552D01*
X46784222Y-36113234D01*
X46764559Y-36250000D01*
X44985441Y-36250000D01*
X44985441Y-36249999D01*
X44965777Y-36113234D01*
X44908379Y-35987552D01*
X44908379Y-35987551D01*
X44817896Y-35883128D01*
X44817893Y-35883126D01*
X44817891Y-35883124D01*
X44701661Y-35808427D01*
X44701656Y-35808425D01*
X44569087Y-35769500D01*
X44569085Y-35769500D01*
X44430915Y-35769500D01*
X44430912Y-35769500D01*
X44298343Y-35808425D01*
X44298338Y-35808427D01*
X44182108Y-35883124D01*
X44182106Y-35883126D01*
X44091621Y-35987551D01*
X44091620Y-35987552D01*
X44034222Y-36113234D01*
X44014559Y-36250000D01*
X37030500Y-36250000D01*
X37030500Y-33987792D01*
X37050185Y-33920753D01*
X37066819Y-33900111D01*
X39716930Y-31250000D01*
X49264559Y-31250000D01*
X49284222Y-31386765D01*
X49341620Y-31512447D01*
X49341621Y-31512449D01*
X49432104Y-31616872D01*
X49432106Y-31616873D01*
X49432108Y-31616875D01*
X49548338Y-31691572D01*
X49548343Y-31691574D01*
X49680912Y-31730499D01*
X49680914Y-31730500D01*
X49680915Y-31730500D01*
X49819086Y-31730500D01*
X49819086Y-31730499D01*
X49951659Y-31691573D01*
X50067896Y-31616872D01*
X50158379Y-31512449D01*
X50215777Y-31386765D01*
X50235441Y-31250000D01*
X51764559Y-31250000D01*
X51784222Y-31386765D01*
X51841620Y-31512447D01*
X51841621Y-31512449D01*
X51932104Y-31616872D01*
X51932106Y-31616873D01*
X51932108Y-31616875D01*
X52048338Y-31691572D01*
X52048343Y-31691574D01*
X52180912Y-31730499D01*
X52180914Y-31730500D01*
X52180915Y-31730500D01*
X52319086Y-31730500D01*
X52319086Y-31730499D01*
X52451659Y-31691573D01*
X52567896Y-31616872D01*
X52658379Y-31512449D01*
X52715777Y-31386765D01*
X52735441Y-31250000D01*
X52715777Y-31113235D01*
X52658379Y-30987551D01*
X52567896Y-30883128D01*
X52567893Y-30883126D01*
X52567891Y-30883124D01*
X52451661Y-30808427D01*
X52451656Y-30808425D01*
X52319087Y-30769500D01*
X52319085Y-30769500D01*
X52180915Y-30769500D01*
X52180912Y-30769500D01*
X52048343Y-30808425D01*
X52048338Y-30808427D01*
X51932108Y-30883124D01*
X51932106Y-30883126D01*
X51841621Y-30987551D01*
X51841620Y-30987552D01*
X51784222Y-31113234D01*
X51764559Y-31250000D01*
X50235441Y-31250000D01*
X50215777Y-31113235D01*
X50158379Y-30987551D01*
X50067896Y-30883128D01*
X50067893Y-30883126D01*
X50067891Y-30883124D01*
X49951661Y-30808427D01*
X49951656Y-30808425D01*
X49819087Y-30769500D01*
X49819085Y-30769500D01*
X49680915Y-30769500D01*
X49680912Y-30769500D01*
X49548343Y-30808425D01*
X49548338Y-30808427D01*
X49432108Y-30883124D01*
X49432106Y-30883126D01*
X49341621Y-30987551D01*
X49341620Y-30987552D01*
X49284222Y-31113234D01*
X49264559Y-31250000D01*
X39716930Y-31250000D01*
X45724452Y-25242479D01*
X45724452Y-25242478D01*
X45724456Y-25242475D01*
X45726809Y-25238400D01*
X45761384Y-25178513D01*
X45780500Y-25107172D01*
X45780500Y-24955905D01*
X45800185Y-24888866D01*
X45812858Y-24874242D01*
X45812088Y-24873575D01*
X45858305Y-24820237D01*
X45908379Y-24762449D01*
X45965777Y-24636765D01*
X45985441Y-24500000D01*
X45965777Y-24363235D01*
X45908379Y-24237551D01*
X45817896Y-24133128D01*
X45817893Y-24133126D01*
X45817894Y-24133126D01*
X45722540Y-24071846D01*
X45701899Y-24055212D01*
X45672232Y-24025545D01*
X45672231Y-24025544D01*
X45608269Y-23988616D01*
X45608270Y-23988616D01*
X45590433Y-23983837D01*
X45536928Y-23969500D01*
X45463072Y-23969500D01*
X45409566Y-23983837D01*
X45391730Y-23988616D01*
X45327770Y-24025543D01*
X45298097Y-24055215D01*
X45277459Y-24071846D01*
X45182104Y-24133128D01*
X45091621Y-24237551D01*
X45091620Y-24237552D01*
X45034222Y-24363234D01*
X45014559Y-24500000D01*
X45034222Y-24636765D01*
X45077329Y-24731154D01*
X45091621Y-24762449D01*
X45164337Y-24846368D01*
X45193362Y-24909923D01*
X45183419Y-24979081D01*
X45158305Y-25015251D01*
X42871702Y-27301853D01*
X42810379Y-27335338D01*
X42740687Y-27330354D01*
X42684754Y-27288482D01*
X42671227Y-27265683D01*
X42658381Y-27237554D01*
X42658378Y-27237550D01*
X42658377Y-27237549D01*
X42567896Y-27133128D01*
X42567893Y-27133126D01*
X42567891Y-27133124D01*
X42451661Y-27058427D01*
X42451656Y-27058425D01*
X42319087Y-27019500D01*
X42319085Y-27019500D01*
X42180915Y-27019500D01*
X42180912Y-27019500D01*
X42048343Y-27058425D01*
X42048338Y-27058427D01*
X41932108Y-27133124D01*
X41932105Y-27133127D01*
X41894345Y-27176704D01*
X41835567Y-27214477D01*
X41800633Y-27219500D01*
X36286928Y-27219500D01*
X32786928Y-27219500D01*
X32713071Y-27219500D01*
X32674177Y-27229921D01*
X32645709Y-27237550D01*
X32645708Y-27237549D01*
X32641735Y-27238614D01*
X32641731Y-27238615D01*
X32641731Y-27238616D01*
X32626621Y-27247339D01*
X32577769Y-27275543D01*
X29105546Y-30747766D01*
X29105540Y-30747774D01*
X29092998Y-30769499D01*
X29092998Y-30769500D01*
X29068617Y-30811728D01*
X29068616Y-30811729D01*
X29054517Y-30864351D01*
X29054516Y-30864354D01*
X29049500Y-30883071D01*
X29049500Y-34171510D01*
X29029815Y-34238549D01*
X28977011Y-34284304D01*
X28907853Y-34294248D01*
X28890567Y-34290488D01*
X28819085Y-34269500D01*
X28680915Y-34269500D01*
X28680912Y-34269500D01*
X28548343Y-34308425D01*
X28548338Y-34308427D01*
X28432108Y-34383124D01*
X28432106Y-34383126D01*
X28341621Y-34487551D01*
X28341620Y-34487552D01*
X28284222Y-34613234D01*
X28272733Y-34693147D01*
X28243708Y-34756703D01*
X28184930Y-34794477D01*
X28149995Y-34799500D01*
X27720424Y-34799500D01*
X27653385Y-34779815D01*
X27607630Y-34727011D01*
X27597686Y-34657853D01*
X27626711Y-34594297D01*
X27653384Y-34571185D01*
X27679881Y-34554155D01*
X27737896Y-34516872D01*
X27828379Y-34412449D01*
X27885777Y-34286765D01*
X27905441Y-34150000D01*
X27885777Y-34013235D01*
X27828379Y-33887551D01*
X27737896Y-33783128D01*
X27737893Y-33783126D01*
X27737891Y-33783124D01*
X27621661Y-33708427D01*
X27621656Y-33708425D01*
X27489087Y-33669500D01*
X27489085Y-33669500D01*
X27350915Y-33669500D01*
X27350912Y-33669500D01*
X27218343Y-33708425D01*
X27218338Y-33708427D01*
X27102108Y-33783124D01*
X27102106Y-33783126D01*
X27102104Y-33783127D01*
X27102104Y-33783128D01*
X27011621Y-33887551D01*
X27011620Y-33887552D01*
X26954222Y-34013234D01*
X26934559Y-34150000D01*
X26954222Y-34286765D01*
X27011620Y-34412447D01*
X27011621Y-34412449D01*
X27102104Y-34516872D01*
X27102106Y-34516873D01*
X27102105Y-34516873D01*
X27186616Y-34571185D01*
X27232370Y-34623989D01*
X27242314Y-34693147D01*
X27213289Y-34756703D01*
X27154511Y-34794477D01*
X27119576Y-34799500D01*
X26515900Y-34799500D01*
X26448861Y-34779815D01*
X26411583Y-34742537D01*
X26408379Y-34737551D01*
X26399246Y-34727011D01*
X26317896Y-34633128D01*
X26317893Y-34633126D01*
X26317891Y-34633124D01*
X26201661Y-34558427D01*
X26201656Y-34558425D01*
X26069087Y-34519500D01*
X26069085Y-34519500D01*
X25930915Y-34519500D01*
X25930912Y-34519500D01*
X25798343Y-34558425D01*
X25798338Y-34558427D01*
X25682108Y-34633124D01*
X25682106Y-34633126D01*
X25591621Y-34737551D01*
X25591620Y-34737552D01*
X25534222Y-34863234D01*
X25514559Y-35000000D01*
X22188602Y-35000000D01*
X22188602Y-33311639D01*
X22197629Y-33265193D01*
X22227938Y-33190166D01*
X23617657Y-29750000D01*
X27014559Y-29750000D01*
X27034222Y-29886765D01*
X27091620Y-30012447D01*
X27091621Y-30012449D01*
X27182104Y-30116872D01*
X27182106Y-30116873D01*
X27182108Y-30116875D01*
X27298338Y-30191572D01*
X27298343Y-30191574D01*
X27430912Y-30230499D01*
X27430914Y-30230500D01*
X27430915Y-30230500D01*
X27569086Y-30230500D01*
X27569086Y-30230499D01*
X27701659Y-30191573D01*
X27817896Y-30116872D01*
X27908379Y-30012449D01*
X27965777Y-29886765D01*
X27985441Y-29750000D01*
X28264559Y-29750000D01*
X28284222Y-29886765D01*
X28341620Y-30012447D01*
X28341621Y-30012449D01*
X28432104Y-30116872D01*
X28432106Y-30116873D01*
X28432108Y-30116875D01*
X28548338Y-30191572D01*
X28548343Y-30191574D01*
X28680912Y-30230499D01*
X28680914Y-30230500D01*
X28680915Y-30230500D01*
X28819086Y-30230500D01*
X28819086Y-30230499D01*
X28951659Y-30191573D01*
X29067896Y-30116872D01*
X29158379Y-30012449D01*
X29215777Y-29886765D01*
X29235441Y-29750000D01*
X29215777Y-29613235D01*
X29158379Y-29487551D01*
X29067896Y-29383128D01*
X29067893Y-29383126D01*
X29067891Y-29383124D01*
X28951661Y-29308427D01*
X28951656Y-29308425D01*
X28819087Y-29269500D01*
X28819085Y-29269500D01*
X28680915Y-29269500D01*
X28680912Y-29269500D01*
X28548343Y-29308425D01*
X28548338Y-29308427D01*
X28432108Y-29383124D01*
X28432106Y-29383126D01*
X28432104Y-29383127D01*
X28432104Y-29383128D01*
X28371319Y-29453278D01*
X28341621Y-29487551D01*
X28341620Y-29487552D01*
X28284222Y-29613234D01*
X28264559Y-29750000D01*
X27985441Y-29750000D01*
X27965777Y-29613235D01*
X27908379Y-29487551D01*
X27817896Y-29383128D01*
X27817893Y-29383126D01*
X27817891Y-29383124D01*
X27701661Y-29308427D01*
X27701656Y-29308425D01*
X27569087Y-29269500D01*
X27569085Y-29269500D01*
X27430915Y-29269500D01*
X27430912Y-29269500D01*
X27298343Y-29308425D01*
X27298338Y-29308427D01*
X27182108Y-29383124D01*
X27182106Y-29383126D01*
X27182104Y-29383127D01*
X27182104Y-29383128D01*
X27121319Y-29453278D01*
X27091621Y-29487551D01*
X27091620Y-29487552D01*
X27034222Y-29613234D01*
X27014559Y-29750000D01*
X23617657Y-29750000D01*
X24678004Y-27125174D01*
X24678385Y-27124244D01*
X24696823Y-27079732D01*
X24696823Y-27079730D01*
X24696838Y-27079694D01*
X24696934Y-27079193D01*
X24697144Y-27078114D01*
X24697251Y-27077575D01*
X24696828Y-27029355D01*
X24696823Y-27028267D01*
X24696823Y-25875264D01*
X24716508Y-25808225D01*
X24769312Y-25762470D01*
X24820823Y-25751264D01*
X25807675Y-25751264D01*
X25835346Y-25754391D01*
X25838692Y-25755156D01*
X25842664Y-25756066D01*
X25857911Y-25753485D01*
X25860772Y-25753002D01*
X25881461Y-25751264D01*
X25899828Y-25751264D01*
X25906759Y-25748392D01*
X25933527Y-25740689D01*
X26163038Y-25701853D01*
X26182206Y-25700125D01*
X26202878Y-25699874D01*
X26207647Y-25697829D01*
X26235809Y-25689540D01*
X26240924Y-25688675D01*
X26258438Y-25677686D01*
X26275474Y-25668761D01*
X26547665Y-25552106D01*
X26565609Y-25547377D01*
X26565540Y-25547158D01*
X26577182Y-25543466D01*
X26577186Y-25543466D01*
X26604681Y-25528324D01*
X26615651Y-25522970D01*
X26624434Y-25519206D01*
X26644476Y-25510617D01*
X26644478Y-25510614D01*
X26654547Y-25503709D01*
X26654677Y-25503899D01*
X26655287Y-25503434D01*
X26655139Y-25503258D01*
X26664477Y-25495396D01*
X26664480Y-25495395D01*
X26684087Y-25470884D01*
X26692141Y-25461774D01*
X26714079Y-25439297D01*
X26714080Y-25439293D01*
X26720743Y-25429055D01*
X26720936Y-25429180D01*
X26730276Y-25413148D01*
X26884094Y-25220876D01*
X26892139Y-25211777D01*
X26914078Y-25189298D01*
X26914079Y-25189294D01*
X26914081Y-25189293D01*
X26920741Y-25179058D01*
X26920935Y-25179184D01*
X26921318Y-25178528D01*
X26921111Y-25178421D01*
X26926733Y-25167578D01*
X26926735Y-25167577D01*
X26935469Y-25137431D01*
X26939431Y-25125909D01*
X27019651Y-24925361D01*
X27030114Y-24904929D01*
X27038161Y-24892263D01*
X27040036Y-24881544D01*
X27047046Y-24856873D01*
X27051089Y-24846769D01*
X27050905Y-24831760D01*
X27052751Y-24808887D01*
X27106266Y-24503088D01*
X27111081Y-24484586D01*
X27117183Y-24441118D01*
X27117829Y-24437015D01*
X27125340Y-24394099D01*
X27125339Y-24394095D01*
X27125411Y-24393686D01*
X27126524Y-24374581D01*
X27169024Y-24071846D01*
X27499708Y-21716316D01*
X27528521Y-21652667D01*
X27537985Y-21642825D01*
X29682972Y-19645171D01*
X29745446Y-19613888D01*
X29767481Y-19611914D01*
X32335500Y-19611914D01*
X32402539Y-19631599D01*
G37*
G04 #@! TD.AperFunction*
M02*
