%TF.GenerationSoftware,KiCad,Pcbnew,8.0.4*%
%TF.CreationDate,2025-03-19T09:34:23+11:00*%
%TF.ProjectId,nokia,6e6f6b69-612e-46b6-9963-61645f706362,rev?*%
%TF.SameCoordinates,Original*%
%TF.FileFunction,Drillmap*%
%TF.FilePolarity,Positive*%
%FSLAX45Y45*%
G04 Gerber Fmt 4.5, Leading zero omitted, Abs format (unit mm)*
G04 Created by KiCad (PCBNEW 8.0.4) date 2025-03-19 09:34:23*
%MOMM*%
%LPD*%
G01*
G04 APERTURE LIST*
%ADD10C,0.050000*%
%ADD11C,0.399999*%
%ADD12C,0.200000*%
%ADD13C,0.100000*%
G04 APERTURE END LIST*
D10*
X3380000Y-11275000D02*
X3570000Y-11275000D01*
X3570000Y-11445000D01*
X3380000Y-11445000D01*
X3380000Y-11275000D01*
X3390000Y-9905000D02*
X3560000Y-9905000D01*
X3560000Y-10095000D01*
X3390000Y-10095000D01*
X3390000Y-9905000D01*
X4601500Y-7340000D02*
X4771500Y-7340000D01*
X4771500Y-7530000D01*
X4601500Y-7530000D01*
X4601500Y-7340000D01*
X4930000Y-9915000D02*
X5120000Y-9915000D01*
X5120000Y-10085000D01*
X4930000Y-10085000D01*
X4930000Y-9915000D01*
X4930000Y-11277500D02*
X5120000Y-11277500D01*
X5120000Y-11447500D01*
X4930000Y-11447500D01*
X4930000Y-11277500D01*
D11*
X3271000Y-2001141D02*
X3871000Y-2001141D01*
X3871000Y-1936141D01*
X5400000Y-1936141D01*
X5400000Y-2200000D01*
X5590000Y-2200000D01*
X5804360Y-2200000D01*
X5874359Y-2270000D01*
X5874356Y-2455076D01*
X5880000Y-2505076D01*
X5890000Y-2525076D01*
X5905000Y-2545076D01*
X5920000Y-2560076D01*
X5940000Y-2570076D01*
X5960000Y-2575076D01*
X5975000Y-2575076D01*
X5995000Y-2575008D01*
X6166340Y-2575076D01*
X6166340Y-2942276D01*
X6277353Y-3281646D01*
X6303610Y-3323876D01*
X6303610Y-6330000D01*
X6353610Y-6330000D01*
X6353610Y-7030000D01*
X6303610Y-7030000D01*
X6303610Y-10195000D01*
X6140000Y-10195000D01*
X6140000Y-10365000D01*
X6277858Y-10365858D01*
X6123633Y-10879577D01*
X6110000Y-10909577D01*
X5894104Y-10909577D01*
X5890000Y-11110000D01*
X6081720Y-11110283D01*
X6068636Y-11189738D01*
X6009206Y-11498709D01*
X5907940Y-12184696D01*
X5635947Y-12161100D01*
X5535000Y-12165000D01*
X5531578Y-12359852D01*
X5635947Y-12361100D01*
X5635947Y-12736153D01*
X4585900Y-12736153D01*
X4585900Y-12296100D01*
X4345900Y-12296100D01*
X4345900Y-12736153D01*
X2865935Y-12736153D01*
X2865935Y-12361100D01*
X2970243Y-12359852D01*
X2970000Y-12165000D01*
X2865935Y-12161100D01*
X2593868Y-12185167D01*
X2492676Y-11498709D01*
X2214385Y-10363925D01*
X2365000Y-10365000D01*
X2365000Y-10195000D01*
X2193810Y-10195000D01*
X2193810Y-7030000D01*
X2143810Y-7030000D01*
X2143810Y-6330000D01*
X2193810Y-6330000D01*
X2193810Y-3323885D01*
X2444632Y-2702990D01*
X2444632Y-2550076D01*
X2585000Y-2550076D01*
X2615000Y-2545000D01*
X2650000Y-2530000D01*
X2670000Y-2505000D01*
X2680000Y-2480000D01*
X2687000Y-2440000D01*
X2727010Y-2155000D01*
X2962010Y-1936141D01*
X3271000Y-1936141D01*
X3271000Y-2001141D01*
D10*
X2640000Y-7340000D02*
X2810000Y-7340000D01*
X2810000Y-7530000D01*
X2640000Y-7530000D01*
X2640000Y-7340000D01*
X3731000Y-7340000D02*
X3901000Y-7340000D01*
X3901000Y-7530000D01*
X3731000Y-7530000D01*
X3731000Y-7340000D01*
X5692500Y-7340000D02*
X5862500Y-7340000D01*
X5862500Y-7530000D01*
X5692500Y-7530000D01*
X5692500Y-7340000D01*
D11*
X4877229Y-3965486D02*
X4882052Y-3965854D01*
X4886805Y-3966458D01*
X4891482Y-3967294D01*
X4896077Y-3968355D01*
X4900583Y-3969636D01*
X4904996Y-3971129D01*
X4909309Y-3972831D01*
X4913516Y-3974733D01*
X4917611Y-3976831D01*
X4921588Y-3979118D01*
X4925442Y-3981588D01*
X4929165Y-3984237D01*
X4932753Y-3987056D01*
X4936199Y-3990041D01*
X4939498Y-3993186D01*
X4942643Y-3996485D01*
X4945628Y-3999931D01*
X4948448Y-4003519D01*
X4951096Y-4007242D01*
X4953566Y-4011096D01*
X4955854Y-4015073D01*
X4957951Y-4019168D01*
X4959854Y-4023375D01*
X4961555Y-4027688D01*
X4963048Y-4032101D01*
X4964329Y-4036608D01*
X4965390Y-4041202D01*
X4966226Y-4045879D01*
X4966831Y-4050632D01*
X4967198Y-4055456D01*
X4967323Y-4060343D01*
X4967208Y-4065054D01*
X4966861Y-4069734D01*
X4966286Y-4074373D01*
X4965487Y-4078966D01*
X4964465Y-4083502D01*
X4963225Y-4087976D01*
X4961770Y-4092379D01*
X4960102Y-4096704D01*
X4958226Y-4100942D01*
X4956144Y-4105085D01*
X4953860Y-4109127D01*
X4951377Y-4113059D01*
X4948697Y-4116873D01*
X4945825Y-4120562D01*
X4942764Y-4124118D01*
X4939516Y-4127533D01*
X4936103Y-4130782D01*
X4932549Y-4133846D01*
X4928861Y-4136720D01*
X4925049Y-4139401D01*
X4921118Y-4141887D01*
X4917078Y-4144173D01*
X4912935Y-4146257D01*
X4908698Y-4148136D01*
X4904375Y-4149806D01*
X4899972Y-4151263D01*
X4895499Y-4152506D01*
X4890963Y-4153530D01*
X4886371Y-4154332D01*
X4881732Y-4154909D01*
X4877052Y-4155258D01*
X4872341Y-4155376D01*
X4867628Y-4155260D01*
X4862947Y-4154914D01*
X4858306Y-4154339D01*
X4853712Y-4153538D01*
X4849174Y-4152516D01*
X4844699Y-4151275D01*
X4840294Y-4149819D01*
X4835969Y-4148151D01*
X4831730Y-4146273D01*
X4827585Y-4144190D01*
X4823542Y-4141904D01*
X4819609Y-4139419D01*
X4815794Y-4136738D01*
X4812105Y-4133864D01*
X4808549Y-4130801D01*
X4805133Y-4127551D01*
X4801884Y-4124136D01*
X4798820Y-4120579D01*
X4795946Y-4116890D01*
X4793265Y-4113075D01*
X4790780Y-4109142D01*
X4788494Y-4105099D01*
X4786411Y-4100955D01*
X4784534Y-4096715D01*
X4782865Y-4092390D01*
X4781409Y-4087985D01*
X4780168Y-4083510D01*
X4779146Y-4078972D01*
X4778346Y-4074378D01*
X4777771Y-4069737D01*
X4777424Y-4065056D01*
X4777309Y-4060343D01*
X4777425Y-4055635D01*
X4777773Y-4050959D01*
X4778350Y-4046322D01*
X4779151Y-4041732D01*
X4780174Y-4037197D01*
X4781416Y-4032725D01*
X4782873Y-4028324D01*
X4784541Y-4024001D01*
X4786419Y-4019765D01*
X4788502Y-4015622D01*
X4790788Y-4011582D01*
X4793273Y-4007651D01*
X4795953Y-4003838D01*
X4798827Y-4000150D01*
X4801889Y-3996595D01*
X4805138Y-3993181D01*
X4808553Y-3989933D01*
X4812108Y-3986871D01*
X4815796Y-3983998D01*
X4819610Y-3981318D01*
X4823541Y-3978834D01*
X4827583Y-3976548D01*
X4831726Y-3974466D01*
X4835963Y-3972589D01*
X4840288Y-3970921D01*
X4844690Y-3969464D01*
X4849164Y-3968224D01*
X4853701Y-3967201D01*
X4858293Y-3966401D01*
X4862932Y-3965825D01*
X4867612Y-3965478D01*
X4872323Y-3965361D01*
X4872341Y-3965361D01*
X4877229Y-3965486D01*
D12*
D13*
X2212000Y-6807000D02*
X2242000Y-6837000D01*
X2242000Y-6807000D02*
X2212000Y-6837000D01*
X2260000Y-8960000D02*
X2290000Y-8990000D01*
X2290000Y-8960000D02*
X2260000Y-8990000D01*
X2285000Y-3460000D02*
X2315000Y-3490000D01*
X2315000Y-3460000D02*
X2285000Y-3490000D01*
X2346000Y-10503000D02*
X2376000Y-10533000D01*
X2376000Y-10503000D02*
X2346000Y-10533000D01*
X2410000Y-5160000D02*
X2440000Y-5190000D01*
X2440000Y-5160000D02*
X2410000Y-5190000D01*
X2485000Y-5635000D02*
X2515000Y-5665000D01*
X2515000Y-5635000D02*
X2485000Y-5665000D01*
X2527000Y-9763000D02*
X2557000Y-9793000D01*
X2557000Y-9763000D02*
X2527000Y-9793000D01*
X2560000Y-10760000D02*
X2590000Y-10790000D01*
X2590000Y-10760000D02*
X2560000Y-10790000D01*
X2566000Y-6488000D02*
X2596000Y-6518000D01*
X2596000Y-6488000D02*
X2566000Y-6518000D01*
X2585000Y-3485000D02*
X2615000Y-3515000D01*
X2615000Y-3485000D02*
X2585000Y-3515000D01*
X2590500Y-7925833D02*
X2620500Y-7955833D01*
X2620500Y-7925833D02*
X2590500Y-7955833D01*
X2590500Y-8047850D02*
X2620500Y-8077850D01*
X2620500Y-8047850D02*
X2590500Y-8077850D01*
X2605000Y-7216000D02*
X2635000Y-7246000D01*
X2635000Y-7216000D02*
X2605000Y-7246000D01*
X2703000Y-8682000D02*
X2733000Y-8712000D01*
X2733000Y-8682000D02*
X2703000Y-8712000D01*
X2706000Y-6315000D02*
X2736000Y-6345000D01*
X2736000Y-6315000D02*
X2706000Y-6345000D01*
X2708000Y-6210000D02*
X2738000Y-6240000D01*
X2738000Y-6210000D02*
X2708000Y-6240000D01*
X2727000Y-3400000D02*
X2757000Y-3430000D01*
X2757000Y-3400000D02*
X2727000Y-3430000D01*
X2735000Y-2960000D02*
X2765000Y-2990000D01*
X2765000Y-2960000D02*
X2735000Y-2990000D01*
X2737500Y-7270000D02*
X2767500Y-7300000D01*
X2767500Y-7270000D02*
X2737500Y-7300000D01*
X2812500Y-6000000D02*
X2842500Y-6030000D01*
X2842500Y-6000000D02*
X2812500Y-6030000D01*
X2837000Y-9182500D02*
X2867000Y-9212500D01*
X2867000Y-9182500D02*
X2837000Y-9212500D01*
X2860000Y-2960000D02*
X2890000Y-2990000D01*
X2890000Y-2960000D02*
X2860000Y-2990000D01*
X2860000Y-3460000D02*
X2890000Y-3490000D01*
X2890000Y-3460000D02*
X2860000Y-3490000D01*
X2935000Y-2185000D02*
X2965000Y-2215000D01*
X2965000Y-2185000D02*
X2935000Y-2215000D01*
X2935000Y-5235000D02*
X2965000Y-5265000D01*
X2965000Y-5235000D02*
X2935000Y-5265000D01*
X2937000Y-10777738D02*
X2967000Y-10807738D01*
X2967000Y-10777738D02*
X2937000Y-10807738D01*
X2945000Y-6385000D02*
X2975000Y-6415000D01*
X2975000Y-6385000D02*
X2945000Y-6415000D01*
X2962000Y-10007500D02*
X2992000Y-10037500D01*
X2992000Y-10007500D02*
X2962000Y-10037500D01*
X2985000Y-3435000D02*
X3015000Y-3465000D01*
X3015000Y-3435000D02*
X2985000Y-3465000D01*
X2985000Y-5760000D02*
X3015000Y-5790000D01*
X3015000Y-5760000D02*
X2985000Y-5790000D01*
X2987000Y-11582500D02*
X3017000Y-11612500D01*
X3017000Y-11582500D02*
X2987000Y-11612500D01*
X3040000Y-8055000D02*
X3070000Y-8085000D01*
X3070000Y-8055000D02*
X3040000Y-8085000D01*
X3085000Y-9285000D02*
X3115000Y-9315000D01*
X3115000Y-9285000D02*
X3085000Y-9315000D01*
X3110000Y-5035000D02*
X3140000Y-5065000D01*
X3140000Y-5035000D02*
X3110000Y-5065000D01*
X3135000Y-5760000D02*
X3165000Y-5790000D01*
X3165000Y-5760000D02*
X3135000Y-5790000D01*
X3160000Y-12410000D02*
X3190000Y-12440000D01*
X3190000Y-12410000D02*
X3160000Y-12440000D01*
X3185000Y-10885000D02*
X3215000Y-10915000D01*
X3215000Y-10885000D02*
X3185000Y-10915000D01*
X3185000Y-11185000D02*
X3215000Y-11215000D01*
X3215000Y-11185000D02*
X3185000Y-11215000D01*
X3235000Y-7442500D02*
X3265000Y-7472500D01*
X3265000Y-7442500D02*
X3235000Y-7472500D01*
X3235000Y-11685000D02*
X3265000Y-11715000D01*
X3265000Y-11685000D02*
X3235000Y-11715000D01*
X3242500Y-6257500D02*
X3272500Y-6287500D01*
X3272500Y-6257500D02*
X3242500Y-6287500D01*
X3260000Y-8627000D02*
X3290000Y-8657000D01*
X3290000Y-8627000D02*
X3260000Y-8657000D01*
X3285000Y-8160000D02*
X3315000Y-8190000D01*
X3315000Y-8160000D02*
X3285000Y-8190000D01*
X3310000Y-9785000D02*
X3340000Y-9815000D01*
X3340000Y-9785000D02*
X3310000Y-9815000D01*
X3345000Y-5965000D02*
X3375000Y-5995000D01*
X3375000Y-5965000D02*
X3345000Y-5995000D01*
X3365000Y-11865000D02*
X3395000Y-11895000D01*
X3395000Y-11865000D02*
X3365000Y-11895000D01*
X3383235Y-6186000D02*
X3413235Y-6216000D01*
X3413235Y-6186000D02*
X3383235Y-6216000D01*
X3385000Y-3785000D02*
X3415000Y-3815000D01*
X3415000Y-3785000D02*
X3385000Y-3815000D01*
X3402500Y-10415000D02*
X3432500Y-10445000D01*
X3432500Y-10415000D02*
X3402500Y-10445000D01*
X3412500Y-6317500D02*
X3442500Y-6347500D01*
X3442500Y-6317500D02*
X3412500Y-6347500D01*
X3440000Y-4250000D02*
X3470000Y-4280000D01*
X3470000Y-4250000D02*
X3440000Y-4280000D01*
X3445000Y-10785000D02*
X3475000Y-10815000D01*
X3475000Y-10785000D02*
X3445000Y-10815000D01*
X3445000Y-11875000D02*
X3475000Y-11905000D01*
X3475000Y-11875000D02*
X3445000Y-11905000D01*
X3485000Y-6475000D02*
X3515000Y-6505000D01*
X3515000Y-6475000D02*
X3485000Y-6505000D01*
X3485000Y-6560000D02*
X3515000Y-6590000D01*
X3515000Y-6560000D02*
X3485000Y-6590000D01*
X3485000Y-6965000D02*
X3515000Y-6995000D01*
X3515000Y-6965000D02*
X3485000Y-6995000D01*
X3485244Y-6638245D02*
X3515244Y-6668245D01*
X3515244Y-6638245D02*
X3485244Y-6668245D01*
X3485254Y-6873702D02*
X3515254Y-6903702D01*
X3515254Y-6873702D02*
X3485254Y-6903702D01*
X3485285Y-6716692D02*
X3515285Y-6746692D01*
X3515285Y-6716692D02*
X3485285Y-6746692D01*
X3485367Y-6795100D02*
X3515367Y-6825100D01*
X3515367Y-6795100D02*
X3485367Y-6825100D01*
X3495000Y-2793000D02*
X3525000Y-2823000D01*
X3525000Y-2793000D02*
X3495000Y-2823000D01*
X3510000Y-4535000D02*
X3540000Y-4565000D01*
X3540000Y-4535000D02*
X3510000Y-4565000D01*
X3510000Y-5660000D02*
X3540000Y-5690000D01*
X3540000Y-5660000D02*
X3510000Y-5690000D01*
X3515000Y-11695000D02*
X3545000Y-11725000D01*
X3545000Y-11695000D02*
X3515000Y-11725000D01*
X3530000Y-5965000D02*
X3560000Y-5995000D01*
X3560000Y-5965000D02*
X3530000Y-5995000D01*
X3555000Y-4005000D02*
X3585000Y-4035000D01*
X3585000Y-4005000D02*
X3555000Y-4035000D01*
X3555000Y-8975000D02*
X3585000Y-9005000D01*
X3585000Y-8975000D02*
X3555000Y-9005000D01*
X3581000Y-8805000D02*
X3611000Y-8835000D01*
X3611000Y-8805000D02*
X3581000Y-8835000D01*
X3582500Y-6235000D02*
X3612500Y-6265000D01*
X3612500Y-6235000D02*
X3582500Y-6265000D01*
X3585000Y-10425000D02*
X3615000Y-10455000D01*
X3615000Y-10425000D02*
X3585000Y-10455000D01*
X3588000Y-8003000D02*
X3618000Y-8033000D01*
X3618000Y-8003000D02*
X3588000Y-8033000D01*
X3622000Y-9435000D02*
X3652000Y-9465000D01*
X3652000Y-9435000D02*
X3622000Y-9465000D01*
X3650000Y-8170000D02*
X3680000Y-8200000D01*
X3680000Y-8170000D02*
X3650000Y-8200000D01*
X3660000Y-8590000D02*
X3690000Y-8620000D01*
X3690000Y-8590000D02*
X3660000Y-8620000D01*
X3660000Y-12337000D02*
X3690000Y-12367000D01*
X3690000Y-12337000D02*
X3660000Y-12367000D01*
X3735000Y-5412500D02*
X3765000Y-5442500D01*
X3765000Y-5412500D02*
X3735000Y-5442500D01*
X3785000Y-12035000D02*
X3815000Y-12065000D01*
X3815000Y-12035000D02*
X3785000Y-12065000D01*
X3810000Y-10735000D02*
X3840000Y-10765000D01*
X3840000Y-10735000D02*
X3810000Y-10765000D01*
X3815000Y-9505000D02*
X3845000Y-9535000D01*
X3845000Y-9505000D02*
X3815000Y-9535000D01*
X3816286Y-5262714D02*
X3846286Y-5292714D01*
X3846286Y-5262714D02*
X3816286Y-5292714D01*
X3828000Y-9131000D02*
X3858000Y-9161000D01*
X3858000Y-9131000D02*
X3828000Y-9161000D01*
X3835000Y-3885000D02*
X3865000Y-3915000D01*
X3865000Y-3885000D02*
X3835000Y-3915000D01*
X3835000Y-5185000D02*
X3865000Y-5215000D01*
X3865000Y-5185000D02*
X3835000Y-5215000D01*
X3835000Y-11703000D02*
X3865000Y-11733000D01*
X3865000Y-11703000D02*
X3835000Y-11733000D01*
X3885000Y-12035000D02*
X3915000Y-12065000D01*
X3915000Y-12035000D02*
X3885000Y-12065000D01*
X3932500Y-7232500D02*
X3962500Y-7262500D01*
X3962500Y-7232500D02*
X3932500Y-7262500D01*
X3935000Y-9585000D02*
X3965000Y-9615000D01*
X3965000Y-9585000D02*
X3935000Y-9615000D01*
X3948000Y-3805000D02*
X3978000Y-3835000D01*
X3978000Y-3805000D02*
X3948000Y-3835000D01*
X3957500Y-7427500D02*
X3987500Y-7457500D01*
X3987500Y-7427500D02*
X3957500Y-7457500D01*
X3960000Y-7085000D02*
X3990000Y-7115000D01*
X3990000Y-7085000D02*
X3960000Y-7115000D01*
X3969000Y-6914000D02*
X3999000Y-6944000D01*
X3999000Y-6914000D02*
X3969000Y-6944000D01*
X3972150Y-6806000D02*
X4002150Y-6836000D01*
X4002150Y-6806000D02*
X3972150Y-6836000D01*
X3972150Y-6719339D02*
X4002150Y-6749339D01*
X4002150Y-6719339D02*
X3972150Y-6749339D01*
X4005000Y-5965000D02*
X4035000Y-5995000D01*
X4035000Y-5965000D02*
X4005000Y-5995000D01*
X4010000Y-8460000D02*
X4040000Y-8490000D01*
X4040000Y-8460000D02*
X4010000Y-8490000D01*
X4060000Y-3885000D02*
X4090000Y-3915000D01*
X4090000Y-3885000D02*
X4060000Y-3915000D01*
X4095000Y-6385000D02*
X4125000Y-6415000D01*
X4125000Y-6385000D02*
X4095000Y-6415000D01*
X4135000Y-8965000D02*
X4165000Y-8995000D01*
X4165000Y-8965000D02*
X4135000Y-8995000D01*
X4174000Y-3805000D02*
X4204000Y-3835000D01*
X4204000Y-3805000D02*
X4174000Y-3835000D01*
X4185000Y-5705000D02*
X4215000Y-5735000D01*
X4215000Y-5705000D02*
X4185000Y-5735000D01*
X4185000Y-10260000D02*
X4215000Y-10290000D01*
X4215000Y-10260000D02*
X4185000Y-10290000D01*
X4197500Y-5400000D02*
X4227500Y-5430000D01*
X4227500Y-5400000D02*
X4197500Y-5430000D01*
X4205000Y-5215000D02*
X4235000Y-5245000D01*
X4235000Y-5215000D02*
X4205000Y-5245000D01*
X4210000Y-2735000D02*
X4240000Y-2765000D01*
X4240000Y-2735000D02*
X4210000Y-2765000D01*
X4210000Y-4810000D02*
X4240000Y-4840000D01*
X4240000Y-4810000D02*
X4210000Y-4840000D01*
X4210000Y-4910000D02*
X4240000Y-4940000D01*
X4240000Y-4910000D02*
X4210000Y-4940000D01*
X4210000Y-5010000D02*
X4240000Y-5040000D01*
X4240000Y-5010000D02*
X4210000Y-5040000D01*
X4212707Y-6830958D02*
X4242707Y-6860958D01*
X4242707Y-6830958D02*
X4212707Y-6860958D01*
X4235000Y-2621152D02*
X4265000Y-2651152D01*
X4265000Y-2621152D02*
X4235000Y-2651152D01*
X4235000Y-11885000D02*
X4265000Y-11915000D01*
X4265000Y-11885000D02*
X4235000Y-11915000D01*
X4237000Y-7760000D02*
X4267000Y-7790000D01*
X4267000Y-7760000D02*
X4237000Y-7790000D01*
X4237000Y-11082500D02*
X4267000Y-11112500D01*
X4267000Y-11082500D02*
X4237000Y-11112500D01*
X4245000Y-6235000D02*
X4275000Y-6265000D01*
X4275000Y-6235000D02*
X4245000Y-6265000D01*
X4247500Y-6642500D02*
X4277500Y-6672500D01*
X4277500Y-6642500D02*
X4247500Y-6672500D01*
X4285000Y-3885000D02*
X4315000Y-3915000D01*
X4315000Y-3885000D02*
X4285000Y-3915000D01*
X4285000Y-6885000D02*
X4315000Y-6915000D01*
X4315000Y-6885000D02*
X4285000Y-6915000D01*
X4305000Y-5215000D02*
X4335000Y-5245000D01*
X4335000Y-5215000D02*
X4305000Y-5245000D01*
X4315000Y-5785000D02*
X4345000Y-5815000D01*
X4345000Y-5785000D02*
X4315000Y-5815000D01*
X4317500Y-5307500D02*
X4347500Y-5337500D01*
X4347500Y-5307500D02*
X4317500Y-5337500D01*
X4325000Y-6805000D02*
X4355000Y-6835000D01*
X4355000Y-6805000D02*
X4325000Y-6835000D01*
X4334750Y-9432128D02*
X4364750Y-9462128D01*
X4364750Y-9432128D02*
X4334750Y-9462128D01*
X4405000Y-3865000D02*
X4435000Y-3895000D01*
X4435000Y-3865000D02*
X4405000Y-3895000D01*
X4425000Y-5295000D02*
X4455000Y-5325000D01*
X4455000Y-5295000D02*
X4425000Y-5325000D01*
X4435000Y-3610000D02*
X4465000Y-3640000D01*
X4465000Y-3610000D02*
X4435000Y-3640000D01*
X4447476Y-6945000D02*
X4477476Y-6975000D01*
X4477476Y-6945000D02*
X4447476Y-6975000D01*
X4455000Y-5845000D02*
X4485000Y-5875000D01*
X4485000Y-5845000D02*
X4455000Y-5875000D01*
X4485000Y-4825000D02*
X4515000Y-4855000D01*
X4515000Y-4825000D02*
X4485000Y-4855000D01*
X4485000Y-7760000D02*
X4515000Y-7790000D01*
X4515000Y-7760000D02*
X4485000Y-7790000D01*
X4485000Y-10260000D02*
X4515000Y-10290000D01*
X4515000Y-10260000D02*
X4485000Y-10290000D01*
X4485000Y-11085000D02*
X4515000Y-11115000D01*
X4515000Y-11085000D02*
X4485000Y-11115000D01*
X4485000Y-11885000D02*
X4515000Y-11915000D01*
X4515000Y-11885000D02*
X4485000Y-11915000D01*
X4510000Y-3885000D02*
X4540000Y-3915000D01*
X4540000Y-3885000D02*
X4510000Y-3915000D01*
X4515000Y-5225000D02*
X4545000Y-5255000D01*
X4545000Y-5225000D02*
X4515000Y-5255000D01*
X4521500Y-7475000D02*
X4551500Y-7505000D01*
X4551500Y-7475000D02*
X4521500Y-7505000D01*
X4530000Y-6702500D02*
X4560000Y-6732500D01*
X4560000Y-6702500D02*
X4530000Y-6732500D01*
X4535000Y-2435000D02*
X4565000Y-2465000D01*
X4565000Y-2435000D02*
X4535000Y-2465000D01*
X4547000Y-6854000D02*
X4577000Y-6884000D01*
X4577000Y-6854000D02*
X4547000Y-6884000D01*
X4552500Y-5997500D02*
X4582500Y-6027500D01*
X4582500Y-5997500D02*
X4552500Y-6027500D01*
X4558000Y-9834000D02*
X4588000Y-9864000D01*
X4588000Y-9834000D02*
X4558000Y-9864000D01*
X4585000Y-6285000D02*
X4615000Y-6315000D01*
X4615000Y-6285000D02*
X4585000Y-6315000D01*
X4585000Y-8910000D02*
X4615000Y-8940000D01*
X4615000Y-8910000D02*
X4585000Y-8940000D01*
X4595000Y-6105000D02*
X4625000Y-6135000D01*
X4625000Y-6105000D02*
X4595000Y-6135000D01*
X4597500Y-9720000D02*
X4627500Y-9750000D01*
X4627500Y-9720000D02*
X4597500Y-9750000D01*
X4604985Y-6192040D02*
X4634985Y-6222040D01*
X4634985Y-6192040D02*
X4604985Y-6222040D01*
X4605000Y-6365000D02*
X4635000Y-6395000D01*
X4635000Y-6365000D02*
X4605000Y-6395000D01*
X4622000Y-5745000D02*
X4652000Y-5775000D01*
X4652000Y-5745000D02*
X4622000Y-5775000D01*
X4622500Y-5952500D02*
X4652500Y-5982500D01*
X4652500Y-5952500D02*
X4622500Y-5982500D01*
X4627500Y-5387500D02*
X4657500Y-5417500D01*
X4657500Y-5387500D02*
X4627500Y-5417500D01*
X4635000Y-3905000D02*
X4665000Y-3935000D01*
X4665000Y-3905000D02*
X4635000Y-3935000D01*
X4635000Y-10125000D02*
X4665000Y-10155000D01*
X4665000Y-10125000D02*
X4635000Y-10155000D01*
X4665000Y-5297000D02*
X4695000Y-5327000D01*
X4695000Y-5297000D02*
X4665000Y-5327000D01*
X4702500Y-8067500D02*
X4732500Y-8097500D01*
X4732500Y-8067500D02*
X4702500Y-8097500D01*
X4710000Y-3610000D02*
X4740000Y-3640000D01*
X4740000Y-3610000D02*
X4710000Y-3640000D01*
X4735000Y-9275000D02*
X4765000Y-9305000D01*
X4765000Y-9275000D02*
X4735000Y-9305000D01*
X4735000Y-9375000D02*
X4765000Y-9405000D01*
X4765000Y-9375000D02*
X4735000Y-9405000D01*
X4735000Y-9475000D02*
X4765000Y-9505000D01*
X4765000Y-9475000D02*
X4735000Y-9505000D01*
X4735000Y-10735000D02*
X4765000Y-10765000D01*
X4765000Y-10735000D02*
X4735000Y-10765000D01*
X4765000Y-6719237D02*
X4795000Y-6749237D01*
X4795000Y-6719237D02*
X4765000Y-6749237D01*
X4785000Y-4535000D02*
X4815000Y-4565000D01*
X4815000Y-4535000D02*
X4785000Y-4565000D01*
X4810000Y-5301000D02*
X4840000Y-5331000D01*
X4840000Y-5301000D02*
X4810000Y-5331000D01*
X4822500Y-6909500D02*
X4852500Y-6939500D01*
X4852500Y-6909500D02*
X4822500Y-6939500D01*
X4825000Y-5485000D02*
X4855000Y-5515000D01*
X4855000Y-5485000D02*
X4825000Y-5515000D01*
X4825000Y-6800727D02*
X4855000Y-6830727D01*
X4855000Y-6800727D02*
X4825000Y-6830727D01*
X4835000Y-6335000D02*
X4865000Y-6365000D01*
X4865000Y-6335000D02*
X4835000Y-6365000D01*
X4837000Y-6030000D02*
X4867000Y-6060000D01*
X4867000Y-6030000D02*
X4837000Y-6060000D01*
X4872000Y-5597000D02*
X4902000Y-5627000D01*
X4902000Y-5597000D02*
X4872000Y-5627000D01*
X4917171Y-5837147D02*
X4947171Y-5867147D01*
X4947171Y-5837147D02*
X4917171Y-5867147D01*
X4917500Y-6195000D02*
X4947500Y-6225000D01*
X4947500Y-6195000D02*
X4917500Y-6225000D01*
X4918000Y-6391000D02*
X4948000Y-6421000D01*
X4948000Y-6391000D02*
X4918000Y-6421000D01*
X4935000Y-8435000D02*
X4965000Y-8465000D01*
X4965000Y-8435000D02*
X4935000Y-8465000D01*
X4940000Y-5591000D02*
X4970000Y-5621000D01*
X4970000Y-5591000D02*
X4940000Y-5621000D01*
X4960000Y-3110000D02*
X4990000Y-3140000D01*
X4990000Y-3110000D02*
X4960000Y-3140000D01*
X4960000Y-7060000D02*
X4990000Y-7090000D01*
X4990000Y-7060000D02*
X4960000Y-7090000D01*
X4962500Y-11877500D02*
X4992500Y-11907500D01*
X4992500Y-11877500D02*
X4962500Y-11907500D01*
X4979500Y-6560000D02*
X5009500Y-6590000D01*
X5009500Y-6560000D02*
X4979500Y-6590000D01*
X4980000Y-5838000D02*
X5010000Y-5868000D01*
X5010000Y-5838000D02*
X4980000Y-5868000D01*
X4996000Y-8033000D02*
X5026000Y-8063000D01*
X5026000Y-8033000D02*
X4996000Y-8063000D01*
X5005000Y-6037500D02*
X5035000Y-6067500D01*
X5035000Y-6037500D02*
X5005000Y-6067500D01*
X5015000Y-6385000D02*
X5045000Y-6415000D01*
X5045000Y-6385000D02*
X5015000Y-6415000D01*
X5022500Y-6302500D02*
X5052500Y-6332500D01*
X5052500Y-6302500D02*
X5022500Y-6332500D01*
X5081000Y-9468000D02*
X5111000Y-9498000D01*
X5111000Y-9468000D02*
X5081000Y-9498000D01*
X5085000Y-12310000D02*
X5115000Y-12340000D01*
X5115000Y-12310000D02*
X5085000Y-12340000D01*
X5135000Y-5495000D02*
X5165000Y-5525000D01*
X5165000Y-5495000D02*
X5135000Y-5525000D01*
X5160000Y-2110000D02*
X5190000Y-2140000D01*
X5190000Y-2110000D02*
X5160000Y-2140000D01*
X5210000Y-3110000D02*
X5240000Y-3140000D01*
X5240000Y-3110000D02*
X5210000Y-3140000D01*
X5210000Y-4525000D02*
X5240000Y-4555000D01*
X5240000Y-4525000D02*
X5210000Y-4555000D01*
X5210000Y-4715000D02*
X5240000Y-4745000D01*
X5240000Y-4715000D02*
X5210000Y-4745000D01*
X5210000Y-4865000D02*
X5240000Y-4895000D01*
X5240000Y-4865000D02*
X5210000Y-4895000D01*
X5210000Y-5055000D02*
X5240000Y-5085000D01*
X5240000Y-5055000D02*
X5210000Y-5085000D01*
X5222500Y-6005000D02*
X5252500Y-6035000D01*
X5252500Y-6005000D02*
X5222500Y-6035000D01*
X5281000Y-7611000D02*
X5311000Y-7641000D01*
X5311000Y-7611000D02*
X5281000Y-7641000D01*
X5302500Y-6542500D02*
X5332500Y-6572500D01*
X5332500Y-6542500D02*
X5302500Y-6572500D01*
X5330000Y-6285000D02*
X5360000Y-6315000D01*
X5360000Y-6285000D02*
X5330000Y-6315000D01*
X5360000Y-8010000D02*
X5390000Y-8040000D01*
X5390000Y-8010000D02*
X5360000Y-8040000D01*
X5360000Y-9285000D02*
X5390000Y-9315000D01*
X5390000Y-9285000D02*
X5360000Y-9315000D01*
X5365000Y-9565000D02*
X5395000Y-9595000D01*
X5395000Y-9565000D02*
X5365000Y-9595000D01*
X5385000Y-10565000D02*
X5415000Y-10595000D01*
X5415000Y-10565000D02*
X5385000Y-10595000D01*
X5455000Y-6395000D02*
X5485000Y-6425000D01*
X5485000Y-6395000D02*
X5455000Y-6425000D01*
X5487500Y-6007500D02*
X5517500Y-6037500D01*
X5517500Y-6007500D02*
X5487500Y-6037500D01*
X5501000Y-7143000D02*
X5531000Y-7173000D01*
X5531000Y-7143000D02*
X5501000Y-7173000D01*
X5512000Y-10007500D02*
X5542000Y-10037500D01*
X5542000Y-10007500D02*
X5512000Y-10037500D01*
X5515000Y-7585000D02*
X5545000Y-7615000D01*
X5545000Y-7585000D02*
X5515000Y-7615000D01*
X5518262Y-11613762D02*
X5548262Y-11643762D01*
X5548262Y-11613762D02*
X5518262Y-11643762D01*
X5524824Y-10982852D02*
X5554824Y-11012852D01*
X5554824Y-10982852D02*
X5524824Y-11012852D01*
X5525000Y-8436000D02*
X5555000Y-8466000D01*
X5555000Y-8436000D02*
X5525000Y-8466000D01*
X5525000Y-9705000D02*
X5555000Y-9735000D01*
X5555000Y-9705000D02*
X5525000Y-9735000D01*
X5545000Y-4725000D02*
X5575000Y-4755000D01*
X5575000Y-4725000D02*
X5545000Y-4755000D01*
X5585000Y-3160000D02*
X5615000Y-3190000D01*
X5615000Y-3160000D02*
X5585000Y-3190000D01*
X5605000Y-5805000D02*
X5635000Y-5835000D01*
X5635000Y-5805000D02*
X5605000Y-5835000D01*
X5605000Y-5905000D02*
X5635000Y-5935000D01*
X5635000Y-5905000D02*
X5605000Y-5935000D01*
X5605000Y-6005000D02*
X5635000Y-6035000D01*
X5635000Y-6005000D02*
X5605000Y-6035000D01*
X5605000Y-7995000D02*
X5635000Y-8025000D01*
X5635000Y-7995000D02*
X5605000Y-8025000D01*
X5612000Y-9182500D02*
X5642000Y-9212500D01*
X5642000Y-9182500D02*
X5612000Y-9212500D01*
X5645000Y-4305000D02*
X5675000Y-4335000D01*
X5675000Y-4305000D02*
X5645000Y-4335000D01*
X5697500Y-11292500D02*
X5727500Y-11322500D01*
X5727500Y-11292500D02*
X5697500Y-11322500D01*
X5710000Y-6835000D02*
X5740000Y-6865000D01*
X5740000Y-6835000D02*
X5710000Y-6865000D01*
X5716500Y-11544400D02*
X5746500Y-11574400D01*
X5746500Y-11544400D02*
X5716500Y-11574400D01*
X5738000Y-4714000D02*
X5768000Y-4744000D01*
X5768000Y-4714000D02*
X5738000Y-4744000D01*
X5765000Y-9585000D02*
X5795000Y-9615000D01*
X5795000Y-9585000D02*
X5765000Y-9615000D01*
X5775000Y-5335000D02*
X5805000Y-5365000D01*
X5805000Y-5335000D02*
X5775000Y-5365000D01*
X5785000Y-7610000D02*
X5815000Y-7640000D01*
X5815000Y-7610000D02*
X5785000Y-7640000D01*
X5810000Y-8885000D02*
X5840000Y-8915000D01*
X5840000Y-8885000D02*
X5810000Y-8915000D01*
X5835000Y-6407500D02*
X5865000Y-6437500D01*
X5865000Y-6407500D02*
X5835000Y-6437500D01*
X5850000Y-6275000D02*
X5880000Y-6305000D01*
X5880000Y-6275000D02*
X5850000Y-6305000D01*
X5860000Y-3860000D02*
X5890000Y-3890000D01*
X5890000Y-3860000D02*
X5860000Y-3890000D01*
X5865500Y-11855000D02*
X5895500Y-11885000D01*
X5895500Y-11855000D02*
X5865500Y-11885000D01*
X5900000Y-11255000D02*
X5930000Y-11285000D01*
X5930000Y-11255000D02*
X5900000Y-11285000D01*
X5905000Y-10347500D02*
X5935000Y-10377500D01*
X5935000Y-10347500D02*
X5905000Y-10377500D01*
X5965000Y-4705000D02*
X5995000Y-4735000D01*
X5995000Y-4705000D02*
X5965000Y-4735000D01*
X6025000Y-6545000D02*
X6055000Y-6575000D01*
X6055000Y-6545000D02*
X6025000Y-6575000D01*
X6025000Y-10711000D02*
X6055000Y-10741000D01*
X6055000Y-10711000D02*
X6025000Y-10741000D01*
X6035000Y-4310000D02*
X6065000Y-4340000D01*
X6065000Y-4310000D02*
X6035000Y-4340000D01*
X6035000Y-5610000D02*
X6065000Y-5640000D01*
X6065000Y-5610000D02*
X6035000Y-5640000D01*
X6087500Y-9485000D02*
X6117500Y-9515000D01*
X6117500Y-9485000D02*
X6087500Y-9515000D01*
X6110000Y-3710000D02*
X6140000Y-3740000D01*
X6140000Y-3710000D02*
X6110000Y-3740000D01*
X6125500Y-9220000D02*
X6155500Y-9250000D01*
X6155500Y-9220000D02*
X6125500Y-9250000D01*
X4151317Y-5906667D02*
G75*
G02*
X4121317Y-5906667I-15000J0D01*
G01*
X4121317Y-5906667D02*
G75*
G02*
X4151317Y-5906667I15000J0D01*
G01*
X4151317Y-6020000D02*
G75*
G02*
X4121317Y-6020000I-15000J0D01*
G01*
X4121317Y-6020000D02*
G75*
G02*
X4151317Y-6020000I15000J0D01*
G01*
X4151317Y-6133333D02*
G75*
G02*
X4121317Y-6133333I-15000J0D01*
G01*
X4121317Y-6133333D02*
G75*
G02*
X4151317Y-6133333I15000J0D01*
G01*
X4264650Y-5906667D02*
G75*
G02*
X4234650Y-5906667I-15000J0D01*
G01*
X4234650Y-5906667D02*
G75*
G02*
X4264650Y-5906667I15000J0D01*
G01*
X4264650Y-6020000D02*
G75*
G02*
X4234650Y-6020000I-15000J0D01*
G01*
X4234650Y-6020000D02*
G75*
G02*
X4264650Y-6020000I15000J0D01*
G01*
X4264650Y-6133333D02*
G75*
G02*
X4234650Y-6133333I-15000J0D01*
G01*
X4234650Y-6133333D02*
G75*
G02*
X4264650Y-6133333I15000J0D01*
G01*
X4377983Y-5906667D02*
G75*
G02*
X4347983Y-5906667I-15000J0D01*
G01*
X4347983Y-5906667D02*
G75*
G02*
X4377983Y-5906667I15000J0D01*
G01*
X4377983Y-6020000D02*
G75*
G02*
X4347983Y-6020000I-15000J0D01*
G01*
X4347983Y-6020000D02*
G75*
G02*
X4377983Y-6020000I15000J0D01*
G01*
X4377983Y-6133333D02*
G75*
G02*
X4347983Y-6133333I-15000J0D01*
G01*
X4347983Y-6133333D02*
G75*
G02*
X4377983Y-6133333I15000J0D01*
G01*
X2375000Y-4015000D02*
X2375000Y-4085000D01*
X2340000Y-4050000D02*
X2410000Y-4050000D01*
X2375000Y-4290000D02*
X2375000Y-4360000D01*
X2340000Y-4325000D02*
X2410000Y-4325000D01*
D12*
X2384587Y-13067637D02*
X2384587Y-12867637D01*
X2384587Y-12867637D02*
X2432206Y-12867637D01*
X2432206Y-12867637D02*
X2460778Y-12877160D01*
X2460778Y-12877160D02*
X2479825Y-12896208D01*
X2479825Y-12896208D02*
X2489349Y-12915256D01*
X2489349Y-12915256D02*
X2498873Y-12953351D01*
X2498873Y-12953351D02*
X2498873Y-12981922D01*
X2498873Y-12981922D02*
X2489349Y-13020018D01*
X2489349Y-13020018D02*
X2479825Y-13039065D01*
X2479825Y-13039065D02*
X2460778Y-13058113D01*
X2460778Y-13058113D02*
X2432206Y-13067637D01*
X2432206Y-13067637D02*
X2384587Y-13067637D01*
X2584587Y-13067637D02*
X2584587Y-12934303D01*
X2584587Y-12972399D02*
X2594111Y-12953351D01*
X2594111Y-12953351D02*
X2603635Y-12943827D01*
X2603635Y-12943827D02*
X2622682Y-12934303D01*
X2622682Y-12934303D02*
X2641730Y-12934303D01*
X2708397Y-13067637D02*
X2708397Y-12934303D01*
X2708397Y-12867637D02*
X2698873Y-12877160D01*
X2698873Y-12877160D02*
X2708397Y-12886684D01*
X2708397Y-12886684D02*
X2717920Y-12877160D01*
X2717920Y-12877160D02*
X2708397Y-12867637D01*
X2708397Y-12867637D02*
X2708397Y-12886684D01*
X2832206Y-13067637D02*
X2813158Y-13058113D01*
X2813158Y-13058113D02*
X2803635Y-13039065D01*
X2803635Y-13039065D02*
X2803635Y-12867637D01*
X2936968Y-13067637D02*
X2917920Y-13058113D01*
X2917920Y-13058113D02*
X2908397Y-13039065D01*
X2908397Y-13039065D02*
X2908397Y-12867637D01*
X3165539Y-13067637D02*
X3165539Y-12867637D01*
X3165539Y-12867637D02*
X3232206Y-13010494D01*
X3232206Y-13010494D02*
X3298873Y-12867637D01*
X3298873Y-12867637D02*
X3298873Y-13067637D01*
X3479825Y-13067637D02*
X3479825Y-12962875D01*
X3479825Y-12962875D02*
X3470301Y-12943827D01*
X3470301Y-12943827D02*
X3451254Y-12934303D01*
X3451254Y-12934303D02*
X3413158Y-12934303D01*
X3413158Y-12934303D02*
X3394111Y-12943827D01*
X3479825Y-13058113D02*
X3460778Y-13067637D01*
X3460778Y-13067637D02*
X3413158Y-13067637D01*
X3413158Y-13067637D02*
X3394111Y-13058113D01*
X3394111Y-13058113D02*
X3384587Y-13039065D01*
X3384587Y-13039065D02*
X3384587Y-13020018D01*
X3384587Y-13020018D02*
X3394111Y-13000970D01*
X3394111Y-13000970D02*
X3413158Y-12991446D01*
X3413158Y-12991446D02*
X3460778Y-12991446D01*
X3460778Y-12991446D02*
X3479825Y-12981922D01*
X3575063Y-12934303D02*
X3575063Y-13134303D01*
X3575063Y-12943827D02*
X3594111Y-12934303D01*
X3594111Y-12934303D02*
X3632206Y-12934303D01*
X3632206Y-12934303D02*
X3651254Y-12943827D01*
X3651254Y-12943827D02*
X3660778Y-12953351D01*
X3660778Y-12953351D02*
X3670301Y-12972399D01*
X3670301Y-12972399D02*
X3670301Y-13029541D01*
X3670301Y-13029541D02*
X3660778Y-13048589D01*
X3660778Y-13048589D02*
X3651254Y-13058113D01*
X3651254Y-13058113D02*
X3632206Y-13067637D01*
X3632206Y-13067637D02*
X3594111Y-13067637D01*
X3594111Y-13067637D02*
X3575063Y-13058113D01*
X3756016Y-13048589D02*
X3765539Y-13058113D01*
X3765539Y-13058113D02*
X3756016Y-13067637D01*
X3756016Y-13067637D02*
X3746492Y-13058113D01*
X3746492Y-13058113D02*
X3756016Y-13048589D01*
X3756016Y-13048589D02*
X3756016Y-13067637D01*
X3756016Y-12943827D02*
X3765539Y-12953351D01*
X3765539Y-12953351D02*
X3756016Y-12962875D01*
X3756016Y-12962875D02*
X3746492Y-12953351D01*
X3746492Y-12953351D02*
X3756016Y-12943827D01*
X3756016Y-12943827D02*
X3756016Y-12962875D01*
D13*
X2093810Y-13381153D02*
X2123810Y-13411153D01*
X2123810Y-13381153D02*
X2093810Y-13411153D01*
D12*
X2422682Y-13287637D02*
X2441730Y-13287637D01*
X2441730Y-13287637D02*
X2460778Y-13297160D01*
X2460778Y-13297160D02*
X2470301Y-13306684D01*
X2470301Y-13306684D02*
X2479825Y-13325732D01*
X2479825Y-13325732D02*
X2489349Y-13363827D01*
X2489349Y-13363827D02*
X2489349Y-13411446D01*
X2489349Y-13411446D02*
X2479825Y-13449541D01*
X2479825Y-13449541D02*
X2470301Y-13468589D01*
X2470301Y-13468589D02*
X2460778Y-13478113D01*
X2460778Y-13478113D02*
X2441730Y-13487637D01*
X2441730Y-13487637D02*
X2422682Y-13487637D01*
X2422682Y-13487637D02*
X2403635Y-13478113D01*
X2403635Y-13478113D02*
X2394111Y-13468589D01*
X2394111Y-13468589D02*
X2384587Y-13449541D01*
X2384587Y-13449541D02*
X2375063Y-13411446D01*
X2375063Y-13411446D02*
X2375063Y-13363827D01*
X2375063Y-13363827D02*
X2384587Y-13325732D01*
X2384587Y-13325732D02*
X2394111Y-13306684D01*
X2394111Y-13306684D02*
X2403635Y-13297160D01*
X2403635Y-13297160D02*
X2422682Y-13287637D01*
X2575063Y-13468589D02*
X2584587Y-13478113D01*
X2584587Y-13478113D02*
X2575063Y-13487637D01*
X2575063Y-13487637D02*
X2565540Y-13478113D01*
X2565540Y-13478113D02*
X2575063Y-13468589D01*
X2575063Y-13468589D02*
X2575063Y-13487637D01*
X2651254Y-13287637D02*
X2775063Y-13287637D01*
X2775063Y-13287637D02*
X2708397Y-13363827D01*
X2708397Y-13363827D02*
X2736968Y-13363827D01*
X2736968Y-13363827D02*
X2756016Y-13373351D01*
X2756016Y-13373351D02*
X2765540Y-13382875D01*
X2765540Y-13382875D02*
X2775063Y-13401922D01*
X2775063Y-13401922D02*
X2775063Y-13449541D01*
X2775063Y-13449541D02*
X2765540Y-13468589D01*
X2765540Y-13468589D02*
X2756016Y-13478113D01*
X2756016Y-13478113D02*
X2736968Y-13487637D01*
X2736968Y-13487637D02*
X2679825Y-13487637D01*
X2679825Y-13487637D02*
X2660778Y-13478113D01*
X2660778Y-13478113D02*
X2651254Y-13468589D01*
X2898873Y-13287637D02*
X2917920Y-13287637D01*
X2917920Y-13287637D02*
X2936968Y-13297160D01*
X2936968Y-13297160D02*
X2946492Y-13306684D01*
X2946492Y-13306684D02*
X2956016Y-13325732D01*
X2956016Y-13325732D02*
X2965539Y-13363827D01*
X2965539Y-13363827D02*
X2965539Y-13411446D01*
X2965539Y-13411446D02*
X2956016Y-13449541D01*
X2956016Y-13449541D02*
X2946492Y-13468589D01*
X2946492Y-13468589D02*
X2936968Y-13478113D01*
X2936968Y-13478113D02*
X2917920Y-13487637D01*
X2917920Y-13487637D02*
X2898873Y-13487637D01*
X2898873Y-13487637D02*
X2879825Y-13478113D01*
X2879825Y-13478113D02*
X2870301Y-13468589D01*
X2870301Y-13468589D02*
X2860778Y-13449541D01*
X2860778Y-13449541D02*
X2851254Y-13411446D01*
X2851254Y-13411446D02*
X2851254Y-13363827D01*
X2851254Y-13363827D02*
X2860778Y-13325732D01*
X2860778Y-13325732D02*
X2870301Y-13306684D01*
X2870301Y-13306684D02*
X2879825Y-13297160D01*
X2879825Y-13297160D02*
X2898873Y-13287637D01*
X3089349Y-13287637D02*
X3108397Y-13287637D01*
X3108397Y-13287637D02*
X3127444Y-13297160D01*
X3127444Y-13297160D02*
X3136968Y-13306684D01*
X3136968Y-13306684D02*
X3146492Y-13325732D01*
X3146492Y-13325732D02*
X3156016Y-13363827D01*
X3156016Y-13363827D02*
X3156016Y-13411446D01*
X3156016Y-13411446D02*
X3146492Y-13449541D01*
X3146492Y-13449541D02*
X3136968Y-13468589D01*
X3136968Y-13468589D02*
X3127444Y-13478113D01*
X3127444Y-13478113D02*
X3108397Y-13487637D01*
X3108397Y-13487637D02*
X3089349Y-13487637D01*
X3089349Y-13487637D02*
X3070301Y-13478113D01*
X3070301Y-13478113D02*
X3060778Y-13468589D01*
X3060778Y-13468589D02*
X3051254Y-13449541D01*
X3051254Y-13449541D02*
X3041730Y-13411446D01*
X3041730Y-13411446D02*
X3041730Y-13363827D01*
X3041730Y-13363827D02*
X3051254Y-13325732D01*
X3051254Y-13325732D02*
X3060778Y-13306684D01*
X3060778Y-13306684D02*
X3070301Y-13297160D01*
X3070301Y-13297160D02*
X3089349Y-13287637D01*
X3241730Y-13487637D02*
X3241730Y-13354303D01*
X3241730Y-13373351D02*
X3251254Y-13363827D01*
X3251254Y-13363827D02*
X3270301Y-13354303D01*
X3270301Y-13354303D02*
X3298873Y-13354303D01*
X3298873Y-13354303D02*
X3317920Y-13363827D01*
X3317920Y-13363827D02*
X3327444Y-13382875D01*
X3327444Y-13382875D02*
X3327444Y-13487637D01*
X3327444Y-13382875D02*
X3336968Y-13363827D01*
X3336968Y-13363827D02*
X3356016Y-13354303D01*
X3356016Y-13354303D02*
X3384587Y-13354303D01*
X3384587Y-13354303D02*
X3403635Y-13363827D01*
X3403635Y-13363827D02*
X3413159Y-13382875D01*
X3413159Y-13382875D02*
X3413159Y-13487637D01*
X3508397Y-13487637D02*
X3508397Y-13354303D01*
X3508397Y-13373351D02*
X3517920Y-13363827D01*
X3517920Y-13363827D02*
X3536968Y-13354303D01*
X3536968Y-13354303D02*
X3565540Y-13354303D01*
X3565540Y-13354303D02*
X3584587Y-13363827D01*
X3584587Y-13363827D02*
X3594111Y-13382875D01*
X3594111Y-13382875D02*
X3594111Y-13487637D01*
X3594111Y-13382875D02*
X3603635Y-13363827D01*
X3603635Y-13363827D02*
X3622682Y-13354303D01*
X3622682Y-13354303D02*
X3651254Y-13354303D01*
X3651254Y-13354303D02*
X3670301Y-13363827D01*
X3670301Y-13363827D02*
X3679825Y-13382875D01*
X3679825Y-13382875D02*
X3679825Y-13487637D01*
X4070301Y-13278113D02*
X3898873Y-13535256D01*
X4327444Y-13287637D02*
X4346492Y-13287637D01*
X4346492Y-13287637D02*
X4365540Y-13297160D01*
X4365540Y-13297160D02*
X4375064Y-13306684D01*
X4375064Y-13306684D02*
X4384587Y-13325732D01*
X4384587Y-13325732D02*
X4394111Y-13363827D01*
X4394111Y-13363827D02*
X4394111Y-13411446D01*
X4394111Y-13411446D02*
X4384587Y-13449541D01*
X4384587Y-13449541D02*
X4375064Y-13468589D01*
X4375064Y-13468589D02*
X4365540Y-13478113D01*
X4365540Y-13478113D02*
X4346492Y-13487637D01*
X4346492Y-13487637D02*
X4327444Y-13487637D01*
X4327444Y-13487637D02*
X4308397Y-13478113D01*
X4308397Y-13478113D02*
X4298873Y-13468589D01*
X4298873Y-13468589D02*
X4289349Y-13449541D01*
X4289349Y-13449541D02*
X4279825Y-13411446D01*
X4279825Y-13411446D02*
X4279825Y-13363827D01*
X4279825Y-13363827D02*
X4289349Y-13325732D01*
X4289349Y-13325732D02*
X4298873Y-13306684D01*
X4298873Y-13306684D02*
X4308397Y-13297160D01*
X4308397Y-13297160D02*
X4327444Y-13287637D01*
X4479825Y-13468589D02*
X4489349Y-13478113D01*
X4489349Y-13478113D02*
X4479825Y-13487637D01*
X4479825Y-13487637D02*
X4470302Y-13478113D01*
X4470302Y-13478113D02*
X4479825Y-13468589D01*
X4479825Y-13468589D02*
X4479825Y-13487637D01*
X4613159Y-13287637D02*
X4632206Y-13287637D01*
X4632206Y-13287637D02*
X4651254Y-13297160D01*
X4651254Y-13297160D02*
X4660778Y-13306684D01*
X4660778Y-13306684D02*
X4670302Y-13325732D01*
X4670302Y-13325732D02*
X4679825Y-13363827D01*
X4679825Y-13363827D02*
X4679825Y-13411446D01*
X4679825Y-13411446D02*
X4670302Y-13449541D01*
X4670302Y-13449541D02*
X4660778Y-13468589D01*
X4660778Y-13468589D02*
X4651254Y-13478113D01*
X4651254Y-13478113D02*
X4632206Y-13487637D01*
X4632206Y-13487637D02*
X4613159Y-13487637D01*
X4613159Y-13487637D02*
X4594111Y-13478113D01*
X4594111Y-13478113D02*
X4584587Y-13468589D01*
X4584587Y-13468589D02*
X4575064Y-13449541D01*
X4575064Y-13449541D02*
X4565540Y-13411446D01*
X4565540Y-13411446D02*
X4565540Y-13363827D01*
X4565540Y-13363827D02*
X4575064Y-13325732D01*
X4575064Y-13325732D02*
X4584587Y-13306684D01*
X4584587Y-13306684D02*
X4594111Y-13297160D01*
X4594111Y-13297160D02*
X4613159Y-13287637D01*
X4870302Y-13487637D02*
X4756016Y-13487637D01*
X4813159Y-13487637D02*
X4813159Y-13287637D01*
X4813159Y-13287637D02*
X4794111Y-13316208D01*
X4794111Y-13316208D02*
X4775064Y-13335256D01*
X4775064Y-13335256D02*
X4756016Y-13344779D01*
X5060778Y-13487637D02*
X4946492Y-13487637D01*
X5003635Y-13487637D02*
X5003635Y-13287637D01*
X5003635Y-13287637D02*
X4984587Y-13316208D01*
X4984587Y-13316208D02*
X4965540Y-13335256D01*
X4965540Y-13335256D02*
X4946492Y-13344779D01*
X5175064Y-13373351D02*
X5156016Y-13363827D01*
X5156016Y-13363827D02*
X5146492Y-13354303D01*
X5146492Y-13354303D02*
X5136968Y-13335256D01*
X5136968Y-13335256D02*
X5136968Y-13325732D01*
X5136968Y-13325732D02*
X5146492Y-13306684D01*
X5146492Y-13306684D02*
X5156016Y-13297160D01*
X5156016Y-13297160D02*
X5175064Y-13287637D01*
X5175064Y-13287637D02*
X5213159Y-13287637D01*
X5213159Y-13287637D02*
X5232206Y-13297160D01*
X5232206Y-13297160D02*
X5241730Y-13306684D01*
X5241730Y-13306684D02*
X5251254Y-13325732D01*
X5251254Y-13325732D02*
X5251254Y-13335256D01*
X5251254Y-13335256D02*
X5241730Y-13354303D01*
X5241730Y-13354303D02*
X5232206Y-13363827D01*
X5232206Y-13363827D02*
X5213159Y-13373351D01*
X5213159Y-13373351D02*
X5175064Y-13373351D01*
X5175064Y-13373351D02*
X5156016Y-13382875D01*
X5156016Y-13382875D02*
X5146492Y-13392399D01*
X5146492Y-13392399D02*
X5136968Y-13411446D01*
X5136968Y-13411446D02*
X5136968Y-13449541D01*
X5136968Y-13449541D02*
X5146492Y-13468589D01*
X5146492Y-13468589D02*
X5156016Y-13478113D01*
X5156016Y-13478113D02*
X5175064Y-13487637D01*
X5175064Y-13487637D02*
X5213159Y-13487637D01*
X5213159Y-13487637D02*
X5232206Y-13478113D01*
X5232206Y-13478113D02*
X5241730Y-13468589D01*
X5241730Y-13468589D02*
X5251254Y-13449541D01*
X5251254Y-13449541D02*
X5251254Y-13411446D01*
X5251254Y-13411446D02*
X5241730Y-13392399D01*
X5241730Y-13392399D02*
X5232206Y-13382875D01*
X5232206Y-13382875D02*
X5213159Y-13373351D01*
X5327445Y-13287637D02*
X5327445Y-13325732D01*
X5403635Y-13287637D02*
X5403635Y-13325732D01*
X5698873Y-13563827D02*
X5689349Y-13554303D01*
X5689349Y-13554303D02*
X5670302Y-13525732D01*
X5670302Y-13525732D02*
X5660778Y-13506684D01*
X5660778Y-13506684D02*
X5651254Y-13478113D01*
X5651254Y-13478113D02*
X5641730Y-13430494D01*
X5641730Y-13430494D02*
X5641730Y-13392399D01*
X5641730Y-13392399D02*
X5651254Y-13344779D01*
X5651254Y-13344779D02*
X5660778Y-13316208D01*
X5660778Y-13316208D02*
X5670302Y-13297160D01*
X5670302Y-13297160D02*
X5689349Y-13268589D01*
X5689349Y-13268589D02*
X5698873Y-13259065D01*
X5765540Y-13306684D02*
X5775064Y-13297160D01*
X5775064Y-13297160D02*
X5794111Y-13287637D01*
X5794111Y-13287637D02*
X5841730Y-13287637D01*
X5841730Y-13287637D02*
X5860778Y-13297160D01*
X5860778Y-13297160D02*
X5870302Y-13306684D01*
X5870302Y-13306684D02*
X5879825Y-13325732D01*
X5879825Y-13325732D02*
X5879825Y-13344779D01*
X5879825Y-13344779D02*
X5870302Y-13373351D01*
X5870302Y-13373351D02*
X5756016Y-13487637D01*
X5756016Y-13487637D02*
X5879825Y-13487637D01*
X5946492Y-13287637D02*
X6070302Y-13287637D01*
X6070302Y-13287637D02*
X6003635Y-13363827D01*
X6003635Y-13363827D02*
X6032206Y-13363827D01*
X6032206Y-13363827D02*
X6051254Y-13373351D01*
X6051254Y-13373351D02*
X6060778Y-13382875D01*
X6060778Y-13382875D02*
X6070302Y-13401922D01*
X6070302Y-13401922D02*
X6070302Y-13449541D01*
X6070302Y-13449541D02*
X6060778Y-13468589D01*
X6060778Y-13468589D02*
X6051254Y-13478113D01*
X6051254Y-13478113D02*
X6032206Y-13487637D01*
X6032206Y-13487637D02*
X5975064Y-13487637D01*
X5975064Y-13487637D02*
X5956016Y-13478113D01*
X5956016Y-13478113D02*
X5946492Y-13468589D01*
X6241730Y-13287637D02*
X6203635Y-13287637D01*
X6203635Y-13287637D02*
X6184587Y-13297160D01*
X6184587Y-13297160D02*
X6175064Y-13306684D01*
X6175064Y-13306684D02*
X6156016Y-13335256D01*
X6156016Y-13335256D02*
X6146492Y-13373351D01*
X6146492Y-13373351D02*
X6146492Y-13449541D01*
X6146492Y-13449541D02*
X6156016Y-13468589D01*
X6156016Y-13468589D02*
X6165540Y-13478113D01*
X6165540Y-13478113D02*
X6184587Y-13487637D01*
X6184587Y-13487637D02*
X6222683Y-13487637D01*
X6222683Y-13487637D02*
X6241730Y-13478113D01*
X6241730Y-13478113D02*
X6251254Y-13468589D01*
X6251254Y-13468589D02*
X6260778Y-13449541D01*
X6260778Y-13449541D02*
X6260778Y-13401922D01*
X6260778Y-13401922D02*
X6251254Y-13382875D01*
X6251254Y-13382875D02*
X6241730Y-13373351D01*
X6241730Y-13373351D02*
X6222683Y-13363827D01*
X6222683Y-13363827D02*
X6184587Y-13363827D01*
X6184587Y-13363827D02*
X6165540Y-13373351D01*
X6165540Y-13373351D02*
X6156016Y-13382875D01*
X6156016Y-13382875D02*
X6146492Y-13401922D01*
X6498873Y-13487637D02*
X6498873Y-13287637D01*
X6584587Y-13487637D02*
X6584587Y-13382875D01*
X6584587Y-13382875D02*
X6575064Y-13363827D01*
X6575064Y-13363827D02*
X6556016Y-13354303D01*
X6556016Y-13354303D02*
X6527445Y-13354303D01*
X6527445Y-13354303D02*
X6508397Y-13363827D01*
X6508397Y-13363827D02*
X6498873Y-13373351D01*
X6708397Y-13487637D02*
X6689349Y-13478113D01*
X6689349Y-13478113D02*
X6679826Y-13468589D01*
X6679826Y-13468589D02*
X6670302Y-13449541D01*
X6670302Y-13449541D02*
X6670302Y-13392399D01*
X6670302Y-13392399D02*
X6679826Y-13373351D01*
X6679826Y-13373351D02*
X6689349Y-13363827D01*
X6689349Y-13363827D02*
X6708397Y-13354303D01*
X6708397Y-13354303D02*
X6736968Y-13354303D01*
X6736968Y-13354303D02*
X6756016Y-13363827D01*
X6756016Y-13363827D02*
X6765540Y-13373351D01*
X6765540Y-13373351D02*
X6775064Y-13392399D01*
X6775064Y-13392399D02*
X6775064Y-13449541D01*
X6775064Y-13449541D02*
X6765540Y-13468589D01*
X6765540Y-13468589D02*
X6756016Y-13478113D01*
X6756016Y-13478113D02*
X6736968Y-13487637D01*
X6736968Y-13487637D02*
X6708397Y-13487637D01*
X6889349Y-13487637D02*
X6870302Y-13478113D01*
X6870302Y-13478113D02*
X6860778Y-13459065D01*
X6860778Y-13459065D02*
X6860778Y-13287637D01*
X7041730Y-13478113D02*
X7022683Y-13487637D01*
X7022683Y-13487637D02*
X6984587Y-13487637D01*
X6984587Y-13487637D02*
X6965540Y-13478113D01*
X6965540Y-13478113D02*
X6956016Y-13459065D01*
X6956016Y-13459065D02*
X6956016Y-13382875D01*
X6956016Y-13382875D02*
X6965540Y-13363827D01*
X6965540Y-13363827D02*
X6984587Y-13354303D01*
X6984587Y-13354303D02*
X7022683Y-13354303D01*
X7022683Y-13354303D02*
X7041730Y-13363827D01*
X7041730Y-13363827D02*
X7051254Y-13382875D01*
X7051254Y-13382875D02*
X7051254Y-13401922D01*
X7051254Y-13401922D02*
X6956016Y-13420970D01*
X7127445Y-13478113D02*
X7146492Y-13487637D01*
X7146492Y-13487637D02*
X7184587Y-13487637D01*
X7184587Y-13487637D02*
X7203635Y-13478113D01*
X7203635Y-13478113D02*
X7213159Y-13459065D01*
X7213159Y-13459065D02*
X7213159Y-13449541D01*
X7213159Y-13449541D02*
X7203635Y-13430494D01*
X7203635Y-13430494D02*
X7184587Y-13420970D01*
X7184587Y-13420970D02*
X7156016Y-13420970D01*
X7156016Y-13420970D02*
X7136968Y-13411446D01*
X7136968Y-13411446D02*
X7127445Y-13392399D01*
X7127445Y-13392399D02*
X7127445Y-13382875D01*
X7127445Y-13382875D02*
X7136968Y-13363827D01*
X7136968Y-13363827D02*
X7156016Y-13354303D01*
X7156016Y-13354303D02*
X7184587Y-13354303D01*
X7184587Y-13354303D02*
X7203635Y-13363827D01*
X7279826Y-13563827D02*
X7289349Y-13554303D01*
X7289349Y-13554303D02*
X7308397Y-13525732D01*
X7308397Y-13525732D02*
X7317921Y-13506684D01*
X7317921Y-13506684D02*
X7327445Y-13478113D01*
X7327445Y-13478113D02*
X7336968Y-13430494D01*
X7336968Y-13430494D02*
X7336968Y-13392399D01*
X7336968Y-13392399D02*
X7327445Y-13344779D01*
X7327445Y-13344779D02*
X7317921Y-13316208D01*
X7317921Y-13316208D02*
X7308397Y-13297160D01*
X7308397Y-13297160D02*
X7289349Y-13268589D01*
X7289349Y-13268589D02*
X7279826Y-13259065D01*
D13*
X2123810Y-13660153D02*
G75*
G02*
X2093810Y-13660153I-15000J0D01*
G01*
X2093810Y-13660153D02*
G75*
G02*
X2123810Y-13660153I15000J0D01*
G01*
D12*
X2422682Y-13551637D02*
X2441730Y-13551637D01*
X2441730Y-13551637D02*
X2460778Y-13561160D01*
X2460778Y-13561160D02*
X2470301Y-13570684D01*
X2470301Y-13570684D02*
X2479825Y-13589732D01*
X2479825Y-13589732D02*
X2489349Y-13627827D01*
X2489349Y-13627827D02*
X2489349Y-13675446D01*
X2489349Y-13675446D02*
X2479825Y-13713541D01*
X2479825Y-13713541D02*
X2470301Y-13732589D01*
X2470301Y-13732589D02*
X2460778Y-13742113D01*
X2460778Y-13742113D02*
X2441730Y-13751637D01*
X2441730Y-13751637D02*
X2422682Y-13751637D01*
X2422682Y-13751637D02*
X2403635Y-13742113D01*
X2403635Y-13742113D02*
X2394111Y-13732589D01*
X2394111Y-13732589D02*
X2384587Y-13713541D01*
X2384587Y-13713541D02*
X2375063Y-13675446D01*
X2375063Y-13675446D02*
X2375063Y-13627827D01*
X2375063Y-13627827D02*
X2384587Y-13589732D01*
X2384587Y-13589732D02*
X2394111Y-13570684D01*
X2394111Y-13570684D02*
X2403635Y-13561160D01*
X2403635Y-13561160D02*
X2422682Y-13551637D01*
X2575063Y-13732589D02*
X2584587Y-13742113D01*
X2584587Y-13742113D02*
X2575063Y-13751637D01*
X2575063Y-13751637D02*
X2565540Y-13742113D01*
X2565540Y-13742113D02*
X2575063Y-13732589D01*
X2575063Y-13732589D02*
X2575063Y-13751637D01*
X2651254Y-13551637D02*
X2775063Y-13551637D01*
X2775063Y-13551637D02*
X2708397Y-13627827D01*
X2708397Y-13627827D02*
X2736968Y-13627827D01*
X2736968Y-13627827D02*
X2756016Y-13637351D01*
X2756016Y-13637351D02*
X2765540Y-13646875D01*
X2765540Y-13646875D02*
X2775063Y-13665922D01*
X2775063Y-13665922D02*
X2775063Y-13713541D01*
X2775063Y-13713541D02*
X2765540Y-13732589D01*
X2765540Y-13732589D02*
X2756016Y-13742113D01*
X2756016Y-13742113D02*
X2736968Y-13751637D01*
X2736968Y-13751637D02*
X2679825Y-13751637D01*
X2679825Y-13751637D02*
X2660778Y-13742113D01*
X2660778Y-13742113D02*
X2651254Y-13732589D01*
X2898873Y-13551637D02*
X2917920Y-13551637D01*
X2917920Y-13551637D02*
X2936968Y-13561160D01*
X2936968Y-13561160D02*
X2946492Y-13570684D01*
X2946492Y-13570684D02*
X2956016Y-13589732D01*
X2956016Y-13589732D02*
X2965539Y-13627827D01*
X2965539Y-13627827D02*
X2965539Y-13675446D01*
X2965539Y-13675446D02*
X2956016Y-13713541D01*
X2956016Y-13713541D02*
X2946492Y-13732589D01*
X2946492Y-13732589D02*
X2936968Y-13742113D01*
X2936968Y-13742113D02*
X2917920Y-13751637D01*
X2917920Y-13751637D02*
X2898873Y-13751637D01*
X2898873Y-13751637D02*
X2879825Y-13742113D01*
X2879825Y-13742113D02*
X2870301Y-13732589D01*
X2870301Y-13732589D02*
X2860778Y-13713541D01*
X2860778Y-13713541D02*
X2851254Y-13675446D01*
X2851254Y-13675446D02*
X2851254Y-13627827D01*
X2851254Y-13627827D02*
X2860778Y-13589732D01*
X2860778Y-13589732D02*
X2870301Y-13570684D01*
X2870301Y-13570684D02*
X2879825Y-13561160D01*
X2879825Y-13561160D02*
X2898873Y-13551637D01*
X3089349Y-13551637D02*
X3108397Y-13551637D01*
X3108397Y-13551637D02*
X3127444Y-13561160D01*
X3127444Y-13561160D02*
X3136968Y-13570684D01*
X3136968Y-13570684D02*
X3146492Y-13589732D01*
X3146492Y-13589732D02*
X3156016Y-13627827D01*
X3156016Y-13627827D02*
X3156016Y-13675446D01*
X3156016Y-13675446D02*
X3146492Y-13713541D01*
X3146492Y-13713541D02*
X3136968Y-13732589D01*
X3136968Y-13732589D02*
X3127444Y-13742113D01*
X3127444Y-13742113D02*
X3108397Y-13751637D01*
X3108397Y-13751637D02*
X3089349Y-13751637D01*
X3089349Y-13751637D02*
X3070301Y-13742113D01*
X3070301Y-13742113D02*
X3060778Y-13732589D01*
X3060778Y-13732589D02*
X3051254Y-13713541D01*
X3051254Y-13713541D02*
X3041730Y-13675446D01*
X3041730Y-13675446D02*
X3041730Y-13627827D01*
X3041730Y-13627827D02*
X3051254Y-13589732D01*
X3051254Y-13589732D02*
X3060778Y-13570684D01*
X3060778Y-13570684D02*
X3070301Y-13561160D01*
X3070301Y-13561160D02*
X3089349Y-13551637D01*
X3241730Y-13751637D02*
X3241730Y-13618303D01*
X3241730Y-13637351D02*
X3251254Y-13627827D01*
X3251254Y-13627827D02*
X3270301Y-13618303D01*
X3270301Y-13618303D02*
X3298873Y-13618303D01*
X3298873Y-13618303D02*
X3317920Y-13627827D01*
X3317920Y-13627827D02*
X3327444Y-13646875D01*
X3327444Y-13646875D02*
X3327444Y-13751637D01*
X3327444Y-13646875D02*
X3336968Y-13627827D01*
X3336968Y-13627827D02*
X3356016Y-13618303D01*
X3356016Y-13618303D02*
X3384587Y-13618303D01*
X3384587Y-13618303D02*
X3403635Y-13627827D01*
X3403635Y-13627827D02*
X3413159Y-13646875D01*
X3413159Y-13646875D02*
X3413159Y-13751637D01*
X3508397Y-13751637D02*
X3508397Y-13618303D01*
X3508397Y-13637351D02*
X3517920Y-13627827D01*
X3517920Y-13627827D02*
X3536968Y-13618303D01*
X3536968Y-13618303D02*
X3565540Y-13618303D01*
X3565540Y-13618303D02*
X3584587Y-13627827D01*
X3584587Y-13627827D02*
X3594111Y-13646875D01*
X3594111Y-13646875D02*
X3594111Y-13751637D01*
X3594111Y-13646875D02*
X3603635Y-13627827D01*
X3603635Y-13627827D02*
X3622682Y-13618303D01*
X3622682Y-13618303D02*
X3651254Y-13618303D01*
X3651254Y-13618303D02*
X3670301Y-13627827D01*
X3670301Y-13627827D02*
X3679825Y-13646875D01*
X3679825Y-13646875D02*
X3679825Y-13751637D01*
X4070301Y-13542113D02*
X3898873Y-13799256D01*
X4327444Y-13551637D02*
X4346492Y-13551637D01*
X4346492Y-13551637D02*
X4365540Y-13561160D01*
X4365540Y-13561160D02*
X4375064Y-13570684D01*
X4375064Y-13570684D02*
X4384587Y-13589732D01*
X4384587Y-13589732D02*
X4394111Y-13627827D01*
X4394111Y-13627827D02*
X4394111Y-13675446D01*
X4394111Y-13675446D02*
X4384587Y-13713541D01*
X4384587Y-13713541D02*
X4375064Y-13732589D01*
X4375064Y-13732589D02*
X4365540Y-13742113D01*
X4365540Y-13742113D02*
X4346492Y-13751637D01*
X4346492Y-13751637D02*
X4327444Y-13751637D01*
X4327444Y-13751637D02*
X4308397Y-13742113D01*
X4308397Y-13742113D02*
X4298873Y-13732589D01*
X4298873Y-13732589D02*
X4289349Y-13713541D01*
X4289349Y-13713541D02*
X4279825Y-13675446D01*
X4279825Y-13675446D02*
X4279825Y-13627827D01*
X4279825Y-13627827D02*
X4289349Y-13589732D01*
X4289349Y-13589732D02*
X4298873Y-13570684D01*
X4298873Y-13570684D02*
X4308397Y-13561160D01*
X4308397Y-13561160D02*
X4327444Y-13551637D01*
X4479825Y-13732589D02*
X4489349Y-13742113D01*
X4489349Y-13742113D02*
X4479825Y-13751637D01*
X4479825Y-13751637D02*
X4470302Y-13742113D01*
X4470302Y-13742113D02*
X4479825Y-13732589D01*
X4479825Y-13732589D02*
X4479825Y-13751637D01*
X4613159Y-13551637D02*
X4632206Y-13551637D01*
X4632206Y-13551637D02*
X4651254Y-13561160D01*
X4651254Y-13561160D02*
X4660778Y-13570684D01*
X4660778Y-13570684D02*
X4670302Y-13589732D01*
X4670302Y-13589732D02*
X4679825Y-13627827D01*
X4679825Y-13627827D02*
X4679825Y-13675446D01*
X4679825Y-13675446D02*
X4670302Y-13713541D01*
X4670302Y-13713541D02*
X4660778Y-13732589D01*
X4660778Y-13732589D02*
X4651254Y-13742113D01*
X4651254Y-13742113D02*
X4632206Y-13751637D01*
X4632206Y-13751637D02*
X4613159Y-13751637D01*
X4613159Y-13751637D02*
X4594111Y-13742113D01*
X4594111Y-13742113D02*
X4584587Y-13732589D01*
X4584587Y-13732589D02*
X4575064Y-13713541D01*
X4575064Y-13713541D02*
X4565540Y-13675446D01*
X4565540Y-13675446D02*
X4565540Y-13627827D01*
X4565540Y-13627827D02*
X4575064Y-13589732D01*
X4575064Y-13589732D02*
X4584587Y-13570684D01*
X4584587Y-13570684D02*
X4594111Y-13561160D01*
X4594111Y-13561160D02*
X4613159Y-13551637D01*
X4870302Y-13751637D02*
X4756016Y-13751637D01*
X4813159Y-13751637D02*
X4813159Y-13551637D01*
X4813159Y-13551637D02*
X4794111Y-13580208D01*
X4794111Y-13580208D02*
X4775064Y-13599256D01*
X4775064Y-13599256D02*
X4756016Y-13608779D01*
X5060778Y-13751637D02*
X4946492Y-13751637D01*
X5003635Y-13751637D02*
X5003635Y-13551637D01*
X5003635Y-13551637D02*
X4984587Y-13580208D01*
X4984587Y-13580208D02*
X4965540Y-13599256D01*
X4965540Y-13599256D02*
X4946492Y-13608779D01*
X5175064Y-13637351D02*
X5156016Y-13627827D01*
X5156016Y-13627827D02*
X5146492Y-13618303D01*
X5146492Y-13618303D02*
X5136968Y-13599256D01*
X5136968Y-13599256D02*
X5136968Y-13589732D01*
X5136968Y-13589732D02*
X5146492Y-13570684D01*
X5146492Y-13570684D02*
X5156016Y-13561160D01*
X5156016Y-13561160D02*
X5175064Y-13551637D01*
X5175064Y-13551637D02*
X5213159Y-13551637D01*
X5213159Y-13551637D02*
X5232206Y-13561160D01*
X5232206Y-13561160D02*
X5241730Y-13570684D01*
X5241730Y-13570684D02*
X5251254Y-13589732D01*
X5251254Y-13589732D02*
X5251254Y-13599256D01*
X5251254Y-13599256D02*
X5241730Y-13618303D01*
X5241730Y-13618303D02*
X5232206Y-13627827D01*
X5232206Y-13627827D02*
X5213159Y-13637351D01*
X5213159Y-13637351D02*
X5175064Y-13637351D01*
X5175064Y-13637351D02*
X5156016Y-13646875D01*
X5156016Y-13646875D02*
X5146492Y-13656399D01*
X5146492Y-13656399D02*
X5136968Y-13675446D01*
X5136968Y-13675446D02*
X5136968Y-13713541D01*
X5136968Y-13713541D02*
X5146492Y-13732589D01*
X5146492Y-13732589D02*
X5156016Y-13742113D01*
X5156016Y-13742113D02*
X5175064Y-13751637D01*
X5175064Y-13751637D02*
X5213159Y-13751637D01*
X5213159Y-13751637D02*
X5232206Y-13742113D01*
X5232206Y-13742113D02*
X5241730Y-13732589D01*
X5241730Y-13732589D02*
X5251254Y-13713541D01*
X5251254Y-13713541D02*
X5251254Y-13675446D01*
X5251254Y-13675446D02*
X5241730Y-13656399D01*
X5241730Y-13656399D02*
X5232206Y-13646875D01*
X5232206Y-13646875D02*
X5213159Y-13637351D01*
X5327445Y-13551637D02*
X5327445Y-13589732D01*
X5403635Y-13551637D02*
X5403635Y-13589732D01*
X5698873Y-13827827D02*
X5689349Y-13818303D01*
X5689349Y-13818303D02*
X5670302Y-13789732D01*
X5670302Y-13789732D02*
X5660778Y-13770684D01*
X5660778Y-13770684D02*
X5651254Y-13742113D01*
X5651254Y-13742113D02*
X5641730Y-13694494D01*
X5641730Y-13694494D02*
X5641730Y-13656399D01*
X5641730Y-13656399D02*
X5651254Y-13608779D01*
X5651254Y-13608779D02*
X5660778Y-13580208D01*
X5660778Y-13580208D02*
X5670302Y-13561160D01*
X5670302Y-13561160D02*
X5689349Y-13532589D01*
X5689349Y-13532589D02*
X5698873Y-13523065D01*
X5784587Y-13751637D02*
X5822683Y-13751637D01*
X5822683Y-13751637D02*
X5841730Y-13742113D01*
X5841730Y-13742113D02*
X5851254Y-13732589D01*
X5851254Y-13732589D02*
X5870302Y-13704018D01*
X5870302Y-13704018D02*
X5879825Y-13665922D01*
X5879825Y-13665922D02*
X5879825Y-13589732D01*
X5879825Y-13589732D02*
X5870302Y-13570684D01*
X5870302Y-13570684D02*
X5860778Y-13561160D01*
X5860778Y-13561160D02*
X5841730Y-13551637D01*
X5841730Y-13551637D02*
X5803635Y-13551637D01*
X5803635Y-13551637D02*
X5784587Y-13561160D01*
X5784587Y-13561160D02*
X5775064Y-13570684D01*
X5775064Y-13570684D02*
X5765540Y-13589732D01*
X5765540Y-13589732D02*
X5765540Y-13637351D01*
X5765540Y-13637351D02*
X5775064Y-13656399D01*
X5775064Y-13656399D02*
X5784587Y-13665922D01*
X5784587Y-13665922D02*
X5803635Y-13675446D01*
X5803635Y-13675446D02*
X5841730Y-13675446D01*
X5841730Y-13675446D02*
X5860778Y-13665922D01*
X5860778Y-13665922D02*
X5870302Y-13656399D01*
X5870302Y-13656399D02*
X5879825Y-13637351D01*
X6117921Y-13751637D02*
X6117921Y-13551637D01*
X6203635Y-13751637D02*
X6203635Y-13646875D01*
X6203635Y-13646875D02*
X6194111Y-13627827D01*
X6194111Y-13627827D02*
X6175064Y-13618303D01*
X6175064Y-13618303D02*
X6146492Y-13618303D01*
X6146492Y-13618303D02*
X6127445Y-13627827D01*
X6127445Y-13627827D02*
X6117921Y-13637351D01*
X6327445Y-13751637D02*
X6308397Y-13742113D01*
X6308397Y-13742113D02*
X6298873Y-13732589D01*
X6298873Y-13732589D02*
X6289349Y-13713541D01*
X6289349Y-13713541D02*
X6289349Y-13656399D01*
X6289349Y-13656399D02*
X6298873Y-13637351D01*
X6298873Y-13637351D02*
X6308397Y-13627827D01*
X6308397Y-13627827D02*
X6327445Y-13618303D01*
X6327445Y-13618303D02*
X6356016Y-13618303D01*
X6356016Y-13618303D02*
X6375064Y-13627827D01*
X6375064Y-13627827D02*
X6384587Y-13637351D01*
X6384587Y-13637351D02*
X6394111Y-13656399D01*
X6394111Y-13656399D02*
X6394111Y-13713541D01*
X6394111Y-13713541D02*
X6384587Y-13732589D01*
X6384587Y-13732589D02*
X6375064Y-13742113D01*
X6375064Y-13742113D02*
X6356016Y-13751637D01*
X6356016Y-13751637D02*
X6327445Y-13751637D01*
X6508397Y-13751637D02*
X6489349Y-13742113D01*
X6489349Y-13742113D02*
X6479826Y-13723065D01*
X6479826Y-13723065D02*
X6479826Y-13551637D01*
X6660778Y-13742113D02*
X6641730Y-13751637D01*
X6641730Y-13751637D02*
X6603635Y-13751637D01*
X6603635Y-13751637D02*
X6584587Y-13742113D01*
X6584587Y-13742113D02*
X6575064Y-13723065D01*
X6575064Y-13723065D02*
X6575064Y-13646875D01*
X6575064Y-13646875D02*
X6584587Y-13627827D01*
X6584587Y-13627827D02*
X6603635Y-13618303D01*
X6603635Y-13618303D02*
X6641730Y-13618303D01*
X6641730Y-13618303D02*
X6660778Y-13627827D01*
X6660778Y-13627827D02*
X6670302Y-13646875D01*
X6670302Y-13646875D02*
X6670302Y-13665922D01*
X6670302Y-13665922D02*
X6575064Y-13684970D01*
X6746492Y-13742113D02*
X6765540Y-13751637D01*
X6765540Y-13751637D02*
X6803635Y-13751637D01*
X6803635Y-13751637D02*
X6822683Y-13742113D01*
X6822683Y-13742113D02*
X6832207Y-13723065D01*
X6832207Y-13723065D02*
X6832207Y-13713541D01*
X6832207Y-13713541D02*
X6822683Y-13694494D01*
X6822683Y-13694494D02*
X6803635Y-13684970D01*
X6803635Y-13684970D02*
X6775064Y-13684970D01*
X6775064Y-13684970D02*
X6756016Y-13675446D01*
X6756016Y-13675446D02*
X6746492Y-13656399D01*
X6746492Y-13656399D02*
X6746492Y-13646875D01*
X6746492Y-13646875D02*
X6756016Y-13627827D01*
X6756016Y-13627827D02*
X6775064Y-13618303D01*
X6775064Y-13618303D02*
X6803635Y-13618303D01*
X6803635Y-13618303D02*
X6822683Y-13627827D01*
X6898873Y-13827827D02*
X6908397Y-13818303D01*
X6908397Y-13818303D02*
X6927445Y-13789732D01*
X6927445Y-13789732D02*
X6936968Y-13770684D01*
X6936968Y-13770684D02*
X6946492Y-13742113D01*
X6946492Y-13742113D02*
X6956016Y-13694494D01*
X6956016Y-13694494D02*
X6956016Y-13656399D01*
X6956016Y-13656399D02*
X6946492Y-13608779D01*
X6946492Y-13608779D02*
X6936968Y-13580208D01*
X6936968Y-13580208D02*
X6927445Y-13561160D01*
X6927445Y-13561160D02*
X6908397Y-13532589D01*
X6908397Y-13532589D02*
X6898873Y-13523065D01*
D13*
X2088810Y-13889153D02*
X2088810Y-13959153D01*
X2053810Y-13924153D02*
X2123810Y-13924153D01*
D12*
X2422682Y-13815637D02*
X2441730Y-13815637D01*
X2441730Y-13815637D02*
X2460778Y-13825160D01*
X2460778Y-13825160D02*
X2470301Y-13834684D01*
X2470301Y-13834684D02*
X2479825Y-13853732D01*
X2479825Y-13853732D02*
X2489349Y-13891827D01*
X2489349Y-13891827D02*
X2489349Y-13939446D01*
X2489349Y-13939446D02*
X2479825Y-13977541D01*
X2479825Y-13977541D02*
X2470301Y-13996589D01*
X2470301Y-13996589D02*
X2460778Y-14006113D01*
X2460778Y-14006113D02*
X2441730Y-14015637D01*
X2441730Y-14015637D02*
X2422682Y-14015637D01*
X2422682Y-14015637D02*
X2403635Y-14006113D01*
X2403635Y-14006113D02*
X2394111Y-13996589D01*
X2394111Y-13996589D02*
X2384587Y-13977541D01*
X2384587Y-13977541D02*
X2375063Y-13939446D01*
X2375063Y-13939446D02*
X2375063Y-13891827D01*
X2375063Y-13891827D02*
X2384587Y-13853732D01*
X2384587Y-13853732D02*
X2394111Y-13834684D01*
X2394111Y-13834684D02*
X2403635Y-13825160D01*
X2403635Y-13825160D02*
X2422682Y-13815637D01*
X2575063Y-13996589D02*
X2584587Y-14006113D01*
X2584587Y-14006113D02*
X2575063Y-14015637D01*
X2575063Y-14015637D02*
X2565540Y-14006113D01*
X2565540Y-14006113D02*
X2575063Y-13996589D01*
X2575063Y-13996589D02*
X2575063Y-14015637D01*
X2651254Y-13815637D02*
X2784587Y-13815637D01*
X2784587Y-13815637D02*
X2698873Y-14015637D01*
X2898873Y-13815637D02*
X2917920Y-13815637D01*
X2917920Y-13815637D02*
X2936968Y-13825160D01*
X2936968Y-13825160D02*
X2946492Y-13834684D01*
X2946492Y-13834684D02*
X2956016Y-13853732D01*
X2956016Y-13853732D02*
X2965539Y-13891827D01*
X2965539Y-13891827D02*
X2965539Y-13939446D01*
X2965539Y-13939446D02*
X2956016Y-13977541D01*
X2956016Y-13977541D02*
X2946492Y-13996589D01*
X2946492Y-13996589D02*
X2936968Y-14006113D01*
X2936968Y-14006113D02*
X2917920Y-14015637D01*
X2917920Y-14015637D02*
X2898873Y-14015637D01*
X2898873Y-14015637D02*
X2879825Y-14006113D01*
X2879825Y-14006113D02*
X2870301Y-13996589D01*
X2870301Y-13996589D02*
X2860778Y-13977541D01*
X2860778Y-13977541D02*
X2851254Y-13939446D01*
X2851254Y-13939446D02*
X2851254Y-13891827D01*
X2851254Y-13891827D02*
X2860778Y-13853732D01*
X2860778Y-13853732D02*
X2870301Y-13834684D01*
X2870301Y-13834684D02*
X2879825Y-13825160D01*
X2879825Y-13825160D02*
X2898873Y-13815637D01*
X3089349Y-13815637D02*
X3108397Y-13815637D01*
X3108397Y-13815637D02*
X3127444Y-13825160D01*
X3127444Y-13825160D02*
X3136968Y-13834684D01*
X3136968Y-13834684D02*
X3146492Y-13853732D01*
X3146492Y-13853732D02*
X3156016Y-13891827D01*
X3156016Y-13891827D02*
X3156016Y-13939446D01*
X3156016Y-13939446D02*
X3146492Y-13977541D01*
X3146492Y-13977541D02*
X3136968Y-13996589D01*
X3136968Y-13996589D02*
X3127444Y-14006113D01*
X3127444Y-14006113D02*
X3108397Y-14015637D01*
X3108397Y-14015637D02*
X3089349Y-14015637D01*
X3089349Y-14015637D02*
X3070301Y-14006113D01*
X3070301Y-14006113D02*
X3060778Y-13996589D01*
X3060778Y-13996589D02*
X3051254Y-13977541D01*
X3051254Y-13977541D02*
X3041730Y-13939446D01*
X3041730Y-13939446D02*
X3041730Y-13891827D01*
X3041730Y-13891827D02*
X3051254Y-13853732D01*
X3051254Y-13853732D02*
X3060778Y-13834684D01*
X3060778Y-13834684D02*
X3070301Y-13825160D01*
X3070301Y-13825160D02*
X3089349Y-13815637D01*
X3241730Y-14015637D02*
X3241730Y-13882303D01*
X3241730Y-13901351D02*
X3251254Y-13891827D01*
X3251254Y-13891827D02*
X3270301Y-13882303D01*
X3270301Y-13882303D02*
X3298873Y-13882303D01*
X3298873Y-13882303D02*
X3317920Y-13891827D01*
X3317920Y-13891827D02*
X3327444Y-13910875D01*
X3327444Y-13910875D02*
X3327444Y-14015637D01*
X3327444Y-13910875D02*
X3336968Y-13891827D01*
X3336968Y-13891827D02*
X3356016Y-13882303D01*
X3356016Y-13882303D02*
X3384587Y-13882303D01*
X3384587Y-13882303D02*
X3403635Y-13891827D01*
X3403635Y-13891827D02*
X3413159Y-13910875D01*
X3413159Y-13910875D02*
X3413159Y-14015637D01*
X3508397Y-14015637D02*
X3508397Y-13882303D01*
X3508397Y-13901351D02*
X3517920Y-13891827D01*
X3517920Y-13891827D02*
X3536968Y-13882303D01*
X3536968Y-13882303D02*
X3565540Y-13882303D01*
X3565540Y-13882303D02*
X3584587Y-13891827D01*
X3584587Y-13891827D02*
X3594111Y-13910875D01*
X3594111Y-13910875D02*
X3594111Y-14015637D01*
X3594111Y-13910875D02*
X3603635Y-13891827D01*
X3603635Y-13891827D02*
X3622682Y-13882303D01*
X3622682Y-13882303D02*
X3651254Y-13882303D01*
X3651254Y-13882303D02*
X3670301Y-13891827D01*
X3670301Y-13891827D02*
X3679825Y-13910875D01*
X3679825Y-13910875D02*
X3679825Y-14015637D01*
X4070301Y-13806113D02*
X3898873Y-14063256D01*
X4327444Y-13815637D02*
X4346492Y-13815637D01*
X4346492Y-13815637D02*
X4365540Y-13825160D01*
X4365540Y-13825160D02*
X4375064Y-13834684D01*
X4375064Y-13834684D02*
X4384587Y-13853732D01*
X4384587Y-13853732D02*
X4394111Y-13891827D01*
X4394111Y-13891827D02*
X4394111Y-13939446D01*
X4394111Y-13939446D02*
X4384587Y-13977541D01*
X4384587Y-13977541D02*
X4375064Y-13996589D01*
X4375064Y-13996589D02*
X4365540Y-14006113D01*
X4365540Y-14006113D02*
X4346492Y-14015637D01*
X4346492Y-14015637D02*
X4327444Y-14015637D01*
X4327444Y-14015637D02*
X4308397Y-14006113D01*
X4308397Y-14006113D02*
X4298873Y-13996589D01*
X4298873Y-13996589D02*
X4289349Y-13977541D01*
X4289349Y-13977541D02*
X4279825Y-13939446D01*
X4279825Y-13939446D02*
X4279825Y-13891827D01*
X4279825Y-13891827D02*
X4289349Y-13853732D01*
X4289349Y-13853732D02*
X4298873Y-13834684D01*
X4298873Y-13834684D02*
X4308397Y-13825160D01*
X4308397Y-13825160D02*
X4327444Y-13815637D01*
X4479825Y-13996589D02*
X4489349Y-14006113D01*
X4489349Y-14006113D02*
X4479825Y-14015637D01*
X4479825Y-14015637D02*
X4470302Y-14006113D01*
X4470302Y-14006113D02*
X4479825Y-13996589D01*
X4479825Y-13996589D02*
X4479825Y-14015637D01*
X4613159Y-13815637D02*
X4632206Y-13815637D01*
X4632206Y-13815637D02*
X4651254Y-13825160D01*
X4651254Y-13825160D02*
X4660778Y-13834684D01*
X4660778Y-13834684D02*
X4670302Y-13853732D01*
X4670302Y-13853732D02*
X4679825Y-13891827D01*
X4679825Y-13891827D02*
X4679825Y-13939446D01*
X4679825Y-13939446D02*
X4670302Y-13977541D01*
X4670302Y-13977541D02*
X4660778Y-13996589D01*
X4660778Y-13996589D02*
X4651254Y-14006113D01*
X4651254Y-14006113D02*
X4632206Y-14015637D01*
X4632206Y-14015637D02*
X4613159Y-14015637D01*
X4613159Y-14015637D02*
X4594111Y-14006113D01*
X4594111Y-14006113D02*
X4584587Y-13996589D01*
X4584587Y-13996589D02*
X4575064Y-13977541D01*
X4575064Y-13977541D02*
X4565540Y-13939446D01*
X4565540Y-13939446D02*
X4565540Y-13891827D01*
X4565540Y-13891827D02*
X4575064Y-13853732D01*
X4575064Y-13853732D02*
X4584587Y-13834684D01*
X4584587Y-13834684D02*
X4594111Y-13825160D01*
X4594111Y-13825160D02*
X4613159Y-13815637D01*
X4756016Y-13834684D02*
X4765540Y-13825160D01*
X4765540Y-13825160D02*
X4784587Y-13815637D01*
X4784587Y-13815637D02*
X4832206Y-13815637D01*
X4832206Y-13815637D02*
X4851254Y-13825160D01*
X4851254Y-13825160D02*
X4860778Y-13834684D01*
X4860778Y-13834684D02*
X4870302Y-13853732D01*
X4870302Y-13853732D02*
X4870302Y-13872779D01*
X4870302Y-13872779D02*
X4860778Y-13901351D01*
X4860778Y-13901351D02*
X4746492Y-14015637D01*
X4746492Y-14015637D02*
X4870302Y-14015637D01*
X4936968Y-13815637D02*
X5070302Y-13815637D01*
X5070302Y-13815637D02*
X4984587Y-14015637D01*
X5232206Y-13815637D02*
X5194111Y-13815637D01*
X5194111Y-13815637D02*
X5175064Y-13825160D01*
X5175064Y-13825160D02*
X5165540Y-13834684D01*
X5165540Y-13834684D02*
X5146492Y-13863256D01*
X5146492Y-13863256D02*
X5136968Y-13901351D01*
X5136968Y-13901351D02*
X5136968Y-13977541D01*
X5136968Y-13977541D02*
X5146492Y-13996589D01*
X5146492Y-13996589D02*
X5156016Y-14006113D01*
X5156016Y-14006113D02*
X5175064Y-14015637D01*
X5175064Y-14015637D02*
X5213159Y-14015637D01*
X5213159Y-14015637D02*
X5232206Y-14006113D01*
X5232206Y-14006113D02*
X5241730Y-13996589D01*
X5241730Y-13996589D02*
X5251254Y-13977541D01*
X5251254Y-13977541D02*
X5251254Y-13929922D01*
X5251254Y-13929922D02*
X5241730Y-13910875D01*
X5241730Y-13910875D02*
X5232206Y-13901351D01*
X5232206Y-13901351D02*
X5213159Y-13891827D01*
X5213159Y-13891827D02*
X5175064Y-13891827D01*
X5175064Y-13891827D02*
X5156016Y-13901351D01*
X5156016Y-13901351D02*
X5146492Y-13910875D01*
X5146492Y-13910875D02*
X5136968Y-13929922D01*
X5327445Y-13815637D02*
X5327445Y-13853732D01*
X5403635Y-13815637D02*
X5403635Y-13853732D01*
X5698873Y-14091827D02*
X5689349Y-14082303D01*
X5689349Y-14082303D02*
X5670302Y-14053732D01*
X5670302Y-14053732D02*
X5660778Y-14034684D01*
X5660778Y-14034684D02*
X5651254Y-14006113D01*
X5651254Y-14006113D02*
X5641730Y-13958494D01*
X5641730Y-13958494D02*
X5641730Y-13920399D01*
X5641730Y-13920399D02*
X5651254Y-13872779D01*
X5651254Y-13872779D02*
X5660778Y-13844208D01*
X5660778Y-13844208D02*
X5670302Y-13825160D01*
X5670302Y-13825160D02*
X5689349Y-13796589D01*
X5689349Y-13796589D02*
X5698873Y-13787065D01*
X5765540Y-13834684D02*
X5775064Y-13825160D01*
X5775064Y-13825160D02*
X5794111Y-13815637D01*
X5794111Y-13815637D02*
X5841730Y-13815637D01*
X5841730Y-13815637D02*
X5860778Y-13825160D01*
X5860778Y-13825160D02*
X5870302Y-13834684D01*
X5870302Y-13834684D02*
X5879825Y-13853732D01*
X5879825Y-13853732D02*
X5879825Y-13872779D01*
X5879825Y-13872779D02*
X5870302Y-13901351D01*
X5870302Y-13901351D02*
X5756016Y-14015637D01*
X5756016Y-14015637D02*
X5879825Y-14015637D01*
X6117921Y-14015637D02*
X6117921Y-13815637D01*
X6203635Y-14015637D02*
X6203635Y-13910875D01*
X6203635Y-13910875D02*
X6194111Y-13891827D01*
X6194111Y-13891827D02*
X6175064Y-13882303D01*
X6175064Y-13882303D02*
X6146492Y-13882303D01*
X6146492Y-13882303D02*
X6127445Y-13891827D01*
X6127445Y-13891827D02*
X6117921Y-13901351D01*
X6327445Y-14015637D02*
X6308397Y-14006113D01*
X6308397Y-14006113D02*
X6298873Y-13996589D01*
X6298873Y-13996589D02*
X6289349Y-13977541D01*
X6289349Y-13977541D02*
X6289349Y-13920399D01*
X6289349Y-13920399D02*
X6298873Y-13901351D01*
X6298873Y-13901351D02*
X6308397Y-13891827D01*
X6308397Y-13891827D02*
X6327445Y-13882303D01*
X6327445Y-13882303D02*
X6356016Y-13882303D01*
X6356016Y-13882303D02*
X6375064Y-13891827D01*
X6375064Y-13891827D02*
X6384587Y-13901351D01*
X6384587Y-13901351D02*
X6394111Y-13920399D01*
X6394111Y-13920399D02*
X6394111Y-13977541D01*
X6394111Y-13977541D02*
X6384587Y-13996589D01*
X6384587Y-13996589D02*
X6375064Y-14006113D01*
X6375064Y-14006113D02*
X6356016Y-14015637D01*
X6356016Y-14015637D02*
X6327445Y-14015637D01*
X6508397Y-14015637D02*
X6489349Y-14006113D01*
X6489349Y-14006113D02*
X6479826Y-13987065D01*
X6479826Y-13987065D02*
X6479826Y-13815637D01*
X6660778Y-14006113D02*
X6641730Y-14015637D01*
X6641730Y-14015637D02*
X6603635Y-14015637D01*
X6603635Y-14015637D02*
X6584587Y-14006113D01*
X6584587Y-14006113D02*
X6575064Y-13987065D01*
X6575064Y-13987065D02*
X6575064Y-13910875D01*
X6575064Y-13910875D02*
X6584587Y-13891827D01*
X6584587Y-13891827D02*
X6603635Y-13882303D01*
X6603635Y-13882303D02*
X6641730Y-13882303D01*
X6641730Y-13882303D02*
X6660778Y-13891827D01*
X6660778Y-13891827D02*
X6670302Y-13910875D01*
X6670302Y-13910875D02*
X6670302Y-13929922D01*
X6670302Y-13929922D02*
X6575064Y-13948970D01*
X6746492Y-14006113D02*
X6765540Y-14015637D01*
X6765540Y-14015637D02*
X6803635Y-14015637D01*
X6803635Y-14015637D02*
X6822683Y-14006113D01*
X6822683Y-14006113D02*
X6832207Y-13987065D01*
X6832207Y-13987065D02*
X6832207Y-13977541D01*
X6832207Y-13977541D02*
X6822683Y-13958494D01*
X6822683Y-13958494D02*
X6803635Y-13948970D01*
X6803635Y-13948970D02*
X6775064Y-13948970D01*
X6775064Y-13948970D02*
X6756016Y-13939446D01*
X6756016Y-13939446D02*
X6746492Y-13920399D01*
X6746492Y-13920399D02*
X6746492Y-13910875D01*
X6746492Y-13910875D02*
X6756016Y-13891827D01*
X6756016Y-13891827D02*
X6775064Y-13882303D01*
X6775064Y-13882303D02*
X6803635Y-13882303D01*
X6803635Y-13882303D02*
X6822683Y-13891827D01*
X6898873Y-14091827D02*
X6908397Y-14082303D01*
X6908397Y-14082303D02*
X6927445Y-14053732D01*
X6927445Y-14053732D02*
X6936968Y-14034684D01*
X6936968Y-14034684D02*
X6946492Y-14006113D01*
X6946492Y-14006113D02*
X6956016Y-13958494D01*
X6956016Y-13958494D02*
X6956016Y-13920399D01*
X6956016Y-13920399D02*
X6946492Y-13872779D01*
X6946492Y-13872779D02*
X6936968Y-13844208D01*
X6936968Y-13844208D02*
X6927445Y-13825160D01*
X6927445Y-13825160D02*
X6908397Y-13796589D01*
X6908397Y-13796589D02*
X6898873Y-13787065D01*
M02*
