M48
; DRILL file {KiCad 8.0.4} date 2025-03-19T09:34:13+1100
; FORMAT={-:-/ absolute / metric / decimal}
; #@! TF.CreationDate,2025-03-19T09:34:13+11:00
; #@! TF.GenerationSoftware,Kicad,Pcbnew,8.0.4
; #@! TF.FileFunction,Plated,1,4,PTH
FMAT,2
METRIC
; #@! TA.AperFunction,Plated,PTH,ViaDrill
T1C0.300
; #@! TA.AperFunction,Plated,PTH,ComponentDrill
T2C0.300
; #@! TA.AperFunction,Plated,PTH,ComponentDrill
T3C0.700
%
G90
G05
T1
X22.27Y-68.22
X22.75Y-89.75
X23.0Y-34.75
X23.61Y-105.18
X24.25Y-51.75
X25.0Y-56.5
X25.42Y-97.78
X25.75Y-107.75
X25.81Y-65.03
X26.0Y-35.0
X26.055Y-79.408
X26.055Y-80.629
X26.2Y-72.31
X27.18Y-86.97
X27.21Y-63.3
X27.23Y-62.25
X27.42Y-34.15
X27.5Y-29.75
X27.525Y-72.85
X28.275Y-60.15
X28.52Y-91.975
X28.75Y-29.75
X28.75Y-34.75
X29.5Y-22.0
X29.5Y-52.5
X29.52Y-107.927
X29.6Y-64.0
X29.77Y-100.225
X30.0Y-34.5
X30.0Y-57.75
X30.02Y-115.975
X30.55Y-80.7
X31.0Y-93.0
X31.25Y-50.5
X31.5Y-57.75
X31.75Y-124.25
X32.0Y-109.0
X32.0Y-112.0
X32.5Y-74.575
X32.5Y-117.0
X32.575Y-62.725
X32.75Y-86.42
X33.0Y-81.75
X33.25Y-98.0
X33.6Y-59.8
X33.8Y-118.8
X33.982Y-62.01
X34.0Y-38.0
X34.175Y-104.3
X34.275Y-63.325
X34.55Y-42.65
X34.6Y-108.0
X34.6Y-118.9
X35.0Y-64.9
X35.0Y-65.75
X35.0Y-69.8
X35.002Y-66.532
X35.003Y-68.887
X35.003Y-67.317
X35.004Y-68.101
X35.1Y-28.08
X35.25Y-45.5
X35.25Y-56.75
X35.3Y-117.1
X35.45Y-59.8
X35.7Y-40.2
X35.7Y-89.9
X35.96Y-88.2
X35.975Y-62.5
X36.0Y-104.4
X36.03Y-80.18
X36.37Y-94.5
X36.65Y-81.85
X36.75Y-86.05
X36.75Y-123.52
X37.5Y-54.275
X38.0Y-120.5
X38.25Y-107.5
X38.3Y-95.2
X38.313Y-52.777
X38.43Y-91.46
X38.5Y-39.0
X38.5Y-52.0
X38.5Y-117.18
X39.0Y-120.5
X39.475Y-72.475
X39.5Y-96.0
X39.63Y-38.2
X39.725Y-74.425
X39.75Y-71.0
X39.84Y-69.29
X39.871Y-68.21
X39.872Y-67.343
X40.2Y-59.8
X40.25Y-84.75
X40.75Y-39.0
X41.1Y-64.0
X41.5Y-89.8
X41.89Y-38.2
X42.0Y-57.2
X42.0Y-102.75
X42.125Y-54.15
X42.2Y-52.3
X42.25Y-27.5
X42.25Y-48.25
X42.25Y-49.25
X42.25Y-50.25
X42.277Y-68.46
X42.5Y-26.362
X42.5Y-119.0
X42.52Y-77.75
X42.52Y-110.975
X42.6Y-62.5
X42.625Y-66.575
X43.0Y-39.0
X43.0Y-69.0
X43.2Y-52.3
X43.3Y-58.0
X43.325Y-53.225
X43.4Y-68.2
X43.498Y-94.471
X44.2Y-38.8
X44.4Y-53.1
X44.5Y-36.25
X44.625Y-69.6
X44.7Y-58.6
X45.0Y-48.4
X45.0Y-77.75
X45.0Y-102.75
X45.0Y-111.0
X45.0Y-119.0
X45.25Y-39.0
X45.3Y-52.4
X45.365Y-74.9
X45.45Y-67.175
X45.5Y-24.5
X45.62Y-68.69
X45.675Y-60.125
X45.73Y-98.49
X46.0Y-63.0
X46.0Y-89.25
X46.1Y-61.2
X46.125Y-97.35
X46.2Y-62.07
X46.2Y-63.8
X46.37Y-57.6
X46.375Y-59.675
X46.425Y-54.025
X46.5Y-39.2
X46.5Y-101.4
X46.8Y-53.12
X47.175Y-80.825
X47.25Y-36.25
X47.5Y-92.9
X47.5Y-93.9
X47.5Y-94.9
X47.5Y-107.5
X47.8Y-67.342
X48.0Y-45.5
X48.25Y-53.16
X48.375Y-69.245
X48.4Y-55.0
X48.4Y-68.157
X48.5Y-63.5
X48.52Y-60.45
X48.87Y-56.12
X49.322Y-58.521
X49.325Y-62.1
X49.33Y-64.06
X49.5Y-84.5
X49.55Y-56.06
X49.75Y-31.25
X49.75Y-70.75
X49.775Y-118.925
X49.945Y-65.75
X49.95Y-58.53
X50.11Y-80.48
X50.2Y-60.525
X50.3Y-64.0
X50.375Y-63.175
X50.96Y-94.83
X51.0Y-123.25
X51.5Y-55.1
X51.75Y-21.25
X52.25Y-31.25
X52.25Y-45.4
X52.25Y-47.3
X52.25Y-48.8
X52.25Y-50.7
X52.375Y-60.2
X52.96Y-76.26
X53.175Y-65.575
X53.45Y-63.0
X53.75Y-80.25
X53.75Y-93.0
X53.8Y-95.8
X54.0Y-105.8
X54.7Y-64.1
X55.025Y-60.225
X55.16Y-71.58
X55.27Y-100.225
X55.3Y-76.0
X55.333Y-116.288
X55.398Y-109.979
X55.4Y-84.51
X55.4Y-97.2
X55.6Y-47.4
X56.0Y-31.75
X56.2Y-58.2
X56.2Y-59.2
X56.2Y-60.2
X56.2Y-80.1
X56.27Y-91.975
X56.6Y-43.2
X57.125Y-113.075
X57.25Y-68.5
X57.315Y-115.594
X57.53Y-47.29
X57.8Y-96.0
X57.9Y-53.5
X58.0Y-76.25
X58.25Y-89.0
X58.5Y-64.225
X58.65Y-62.9
X58.75Y-38.75
X58.805Y-118.7
X59.15Y-112.7
X59.2Y-103.625
X59.8Y-47.2
X60.4Y-65.6
X60.4Y-107.26
X60.5Y-43.25
X60.5Y-56.25
X61.025Y-95.0
X61.25Y-37.25
X61.405Y-92.35
T2
X41.363Y-59.067
X41.363Y-60.2
X41.363Y-61.333
X42.496Y-59.067
X42.496Y-60.2
X42.496Y-61.333
X43.63Y-59.067
X43.63Y-60.2
X43.63Y-61.333
T3
X23.75Y-40.5
X23.75Y-43.25
M30
