G04 #@! TF.GenerationSoftware,KiCad,Pcbnew,8.0.4*
G04 #@! TF.CreationDate,2025-03-19T09:33:49+11:00*
G04 #@! TF.ProjectId,nokia,6e6f6b69-612e-46b6-9963-61645f706362,rev?*
G04 #@! TF.SameCoordinates,Original*
G04 #@! TF.FileFunction,Legend,Bot*
G04 #@! TF.FilePolarity,Positive*
%FSLAX46Y46*%
G04 Gerber Fmt 4.6, Leading zero omitted, Abs format (unit mm)*
G04 Created by KiCad (PCBNEW 8.0.4) date 2025-03-19 09:33:49*
%MOMM*%
%LPD*%
G01*
G04 APERTURE LIST*
G04 Aperture macros list*
%AMRoundRect*
0 Rectangle with rounded corners*
0 $1 Rounding radius*
0 $2 $3 $4 $5 $6 $7 $8 $9 X,Y pos of 4 corners*
0 Add a 4 corners polygon primitive as box body*
4,1,4,$2,$3,$4,$5,$6,$7,$8,$9,$2,$3,0*
0 Add four circle primitives for the rounded corners*
1,1,$1+$1,$2,$3*
1,1,$1+$1,$4,$5*
1,1,$1+$1,$6,$7*
1,1,$1+$1,$8,$9*
0 Add four rect primitives between the rounded corners*
20,1,$1+$1,$2,$3,$4,$5,0*
20,1,$1+$1,$4,$5,$6,$7,0*
20,1,$1+$1,$6,$7,$8,$9,0*
20,1,$1+$1,$8,$9,$2,$3,0*%
%AMFreePoly0*
4,1,17,1.239561,1.918663,1.288452,1.862240,1.300426,1.807198,1.300426,-1.628440,1.279392,-1.700074,1.222969,-1.748965,1.167927,-1.760939,-1.241481,-1.760939,-1.313115,-1.739905,-1.362006,-1.683482,-1.373980,-1.628440,-1.373980,1.807198,-1.352946,1.878832,-1.296523,1.927723,-1.241481,1.939697,1.167927,1.939697,1.239561,1.918663,1.239561,1.918663,$1*%
%AMFreePoly1*
4,1,21,1.481047,1.611465,1.529938,1.555042,1.541912,1.500000,1.541912,-2.069488,1.520878,-2.141122,1.464455,-2.190013,1.409413,-2.201987,-1.000000,-2.201987,-1.071634,-2.180953,-1.120525,-2.124530,-1.132499,-2.069488,-1.132499,-0.453074,-1.143000,-0.381000,-1.143000,0.381000,-1.132499,0.453074,-1.132499,1.500000,-1.111465,1.571634,-1.055042,1.620525,-1.000000,1.632499,1.409413,1.632499,
1.481047,1.611465,1.481047,1.611465,$1*%
%AMFreePoly2*
4,1,19,0.500000,-0.750000,0.000000,-0.750000,0.000000,-0.744911,-0.071157,-0.744911,-0.207708,-0.704816,-0.327430,-0.627875,-0.420627,-0.520320,-0.479746,-0.390866,-0.500000,-0.250000,-0.500000,0.250000,-0.479746,0.390866,-0.420627,0.520320,-0.327430,0.627875,-0.207708,0.704816,-0.071157,0.744911,0.000000,0.744911,0.000000,0.750000,0.500000,0.750000,0.500000,-0.750000,0.500000,-0.750000,
$1*%
%AMFreePoly3*
4,1,19,0.000000,0.744911,0.071157,0.744911,0.207708,0.704816,0.327430,0.627875,0.420627,0.520320,0.479746,0.390866,0.500000,0.250000,0.500000,-0.250000,0.479746,-0.390866,0.420627,-0.520320,0.327430,-0.627875,0.207708,-0.704816,0.071157,-0.744911,0.000000,-0.744911,0.000000,-0.750000,-0.500000,-0.750000,-0.500000,0.750000,0.000000,0.750000,0.000000,0.744911,0.000000,0.744911,
$1*%
G04 Aperture macros list end*
%ADD10C,0.150000*%
%ADD11C,0.100000*%
%ADD12C,0.120000*%
%ADD13C,0.191421*%
%ADD14R,0.950000X3.300000*%
%ADD15RoundRect,0.160000X0.240000X0.715000X-0.240000X0.715000X-0.240000X-0.715000X0.240000X-0.715000X0*%
%ADD16RoundRect,0.160000X-0.240000X-0.715000X0.240000X-0.715000X0.240000X0.715000X-0.240000X0.715000X0*%
%ADD17RoundRect,0.160000X0.715000X-0.240000X0.715000X0.240000X-0.715000X0.240000X-0.715000X-0.240000X0*%
%ADD18RoundRect,0.160000X-0.715000X0.240000X-0.715000X-0.240000X0.715000X-0.240000X0.715000X0.240000X0*%
%ADD19RoundRect,0.055000X-0.055000X-0.441750X0.055000X-0.441750X0.055000X0.441750X-0.055000X0.441750X0*%
%ADD20RoundRect,0.052500X-0.052500X-0.444250X0.052500X-0.444250X0.052500X0.444250X-0.052500X0.444250X0*%
%ADD21RoundRect,0.055000X0.441750X-0.055000X0.441750X0.055000X-0.441750X0.055000X-0.441750X-0.055000X0*%
%ADD22RoundRect,0.052500X0.444250X-0.052500X0.444250X0.052500X-0.444250X0.052500X-0.444250X-0.052500X0*%
%ADD23C,0.600000*%
%ADD24R,1.133333X1.133333*%
%ADD25R,0.800000X0.500000*%
%ADD26R,1.700000X0.700000*%
%ADD27C,1.500000*%
%ADD28RoundRect,0.150000X0.650000X0.150000X-0.650000X0.150000X-0.650000X-0.150000X0.650000X-0.150000X0*%
%ADD29RoundRect,0.150000X0.150000X-0.587500X0.150000X0.587500X-0.150000X0.587500X-0.150000X-0.587500X0*%
%ADD30RoundRect,0.250000X0.475000X-0.250000X0.475000X0.250000X-0.475000X0.250000X-0.475000X-0.250000X0*%
%ADD31RoundRect,0.135000X-0.135000X-0.185000X0.135000X-0.185000X0.135000X0.185000X-0.135000X0.185000X0*%
%ADD32RoundRect,0.135000X0.135000X0.185000X-0.135000X0.185000X-0.135000X-0.185000X0.135000X-0.185000X0*%
%ADD33RoundRect,0.140000X-0.140000X-0.170000X0.140000X-0.170000X0.140000X0.170000X-0.140000X0.170000X0*%
%ADD34RoundRect,0.135000X0.185000X-0.135000X0.185000X0.135000X-0.185000X0.135000X-0.185000X-0.135000X0*%
%ADD35RoundRect,0.140000X0.170000X-0.140000X0.170000X0.140000X-0.170000X0.140000X-0.170000X-0.140000X0*%
%ADD36RoundRect,0.150000X0.587500X0.150000X-0.587500X0.150000X-0.587500X-0.150000X0.587500X-0.150000X0*%
%ADD37RoundRect,0.150000X-0.150000X0.512500X-0.150000X-0.512500X0.150000X-0.512500X0.150000X0.512500X0*%
%ADD38FreePoly0,180.000000*%
%ADD39FreePoly1,180.000000*%
%ADD40R,1.050000X0.650000*%
%ADD41R,0.450000X1.380000*%
%ADD42R,1.650000X1.300000*%
%ADD43R,1.425000X1.550000*%
%ADD44R,1.800000X1.900000*%
%ADD45R,1.000000X1.900000*%
%ADD46RoundRect,0.140000X-0.170000X0.140000X-0.170000X-0.140000X0.170000X-0.140000X0.170000X0.140000X0*%
%ADD47RoundRect,0.100000X1.150000X0.900000X-1.150000X0.900000X-1.150000X-0.900000X1.150000X-0.900000X0*%
%ADD48RoundRect,0.075000X0.675000X0.925000X-0.675000X0.925000X-0.675000X-0.925000X0.675000X-0.925000X0*%
%ADD49RoundRect,0.140000X0.140000X0.170000X-0.140000X0.170000X-0.140000X-0.170000X0.140000X-0.170000X0*%
%ADD50RoundRect,0.375000X-0.375000X0.625000X-0.375000X-0.625000X0.375000X-0.625000X0.375000X0.625000X0*%
%ADD51RoundRect,0.500000X-1.400000X0.500000X-1.400000X-0.500000X1.400000X-0.500000X1.400000X0.500000X0*%
%ADD52RoundRect,0.135000X-0.185000X0.135000X-0.185000X-0.135000X0.185000X-0.135000X0.185000X0.135000X0*%
%ADD53RoundRect,0.250000X1.000000X0.650000X-1.000000X0.650000X-1.000000X-0.650000X1.000000X-0.650000X0*%
%ADD54R,1.000000X3.150000*%
%ADD55RoundRect,0.250000X-0.475000X0.250000X-0.475000X-0.250000X0.475000X-0.250000X0.475000X0.250000X0*%
%ADD56RoundRect,0.250000X-0.250000X-0.475000X0.250000X-0.475000X0.250000X0.475000X-0.250000X0.475000X0*%
%ADD57RoundRect,0.550000X0.550000X1.925000X-0.550000X1.925000X-0.550000X-1.925000X0.550000X-1.925000X0*%
%ADD58FreePoly2,90.000000*%
%ADD59FreePoly3,90.000000*%
%ADD60RoundRect,0.250000X0.250000X0.475000X-0.250000X0.475000X-0.250000X-0.475000X0.250000X-0.475000X0*%
%ADD61RoundRect,0.147500X0.172500X-0.147500X0.172500X0.147500X-0.172500X0.147500X-0.172500X-0.147500X0*%
%ADD62RoundRect,0.250000X0.550000X0.250000X-0.550000X0.250000X-0.550000X-0.250000X0.550000X-0.250000X0*%
%ADD63RoundRect,0.250000X0.548250X0.250000X-0.548250X0.250000X-0.548250X-0.250000X0.548250X-0.250000X0*%
%ADD64RoundRect,0.150000X0.150000X-0.825000X0.150000X0.825000X-0.150000X0.825000X-0.150000X-0.825000X0*%
%ADD65R,1.200000X1.400000*%
G04 APERTURE END LIST*
D10*
X36666666Y-31054819D02*
X37142856Y-31054819D01*
X37142856Y-31054819D02*
X37142856Y-30054819D01*
X36380951Y-30150057D02*
X36333332Y-30102438D01*
X36333332Y-30102438D02*
X36238094Y-30054819D01*
X36238094Y-30054819D02*
X35999999Y-30054819D01*
X35999999Y-30054819D02*
X35904761Y-30102438D01*
X35904761Y-30102438D02*
X35857142Y-30150057D01*
X35857142Y-30150057D02*
X35809523Y-30245295D01*
X35809523Y-30245295D02*
X35809523Y-30340533D01*
X35809523Y-30340533D02*
X35857142Y-30483390D01*
X35857142Y-30483390D02*
X36428570Y-31054819D01*
X36428570Y-31054819D02*
X35809523Y-31054819D01*
X27988094Y-76704819D02*
X27988094Y-75704819D01*
X27988094Y-75704819D02*
X27749999Y-75704819D01*
X27749999Y-75704819D02*
X27607142Y-75752438D01*
X27607142Y-75752438D02*
X27511904Y-75847676D01*
X27511904Y-75847676D02*
X27464285Y-75942914D01*
X27464285Y-75942914D02*
X27416666Y-76133390D01*
X27416666Y-76133390D02*
X27416666Y-76276247D01*
X27416666Y-76276247D02*
X27464285Y-76466723D01*
X27464285Y-76466723D02*
X27511904Y-76561961D01*
X27511904Y-76561961D02*
X27607142Y-76657200D01*
X27607142Y-76657200D02*
X27749999Y-76704819D01*
X27749999Y-76704819D02*
X27988094Y-76704819D01*
X27035713Y-75800057D02*
X26988094Y-75752438D01*
X26988094Y-75752438D02*
X26892856Y-75704819D01*
X26892856Y-75704819D02*
X26654761Y-75704819D01*
X26654761Y-75704819D02*
X26559523Y-75752438D01*
X26559523Y-75752438D02*
X26511904Y-75800057D01*
X26511904Y-75800057D02*
X26464285Y-75895295D01*
X26464285Y-75895295D02*
X26464285Y-75990533D01*
X26464285Y-75990533D02*
X26511904Y-76133390D01*
X26511904Y-76133390D02*
X27083332Y-76704819D01*
X27083332Y-76704819D02*
X26464285Y-76704819D01*
X38988094Y-76704819D02*
X38988094Y-75704819D01*
X38988094Y-75704819D02*
X38749999Y-75704819D01*
X38749999Y-75704819D02*
X38607142Y-75752438D01*
X38607142Y-75752438D02*
X38511904Y-75847676D01*
X38511904Y-75847676D02*
X38464285Y-75942914D01*
X38464285Y-75942914D02*
X38416666Y-76133390D01*
X38416666Y-76133390D02*
X38416666Y-76276247D01*
X38416666Y-76276247D02*
X38464285Y-76466723D01*
X38464285Y-76466723D02*
X38511904Y-76561961D01*
X38511904Y-76561961D02*
X38607142Y-76657200D01*
X38607142Y-76657200D02*
X38749999Y-76704819D01*
X38749999Y-76704819D02*
X38988094Y-76704819D01*
X38083332Y-75704819D02*
X37464285Y-75704819D01*
X37464285Y-75704819D02*
X37797618Y-76085771D01*
X37797618Y-76085771D02*
X37654761Y-76085771D01*
X37654761Y-76085771D02*
X37559523Y-76133390D01*
X37559523Y-76133390D02*
X37511904Y-76181009D01*
X37511904Y-76181009D02*
X37464285Y-76276247D01*
X37464285Y-76276247D02*
X37464285Y-76514342D01*
X37464285Y-76514342D02*
X37511904Y-76609580D01*
X37511904Y-76609580D02*
X37559523Y-76657200D01*
X37559523Y-76657200D02*
X37654761Y-76704819D01*
X37654761Y-76704819D02*
X37940475Y-76704819D01*
X37940475Y-76704819D02*
X38035713Y-76657200D01*
X38035713Y-76657200D02*
X38083332Y-76609580D01*
X47238094Y-72984819D02*
X47238094Y-71984819D01*
X47238094Y-71984819D02*
X46999999Y-71984819D01*
X46999999Y-71984819D02*
X46857142Y-72032438D01*
X46857142Y-72032438D02*
X46761904Y-72127676D01*
X46761904Y-72127676D02*
X46714285Y-72222914D01*
X46714285Y-72222914D02*
X46666666Y-72413390D01*
X46666666Y-72413390D02*
X46666666Y-72556247D01*
X46666666Y-72556247D02*
X46714285Y-72746723D01*
X46714285Y-72746723D02*
X46761904Y-72841961D01*
X46761904Y-72841961D02*
X46857142Y-72937200D01*
X46857142Y-72937200D02*
X46999999Y-72984819D01*
X46999999Y-72984819D02*
X47238094Y-72984819D01*
X45809523Y-72318152D02*
X45809523Y-72984819D01*
X46047618Y-71937200D02*
X46285713Y-72651485D01*
X46285713Y-72651485D02*
X45666666Y-72651485D01*
X35763094Y-98634819D02*
X35763094Y-97634819D01*
X35763094Y-97634819D02*
X35524999Y-97634819D01*
X35524999Y-97634819D02*
X35382142Y-97682438D01*
X35382142Y-97682438D02*
X35286904Y-97777676D01*
X35286904Y-97777676D02*
X35239285Y-97872914D01*
X35239285Y-97872914D02*
X35191666Y-98063390D01*
X35191666Y-98063390D02*
X35191666Y-98206247D01*
X35191666Y-98206247D02*
X35239285Y-98396723D01*
X35239285Y-98396723D02*
X35286904Y-98491961D01*
X35286904Y-98491961D02*
X35382142Y-98587200D01*
X35382142Y-98587200D02*
X35524999Y-98634819D01*
X35524999Y-98634819D02*
X35763094Y-98634819D01*
X34858332Y-97634819D02*
X34191666Y-97634819D01*
X34191666Y-97634819D02*
X34620237Y-98634819D01*
X58238094Y-76649819D02*
X58238094Y-75649819D01*
X58238094Y-75649819D02*
X57999999Y-75649819D01*
X57999999Y-75649819D02*
X57857142Y-75697438D01*
X57857142Y-75697438D02*
X57761904Y-75792676D01*
X57761904Y-75792676D02*
X57714285Y-75887914D01*
X57714285Y-75887914D02*
X57666666Y-76078390D01*
X57666666Y-76078390D02*
X57666666Y-76221247D01*
X57666666Y-76221247D02*
X57714285Y-76411723D01*
X57714285Y-76411723D02*
X57761904Y-76506961D01*
X57761904Y-76506961D02*
X57857142Y-76602200D01*
X57857142Y-76602200D02*
X57999999Y-76649819D01*
X57999999Y-76649819D02*
X58238094Y-76649819D01*
X57190475Y-76649819D02*
X56999999Y-76649819D01*
X56999999Y-76649819D02*
X56904761Y-76602200D01*
X56904761Y-76602200D02*
X56857142Y-76554580D01*
X56857142Y-76554580D02*
X56761904Y-76411723D01*
X56761904Y-76411723D02*
X56714285Y-76221247D01*
X56714285Y-76221247D02*
X56714285Y-75840295D01*
X56714285Y-75840295D02*
X56761904Y-75745057D01*
X56761904Y-75745057D02*
X56809523Y-75697438D01*
X56809523Y-75697438D02*
X56904761Y-75649819D01*
X56904761Y-75649819D02*
X57095237Y-75649819D01*
X57095237Y-75649819D02*
X57190475Y-75697438D01*
X57190475Y-75697438D02*
X57238094Y-75745057D01*
X57238094Y-75745057D02*
X57285713Y-75840295D01*
X57285713Y-75840295D02*
X57285713Y-76078390D01*
X57285713Y-76078390D02*
X57238094Y-76173628D01*
X57238094Y-76173628D02*
X57190475Y-76221247D01*
X57190475Y-76221247D02*
X57095237Y-76268866D01*
X57095237Y-76268866D02*
X56904761Y-76268866D01*
X56904761Y-76268866D02*
X56809523Y-76221247D01*
X56809523Y-76221247D02*
X56761904Y-76173628D01*
X56761904Y-76173628D02*
X56714285Y-76078390D01*
X37024819Y-112761905D02*
X36024819Y-112761905D01*
X36024819Y-112761905D02*
X36024819Y-113000000D01*
X36024819Y-113000000D02*
X36072438Y-113142857D01*
X36072438Y-113142857D02*
X36167676Y-113238095D01*
X36167676Y-113238095D02*
X36262914Y-113285714D01*
X36262914Y-113285714D02*
X36453390Y-113333333D01*
X36453390Y-113333333D02*
X36596247Y-113333333D01*
X36596247Y-113333333D02*
X36786723Y-113285714D01*
X36786723Y-113285714D02*
X36881961Y-113238095D01*
X36881961Y-113238095D02*
X36977200Y-113142857D01*
X36977200Y-113142857D02*
X37024819Y-113000000D01*
X37024819Y-113000000D02*
X37024819Y-112761905D01*
X36024819Y-114238095D02*
X36024819Y-113761905D01*
X36024819Y-113761905D02*
X36501009Y-113714286D01*
X36501009Y-113714286D02*
X36453390Y-113761905D01*
X36453390Y-113761905D02*
X36405771Y-113857143D01*
X36405771Y-113857143D02*
X36405771Y-114095238D01*
X36405771Y-114095238D02*
X36453390Y-114190476D01*
X36453390Y-114190476D02*
X36501009Y-114238095D01*
X36501009Y-114238095D02*
X36596247Y-114285714D01*
X36596247Y-114285714D02*
X36834342Y-114285714D01*
X36834342Y-114285714D02*
X36929580Y-114238095D01*
X36929580Y-114238095D02*
X36977200Y-114190476D01*
X36977200Y-114190476D02*
X37024819Y-114095238D01*
X37024819Y-114095238D02*
X37024819Y-113857143D01*
X37024819Y-113857143D02*
X36977200Y-113761905D01*
X36977200Y-113761905D02*
X36929580Y-113714286D01*
X48884819Y-112611905D02*
X47884819Y-112611905D01*
X47884819Y-112611905D02*
X47884819Y-112850000D01*
X47884819Y-112850000D02*
X47932438Y-112992857D01*
X47932438Y-112992857D02*
X48027676Y-113088095D01*
X48027676Y-113088095D02*
X48122914Y-113135714D01*
X48122914Y-113135714D02*
X48313390Y-113183333D01*
X48313390Y-113183333D02*
X48456247Y-113183333D01*
X48456247Y-113183333D02*
X48646723Y-113135714D01*
X48646723Y-113135714D02*
X48741961Y-113088095D01*
X48741961Y-113088095D02*
X48837200Y-112992857D01*
X48837200Y-112992857D02*
X48884819Y-112850000D01*
X48884819Y-112850000D02*
X48884819Y-112611905D01*
X47884819Y-114040476D02*
X47884819Y-113850000D01*
X47884819Y-113850000D02*
X47932438Y-113754762D01*
X47932438Y-113754762D02*
X47980057Y-113707143D01*
X47980057Y-113707143D02*
X48122914Y-113611905D01*
X48122914Y-113611905D02*
X48313390Y-113564286D01*
X48313390Y-113564286D02*
X48694342Y-113564286D01*
X48694342Y-113564286D02*
X48789580Y-113611905D01*
X48789580Y-113611905D02*
X48837200Y-113659524D01*
X48837200Y-113659524D02*
X48884819Y-113754762D01*
X48884819Y-113754762D02*
X48884819Y-113945238D01*
X48884819Y-113945238D02*
X48837200Y-114040476D01*
X48837200Y-114040476D02*
X48789580Y-114088095D01*
X48789580Y-114088095D02*
X48694342Y-114135714D01*
X48694342Y-114135714D02*
X48456247Y-114135714D01*
X48456247Y-114135714D02*
X48361009Y-114088095D01*
X48361009Y-114088095D02*
X48313390Y-114040476D01*
X48313390Y-114040476D02*
X48265771Y-113945238D01*
X48265771Y-113945238D02*
X48265771Y-113754762D01*
X48265771Y-113754762D02*
X48313390Y-113659524D01*
X48313390Y-113659524D02*
X48361009Y-113611905D01*
X48361009Y-113611905D02*
X48456247Y-113564286D01*
X50704819Y-102261905D02*
X49704819Y-102261905D01*
X49704819Y-102261905D02*
X49704819Y-102500000D01*
X49704819Y-102500000D02*
X49752438Y-102642857D01*
X49752438Y-102642857D02*
X49847676Y-102738095D01*
X49847676Y-102738095D02*
X49942914Y-102785714D01*
X49942914Y-102785714D02*
X50133390Y-102833333D01*
X50133390Y-102833333D02*
X50276247Y-102833333D01*
X50276247Y-102833333D02*
X50466723Y-102785714D01*
X50466723Y-102785714D02*
X50561961Y-102738095D01*
X50561961Y-102738095D02*
X50657200Y-102642857D01*
X50657200Y-102642857D02*
X50704819Y-102500000D01*
X50704819Y-102500000D02*
X50704819Y-102261905D01*
X50133390Y-103404762D02*
X50085771Y-103309524D01*
X50085771Y-103309524D02*
X50038152Y-103261905D01*
X50038152Y-103261905D02*
X49942914Y-103214286D01*
X49942914Y-103214286D02*
X49895295Y-103214286D01*
X49895295Y-103214286D02*
X49800057Y-103261905D01*
X49800057Y-103261905D02*
X49752438Y-103309524D01*
X49752438Y-103309524D02*
X49704819Y-103404762D01*
X49704819Y-103404762D02*
X49704819Y-103595238D01*
X49704819Y-103595238D02*
X49752438Y-103690476D01*
X49752438Y-103690476D02*
X49800057Y-103738095D01*
X49800057Y-103738095D02*
X49895295Y-103785714D01*
X49895295Y-103785714D02*
X49942914Y-103785714D01*
X49942914Y-103785714D02*
X50038152Y-103738095D01*
X50038152Y-103738095D02*
X50085771Y-103690476D01*
X50085771Y-103690476D02*
X50133390Y-103595238D01*
X50133390Y-103595238D02*
X50133390Y-103404762D01*
X50133390Y-103404762D02*
X50181009Y-103309524D01*
X50181009Y-103309524D02*
X50228628Y-103261905D01*
X50228628Y-103261905D02*
X50323866Y-103214286D01*
X50323866Y-103214286D02*
X50514342Y-103214286D01*
X50514342Y-103214286D02*
X50609580Y-103261905D01*
X50609580Y-103261905D02*
X50657200Y-103309524D01*
X50657200Y-103309524D02*
X50704819Y-103404762D01*
X50704819Y-103404762D02*
X50704819Y-103595238D01*
X50704819Y-103595238D02*
X50657200Y-103690476D01*
X50657200Y-103690476D02*
X50609580Y-103738095D01*
X50609580Y-103738095D02*
X50514342Y-103785714D01*
X50514342Y-103785714D02*
X50323866Y-103785714D01*
X50323866Y-103785714D02*
X50228628Y-103738095D01*
X50228628Y-103738095D02*
X50181009Y-103690476D01*
X50181009Y-103690476D02*
X50133390Y-103595238D01*
X47511904Y-65954819D02*
X47511904Y-66764342D01*
X47511904Y-66764342D02*
X47464285Y-66859580D01*
X47464285Y-66859580D02*
X47416666Y-66907200D01*
X47416666Y-66907200D02*
X47321428Y-66954819D01*
X47321428Y-66954819D02*
X47130952Y-66954819D01*
X47130952Y-66954819D02*
X47035714Y-66907200D01*
X47035714Y-66907200D02*
X46988095Y-66859580D01*
X46988095Y-66859580D02*
X46940476Y-66764342D01*
X46940476Y-66764342D02*
X46940476Y-65954819D01*
X45988095Y-65954819D02*
X46464285Y-65954819D01*
X46464285Y-65954819D02*
X46511904Y-66431009D01*
X46511904Y-66431009D02*
X46464285Y-66383390D01*
X46464285Y-66383390D02*
X46369047Y-66335771D01*
X46369047Y-66335771D02*
X46130952Y-66335771D01*
X46130952Y-66335771D02*
X46035714Y-66383390D01*
X46035714Y-66383390D02*
X45988095Y-66431009D01*
X45988095Y-66431009D02*
X45940476Y-66526247D01*
X45940476Y-66526247D02*
X45940476Y-66764342D01*
X45940476Y-66764342D02*
X45988095Y-66859580D01*
X45988095Y-66859580D02*
X46035714Y-66907200D01*
X46035714Y-66907200D02*
X46130952Y-66954819D01*
X46130952Y-66954819D02*
X46369047Y-66954819D01*
X46369047Y-66954819D02*
X46464285Y-66907200D01*
X46464285Y-66907200D02*
X46511904Y-66859580D01*
X53714819Y-56753333D02*
X53714819Y-56277143D01*
X53714819Y-56277143D02*
X52714819Y-56277143D01*
X53714819Y-57610476D02*
X53714819Y-57039048D01*
X53714819Y-57324762D02*
X52714819Y-57324762D01*
X52714819Y-57324762D02*
X52857676Y-57229524D01*
X52857676Y-57229524D02*
X52952914Y-57134286D01*
X52952914Y-57134286D02*
X53000533Y-57039048D01*
X57561904Y-63084819D02*
X57561904Y-63894342D01*
X57561904Y-63894342D02*
X57514285Y-63989580D01*
X57514285Y-63989580D02*
X57466666Y-64037200D01*
X57466666Y-64037200D02*
X57371428Y-64084819D01*
X57371428Y-64084819D02*
X57180952Y-64084819D01*
X57180952Y-64084819D02*
X57085714Y-64037200D01*
X57085714Y-64037200D02*
X57038095Y-63989580D01*
X57038095Y-63989580D02*
X56990476Y-63894342D01*
X56990476Y-63894342D02*
X56990476Y-63084819D01*
X55990476Y-64084819D02*
X56561904Y-64084819D01*
X56276190Y-64084819D02*
X56276190Y-63084819D01*
X56276190Y-63084819D02*
X56371428Y-63227676D01*
X56371428Y-63227676D02*
X56466666Y-63322914D01*
X56466666Y-63322914D02*
X56561904Y-63370533D01*
X31695238Y-71500057D02*
X31790476Y-71452438D01*
X31790476Y-71452438D02*
X31885714Y-71357200D01*
X31885714Y-71357200D02*
X32028571Y-71214342D01*
X32028571Y-71214342D02*
X32123809Y-71166723D01*
X32123809Y-71166723D02*
X32219047Y-71166723D01*
X32171428Y-71404819D02*
X32266666Y-71357200D01*
X32266666Y-71357200D02*
X32361904Y-71261961D01*
X32361904Y-71261961D02*
X32409523Y-71071485D01*
X32409523Y-71071485D02*
X32409523Y-70738152D01*
X32409523Y-70738152D02*
X32361904Y-70547676D01*
X32361904Y-70547676D02*
X32266666Y-70452438D01*
X32266666Y-70452438D02*
X32171428Y-70404819D01*
X32171428Y-70404819D02*
X31980952Y-70404819D01*
X31980952Y-70404819D02*
X31885714Y-70452438D01*
X31885714Y-70452438D02*
X31790476Y-70547676D01*
X31790476Y-70547676D02*
X31742857Y-70738152D01*
X31742857Y-70738152D02*
X31742857Y-71071485D01*
X31742857Y-71071485D02*
X31790476Y-71261961D01*
X31790476Y-71261961D02*
X31885714Y-71357200D01*
X31885714Y-71357200D02*
X31980952Y-71404819D01*
X31980952Y-71404819D02*
X32171428Y-71404819D01*
X31361904Y-70500057D02*
X31314285Y-70452438D01*
X31314285Y-70452438D02*
X31219047Y-70404819D01*
X31219047Y-70404819D02*
X30980952Y-70404819D01*
X30980952Y-70404819D02*
X30885714Y-70452438D01*
X30885714Y-70452438D02*
X30838095Y-70500057D01*
X30838095Y-70500057D02*
X30790476Y-70595295D01*
X30790476Y-70595295D02*
X30790476Y-70690533D01*
X30790476Y-70690533D02*
X30838095Y-70833390D01*
X30838095Y-70833390D02*
X31409523Y-71404819D01*
X31409523Y-71404819D02*
X30790476Y-71404819D01*
X47345238Y-103150057D02*
X47440476Y-103102438D01*
X47440476Y-103102438D02*
X47535714Y-103007200D01*
X47535714Y-103007200D02*
X47678571Y-102864342D01*
X47678571Y-102864342D02*
X47773809Y-102816723D01*
X47773809Y-102816723D02*
X47869047Y-102816723D01*
X47821428Y-103054819D02*
X47916666Y-103007200D01*
X47916666Y-103007200D02*
X48011904Y-102911961D01*
X48011904Y-102911961D02*
X48059523Y-102721485D01*
X48059523Y-102721485D02*
X48059523Y-102388152D01*
X48059523Y-102388152D02*
X48011904Y-102197676D01*
X48011904Y-102197676D02*
X47916666Y-102102438D01*
X47916666Y-102102438D02*
X47821428Y-102054819D01*
X47821428Y-102054819D02*
X47630952Y-102054819D01*
X47630952Y-102054819D02*
X47535714Y-102102438D01*
X47535714Y-102102438D02*
X47440476Y-102197676D01*
X47440476Y-102197676D02*
X47392857Y-102388152D01*
X47392857Y-102388152D02*
X47392857Y-102721485D01*
X47392857Y-102721485D02*
X47440476Y-102911961D01*
X47440476Y-102911961D02*
X47535714Y-103007200D01*
X47535714Y-103007200D02*
X47630952Y-103054819D01*
X47630952Y-103054819D02*
X47821428Y-103054819D01*
X47059523Y-102054819D02*
X46392857Y-102054819D01*
X46392857Y-102054819D02*
X46821428Y-103054819D01*
X27359580Y-49357142D02*
X27407200Y-49309523D01*
X27407200Y-49309523D02*
X27454819Y-49166666D01*
X27454819Y-49166666D02*
X27454819Y-49071428D01*
X27454819Y-49071428D02*
X27407200Y-48928571D01*
X27407200Y-48928571D02*
X27311961Y-48833333D01*
X27311961Y-48833333D02*
X27216723Y-48785714D01*
X27216723Y-48785714D02*
X27026247Y-48738095D01*
X27026247Y-48738095D02*
X26883390Y-48738095D01*
X26883390Y-48738095D02*
X26692914Y-48785714D01*
X26692914Y-48785714D02*
X26597676Y-48833333D01*
X26597676Y-48833333D02*
X26502438Y-48928571D01*
X26502438Y-48928571D02*
X26454819Y-49071428D01*
X26454819Y-49071428D02*
X26454819Y-49166666D01*
X26454819Y-49166666D02*
X26502438Y-49309523D01*
X26502438Y-49309523D02*
X26550057Y-49357142D01*
X26550057Y-49738095D02*
X26502438Y-49785714D01*
X26502438Y-49785714D02*
X26454819Y-49880952D01*
X26454819Y-49880952D02*
X26454819Y-50119047D01*
X26454819Y-50119047D02*
X26502438Y-50214285D01*
X26502438Y-50214285D02*
X26550057Y-50261904D01*
X26550057Y-50261904D02*
X26645295Y-50309523D01*
X26645295Y-50309523D02*
X26740533Y-50309523D01*
X26740533Y-50309523D02*
X26883390Y-50261904D01*
X26883390Y-50261904D02*
X27454819Y-49690476D01*
X27454819Y-49690476D02*
X27454819Y-50309523D01*
X26454819Y-51166666D02*
X26454819Y-50976190D01*
X26454819Y-50976190D02*
X26502438Y-50880952D01*
X26502438Y-50880952D02*
X26550057Y-50833333D01*
X26550057Y-50833333D02*
X26692914Y-50738095D01*
X26692914Y-50738095D02*
X26883390Y-50690476D01*
X26883390Y-50690476D02*
X27264342Y-50690476D01*
X27264342Y-50690476D02*
X27359580Y-50738095D01*
X27359580Y-50738095D02*
X27407200Y-50785714D01*
X27407200Y-50785714D02*
X27454819Y-50880952D01*
X27454819Y-50880952D02*
X27454819Y-51071428D01*
X27454819Y-51071428D02*
X27407200Y-51166666D01*
X27407200Y-51166666D02*
X27359580Y-51214285D01*
X27359580Y-51214285D02*
X27264342Y-51261904D01*
X27264342Y-51261904D02*
X27026247Y-51261904D01*
X27026247Y-51261904D02*
X26931009Y-51214285D01*
X26931009Y-51214285D02*
X26883390Y-51166666D01*
X26883390Y-51166666D02*
X26835771Y-51071428D01*
X26835771Y-51071428D02*
X26835771Y-50880952D01*
X26835771Y-50880952D02*
X26883390Y-50785714D01*
X26883390Y-50785714D02*
X26931009Y-50738095D01*
X26931009Y-50738095D02*
X27026247Y-50690476D01*
X48142857Y-22454819D02*
X48476190Y-21978628D01*
X48714285Y-22454819D02*
X48714285Y-21454819D01*
X48714285Y-21454819D02*
X48333333Y-21454819D01*
X48333333Y-21454819D02*
X48238095Y-21502438D01*
X48238095Y-21502438D02*
X48190476Y-21550057D01*
X48190476Y-21550057D02*
X48142857Y-21645295D01*
X48142857Y-21645295D02*
X48142857Y-21788152D01*
X48142857Y-21788152D02*
X48190476Y-21883390D01*
X48190476Y-21883390D02*
X48238095Y-21931009D01*
X48238095Y-21931009D02*
X48333333Y-21978628D01*
X48333333Y-21978628D02*
X48714285Y-21978628D01*
X47190476Y-22454819D02*
X47761904Y-22454819D01*
X47476190Y-22454819D02*
X47476190Y-21454819D01*
X47476190Y-21454819D02*
X47571428Y-21597676D01*
X47571428Y-21597676D02*
X47666666Y-21692914D01*
X47666666Y-21692914D02*
X47761904Y-21740533D01*
X46333333Y-21788152D02*
X46333333Y-22454819D01*
X46571428Y-21407200D02*
X46809523Y-22121485D01*
X46809523Y-22121485D02*
X46190476Y-22121485D01*
X31232857Y-117624819D02*
X31566190Y-117148628D01*
X31804285Y-117624819D02*
X31804285Y-116624819D01*
X31804285Y-116624819D02*
X31423333Y-116624819D01*
X31423333Y-116624819D02*
X31328095Y-116672438D01*
X31328095Y-116672438D02*
X31280476Y-116720057D01*
X31280476Y-116720057D02*
X31232857Y-116815295D01*
X31232857Y-116815295D02*
X31232857Y-116958152D01*
X31232857Y-116958152D02*
X31280476Y-117053390D01*
X31280476Y-117053390D02*
X31328095Y-117101009D01*
X31328095Y-117101009D02*
X31423333Y-117148628D01*
X31423333Y-117148628D02*
X31804285Y-117148628D01*
X30375714Y-116958152D02*
X30375714Y-117624819D01*
X30613809Y-116577200D02*
X30851904Y-117291485D01*
X30851904Y-117291485D02*
X30232857Y-117291485D01*
X29423333Y-116958152D02*
X29423333Y-117624819D01*
X29661428Y-116577200D02*
X29899523Y-117291485D01*
X29899523Y-117291485D02*
X29280476Y-117291485D01*
X51342857Y-96054819D02*
X51676190Y-95578628D01*
X51914285Y-96054819D02*
X51914285Y-95054819D01*
X51914285Y-95054819D02*
X51533333Y-95054819D01*
X51533333Y-95054819D02*
X51438095Y-95102438D01*
X51438095Y-95102438D02*
X51390476Y-95150057D01*
X51390476Y-95150057D02*
X51342857Y-95245295D01*
X51342857Y-95245295D02*
X51342857Y-95388152D01*
X51342857Y-95388152D02*
X51390476Y-95483390D01*
X51390476Y-95483390D02*
X51438095Y-95531009D01*
X51438095Y-95531009D02*
X51533333Y-95578628D01*
X51533333Y-95578628D02*
X51914285Y-95578628D01*
X51009523Y-95054819D02*
X50390476Y-95054819D01*
X50390476Y-95054819D02*
X50723809Y-95435771D01*
X50723809Y-95435771D02*
X50580952Y-95435771D01*
X50580952Y-95435771D02*
X50485714Y-95483390D01*
X50485714Y-95483390D02*
X50438095Y-95531009D01*
X50438095Y-95531009D02*
X50390476Y-95626247D01*
X50390476Y-95626247D02*
X50390476Y-95864342D01*
X50390476Y-95864342D02*
X50438095Y-95959580D01*
X50438095Y-95959580D02*
X50485714Y-96007200D01*
X50485714Y-96007200D02*
X50580952Y-96054819D01*
X50580952Y-96054819D02*
X50866666Y-96054819D01*
X50866666Y-96054819D02*
X50961904Y-96007200D01*
X50961904Y-96007200D02*
X51009523Y-95959580D01*
X49485714Y-95054819D02*
X49961904Y-95054819D01*
X49961904Y-95054819D02*
X50009523Y-95531009D01*
X50009523Y-95531009D02*
X49961904Y-95483390D01*
X49961904Y-95483390D02*
X49866666Y-95435771D01*
X49866666Y-95435771D02*
X49628571Y-95435771D01*
X49628571Y-95435771D02*
X49533333Y-95483390D01*
X49533333Y-95483390D02*
X49485714Y-95531009D01*
X49485714Y-95531009D02*
X49438095Y-95626247D01*
X49438095Y-95626247D02*
X49438095Y-95864342D01*
X49438095Y-95864342D02*
X49485714Y-95959580D01*
X49485714Y-95959580D02*
X49533333Y-96007200D01*
X49533333Y-96007200D02*
X49628571Y-96054819D01*
X49628571Y-96054819D02*
X49866666Y-96054819D01*
X49866666Y-96054819D02*
X49961904Y-96007200D01*
X49961904Y-96007200D02*
X50009523Y-95959580D01*
X39242857Y-90454819D02*
X39576190Y-89978628D01*
X39814285Y-90454819D02*
X39814285Y-89454819D01*
X39814285Y-89454819D02*
X39433333Y-89454819D01*
X39433333Y-89454819D02*
X39338095Y-89502438D01*
X39338095Y-89502438D02*
X39290476Y-89550057D01*
X39290476Y-89550057D02*
X39242857Y-89645295D01*
X39242857Y-89645295D02*
X39242857Y-89788152D01*
X39242857Y-89788152D02*
X39290476Y-89883390D01*
X39290476Y-89883390D02*
X39338095Y-89931009D01*
X39338095Y-89931009D02*
X39433333Y-89978628D01*
X39433333Y-89978628D02*
X39814285Y-89978628D01*
X38338095Y-89454819D02*
X38814285Y-89454819D01*
X38814285Y-89454819D02*
X38861904Y-89931009D01*
X38861904Y-89931009D02*
X38814285Y-89883390D01*
X38814285Y-89883390D02*
X38719047Y-89835771D01*
X38719047Y-89835771D02*
X38480952Y-89835771D01*
X38480952Y-89835771D02*
X38385714Y-89883390D01*
X38385714Y-89883390D02*
X38338095Y-89931009D01*
X38338095Y-89931009D02*
X38290476Y-90026247D01*
X38290476Y-90026247D02*
X38290476Y-90264342D01*
X38290476Y-90264342D02*
X38338095Y-90359580D01*
X38338095Y-90359580D02*
X38385714Y-90407200D01*
X38385714Y-90407200D02*
X38480952Y-90454819D01*
X38480952Y-90454819D02*
X38719047Y-90454819D01*
X38719047Y-90454819D02*
X38814285Y-90407200D01*
X38814285Y-90407200D02*
X38861904Y-90359580D01*
X37433333Y-89788152D02*
X37433333Y-90454819D01*
X37671428Y-89407200D02*
X37909523Y-90121485D01*
X37909523Y-90121485D02*
X37290476Y-90121485D01*
X50207857Y-62069580D02*
X50255476Y-62117200D01*
X50255476Y-62117200D02*
X50398333Y-62164819D01*
X50398333Y-62164819D02*
X50493571Y-62164819D01*
X50493571Y-62164819D02*
X50636428Y-62117200D01*
X50636428Y-62117200D02*
X50731666Y-62021961D01*
X50731666Y-62021961D02*
X50779285Y-61926723D01*
X50779285Y-61926723D02*
X50826904Y-61736247D01*
X50826904Y-61736247D02*
X50826904Y-61593390D01*
X50826904Y-61593390D02*
X50779285Y-61402914D01*
X50779285Y-61402914D02*
X50731666Y-61307676D01*
X50731666Y-61307676D02*
X50636428Y-61212438D01*
X50636428Y-61212438D02*
X50493571Y-61164819D01*
X50493571Y-61164819D02*
X50398333Y-61164819D01*
X50398333Y-61164819D02*
X50255476Y-61212438D01*
X50255476Y-61212438D02*
X50207857Y-61260057D01*
X49255476Y-62164819D02*
X49826904Y-62164819D01*
X49541190Y-62164819D02*
X49541190Y-61164819D01*
X49541190Y-61164819D02*
X49636428Y-61307676D01*
X49636428Y-61307676D02*
X49731666Y-61402914D01*
X49731666Y-61402914D02*
X49826904Y-61450533D01*
X48874523Y-61260057D02*
X48826904Y-61212438D01*
X48826904Y-61212438D02*
X48731666Y-61164819D01*
X48731666Y-61164819D02*
X48493571Y-61164819D01*
X48493571Y-61164819D02*
X48398333Y-61212438D01*
X48398333Y-61212438D02*
X48350714Y-61260057D01*
X48350714Y-61260057D02*
X48303095Y-61355295D01*
X48303095Y-61355295D02*
X48303095Y-61450533D01*
X48303095Y-61450533D02*
X48350714Y-61593390D01*
X48350714Y-61593390D02*
X48922142Y-62164819D01*
X48922142Y-62164819D02*
X48303095Y-62164819D01*
X55332857Y-101824819D02*
X55666190Y-101348628D01*
X55904285Y-101824819D02*
X55904285Y-100824819D01*
X55904285Y-100824819D02*
X55523333Y-100824819D01*
X55523333Y-100824819D02*
X55428095Y-100872438D01*
X55428095Y-100872438D02*
X55380476Y-100920057D01*
X55380476Y-100920057D02*
X55332857Y-101015295D01*
X55332857Y-101015295D02*
X55332857Y-101158152D01*
X55332857Y-101158152D02*
X55380476Y-101253390D01*
X55380476Y-101253390D02*
X55428095Y-101301009D01*
X55428095Y-101301009D02*
X55523333Y-101348628D01*
X55523333Y-101348628D02*
X55904285Y-101348628D01*
X54428095Y-100824819D02*
X54904285Y-100824819D01*
X54904285Y-100824819D02*
X54951904Y-101301009D01*
X54951904Y-101301009D02*
X54904285Y-101253390D01*
X54904285Y-101253390D02*
X54809047Y-101205771D01*
X54809047Y-101205771D02*
X54570952Y-101205771D01*
X54570952Y-101205771D02*
X54475714Y-101253390D01*
X54475714Y-101253390D02*
X54428095Y-101301009D01*
X54428095Y-101301009D02*
X54380476Y-101396247D01*
X54380476Y-101396247D02*
X54380476Y-101634342D01*
X54380476Y-101634342D02*
X54428095Y-101729580D01*
X54428095Y-101729580D02*
X54475714Y-101777200D01*
X54475714Y-101777200D02*
X54570952Y-101824819D01*
X54570952Y-101824819D02*
X54809047Y-101824819D01*
X54809047Y-101824819D02*
X54904285Y-101777200D01*
X54904285Y-101777200D02*
X54951904Y-101729580D01*
X53999523Y-100920057D02*
X53951904Y-100872438D01*
X53951904Y-100872438D02*
X53856666Y-100824819D01*
X53856666Y-100824819D02*
X53618571Y-100824819D01*
X53618571Y-100824819D02*
X53523333Y-100872438D01*
X53523333Y-100872438D02*
X53475714Y-100920057D01*
X53475714Y-100920057D02*
X53428095Y-101015295D01*
X53428095Y-101015295D02*
X53428095Y-101110533D01*
X53428095Y-101110533D02*
X53475714Y-101253390D01*
X53475714Y-101253390D02*
X54047142Y-101824819D01*
X54047142Y-101824819D02*
X53428095Y-101824819D01*
X56200057Y-112954761D02*
X56152438Y-112859523D01*
X56152438Y-112859523D02*
X56057200Y-112764285D01*
X56057200Y-112764285D02*
X55914342Y-112621428D01*
X55914342Y-112621428D02*
X55866723Y-112526190D01*
X55866723Y-112526190D02*
X55866723Y-112430952D01*
X56104819Y-112478571D02*
X56057200Y-112383333D01*
X56057200Y-112383333D02*
X55961961Y-112288095D01*
X55961961Y-112288095D02*
X55771485Y-112240476D01*
X55771485Y-112240476D02*
X55438152Y-112240476D01*
X55438152Y-112240476D02*
X55247676Y-112288095D01*
X55247676Y-112288095D02*
X55152438Y-112383333D01*
X55152438Y-112383333D02*
X55104819Y-112478571D01*
X55104819Y-112478571D02*
X55104819Y-112669047D01*
X55104819Y-112669047D02*
X55152438Y-112764285D01*
X55152438Y-112764285D02*
X55247676Y-112859523D01*
X55247676Y-112859523D02*
X55438152Y-112907142D01*
X55438152Y-112907142D02*
X55771485Y-112907142D01*
X55771485Y-112907142D02*
X55961961Y-112859523D01*
X55961961Y-112859523D02*
X56057200Y-112764285D01*
X56057200Y-112764285D02*
X56104819Y-112669047D01*
X56104819Y-112669047D02*
X56104819Y-112478571D01*
X55104819Y-113811904D02*
X55104819Y-113335714D01*
X55104819Y-113335714D02*
X55581009Y-113288095D01*
X55581009Y-113288095D02*
X55533390Y-113335714D01*
X55533390Y-113335714D02*
X55485771Y-113430952D01*
X55485771Y-113430952D02*
X55485771Y-113669047D01*
X55485771Y-113669047D02*
X55533390Y-113764285D01*
X55533390Y-113764285D02*
X55581009Y-113811904D01*
X55581009Y-113811904D02*
X55676247Y-113859523D01*
X55676247Y-113859523D02*
X55914342Y-113859523D01*
X55914342Y-113859523D02*
X56009580Y-113811904D01*
X56009580Y-113811904D02*
X56057200Y-113764285D01*
X56057200Y-113764285D02*
X56104819Y-113669047D01*
X56104819Y-113669047D02*
X56104819Y-113430952D01*
X56104819Y-113430952D02*
X56057200Y-113335714D01*
X56057200Y-113335714D02*
X56009580Y-113288095D01*
X41754819Y-116257142D02*
X41278628Y-115923809D01*
X41754819Y-115685714D02*
X40754819Y-115685714D01*
X40754819Y-115685714D02*
X40754819Y-116066666D01*
X40754819Y-116066666D02*
X40802438Y-116161904D01*
X40802438Y-116161904D02*
X40850057Y-116209523D01*
X40850057Y-116209523D02*
X40945295Y-116257142D01*
X40945295Y-116257142D02*
X41088152Y-116257142D01*
X41088152Y-116257142D02*
X41183390Y-116209523D01*
X41183390Y-116209523D02*
X41231009Y-116161904D01*
X41231009Y-116161904D02*
X41278628Y-116066666D01*
X41278628Y-116066666D02*
X41278628Y-115685714D01*
X41088152Y-117114285D02*
X41754819Y-117114285D01*
X40707200Y-116876190D02*
X41421485Y-116638095D01*
X41421485Y-116638095D02*
X41421485Y-117257142D01*
X40754819Y-118114285D02*
X40754819Y-117638095D01*
X40754819Y-117638095D02*
X41231009Y-117590476D01*
X41231009Y-117590476D02*
X41183390Y-117638095D01*
X41183390Y-117638095D02*
X41135771Y-117733333D01*
X41135771Y-117733333D02*
X41135771Y-117971428D01*
X41135771Y-117971428D02*
X41183390Y-118066666D01*
X41183390Y-118066666D02*
X41231009Y-118114285D01*
X41231009Y-118114285D02*
X41326247Y-118161904D01*
X41326247Y-118161904D02*
X41564342Y-118161904D01*
X41564342Y-118161904D02*
X41659580Y-118114285D01*
X41659580Y-118114285D02*
X41707200Y-118066666D01*
X41707200Y-118066666D02*
X41754819Y-117971428D01*
X41754819Y-117971428D02*
X41754819Y-117733333D01*
X41754819Y-117733333D02*
X41707200Y-117638095D01*
X41707200Y-117638095D02*
X41659580Y-117590476D01*
X29359580Y-49357142D02*
X29407200Y-49309523D01*
X29407200Y-49309523D02*
X29454819Y-49166666D01*
X29454819Y-49166666D02*
X29454819Y-49071428D01*
X29454819Y-49071428D02*
X29407200Y-48928571D01*
X29407200Y-48928571D02*
X29311961Y-48833333D01*
X29311961Y-48833333D02*
X29216723Y-48785714D01*
X29216723Y-48785714D02*
X29026247Y-48738095D01*
X29026247Y-48738095D02*
X28883390Y-48738095D01*
X28883390Y-48738095D02*
X28692914Y-48785714D01*
X28692914Y-48785714D02*
X28597676Y-48833333D01*
X28597676Y-48833333D02*
X28502438Y-48928571D01*
X28502438Y-48928571D02*
X28454819Y-49071428D01*
X28454819Y-49071428D02*
X28454819Y-49166666D01*
X28454819Y-49166666D02*
X28502438Y-49309523D01*
X28502438Y-49309523D02*
X28550057Y-49357142D01*
X28550057Y-49738095D02*
X28502438Y-49785714D01*
X28502438Y-49785714D02*
X28454819Y-49880952D01*
X28454819Y-49880952D02*
X28454819Y-50119047D01*
X28454819Y-50119047D02*
X28502438Y-50214285D01*
X28502438Y-50214285D02*
X28550057Y-50261904D01*
X28550057Y-50261904D02*
X28645295Y-50309523D01*
X28645295Y-50309523D02*
X28740533Y-50309523D01*
X28740533Y-50309523D02*
X28883390Y-50261904D01*
X28883390Y-50261904D02*
X29454819Y-49690476D01*
X29454819Y-49690476D02*
X29454819Y-50309523D01*
X28454819Y-50642857D02*
X28454819Y-51309523D01*
X28454819Y-51309523D02*
X29454819Y-50880952D01*
X50652857Y-83784819D02*
X50986190Y-83308628D01*
X51224285Y-83784819D02*
X51224285Y-82784819D01*
X51224285Y-82784819D02*
X50843333Y-82784819D01*
X50843333Y-82784819D02*
X50748095Y-82832438D01*
X50748095Y-82832438D02*
X50700476Y-82880057D01*
X50700476Y-82880057D02*
X50652857Y-82975295D01*
X50652857Y-82975295D02*
X50652857Y-83118152D01*
X50652857Y-83118152D02*
X50700476Y-83213390D01*
X50700476Y-83213390D02*
X50748095Y-83261009D01*
X50748095Y-83261009D02*
X50843333Y-83308628D01*
X50843333Y-83308628D02*
X51224285Y-83308628D01*
X49748095Y-82784819D02*
X50224285Y-82784819D01*
X50224285Y-82784819D02*
X50271904Y-83261009D01*
X50271904Y-83261009D02*
X50224285Y-83213390D01*
X50224285Y-83213390D02*
X50129047Y-83165771D01*
X50129047Y-83165771D02*
X49890952Y-83165771D01*
X49890952Y-83165771D02*
X49795714Y-83213390D01*
X49795714Y-83213390D02*
X49748095Y-83261009D01*
X49748095Y-83261009D02*
X49700476Y-83356247D01*
X49700476Y-83356247D02*
X49700476Y-83594342D01*
X49700476Y-83594342D02*
X49748095Y-83689580D01*
X49748095Y-83689580D02*
X49795714Y-83737200D01*
X49795714Y-83737200D02*
X49890952Y-83784819D01*
X49890952Y-83784819D02*
X50129047Y-83784819D01*
X50129047Y-83784819D02*
X50224285Y-83737200D01*
X50224285Y-83737200D02*
X50271904Y-83689580D01*
X49129047Y-83213390D02*
X49224285Y-83165771D01*
X49224285Y-83165771D02*
X49271904Y-83118152D01*
X49271904Y-83118152D02*
X49319523Y-83022914D01*
X49319523Y-83022914D02*
X49319523Y-82975295D01*
X49319523Y-82975295D02*
X49271904Y-82880057D01*
X49271904Y-82880057D02*
X49224285Y-82832438D01*
X49224285Y-82832438D02*
X49129047Y-82784819D01*
X49129047Y-82784819D02*
X48938571Y-82784819D01*
X48938571Y-82784819D02*
X48843333Y-82832438D01*
X48843333Y-82832438D02*
X48795714Y-82880057D01*
X48795714Y-82880057D02*
X48748095Y-82975295D01*
X48748095Y-82975295D02*
X48748095Y-83022914D01*
X48748095Y-83022914D02*
X48795714Y-83118152D01*
X48795714Y-83118152D02*
X48843333Y-83165771D01*
X48843333Y-83165771D02*
X48938571Y-83213390D01*
X48938571Y-83213390D02*
X49129047Y-83213390D01*
X49129047Y-83213390D02*
X49224285Y-83261009D01*
X49224285Y-83261009D02*
X49271904Y-83308628D01*
X49271904Y-83308628D02*
X49319523Y-83403866D01*
X49319523Y-83403866D02*
X49319523Y-83594342D01*
X49319523Y-83594342D02*
X49271904Y-83689580D01*
X49271904Y-83689580D02*
X49224285Y-83737200D01*
X49224285Y-83737200D02*
X49129047Y-83784819D01*
X49129047Y-83784819D02*
X48938571Y-83784819D01*
X48938571Y-83784819D02*
X48843333Y-83737200D01*
X48843333Y-83737200D02*
X48795714Y-83689580D01*
X48795714Y-83689580D02*
X48748095Y-83594342D01*
X48748095Y-83594342D02*
X48748095Y-83403866D01*
X48748095Y-83403866D02*
X48795714Y-83308628D01*
X48795714Y-83308628D02*
X48843333Y-83261009D01*
X48843333Y-83261009D02*
X48938571Y-83213390D01*
X29642857Y-43859580D02*
X29690476Y-43907200D01*
X29690476Y-43907200D02*
X29833333Y-43954819D01*
X29833333Y-43954819D02*
X29928571Y-43954819D01*
X29928571Y-43954819D02*
X30071428Y-43907200D01*
X30071428Y-43907200D02*
X30166666Y-43811961D01*
X30166666Y-43811961D02*
X30214285Y-43716723D01*
X30214285Y-43716723D02*
X30261904Y-43526247D01*
X30261904Y-43526247D02*
X30261904Y-43383390D01*
X30261904Y-43383390D02*
X30214285Y-43192914D01*
X30214285Y-43192914D02*
X30166666Y-43097676D01*
X30166666Y-43097676D02*
X30071428Y-43002438D01*
X30071428Y-43002438D02*
X29928571Y-42954819D01*
X29928571Y-42954819D02*
X29833333Y-42954819D01*
X29833333Y-42954819D02*
X29690476Y-43002438D01*
X29690476Y-43002438D02*
X29642857Y-43050057D01*
X29309523Y-42954819D02*
X28690476Y-42954819D01*
X28690476Y-42954819D02*
X29023809Y-43335771D01*
X29023809Y-43335771D02*
X28880952Y-43335771D01*
X28880952Y-43335771D02*
X28785714Y-43383390D01*
X28785714Y-43383390D02*
X28738095Y-43431009D01*
X28738095Y-43431009D02*
X28690476Y-43526247D01*
X28690476Y-43526247D02*
X28690476Y-43764342D01*
X28690476Y-43764342D02*
X28738095Y-43859580D01*
X28738095Y-43859580D02*
X28785714Y-43907200D01*
X28785714Y-43907200D02*
X28880952Y-43954819D01*
X28880952Y-43954819D02*
X29166666Y-43954819D01*
X29166666Y-43954819D02*
X29261904Y-43907200D01*
X29261904Y-43907200D02*
X29309523Y-43859580D01*
X28071428Y-42954819D02*
X27976190Y-42954819D01*
X27976190Y-42954819D02*
X27880952Y-43002438D01*
X27880952Y-43002438D02*
X27833333Y-43050057D01*
X27833333Y-43050057D02*
X27785714Y-43145295D01*
X27785714Y-43145295D02*
X27738095Y-43335771D01*
X27738095Y-43335771D02*
X27738095Y-43573866D01*
X27738095Y-43573866D02*
X27785714Y-43764342D01*
X27785714Y-43764342D02*
X27833333Y-43859580D01*
X27833333Y-43859580D02*
X27880952Y-43907200D01*
X27880952Y-43907200D02*
X27976190Y-43954819D01*
X27976190Y-43954819D02*
X28071428Y-43954819D01*
X28071428Y-43954819D02*
X28166666Y-43907200D01*
X28166666Y-43907200D02*
X28214285Y-43859580D01*
X28214285Y-43859580D02*
X28261904Y-43764342D01*
X28261904Y-43764342D02*
X28309523Y-43573866D01*
X28309523Y-43573866D02*
X28309523Y-43335771D01*
X28309523Y-43335771D02*
X28261904Y-43145295D01*
X28261904Y-43145295D02*
X28214285Y-43050057D01*
X28214285Y-43050057D02*
X28166666Y-43002438D01*
X28166666Y-43002438D02*
X28071428Y-42954819D01*
X38759580Y-49607142D02*
X38807200Y-49559523D01*
X38807200Y-49559523D02*
X38854819Y-49416666D01*
X38854819Y-49416666D02*
X38854819Y-49321428D01*
X38854819Y-49321428D02*
X38807200Y-49178571D01*
X38807200Y-49178571D02*
X38711961Y-49083333D01*
X38711961Y-49083333D02*
X38616723Y-49035714D01*
X38616723Y-49035714D02*
X38426247Y-48988095D01*
X38426247Y-48988095D02*
X38283390Y-48988095D01*
X38283390Y-48988095D02*
X38092914Y-49035714D01*
X38092914Y-49035714D02*
X37997676Y-49083333D01*
X37997676Y-49083333D02*
X37902438Y-49178571D01*
X37902438Y-49178571D02*
X37854819Y-49321428D01*
X37854819Y-49321428D02*
X37854819Y-49416666D01*
X37854819Y-49416666D02*
X37902438Y-49559523D01*
X37902438Y-49559523D02*
X37950057Y-49607142D01*
X38854819Y-50559523D02*
X38854819Y-49988095D01*
X38854819Y-50273809D02*
X37854819Y-50273809D01*
X37854819Y-50273809D02*
X37997676Y-50178571D01*
X37997676Y-50178571D02*
X38092914Y-50083333D01*
X38092914Y-50083333D02*
X38140533Y-49988095D01*
X38283390Y-51130952D02*
X38235771Y-51035714D01*
X38235771Y-51035714D02*
X38188152Y-50988095D01*
X38188152Y-50988095D02*
X38092914Y-50940476D01*
X38092914Y-50940476D02*
X38045295Y-50940476D01*
X38045295Y-50940476D02*
X37950057Y-50988095D01*
X37950057Y-50988095D02*
X37902438Y-51035714D01*
X37902438Y-51035714D02*
X37854819Y-51130952D01*
X37854819Y-51130952D02*
X37854819Y-51321428D01*
X37854819Y-51321428D02*
X37902438Y-51416666D01*
X37902438Y-51416666D02*
X37950057Y-51464285D01*
X37950057Y-51464285D02*
X38045295Y-51511904D01*
X38045295Y-51511904D02*
X38092914Y-51511904D01*
X38092914Y-51511904D02*
X38188152Y-51464285D01*
X38188152Y-51464285D02*
X38235771Y-51416666D01*
X38235771Y-51416666D02*
X38283390Y-51321428D01*
X38283390Y-51321428D02*
X38283390Y-51130952D01*
X38283390Y-51130952D02*
X38331009Y-51035714D01*
X38331009Y-51035714D02*
X38378628Y-50988095D01*
X38378628Y-50988095D02*
X38473866Y-50940476D01*
X38473866Y-50940476D02*
X38664342Y-50940476D01*
X38664342Y-50940476D02*
X38759580Y-50988095D01*
X38759580Y-50988095D02*
X38807200Y-51035714D01*
X38807200Y-51035714D02*
X38854819Y-51130952D01*
X38854819Y-51130952D02*
X38854819Y-51321428D01*
X38854819Y-51321428D02*
X38807200Y-51416666D01*
X38807200Y-51416666D02*
X38759580Y-51464285D01*
X38759580Y-51464285D02*
X38664342Y-51511904D01*
X38664342Y-51511904D02*
X38473866Y-51511904D01*
X38473866Y-51511904D02*
X38378628Y-51464285D01*
X38378628Y-51464285D02*
X38331009Y-51416666D01*
X38331009Y-51416666D02*
X38283390Y-51321428D01*
X60045238Y-94450057D02*
X60140476Y-94402438D01*
X60140476Y-94402438D02*
X60235714Y-94307200D01*
X60235714Y-94307200D02*
X60378571Y-94164342D01*
X60378571Y-94164342D02*
X60473809Y-94116723D01*
X60473809Y-94116723D02*
X60569047Y-94116723D01*
X60521428Y-94354819D02*
X60616666Y-94307200D01*
X60616666Y-94307200D02*
X60711904Y-94211961D01*
X60711904Y-94211961D02*
X60759523Y-94021485D01*
X60759523Y-94021485D02*
X60759523Y-93688152D01*
X60759523Y-93688152D02*
X60711904Y-93497676D01*
X60711904Y-93497676D02*
X60616666Y-93402438D01*
X60616666Y-93402438D02*
X60521428Y-93354819D01*
X60521428Y-93354819D02*
X60330952Y-93354819D01*
X60330952Y-93354819D02*
X60235714Y-93402438D01*
X60235714Y-93402438D02*
X60140476Y-93497676D01*
X60140476Y-93497676D02*
X60092857Y-93688152D01*
X60092857Y-93688152D02*
X60092857Y-94021485D01*
X60092857Y-94021485D02*
X60140476Y-94211961D01*
X60140476Y-94211961D02*
X60235714Y-94307200D01*
X60235714Y-94307200D02*
X60330952Y-94354819D01*
X60330952Y-94354819D02*
X60521428Y-94354819D01*
X59140476Y-94354819D02*
X59711904Y-94354819D01*
X59426190Y-94354819D02*
X59426190Y-93354819D01*
X59426190Y-93354819D02*
X59521428Y-93497676D01*
X59521428Y-93497676D02*
X59616666Y-93592914D01*
X59616666Y-93592914D02*
X59711904Y-93640533D01*
X43684580Y-49207142D02*
X43732200Y-49159523D01*
X43732200Y-49159523D02*
X43779819Y-49016666D01*
X43779819Y-49016666D02*
X43779819Y-48921428D01*
X43779819Y-48921428D02*
X43732200Y-48778571D01*
X43732200Y-48778571D02*
X43636961Y-48683333D01*
X43636961Y-48683333D02*
X43541723Y-48635714D01*
X43541723Y-48635714D02*
X43351247Y-48588095D01*
X43351247Y-48588095D02*
X43208390Y-48588095D01*
X43208390Y-48588095D02*
X43017914Y-48635714D01*
X43017914Y-48635714D02*
X42922676Y-48683333D01*
X42922676Y-48683333D02*
X42827438Y-48778571D01*
X42827438Y-48778571D02*
X42779819Y-48921428D01*
X42779819Y-48921428D02*
X42779819Y-49016666D01*
X42779819Y-49016666D02*
X42827438Y-49159523D01*
X42827438Y-49159523D02*
X42875057Y-49207142D01*
X43779819Y-50159523D02*
X43779819Y-49588095D01*
X43779819Y-49873809D02*
X42779819Y-49873809D01*
X42779819Y-49873809D02*
X42922676Y-49778571D01*
X42922676Y-49778571D02*
X43017914Y-49683333D01*
X43017914Y-49683333D02*
X43065533Y-49588095D01*
X43779819Y-51111904D02*
X43779819Y-50540476D01*
X43779819Y-50826190D02*
X42779819Y-50826190D01*
X42779819Y-50826190D02*
X42922676Y-50730952D01*
X42922676Y-50730952D02*
X43017914Y-50635714D01*
X43017914Y-50635714D02*
X43065533Y-50540476D01*
X44511904Y-22454819D02*
X44511904Y-23264342D01*
X44511904Y-23264342D02*
X44464285Y-23359580D01*
X44464285Y-23359580D02*
X44416666Y-23407200D01*
X44416666Y-23407200D02*
X44321428Y-23454819D01*
X44321428Y-23454819D02*
X44130952Y-23454819D01*
X44130952Y-23454819D02*
X44035714Y-23407200D01*
X44035714Y-23407200D02*
X43988095Y-23359580D01*
X43988095Y-23359580D02*
X43940476Y-23264342D01*
X43940476Y-23264342D02*
X43940476Y-22454819D01*
X43035714Y-22788152D02*
X43035714Y-23454819D01*
X43273809Y-22407200D02*
X43511904Y-23121485D01*
X43511904Y-23121485D02*
X42892857Y-23121485D01*
X57856666Y-59554819D02*
X58189999Y-59078628D01*
X58428094Y-59554819D02*
X58428094Y-58554819D01*
X58428094Y-58554819D02*
X58047142Y-58554819D01*
X58047142Y-58554819D02*
X57951904Y-58602438D01*
X57951904Y-58602438D02*
X57904285Y-58650057D01*
X57904285Y-58650057D02*
X57856666Y-58745295D01*
X57856666Y-58745295D02*
X57856666Y-58888152D01*
X57856666Y-58888152D02*
X57904285Y-58983390D01*
X57904285Y-58983390D02*
X57951904Y-59031009D01*
X57951904Y-59031009D02*
X58047142Y-59078628D01*
X58047142Y-59078628D02*
X58428094Y-59078628D01*
X57523332Y-58554819D02*
X56856666Y-58554819D01*
X56856666Y-58554819D02*
X57285237Y-59554819D01*
X40442857Y-100754819D02*
X40776190Y-100278628D01*
X41014285Y-100754819D02*
X41014285Y-99754819D01*
X41014285Y-99754819D02*
X40633333Y-99754819D01*
X40633333Y-99754819D02*
X40538095Y-99802438D01*
X40538095Y-99802438D02*
X40490476Y-99850057D01*
X40490476Y-99850057D02*
X40442857Y-99945295D01*
X40442857Y-99945295D02*
X40442857Y-100088152D01*
X40442857Y-100088152D02*
X40490476Y-100183390D01*
X40490476Y-100183390D02*
X40538095Y-100231009D01*
X40538095Y-100231009D02*
X40633333Y-100278628D01*
X40633333Y-100278628D02*
X41014285Y-100278628D01*
X39538095Y-99754819D02*
X40014285Y-99754819D01*
X40014285Y-99754819D02*
X40061904Y-100231009D01*
X40061904Y-100231009D02*
X40014285Y-100183390D01*
X40014285Y-100183390D02*
X39919047Y-100135771D01*
X39919047Y-100135771D02*
X39680952Y-100135771D01*
X39680952Y-100135771D02*
X39585714Y-100183390D01*
X39585714Y-100183390D02*
X39538095Y-100231009D01*
X39538095Y-100231009D02*
X39490476Y-100326247D01*
X39490476Y-100326247D02*
X39490476Y-100564342D01*
X39490476Y-100564342D02*
X39538095Y-100659580D01*
X39538095Y-100659580D02*
X39585714Y-100707200D01*
X39585714Y-100707200D02*
X39680952Y-100754819D01*
X39680952Y-100754819D02*
X39919047Y-100754819D01*
X39919047Y-100754819D02*
X40014285Y-100707200D01*
X40014285Y-100707200D02*
X40061904Y-100659580D01*
X38538095Y-100754819D02*
X39109523Y-100754819D01*
X38823809Y-100754819D02*
X38823809Y-99754819D01*
X38823809Y-99754819D02*
X38919047Y-99897676D01*
X38919047Y-99897676D02*
X39014285Y-99992914D01*
X39014285Y-99992914D02*
X39109523Y-100040533D01*
X53002857Y-110584819D02*
X53336190Y-110108628D01*
X53574285Y-110584819D02*
X53574285Y-109584819D01*
X53574285Y-109584819D02*
X53193333Y-109584819D01*
X53193333Y-109584819D02*
X53098095Y-109632438D01*
X53098095Y-109632438D02*
X53050476Y-109680057D01*
X53050476Y-109680057D02*
X53002857Y-109775295D01*
X53002857Y-109775295D02*
X53002857Y-109918152D01*
X53002857Y-109918152D02*
X53050476Y-110013390D01*
X53050476Y-110013390D02*
X53098095Y-110061009D01*
X53098095Y-110061009D02*
X53193333Y-110108628D01*
X53193333Y-110108628D02*
X53574285Y-110108628D01*
X52050476Y-110584819D02*
X52621904Y-110584819D01*
X52336190Y-110584819D02*
X52336190Y-109584819D01*
X52336190Y-109584819D02*
X52431428Y-109727676D01*
X52431428Y-109727676D02*
X52526666Y-109822914D01*
X52526666Y-109822914D02*
X52621904Y-109870533D01*
X51431428Y-109584819D02*
X51336190Y-109584819D01*
X51336190Y-109584819D02*
X51240952Y-109632438D01*
X51240952Y-109632438D02*
X51193333Y-109680057D01*
X51193333Y-109680057D02*
X51145714Y-109775295D01*
X51145714Y-109775295D02*
X51098095Y-109965771D01*
X51098095Y-109965771D02*
X51098095Y-110203866D01*
X51098095Y-110203866D02*
X51145714Y-110394342D01*
X51145714Y-110394342D02*
X51193333Y-110489580D01*
X51193333Y-110489580D02*
X51240952Y-110537200D01*
X51240952Y-110537200D02*
X51336190Y-110584819D01*
X51336190Y-110584819D02*
X51431428Y-110584819D01*
X51431428Y-110584819D02*
X51526666Y-110537200D01*
X51526666Y-110537200D02*
X51574285Y-110489580D01*
X51574285Y-110489580D02*
X51621904Y-110394342D01*
X51621904Y-110394342D02*
X51669523Y-110203866D01*
X51669523Y-110203866D02*
X51669523Y-109965771D01*
X51669523Y-109965771D02*
X51621904Y-109775295D01*
X51621904Y-109775295D02*
X51574285Y-109680057D01*
X51574285Y-109680057D02*
X51526666Y-109632438D01*
X51526666Y-109632438D02*
X51431428Y-109584819D01*
X41409580Y-51837142D02*
X41457200Y-51789523D01*
X41457200Y-51789523D02*
X41504819Y-51646666D01*
X41504819Y-51646666D02*
X41504819Y-51551428D01*
X41504819Y-51551428D02*
X41457200Y-51408571D01*
X41457200Y-51408571D02*
X41361961Y-51313333D01*
X41361961Y-51313333D02*
X41266723Y-51265714D01*
X41266723Y-51265714D02*
X41076247Y-51218095D01*
X41076247Y-51218095D02*
X40933390Y-51218095D01*
X40933390Y-51218095D02*
X40742914Y-51265714D01*
X40742914Y-51265714D02*
X40647676Y-51313333D01*
X40647676Y-51313333D02*
X40552438Y-51408571D01*
X40552438Y-51408571D02*
X40504819Y-51551428D01*
X40504819Y-51551428D02*
X40504819Y-51646666D01*
X40504819Y-51646666D02*
X40552438Y-51789523D01*
X40552438Y-51789523D02*
X40600057Y-51837142D01*
X41504819Y-52789523D02*
X41504819Y-52218095D01*
X41504819Y-52503809D02*
X40504819Y-52503809D01*
X40504819Y-52503809D02*
X40647676Y-52408571D01*
X40647676Y-52408571D02*
X40742914Y-52313333D01*
X40742914Y-52313333D02*
X40790533Y-52218095D01*
X40504819Y-53646666D02*
X40504819Y-53456190D01*
X40504819Y-53456190D02*
X40552438Y-53360952D01*
X40552438Y-53360952D02*
X40600057Y-53313333D01*
X40600057Y-53313333D02*
X40742914Y-53218095D01*
X40742914Y-53218095D02*
X40933390Y-53170476D01*
X40933390Y-53170476D02*
X41314342Y-53170476D01*
X41314342Y-53170476D02*
X41409580Y-53218095D01*
X41409580Y-53218095D02*
X41457200Y-53265714D01*
X41457200Y-53265714D02*
X41504819Y-53360952D01*
X41504819Y-53360952D02*
X41504819Y-53551428D01*
X41504819Y-53551428D02*
X41457200Y-53646666D01*
X41457200Y-53646666D02*
X41409580Y-53694285D01*
X41409580Y-53694285D02*
X41314342Y-53741904D01*
X41314342Y-53741904D02*
X41076247Y-53741904D01*
X41076247Y-53741904D02*
X40981009Y-53694285D01*
X40981009Y-53694285D02*
X40933390Y-53646666D01*
X40933390Y-53646666D02*
X40885771Y-53551428D01*
X40885771Y-53551428D02*
X40885771Y-53360952D01*
X40885771Y-53360952D02*
X40933390Y-53265714D01*
X40933390Y-53265714D02*
X40981009Y-53218095D01*
X40981009Y-53218095D02*
X41076247Y-53170476D01*
X37166666Y-116954819D02*
X37499999Y-116478628D01*
X37738094Y-116954819D02*
X37738094Y-115954819D01*
X37738094Y-115954819D02*
X37357142Y-115954819D01*
X37357142Y-115954819D02*
X37261904Y-116002438D01*
X37261904Y-116002438D02*
X37214285Y-116050057D01*
X37214285Y-116050057D02*
X37166666Y-116145295D01*
X37166666Y-116145295D02*
X37166666Y-116288152D01*
X37166666Y-116288152D02*
X37214285Y-116383390D01*
X37214285Y-116383390D02*
X37261904Y-116431009D01*
X37261904Y-116431009D02*
X37357142Y-116478628D01*
X37357142Y-116478628D02*
X37738094Y-116478628D01*
X36690475Y-116954819D02*
X36499999Y-116954819D01*
X36499999Y-116954819D02*
X36404761Y-116907200D01*
X36404761Y-116907200D02*
X36357142Y-116859580D01*
X36357142Y-116859580D02*
X36261904Y-116716723D01*
X36261904Y-116716723D02*
X36214285Y-116526247D01*
X36214285Y-116526247D02*
X36214285Y-116145295D01*
X36214285Y-116145295D02*
X36261904Y-116050057D01*
X36261904Y-116050057D02*
X36309523Y-116002438D01*
X36309523Y-116002438D02*
X36404761Y-115954819D01*
X36404761Y-115954819D02*
X36595237Y-115954819D01*
X36595237Y-115954819D02*
X36690475Y-116002438D01*
X36690475Y-116002438D02*
X36738094Y-116050057D01*
X36738094Y-116050057D02*
X36785713Y-116145295D01*
X36785713Y-116145295D02*
X36785713Y-116383390D01*
X36785713Y-116383390D02*
X36738094Y-116478628D01*
X36738094Y-116478628D02*
X36690475Y-116526247D01*
X36690475Y-116526247D02*
X36595237Y-116573866D01*
X36595237Y-116573866D02*
X36404761Y-116573866D01*
X36404761Y-116573866D02*
X36309523Y-116526247D01*
X36309523Y-116526247D02*
X36261904Y-116478628D01*
X36261904Y-116478628D02*
X36214285Y-116383390D01*
X57867857Y-117029819D02*
X58201190Y-116553628D01*
X58439285Y-117029819D02*
X58439285Y-116029819D01*
X58439285Y-116029819D02*
X58058333Y-116029819D01*
X58058333Y-116029819D02*
X57963095Y-116077438D01*
X57963095Y-116077438D02*
X57915476Y-116125057D01*
X57915476Y-116125057D02*
X57867857Y-116220295D01*
X57867857Y-116220295D02*
X57867857Y-116363152D01*
X57867857Y-116363152D02*
X57915476Y-116458390D01*
X57915476Y-116458390D02*
X57963095Y-116506009D01*
X57963095Y-116506009D02*
X58058333Y-116553628D01*
X58058333Y-116553628D02*
X58439285Y-116553628D01*
X57010714Y-116363152D02*
X57010714Y-117029819D01*
X57248809Y-115982200D02*
X57486904Y-116696485D01*
X57486904Y-116696485D02*
X56867857Y-116696485D01*
X56058333Y-116029819D02*
X56248809Y-116029819D01*
X56248809Y-116029819D02*
X56344047Y-116077438D01*
X56344047Y-116077438D02*
X56391666Y-116125057D01*
X56391666Y-116125057D02*
X56486904Y-116267914D01*
X56486904Y-116267914D02*
X56534523Y-116458390D01*
X56534523Y-116458390D02*
X56534523Y-116839342D01*
X56534523Y-116839342D02*
X56486904Y-116934580D01*
X56486904Y-116934580D02*
X56439285Y-116982200D01*
X56439285Y-116982200D02*
X56344047Y-117029819D01*
X56344047Y-117029819D02*
X56153571Y-117029819D01*
X56153571Y-117029819D02*
X56058333Y-116982200D01*
X56058333Y-116982200D02*
X56010714Y-116934580D01*
X56010714Y-116934580D02*
X55963095Y-116839342D01*
X55963095Y-116839342D02*
X55963095Y-116601247D01*
X55963095Y-116601247D02*
X56010714Y-116506009D01*
X56010714Y-116506009D02*
X56058333Y-116458390D01*
X56058333Y-116458390D02*
X56153571Y-116410771D01*
X56153571Y-116410771D02*
X56344047Y-116410771D01*
X56344047Y-116410771D02*
X56439285Y-116458390D01*
X56439285Y-116458390D02*
X56486904Y-116506009D01*
X56486904Y-116506009D02*
X56534523Y-116601247D01*
X53907200Y-24416667D02*
X53954819Y-24559524D01*
X53954819Y-24559524D02*
X53954819Y-24797619D01*
X53954819Y-24797619D02*
X53907200Y-24892857D01*
X53907200Y-24892857D02*
X53859580Y-24940476D01*
X53859580Y-24940476D02*
X53764342Y-24988095D01*
X53764342Y-24988095D02*
X53669104Y-24988095D01*
X53669104Y-24988095D02*
X53573866Y-24940476D01*
X53573866Y-24940476D02*
X53526247Y-24892857D01*
X53526247Y-24892857D02*
X53478628Y-24797619D01*
X53478628Y-24797619D02*
X53431009Y-24607143D01*
X53431009Y-24607143D02*
X53383390Y-24511905D01*
X53383390Y-24511905D02*
X53335771Y-24464286D01*
X53335771Y-24464286D02*
X53240533Y-24416667D01*
X53240533Y-24416667D02*
X53145295Y-24416667D01*
X53145295Y-24416667D02*
X53050057Y-24464286D01*
X53050057Y-24464286D02*
X53002438Y-24511905D01*
X53002438Y-24511905D02*
X52954819Y-24607143D01*
X52954819Y-24607143D02*
X52954819Y-24845238D01*
X52954819Y-24845238D02*
X53002438Y-24988095D01*
X52954819Y-25321429D02*
X53954819Y-25559524D01*
X53954819Y-25559524D02*
X53240533Y-25750000D01*
X53240533Y-25750000D02*
X53954819Y-25940476D01*
X53954819Y-25940476D02*
X52954819Y-26178572D01*
X53050057Y-26511905D02*
X53002438Y-26559524D01*
X53002438Y-26559524D02*
X52954819Y-26654762D01*
X52954819Y-26654762D02*
X52954819Y-26892857D01*
X52954819Y-26892857D02*
X53002438Y-26988095D01*
X53002438Y-26988095D02*
X53050057Y-27035714D01*
X53050057Y-27035714D02*
X53145295Y-27083333D01*
X53145295Y-27083333D02*
X53240533Y-27083333D01*
X53240533Y-27083333D02*
X53383390Y-27035714D01*
X53383390Y-27035714D02*
X53954819Y-26464286D01*
X53954819Y-26464286D02*
X53954819Y-27083333D01*
X40642857Y-40859580D02*
X40690476Y-40907200D01*
X40690476Y-40907200D02*
X40833333Y-40954819D01*
X40833333Y-40954819D02*
X40928571Y-40954819D01*
X40928571Y-40954819D02*
X41071428Y-40907200D01*
X41071428Y-40907200D02*
X41166666Y-40811961D01*
X41166666Y-40811961D02*
X41214285Y-40716723D01*
X41214285Y-40716723D02*
X41261904Y-40526247D01*
X41261904Y-40526247D02*
X41261904Y-40383390D01*
X41261904Y-40383390D02*
X41214285Y-40192914D01*
X41214285Y-40192914D02*
X41166666Y-40097676D01*
X41166666Y-40097676D02*
X41071428Y-40002438D01*
X41071428Y-40002438D02*
X40928571Y-39954819D01*
X40928571Y-39954819D02*
X40833333Y-39954819D01*
X40833333Y-39954819D02*
X40690476Y-40002438D01*
X40690476Y-40002438D02*
X40642857Y-40050057D01*
X40309523Y-39954819D02*
X39642857Y-39954819D01*
X39642857Y-39954819D02*
X40071428Y-40954819D01*
X39214285Y-40954819D02*
X39023809Y-40954819D01*
X39023809Y-40954819D02*
X38928571Y-40907200D01*
X38928571Y-40907200D02*
X38880952Y-40859580D01*
X38880952Y-40859580D02*
X38785714Y-40716723D01*
X38785714Y-40716723D02*
X38738095Y-40526247D01*
X38738095Y-40526247D02*
X38738095Y-40145295D01*
X38738095Y-40145295D02*
X38785714Y-40050057D01*
X38785714Y-40050057D02*
X38833333Y-40002438D01*
X38833333Y-40002438D02*
X38928571Y-39954819D01*
X38928571Y-39954819D02*
X39119047Y-39954819D01*
X39119047Y-39954819D02*
X39214285Y-40002438D01*
X39214285Y-40002438D02*
X39261904Y-40050057D01*
X39261904Y-40050057D02*
X39309523Y-40145295D01*
X39309523Y-40145295D02*
X39309523Y-40383390D01*
X39309523Y-40383390D02*
X39261904Y-40478628D01*
X39261904Y-40478628D02*
X39214285Y-40526247D01*
X39214285Y-40526247D02*
X39119047Y-40573866D01*
X39119047Y-40573866D02*
X38928571Y-40573866D01*
X38928571Y-40573866D02*
X38833333Y-40526247D01*
X38833333Y-40526247D02*
X38785714Y-40478628D01*
X38785714Y-40478628D02*
X38738095Y-40383390D01*
X38495833Y-119904819D02*
X38495833Y-120619104D01*
X38495833Y-120619104D02*
X38543452Y-120761961D01*
X38543452Y-120761961D02*
X38638690Y-120857200D01*
X38638690Y-120857200D02*
X38781547Y-120904819D01*
X38781547Y-120904819D02*
X38876785Y-120904819D01*
X37543452Y-119904819D02*
X38019642Y-119904819D01*
X38019642Y-119904819D02*
X38067261Y-120381009D01*
X38067261Y-120381009D02*
X38019642Y-120333390D01*
X38019642Y-120333390D02*
X37924404Y-120285771D01*
X37924404Y-120285771D02*
X37686309Y-120285771D01*
X37686309Y-120285771D02*
X37591071Y-120333390D01*
X37591071Y-120333390D02*
X37543452Y-120381009D01*
X37543452Y-120381009D02*
X37495833Y-120476247D01*
X37495833Y-120476247D02*
X37495833Y-120714342D01*
X37495833Y-120714342D02*
X37543452Y-120809580D01*
X37543452Y-120809580D02*
X37591071Y-120857200D01*
X37591071Y-120857200D02*
X37686309Y-120904819D01*
X37686309Y-120904819D02*
X37924404Y-120904819D01*
X37924404Y-120904819D02*
X38019642Y-120857200D01*
X38019642Y-120857200D02*
X38067261Y-120809580D01*
X39859580Y-97333333D02*
X39907200Y-97285714D01*
X39907200Y-97285714D02*
X39954819Y-97142857D01*
X39954819Y-97142857D02*
X39954819Y-97047619D01*
X39954819Y-97047619D02*
X39907200Y-96904762D01*
X39907200Y-96904762D02*
X39811961Y-96809524D01*
X39811961Y-96809524D02*
X39716723Y-96761905D01*
X39716723Y-96761905D02*
X39526247Y-96714286D01*
X39526247Y-96714286D02*
X39383390Y-96714286D01*
X39383390Y-96714286D02*
X39192914Y-96761905D01*
X39192914Y-96761905D02*
X39097676Y-96809524D01*
X39097676Y-96809524D02*
X39002438Y-96904762D01*
X39002438Y-96904762D02*
X38954819Y-97047619D01*
X38954819Y-97047619D02*
X38954819Y-97142857D01*
X38954819Y-97142857D02*
X39002438Y-97285714D01*
X39002438Y-97285714D02*
X39050057Y-97333333D01*
X38954819Y-98238095D02*
X38954819Y-97761905D01*
X38954819Y-97761905D02*
X39431009Y-97714286D01*
X39431009Y-97714286D02*
X39383390Y-97761905D01*
X39383390Y-97761905D02*
X39335771Y-97857143D01*
X39335771Y-97857143D02*
X39335771Y-98095238D01*
X39335771Y-98095238D02*
X39383390Y-98190476D01*
X39383390Y-98190476D02*
X39431009Y-98238095D01*
X39431009Y-98238095D02*
X39526247Y-98285714D01*
X39526247Y-98285714D02*
X39764342Y-98285714D01*
X39764342Y-98285714D02*
X39859580Y-98238095D01*
X39859580Y-98238095D02*
X39907200Y-98190476D01*
X39907200Y-98190476D02*
X39954819Y-98095238D01*
X39954819Y-98095238D02*
X39954819Y-97857143D01*
X39954819Y-97857143D02*
X39907200Y-97761905D01*
X39907200Y-97761905D02*
X39859580Y-97714286D01*
X29952857Y-101824819D02*
X30286190Y-101348628D01*
X30524285Y-101824819D02*
X30524285Y-100824819D01*
X30524285Y-100824819D02*
X30143333Y-100824819D01*
X30143333Y-100824819D02*
X30048095Y-100872438D01*
X30048095Y-100872438D02*
X30000476Y-100920057D01*
X30000476Y-100920057D02*
X29952857Y-101015295D01*
X29952857Y-101015295D02*
X29952857Y-101158152D01*
X29952857Y-101158152D02*
X30000476Y-101253390D01*
X30000476Y-101253390D02*
X30048095Y-101301009D01*
X30048095Y-101301009D02*
X30143333Y-101348628D01*
X30143333Y-101348628D02*
X30524285Y-101348628D01*
X29048095Y-100824819D02*
X29524285Y-100824819D01*
X29524285Y-100824819D02*
X29571904Y-101301009D01*
X29571904Y-101301009D02*
X29524285Y-101253390D01*
X29524285Y-101253390D02*
X29429047Y-101205771D01*
X29429047Y-101205771D02*
X29190952Y-101205771D01*
X29190952Y-101205771D02*
X29095714Y-101253390D01*
X29095714Y-101253390D02*
X29048095Y-101301009D01*
X29048095Y-101301009D02*
X29000476Y-101396247D01*
X29000476Y-101396247D02*
X29000476Y-101634342D01*
X29000476Y-101634342D02*
X29048095Y-101729580D01*
X29048095Y-101729580D02*
X29095714Y-101777200D01*
X29095714Y-101777200D02*
X29190952Y-101824819D01*
X29190952Y-101824819D02*
X29429047Y-101824819D01*
X29429047Y-101824819D02*
X29524285Y-101777200D01*
X29524285Y-101777200D02*
X29571904Y-101729580D01*
X28381428Y-100824819D02*
X28286190Y-100824819D01*
X28286190Y-100824819D02*
X28190952Y-100872438D01*
X28190952Y-100872438D02*
X28143333Y-100920057D01*
X28143333Y-100920057D02*
X28095714Y-101015295D01*
X28095714Y-101015295D02*
X28048095Y-101205771D01*
X28048095Y-101205771D02*
X28048095Y-101443866D01*
X28048095Y-101443866D02*
X28095714Y-101634342D01*
X28095714Y-101634342D02*
X28143333Y-101729580D01*
X28143333Y-101729580D02*
X28190952Y-101777200D01*
X28190952Y-101777200D02*
X28286190Y-101824819D01*
X28286190Y-101824819D02*
X28381428Y-101824819D01*
X28381428Y-101824819D02*
X28476666Y-101777200D01*
X28476666Y-101777200D02*
X28524285Y-101729580D01*
X28524285Y-101729580D02*
X28571904Y-101634342D01*
X28571904Y-101634342D02*
X28619523Y-101443866D01*
X28619523Y-101443866D02*
X28619523Y-101205771D01*
X28619523Y-101205771D02*
X28571904Y-101015295D01*
X28571904Y-101015295D02*
X28524285Y-100920057D01*
X28524285Y-100920057D02*
X28476666Y-100872438D01*
X28476666Y-100872438D02*
X28381428Y-100824819D01*
X51342857Y-94654819D02*
X51676190Y-94178628D01*
X51914285Y-94654819D02*
X51914285Y-93654819D01*
X51914285Y-93654819D02*
X51533333Y-93654819D01*
X51533333Y-93654819D02*
X51438095Y-93702438D01*
X51438095Y-93702438D02*
X51390476Y-93750057D01*
X51390476Y-93750057D02*
X51342857Y-93845295D01*
X51342857Y-93845295D02*
X51342857Y-93988152D01*
X51342857Y-93988152D02*
X51390476Y-94083390D01*
X51390476Y-94083390D02*
X51438095Y-94131009D01*
X51438095Y-94131009D02*
X51533333Y-94178628D01*
X51533333Y-94178628D02*
X51914285Y-94178628D01*
X51009523Y-93654819D02*
X50390476Y-93654819D01*
X50390476Y-93654819D02*
X50723809Y-94035771D01*
X50723809Y-94035771D02*
X50580952Y-94035771D01*
X50580952Y-94035771D02*
X50485714Y-94083390D01*
X50485714Y-94083390D02*
X50438095Y-94131009D01*
X50438095Y-94131009D02*
X50390476Y-94226247D01*
X50390476Y-94226247D02*
X50390476Y-94464342D01*
X50390476Y-94464342D02*
X50438095Y-94559580D01*
X50438095Y-94559580D02*
X50485714Y-94607200D01*
X50485714Y-94607200D02*
X50580952Y-94654819D01*
X50580952Y-94654819D02*
X50866666Y-94654819D01*
X50866666Y-94654819D02*
X50961904Y-94607200D01*
X50961904Y-94607200D02*
X51009523Y-94559580D01*
X49533333Y-93988152D02*
X49533333Y-94654819D01*
X49771428Y-93607200D02*
X50009523Y-94321485D01*
X50009523Y-94321485D02*
X49390476Y-94321485D01*
D11*
X39809523Y-44257419D02*
X39809523Y-44971704D01*
X39809523Y-44971704D02*
X39857142Y-45114561D01*
X39857142Y-45114561D02*
X39952380Y-45209800D01*
X39952380Y-45209800D02*
X40095237Y-45257419D01*
X40095237Y-45257419D02*
X40190475Y-45257419D01*
X39380951Y-44352657D02*
X39333332Y-44305038D01*
X39333332Y-44305038D02*
X39238094Y-44257419D01*
X39238094Y-44257419D02*
X38999999Y-44257419D01*
X38999999Y-44257419D02*
X38904761Y-44305038D01*
X38904761Y-44305038D02*
X38857142Y-44352657D01*
X38857142Y-44352657D02*
X38809523Y-44447895D01*
X38809523Y-44447895D02*
X38809523Y-44543133D01*
X38809523Y-44543133D02*
X38857142Y-44685990D01*
X38857142Y-44685990D02*
X39428570Y-45257419D01*
X39428570Y-45257419D02*
X38809523Y-45257419D01*
X38190475Y-44257419D02*
X38095237Y-44257419D01*
X38095237Y-44257419D02*
X37999999Y-44305038D01*
X37999999Y-44305038D02*
X37952380Y-44352657D01*
X37952380Y-44352657D02*
X37904761Y-44447895D01*
X37904761Y-44447895D02*
X37857142Y-44638371D01*
X37857142Y-44638371D02*
X37857142Y-44876466D01*
X37857142Y-44876466D02*
X37904761Y-45066942D01*
X37904761Y-45066942D02*
X37952380Y-45162180D01*
X37952380Y-45162180D02*
X37999999Y-45209800D01*
X37999999Y-45209800D02*
X38095237Y-45257419D01*
X38095237Y-45257419D02*
X38190475Y-45257419D01*
X38190475Y-45257419D02*
X38285713Y-45209800D01*
X38285713Y-45209800D02*
X38333332Y-45162180D01*
X38333332Y-45162180D02*
X38380951Y-45066942D01*
X38380951Y-45066942D02*
X38428570Y-44876466D01*
X38428570Y-44876466D02*
X38428570Y-44638371D01*
X38428570Y-44638371D02*
X38380951Y-44447895D01*
X38380951Y-44447895D02*
X38333332Y-44352657D01*
X38333332Y-44352657D02*
X38285713Y-44305038D01*
X38285713Y-44305038D02*
X38190475Y-44257419D01*
D10*
X28652857Y-91284819D02*
X28986190Y-90808628D01*
X29224285Y-91284819D02*
X29224285Y-90284819D01*
X29224285Y-90284819D02*
X28843333Y-90284819D01*
X28843333Y-90284819D02*
X28748095Y-90332438D01*
X28748095Y-90332438D02*
X28700476Y-90380057D01*
X28700476Y-90380057D02*
X28652857Y-90475295D01*
X28652857Y-90475295D02*
X28652857Y-90618152D01*
X28652857Y-90618152D02*
X28700476Y-90713390D01*
X28700476Y-90713390D02*
X28748095Y-90761009D01*
X28748095Y-90761009D02*
X28843333Y-90808628D01*
X28843333Y-90808628D02*
X29224285Y-90808628D01*
X27748095Y-90284819D02*
X28224285Y-90284819D01*
X28224285Y-90284819D02*
X28271904Y-90761009D01*
X28271904Y-90761009D02*
X28224285Y-90713390D01*
X28224285Y-90713390D02*
X28129047Y-90665771D01*
X28129047Y-90665771D02*
X27890952Y-90665771D01*
X27890952Y-90665771D02*
X27795714Y-90713390D01*
X27795714Y-90713390D02*
X27748095Y-90761009D01*
X27748095Y-90761009D02*
X27700476Y-90856247D01*
X27700476Y-90856247D02*
X27700476Y-91094342D01*
X27700476Y-91094342D02*
X27748095Y-91189580D01*
X27748095Y-91189580D02*
X27795714Y-91237200D01*
X27795714Y-91237200D02*
X27890952Y-91284819D01*
X27890952Y-91284819D02*
X28129047Y-91284819D01*
X28129047Y-91284819D02*
X28224285Y-91237200D01*
X28224285Y-91237200D02*
X28271904Y-91189580D01*
X27367142Y-90284819D02*
X26748095Y-90284819D01*
X26748095Y-90284819D02*
X27081428Y-90665771D01*
X27081428Y-90665771D02*
X26938571Y-90665771D01*
X26938571Y-90665771D02*
X26843333Y-90713390D01*
X26843333Y-90713390D02*
X26795714Y-90761009D01*
X26795714Y-90761009D02*
X26748095Y-90856247D01*
X26748095Y-90856247D02*
X26748095Y-91094342D01*
X26748095Y-91094342D02*
X26795714Y-91189580D01*
X26795714Y-91189580D02*
X26843333Y-91237200D01*
X26843333Y-91237200D02*
X26938571Y-91284819D01*
X26938571Y-91284819D02*
X27224285Y-91284819D01*
X27224285Y-91284819D02*
X27319523Y-91237200D01*
X27319523Y-91237200D02*
X27367142Y-91189580D01*
X44554819Y-97657142D02*
X44078628Y-97323809D01*
X44554819Y-97085714D02*
X43554819Y-97085714D01*
X43554819Y-97085714D02*
X43554819Y-97466666D01*
X43554819Y-97466666D02*
X43602438Y-97561904D01*
X43602438Y-97561904D02*
X43650057Y-97609523D01*
X43650057Y-97609523D02*
X43745295Y-97657142D01*
X43745295Y-97657142D02*
X43888152Y-97657142D01*
X43888152Y-97657142D02*
X43983390Y-97609523D01*
X43983390Y-97609523D02*
X44031009Y-97561904D01*
X44031009Y-97561904D02*
X44078628Y-97466666D01*
X44078628Y-97466666D02*
X44078628Y-97085714D01*
X43554819Y-97990476D02*
X43554819Y-98609523D01*
X43554819Y-98609523D02*
X43935771Y-98276190D01*
X43935771Y-98276190D02*
X43935771Y-98419047D01*
X43935771Y-98419047D02*
X43983390Y-98514285D01*
X43983390Y-98514285D02*
X44031009Y-98561904D01*
X44031009Y-98561904D02*
X44126247Y-98609523D01*
X44126247Y-98609523D02*
X44364342Y-98609523D01*
X44364342Y-98609523D02*
X44459580Y-98561904D01*
X44459580Y-98561904D02*
X44507200Y-98514285D01*
X44507200Y-98514285D02*
X44554819Y-98419047D01*
X44554819Y-98419047D02*
X44554819Y-98133333D01*
X44554819Y-98133333D02*
X44507200Y-98038095D01*
X44507200Y-98038095D02*
X44459580Y-97990476D01*
X43554819Y-98942857D02*
X43554819Y-99609523D01*
X43554819Y-99609523D02*
X44554819Y-99180952D01*
X51325057Y-73754761D02*
X51277438Y-73659523D01*
X51277438Y-73659523D02*
X51182200Y-73564285D01*
X51182200Y-73564285D02*
X51039342Y-73421428D01*
X51039342Y-73421428D02*
X50991723Y-73326190D01*
X50991723Y-73326190D02*
X50991723Y-73230952D01*
X51229819Y-73278571D02*
X51182200Y-73183333D01*
X51182200Y-73183333D02*
X51086961Y-73088095D01*
X51086961Y-73088095D02*
X50896485Y-73040476D01*
X50896485Y-73040476D02*
X50563152Y-73040476D01*
X50563152Y-73040476D02*
X50372676Y-73088095D01*
X50372676Y-73088095D02*
X50277438Y-73183333D01*
X50277438Y-73183333D02*
X50229819Y-73278571D01*
X50229819Y-73278571D02*
X50229819Y-73469047D01*
X50229819Y-73469047D02*
X50277438Y-73564285D01*
X50277438Y-73564285D02*
X50372676Y-73659523D01*
X50372676Y-73659523D02*
X50563152Y-73707142D01*
X50563152Y-73707142D02*
X50896485Y-73707142D01*
X50896485Y-73707142D02*
X51086961Y-73659523D01*
X51086961Y-73659523D02*
X51182200Y-73564285D01*
X51182200Y-73564285D02*
X51229819Y-73469047D01*
X51229819Y-73469047D02*
X51229819Y-73278571D01*
X51229819Y-74183333D02*
X51229819Y-74373809D01*
X51229819Y-74373809D02*
X51182200Y-74469047D01*
X51182200Y-74469047D02*
X51134580Y-74516666D01*
X51134580Y-74516666D02*
X50991723Y-74611904D01*
X50991723Y-74611904D02*
X50801247Y-74659523D01*
X50801247Y-74659523D02*
X50420295Y-74659523D01*
X50420295Y-74659523D02*
X50325057Y-74611904D01*
X50325057Y-74611904D02*
X50277438Y-74564285D01*
X50277438Y-74564285D02*
X50229819Y-74469047D01*
X50229819Y-74469047D02*
X50229819Y-74278571D01*
X50229819Y-74278571D02*
X50277438Y-74183333D01*
X50277438Y-74183333D02*
X50325057Y-74135714D01*
X50325057Y-74135714D02*
X50420295Y-74088095D01*
X50420295Y-74088095D02*
X50658390Y-74088095D01*
X50658390Y-74088095D02*
X50753628Y-74135714D01*
X50753628Y-74135714D02*
X50801247Y-74183333D01*
X50801247Y-74183333D02*
X50848866Y-74278571D01*
X50848866Y-74278571D02*
X50848866Y-74469047D01*
X50848866Y-74469047D02*
X50801247Y-74564285D01*
X50801247Y-74564285D02*
X50753628Y-74611904D01*
X50753628Y-74611904D02*
X50658390Y-74659523D01*
X50142857Y-65484580D02*
X50190476Y-65532200D01*
X50190476Y-65532200D02*
X50333333Y-65579819D01*
X50333333Y-65579819D02*
X50428571Y-65579819D01*
X50428571Y-65579819D02*
X50571428Y-65532200D01*
X50571428Y-65532200D02*
X50666666Y-65436961D01*
X50666666Y-65436961D02*
X50714285Y-65341723D01*
X50714285Y-65341723D02*
X50761904Y-65151247D01*
X50761904Y-65151247D02*
X50761904Y-65008390D01*
X50761904Y-65008390D02*
X50714285Y-64817914D01*
X50714285Y-64817914D02*
X50666666Y-64722676D01*
X50666666Y-64722676D02*
X50571428Y-64627438D01*
X50571428Y-64627438D02*
X50428571Y-64579819D01*
X50428571Y-64579819D02*
X50333333Y-64579819D01*
X50333333Y-64579819D02*
X50190476Y-64627438D01*
X50190476Y-64627438D02*
X50142857Y-64675057D01*
X49190476Y-65579819D02*
X49761904Y-65579819D01*
X49476190Y-65579819D02*
X49476190Y-64579819D01*
X49476190Y-64579819D02*
X49571428Y-64722676D01*
X49571428Y-64722676D02*
X49666666Y-64817914D01*
X49666666Y-64817914D02*
X49761904Y-64865533D01*
X48333333Y-64913152D02*
X48333333Y-65579819D01*
X48571428Y-64532200D02*
X48809523Y-65246485D01*
X48809523Y-65246485D02*
X48190476Y-65246485D01*
X49246666Y-54199580D02*
X49294285Y-54247200D01*
X49294285Y-54247200D02*
X49437142Y-54294819D01*
X49437142Y-54294819D02*
X49532380Y-54294819D01*
X49532380Y-54294819D02*
X49675237Y-54247200D01*
X49675237Y-54247200D02*
X49770475Y-54151961D01*
X49770475Y-54151961D02*
X49818094Y-54056723D01*
X49818094Y-54056723D02*
X49865713Y-53866247D01*
X49865713Y-53866247D02*
X49865713Y-53723390D01*
X49865713Y-53723390D02*
X49818094Y-53532914D01*
X49818094Y-53532914D02*
X49770475Y-53437676D01*
X49770475Y-53437676D02*
X49675237Y-53342438D01*
X49675237Y-53342438D02*
X49532380Y-53294819D01*
X49532380Y-53294819D02*
X49437142Y-53294819D01*
X49437142Y-53294819D02*
X49294285Y-53342438D01*
X49294285Y-53342438D02*
X49246666Y-53390057D01*
X48770475Y-54294819D02*
X48579999Y-54294819D01*
X48579999Y-54294819D02*
X48484761Y-54247200D01*
X48484761Y-54247200D02*
X48437142Y-54199580D01*
X48437142Y-54199580D02*
X48341904Y-54056723D01*
X48341904Y-54056723D02*
X48294285Y-53866247D01*
X48294285Y-53866247D02*
X48294285Y-53485295D01*
X48294285Y-53485295D02*
X48341904Y-53390057D01*
X48341904Y-53390057D02*
X48389523Y-53342438D01*
X48389523Y-53342438D02*
X48484761Y-53294819D01*
X48484761Y-53294819D02*
X48675237Y-53294819D01*
X48675237Y-53294819D02*
X48770475Y-53342438D01*
X48770475Y-53342438D02*
X48818094Y-53390057D01*
X48818094Y-53390057D02*
X48865713Y-53485295D01*
X48865713Y-53485295D02*
X48865713Y-53723390D01*
X48865713Y-53723390D02*
X48818094Y-53818628D01*
X48818094Y-53818628D02*
X48770475Y-53866247D01*
X48770475Y-53866247D02*
X48675237Y-53913866D01*
X48675237Y-53913866D02*
X48484761Y-53913866D01*
X48484761Y-53913866D02*
X48389523Y-53866247D01*
X48389523Y-53866247D02*
X48341904Y-53818628D01*
X48341904Y-53818628D02*
X48294285Y-53723390D01*
X28666666Y-71954819D02*
X28999999Y-71478628D01*
X29238094Y-71954819D02*
X29238094Y-70954819D01*
X29238094Y-70954819D02*
X28857142Y-70954819D01*
X28857142Y-70954819D02*
X28761904Y-71002438D01*
X28761904Y-71002438D02*
X28714285Y-71050057D01*
X28714285Y-71050057D02*
X28666666Y-71145295D01*
X28666666Y-71145295D02*
X28666666Y-71288152D01*
X28666666Y-71288152D02*
X28714285Y-71383390D01*
X28714285Y-71383390D02*
X28761904Y-71431009D01*
X28761904Y-71431009D02*
X28857142Y-71478628D01*
X28857142Y-71478628D02*
X29238094Y-71478628D01*
X27809523Y-71288152D02*
X27809523Y-71954819D01*
X28047618Y-70907200D02*
X28285713Y-71621485D01*
X28285713Y-71621485D02*
X27666666Y-71621485D01*
X52589580Y-59703333D02*
X52637200Y-59655714D01*
X52637200Y-59655714D02*
X52684819Y-59512857D01*
X52684819Y-59512857D02*
X52684819Y-59417619D01*
X52684819Y-59417619D02*
X52637200Y-59274762D01*
X52637200Y-59274762D02*
X52541961Y-59179524D01*
X52541961Y-59179524D02*
X52446723Y-59131905D01*
X52446723Y-59131905D02*
X52256247Y-59084286D01*
X52256247Y-59084286D02*
X52113390Y-59084286D01*
X52113390Y-59084286D02*
X51922914Y-59131905D01*
X51922914Y-59131905D02*
X51827676Y-59179524D01*
X51827676Y-59179524D02*
X51732438Y-59274762D01*
X51732438Y-59274762D02*
X51684819Y-59417619D01*
X51684819Y-59417619D02*
X51684819Y-59512857D01*
X51684819Y-59512857D02*
X51732438Y-59655714D01*
X51732438Y-59655714D02*
X51780057Y-59703333D01*
X51780057Y-60084286D02*
X51732438Y-60131905D01*
X51732438Y-60131905D02*
X51684819Y-60227143D01*
X51684819Y-60227143D02*
X51684819Y-60465238D01*
X51684819Y-60465238D02*
X51732438Y-60560476D01*
X51732438Y-60560476D02*
X51780057Y-60608095D01*
X51780057Y-60608095D02*
X51875295Y-60655714D01*
X51875295Y-60655714D02*
X51970533Y-60655714D01*
X51970533Y-60655714D02*
X52113390Y-60608095D01*
X52113390Y-60608095D02*
X52684819Y-60036667D01*
X52684819Y-60036667D02*
X52684819Y-60655714D01*
X61354819Y-49738095D02*
X62164342Y-49738095D01*
X62164342Y-49738095D02*
X62259580Y-49785714D01*
X62259580Y-49785714D02*
X62307200Y-49833333D01*
X62307200Y-49833333D02*
X62354819Y-49928571D01*
X62354819Y-49928571D02*
X62354819Y-50119047D01*
X62354819Y-50119047D02*
X62307200Y-50214285D01*
X62307200Y-50214285D02*
X62259580Y-50261904D01*
X62259580Y-50261904D02*
X62164342Y-50309523D01*
X62164342Y-50309523D02*
X61354819Y-50309523D01*
X61450057Y-50738095D02*
X61402438Y-50785714D01*
X61402438Y-50785714D02*
X61354819Y-50880952D01*
X61354819Y-50880952D02*
X61354819Y-51119047D01*
X61354819Y-51119047D02*
X61402438Y-51214285D01*
X61402438Y-51214285D02*
X61450057Y-51261904D01*
X61450057Y-51261904D02*
X61545295Y-51309523D01*
X61545295Y-51309523D02*
X61640533Y-51309523D01*
X61640533Y-51309523D02*
X61783390Y-51261904D01*
X61783390Y-51261904D02*
X62354819Y-50690476D01*
X62354819Y-50690476D02*
X62354819Y-51309523D01*
X35979819Y-94232142D02*
X35503628Y-93898809D01*
X35979819Y-93660714D02*
X34979819Y-93660714D01*
X34979819Y-93660714D02*
X34979819Y-94041666D01*
X34979819Y-94041666D02*
X35027438Y-94136904D01*
X35027438Y-94136904D02*
X35075057Y-94184523D01*
X35075057Y-94184523D02*
X35170295Y-94232142D01*
X35170295Y-94232142D02*
X35313152Y-94232142D01*
X35313152Y-94232142D02*
X35408390Y-94184523D01*
X35408390Y-94184523D02*
X35456009Y-94136904D01*
X35456009Y-94136904D02*
X35503628Y-94041666D01*
X35503628Y-94041666D02*
X35503628Y-93660714D01*
X34979819Y-94565476D02*
X34979819Y-95184523D01*
X34979819Y-95184523D02*
X35360771Y-94851190D01*
X35360771Y-94851190D02*
X35360771Y-94994047D01*
X35360771Y-94994047D02*
X35408390Y-95089285D01*
X35408390Y-95089285D02*
X35456009Y-95136904D01*
X35456009Y-95136904D02*
X35551247Y-95184523D01*
X35551247Y-95184523D02*
X35789342Y-95184523D01*
X35789342Y-95184523D02*
X35884580Y-95136904D01*
X35884580Y-95136904D02*
X35932200Y-95089285D01*
X35932200Y-95089285D02*
X35979819Y-94994047D01*
X35979819Y-94994047D02*
X35979819Y-94708333D01*
X35979819Y-94708333D02*
X35932200Y-94613095D01*
X35932200Y-94613095D02*
X35884580Y-94565476D01*
X35979819Y-95660714D02*
X35979819Y-95851190D01*
X35979819Y-95851190D02*
X35932200Y-95946428D01*
X35932200Y-95946428D02*
X35884580Y-95994047D01*
X35884580Y-95994047D02*
X35741723Y-96089285D01*
X35741723Y-96089285D02*
X35551247Y-96136904D01*
X35551247Y-96136904D02*
X35170295Y-96136904D01*
X35170295Y-96136904D02*
X35075057Y-96089285D01*
X35075057Y-96089285D02*
X35027438Y-96041666D01*
X35027438Y-96041666D02*
X34979819Y-95946428D01*
X34979819Y-95946428D02*
X34979819Y-95755952D01*
X34979819Y-95755952D02*
X35027438Y-95660714D01*
X35027438Y-95660714D02*
X35075057Y-95613095D01*
X35075057Y-95613095D02*
X35170295Y-95565476D01*
X35170295Y-95565476D02*
X35408390Y-95565476D01*
X35408390Y-95565476D02*
X35503628Y-95613095D01*
X35503628Y-95613095D02*
X35551247Y-95660714D01*
X35551247Y-95660714D02*
X35598866Y-95755952D01*
X35598866Y-95755952D02*
X35598866Y-95946428D01*
X35598866Y-95946428D02*
X35551247Y-96041666D01*
X35551247Y-96041666D02*
X35503628Y-96089285D01*
X35503628Y-96089285D02*
X35408390Y-96136904D01*
X55659819Y-109947142D02*
X55183628Y-109613809D01*
X55659819Y-109375714D02*
X54659819Y-109375714D01*
X54659819Y-109375714D02*
X54659819Y-109756666D01*
X54659819Y-109756666D02*
X54707438Y-109851904D01*
X54707438Y-109851904D02*
X54755057Y-109899523D01*
X54755057Y-109899523D02*
X54850295Y-109947142D01*
X54850295Y-109947142D02*
X54993152Y-109947142D01*
X54993152Y-109947142D02*
X55088390Y-109899523D01*
X55088390Y-109899523D02*
X55136009Y-109851904D01*
X55136009Y-109851904D02*
X55183628Y-109756666D01*
X55183628Y-109756666D02*
X55183628Y-109375714D01*
X54993152Y-110804285D02*
X55659819Y-110804285D01*
X54612200Y-110566190D02*
X55326485Y-110328095D01*
X55326485Y-110328095D02*
X55326485Y-110947142D01*
X54659819Y-111232857D02*
X54659819Y-111899523D01*
X54659819Y-111899523D02*
X55659819Y-111470952D01*
X48979580Y-58873333D02*
X49027200Y-58825714D01*
X49027200Y-58825714D02*
X49074819Y-58682857D01*
X49074819Y-58682857D02*
X49074819Y-58587619D01*
X49074819Y-58587619D02*
X49027200Y-58444762D01*
X49027200Y-58444762D02*
X48931961Y-58349524D01*
X48931961Y-58349524D02*
X48836723Y-58301905D01*
X48836723Y-58301905D02*
X48646247Y-58254286D01*
X48646247Y-58254286D02*
X48503390Y-58254286D01*
X48503390Y-58254286D02*
X48312914Y-58301905D01*
X48312914Y-58301905D02*
X48217676Y-58349524D01*
X48217676Y-58349524D02*
X48122438Y-58444762D01*
X48122438Y-58444762D02*
X48074819Y-58587619D01*
X48074819Y-58587619D02*
X48074819Y-58682857D01*
X48074819Y-58682857D02*
X48122438Y-58825714D01*
X48122438Y-58825714D02*
X48170057Y-58873333D01*
X48074819Y-59730476D02*
X48074819Y-59540000D01*
X48074819Y-59540000D02*
X48122438Y-59444762D01*
X48122438Y-59444762D02*
X48170057Y-59397143D01*
X48170057Y-59397143D02*
X48312914Y-59301905D01*
X48312914Y-59301905D02*
X48503390Y-59254286D01*
X48503390Y-59254286D02*
X48884342Y-59254286D01*
X48884342Y-59254286D02*
X48979580Y-59301905D01*
X48979580Y-59301905D02*
X49027200Y-59349524D01*
X49027200Y-59349524D02*
X49074819Y-59444762D01*
X49074819Y-59444762D02*
X49074819Y-59635238D01*
X49074819Y-59635238D02*
X49027200Y-59730476D01*
X49027200Y-59730476D02*
X48979580Y-59778095D01*
X48979580Y-59778095D02*
X48884342Y-59825714D01*
X48884342Y-59825714D02*
X48646247Y-59825714D01*
X48646247Y-59825714D02*
X48551009Y-59778095D01*
X48551009Y-59778095D02*
X48503390Y-59730476D01*
X48503390Y-59730476D02*
X48455771Y-59635238D01*
X48455771Y-59635238D02*
X48455771Y-59444762D01*
X48455771Y-59444762D02*
X48503390Y-59349524D01*
X48503390Y-59349524D02*
X48551009Y-59301905D01*
X48551009Y-59301905D02*
X48646247Y-59254286D01*
X41784819Y-77667142D02*
X41308628Y-77333809D01*
X41784819Y-77095714D02*
X40784819Y-77095714D01*
X40784819Y-77095714D02*
X40784819Y-77476666D01*
X40784819Y-77476666D02*
X40832438Y-77571904D01*
X40832438Y-77571904D02*
X40880057Y-77619523D01*
X40880057Y-77619523D02*
X40975295Y-77667142D01*
X40975295Y-77667142D02*
X41118152Y-77667142D01*
X41118152Y-77667142D02*
X41213390Y-77619523D01*
X41213390Y-77619523D02*
X41261009Y-77571904D01*
X41261009Y-77571904D02*
X41308628Y-77476666D01*
X41308628Y-77476666D02*
X41308628Y-77095714D01*
X40784819Y-78571904D02*
X40784819Y-78095714D01*
X40784819Y-78095714D02*
X41261009Y-78048095D01*
X41261009Y-78048095D02*
X41213390Y-78095714D01*
X41213390Y-78095714D02*
X41165771Y-78190952D01*
X41165771Y-78190952D02*
X41165771Y-78429047D01*
X41165771Y-78429047D02*
X41213390Y-78524285D01*
X41213390Y-78524285D02*
X41261009Y-78571904D01*
X41261009Y-78571904D02*
X41356247Y-78619523D01*
X41356247Y-78619523D02*
X41594342Y-78619523D01*
X41594342Y-78619523D02*
X41689580Y-78571904D01*
X41689580Y-78571904D02*
X41737200Y-78524285D01*
X41737200Y-78524285D02*
X41784819Y-78429047D01*
X41784819Y-78429047D02*
X41784819Y-78190952D01*
X41784819Y-78190952D02*
X41737200Y-78095714D01*
X41737200Y-78095714D02*
X41689580Y-78048095D01*
X40784819Y-79476666D02*
X40784819Y-79286190D01*
X40784819Y-79286190D02*
X40832438Y-79190952D01*
X40832438Y-79190952D02*
X40880057Y-79143333D01*
X40880057Y-79143333D02*
X41022914Y-79048095D01*
X41022914Y-79048095D02*
X41213390Y-79000476D01*
X41213390Y-79000476D02*
X41594342Y-79000476D01*
X41594342Y-79000476D02*
X41689580Y-79048095D01*
X41689580Y-79048095D02*
X41737200Y-79095714D01*
X41737200Y-79095714D02*
X41784819Y-79190952D01*
X41784819Y-79190952D02*
X41784819Y-79381428D01*
X41784819Y-79381428D02*
X41737200Y-79476666D01*
X41737200Y-79476666D02*
X41689580Y-79524285D01*
X41689580Y-79524285D02*
X41594342Y-79571904D01*
X41594342Y-79571904D02*
X41356247Y-79571904D01*
X41356247Y-79571904D02*
X41261009Y-79524285D01*
X41261009Y-79524285D02*
X41213390Y-79476666D01*
X41213390Y-79476666D02*
X41165771Y-79381428D01*
X41165771Y-79381428D02*
X41165771Y-79190952D01*
X41165771Y-79190952D02*
X41213390Y-79095714D01*
X41213390Y-79095714D02*
X41261009Y-79048095D01*
X41261009Y-79048095D02*
X41356247Y-79000476D01*
X32642857Y-43859580D02*
X32690476Y-43907200D01*
X32690476Y-43907200D02*
X32833333Y-43954819D01*
X32833333Y-43954819D02*
X32928571Y-43954819D01*
X32928571Y-43954819D02*
X33071428Y-43907200D01*
X33071428Y-43907200D02*
X33166666Y-43811961D01*
X33166666Y-43811961D02*
X33214285Y-43716723D01*
X33214285Y-43716723D02*
X33261904Y-43526247D01*
X33261904Y-43526247D02*
X33261904Y-43383390D01*
X33261904Y-43383390D02*
X33214285Y-43192914D01*
X33214285Y-43192914D02*
X33166666Y-43097676D01*
X33166666Y-43097676D02*
X33071428Y-43002438D01*
X33071428Y-43002438D02*
X32928571Y-42954819D01*
X32928571Y-42954819D02*
X32833333Y-42954819D01*
X32833333Y-42954819D02*
X32690476Y-43002438D01*
X32690476Y-43002438D02*
X32642857Y-43050057D01*
X32309523Y-42954819D02*
X31690476Y-42954819D01*
X31690476Y-42954819D02*
X32023809Y-43335771D01*
X32023809Y-43335771D02*
X31880952Y-43335771D01*
X31880952Y-43335771D02*
X31785714Y-43383390D01*
X31785714Y-43383390D02*
X31738095Y-43431009D01*
X31738095Y-43431009D02*
X31690476Y-43526247D01*
X31690476Y-43526247D02*
X31690476Y-43764342D01*
X31690476Y-43764342D02*
X31738095Y-43859580D01*
X31738095Y-43859580D02*
X31785714Y-43907200D01*
X31785714Y-43907200D02*
X31880952Y-43954819D01*
X31880952Y-43954819D02*
X32166666Y-43954819D01*
X32166666Y-43954819D02*
X32261904Y-43907200D01*
X32261904Y-43907200D02*
X32309523Y-43859580D01*
X30785714Y-42954819D02*
X31261904Y-42954819D01*
X31261904Y-42954819D02*
X31309523Y-43431009D01*
X31309523Y-43431009D02*
X31261904Y-43383390D01*
X31261904Y-43383390D02*
X31166666Y-43335771D01*
X31166666Y-43335771D02*
X30928571Y-43335771D01*
X30928571Y-43335771D02*
X30833333Y-43383390D01*
X30833333Y-43383390D02*
X30785714Y-43431009D01*
X30785714Y-43431009D02*
X30738095Y-43526247D01*
X30738095Y-43526247D02*
X30738095Y-43764342D01*
X30738095Y-43764342D02*
X30785714Y-43859580D01*
X30785714Y-43859580D02*
X30833333Y-43907200D01*
X30833333Y-43907200D02*
X30928571Y-43954819D01*
X30928571Y-43954819D02*
X31166666Y-43954819D01*
X31166666Y-43954819D02*
X31261904Y-43907200D01*
X31261904Y-43907200D02*
X31309523Y-43859580D01*
X36267857Y-64934580D02*
X36315476Y-64982200D01*
X36315476Y-64982200D02*
X36458333Y-65029819D01*
X36458333Y-65029819D02*
X36553571Y-65029819D01*
X36553571Y-65029819D02*
X36696428Y-64982200D01*
X36696428Y-64982200D02*
X36791666Y-64886961D01*
X36791666Y-64886961D02*
X36839285Y-64791723D01*
X36839285Y-64791723D02*
X36886904Y-64601247D01*
X36886904Y-64601247D02*
X36886904Y-64458390D01*
X36886904Y-64458390D02*
X36839285Y-64267914D01*
X36839285Y-64267914D02*
X36791666Y-64172676D01*
X36791666Y-64172676D02*
X36696428Y-64077438D01*
X36696428Y-64077438D02*
X36553571Y-64029819D01*
X36553571Y-64029819D02*
X36458333Y-64029819D01*
X36458333Y-64029819D02*
X36315476Y-64077438D01*
X36315476Y-64077438D02*
X36267857Y-64125057D01*
X35886904Y-64125057D02*
X35839285Y-64077438D01*
X35839285Y-64077438D02*
X35744047Y-64029819D01*
X35744047Y-64029819D02*
X35505952Y-64029819D01*
X35505952Y-64029819D02*
X35410714Y-64077438D01*
X35410714Y-64077438D02*
X35363095Y-64125057D01*
X35363095Y-64125057D02*
X35315476Y-64220295D01*
X35315476Y-64220295D02*
X35315476Y-64315533D01*
X35315476Y-64315533D02*
X35363095Y-64458390D01*
X35363095Y-64458390D02*
X35934523Y-65029819D01*
X35934523Y-65029819D02*
X35315476Y-65029819D01*
X34363095Y-65029819D02*
X34934523Y-65029819D01*
X34648809Y-65029819D02*
X34648809Y-64029819D01*
X34648809Y-64029819D02*
X34744047Y-64172676D01*
X34744047Y-64172676D02*
X34839285Y-64267914D01*
X34839285Y-64267914D02*
X34934523Y-64315533D01*
X25204819Y-36285714D02*
X24204819Y-36285714D01*
X24204819Y-36285714D02*
X24204819Y-36523809D01*
X24204819Y-36523809D02*
X24252438Y-36666666D01*
X24252438Y-36666666D02*
X24347676Y-36761904D01*
X24347676Y-36761904D02*
X24442914Y-36809523D01*
X24442914Y-36809523D02*
X24633390Y-36857142D01*
X24633390Y-36857142D02*
X24776247Y-36857142D01*
X24776247Y-36857142D02*
X24966723Y-36809523D01*
X24966723Y-36809523D02*
X25061961Y-36761904D01*
X25061961Y-36761904D02*
X25157200Y-36666666D01*
X25157200Y-36666666D02*
X25204819Y-36523809D01*
X25204819Y-36523809D02*
X25204819Y-36285714D01*
X25204819Y-37809523D02*
X25204819Y-37238095D01*
X25204819Y-37523809D02*
X24204819Y-37523809D01*
X24204819Y-37523809D02*
X24347676Y-37428571D01*
X24347676Y-37428571D02*
X24442914Y-37333333D01*
X24442914Y-37333333D02*
X24490533Y-37238095D01*
X24300057Y-38190476D02*
X24252438Y-38238095D01*
X24252438Y-38238095D02*
X24204819Y-38333333D01*
X24204819Y-38333333D02*
X24204819Y-38571428D01*
X24204819Y-38571428D02*
X24252438Y-38666666D01*
X24252438Y-38666666D02*
X24300057Y-38714285D01*
X24300057Y-38714285D02*
X24395295Y-38761904D01*
X24395295Y-38761904D02*
X24490533Y-38761904D01*
X24490533Y-38761904D02*
X24633390Y-38714285D01*
X24633390Y-38714285D02*
X25204819Y-38142857D01*
X25204819Y-38142857D02*
X25204819Y-38761904D01*
X40734580Y-69357142D02*
X40782200Y-69309523D01*
X40782200Y-69309523D02*
X40829819Y-69166666D01*
X40829819Y-69166666D02*
X40829819Y-69071428D01*
X40829819Y-69071428D02*
X40782200Y-68928571D01*
X40782200Y-68928571D02*
X40686961Y-68833333D01*
X40686961Y-68833333D02*
X40591723Y-68785714D01*
X40591723Y-68785714D02*
X40401247Y-68738095D01*
X40401247Y-68738095D02*
X40258390Y-68738095D01*
X40258390Y-68738095D02*
X40067914Y-68785714D01*
X40067914Y-68785714D02*
X39972676Y-68833333D01*
X39972676Y-68833333D02*
X39877438Y-68928571D01*
X39877438Y-68928571D02*
X39829819Y-69071428D01*
X39829819Y-69071428D02*
X39829819Y-69166666D01*
X39829819Y-69166666D02*
X39877438Y-69309523D01*
X39877438Y-69309523D02*
X39925057Y-69357142D01*
X40829819Y-70309523D02*
X40829819Y-69738095D01*
X40829819Y-70023809D02*
X39829819Y-70023809D01*
X39829819Y-70023809D02*
X39972676Y-69928571D01*
X39972676Y-69928571D02*
X40067914Y-69833333D01*
X40067914Y-69833333D02*
X40115533Y-69738095D01*
X39829819Y-70642857D02*
X39829819Y-71309523D01*
X39829819Y-71309523D02*
X40829819Y-70880952D01*
X54034819Y-33441666D02*
X54749104Y-33441666D01*
X54749104Y-33441666D02*
X54891961Y-33394047D01*
X54891961Y-33394047D02*
X54987200Y-33298809D01*
X54987200Y-33298809D02*
X55034819Y-33155952D01*
X55034819Y-33155952D02*
X55034819Y-33060714D01*
X54130057Y-33870238D02*
X54082438Y-33917857D01*
X54082438Y-33917857D02*
X54034819Y-34013095D01*
X54034819Y-34013095D02*
X54034819Y-34251190D01*
X54034819Y-34251190D02*
X54082438Y-34346428D01*
X54082438Y-34346428D02*
X54130057Y-34394047D01*
X54130057Y-34394047D02*
X54225295Y-34441666D01*
X54225295Y-34441666D02*
X54320533Y-34441666D01*
X54320533Y-34441666D02*
X54463390Y-34394047D01*
X54463390Y-34394047D02*
X55034819Y-33822619D01*
X55034819Y-33822619D02*
X55034819Y-34441666D01*
X38242857Y-92854819D02*
X38576190Y-92378628D01*
X38814285Y-92854819D02*
X38814285Y-91854819D01*
X38814285Y-91854819D02*
X38433333Y-91854819D01*
X38433333Y-91854819D02*
X38338095Y-91902438D01*
X38338095Y-91902438D02*
X38290476Y-91950057D01*
X38290476Y-91950057D02*
X38242857Y-92045295D01*
X38242857Y-92045295D02*
X38242857Y-92188152D01*
X38242857Y-92188152D02*
X38290476Y-92283390D01*
X38290476Y-92283390D02*
X38338095Y-92331009D01*
X38338095Y-92331009D02*
X38433333Y-92378628D01*
X38433333Y-92378628D02*
X38814285Y-92378628D01*
X37909523Y-91854819D02*
X37290476Y-91854819D01*
X37290476Y-91854819D02*
X37623809Y-92235771D01*
X37623809Y-92235771D02*
X37480952Y-92235771D01*
X37480952Y-92235771D02*
X37385714Y-92283390D01*
X37385714Y-92283390D02*
X37338095Y-92331009D01*
X37338095Y-92331009D02*
X37290476Y-92426247D01*
X37290476Y-92426247D02*
X37290476Y-92664342D01*
X37290476Y-92664342D02*
X37338095Y-92759580D01*
X37338095Y-92759580D02*
X37385714Y-92807200D01*
X37385714Y-92807200D02*
X37480952Y-92854819D01*
X37480952Y-92854819D02*
X37766666Y-92854819D01*
X37766666Y-92854819D02*
X37861904Y-92807200D01*
X37861904Y-92807200D02*
X37909523Y-92759580D01*
X36719047Y-92283390D02*
X36814285Y-92235771D01*
X36814285Y-92235771D02*
X36861904Y-92188152D01*
X36861904Y-92188152D02*
X36909523Y-92092914D01*
X36909523Y-92092914D02*
X36909523Y-92045295D01*
X36909523Y-92045295D02*
X36861904Y-91950057D01*
X36861904Y-91950057D02*
X36814285Y-91902438D01*
X36814285Y-91902438D02*
X36719047Y-91854819D01*
X36719047Y-91854819D02*
X36528571Y-91854819D01*
X36528571Y-91854819D02*
X36433333Y-91902438D01*
X36433333Y-91902438D02*
X36385714Y-91950057D01*
X36385714Y-91950057D02*
X36338095Y-92045295D01*
X36338095Y-92045295D02*
X36338095Y-92092914D01*
X36338095Y-92092914D02*
X36385714Y-92188152D01*
X36385714Y-92188152D02*
X36433333Y-92235771D01*
X36433333Y-92235771D02*
X36528571Y-92283390D01*
X36528571Y-92283390D02*
X36719047Y-92283390D01*
X36719047Y-92283390D02*
X36814285Y-92331009D01*
X36814285Y-92331009D02*
X36861904Y-92378628D01*
X36861904Y-92378628D02*
X36909523Y-92473866D01*
X36909523Y-92473866D02*
X36909523Y-92664342D01*
X36909523Y-92664342D02*
X36861904Y-92759580D01*
X36861904Y-92759580D02*
X36814285Y-92807200D01*
X36814285Y-92807200D02*
X36719047Y-92854819D01*
X36719047Y-92854819D02*
X36528571Y-92854819D01*
X36528571Y-92854819D02*
X36433333Y-92807200D01*
X36433333Y-92807200D02*
X36385714Y-92759580D01*
X36385714Y-92759580D02*
X36338095Y-92664342D01*
X36338095Y-92664342D02*
X36338095Y-92473866D01*
X36338095Y-92473866D02*
X36385714Y-92378628D01*
X36385714Y-92378628D02*
X36433333Y-92331009D01*
X36433333Y-92331009D02*
X36528571Y-92283390D01*
X25966666Y-62584580D02*
X26014285Y-62632200D01*
X26014285Y-62632200D02*
X26157142Y-62679819D01*
X26157142Y-62679819D02*
X26252380Y-62679819D01*
X26252380Y-62679819D02*
X26395237Y-62632200D01*
X26395237Y-62632200D02*
X26490475Y-62536961D01*
X26490475Y-62536961D02*
X26538094Y-62441723D01*
X26538094Y-62441723D02*
X26585713Y-62251247D01*
X26585713Y-62251247D02*
X26585713Y-62108390D01*
X26585713Y-62108390D02*
X26538094Y-61917914D01*
X26538094Y-61917914D02*
X26490475Y-61822676D01*
X26490475Y-61822676D02*
X26395237Y-61727438D01*
X26395237Y-61727438D02*
X26252380Y-61679819D01*
X26252380Y-61679819D02*
X26157142Y-61679819D01*
X26157142Y-61679819D02*
X26014285Y-61727438D01*
X26014285Y-61727438D02*
X25966666Y-61775057D01*
X25109523Y-62013152D02*
X25109523Y-62679819D01*
X25347618Y-61632200D02*
X25585713Y-62346485D01*
X25585713Y-62346485D02*
X24966666Y-62346485D01*
X38559580Y-96357142D02*
X38607200Y-96309523D01*
X38607200Y-96309523D02*
X38654819Y-96166666D01*
X38654819Y-96166666D02*
X38654819Y-96071428D01*
X38654819Y-96071428D02*
X38607200Y-95928571D01*
X38607200Y-95928571D02*
X38511961Y-95833333D01*
X38511961Y-95833333D02*
X38416723Y-95785714D01*
X38416723Y-95785714D02*
X38226247Y-95738095D01*
X38226247Y-95738095D02*
X38083390Y-95738095D01*
X38083390Y-95738095D02*
X37892914Y-95785714D01*
X37892914Y-95785714D02*
X37797676Y-95833333D01*
X37797676Y-95833333D02*
X37702438Y-95928571D01*
X37702438Y-95928571D02*
X37654819Y-96071428D01*
X37654819Y-96071428D02*
X37654819Y-96166666D01*
X37654819Y-96166666D02*
X37702438Y-96309523D01*
X37702438Y-96309523D02*
X37750057Y-96357142D01*
X37750057Y-96738095D02*
X37702438Y-96785714D01*
X37702438Y-96785714D02*
X37654819Y-96880952D01*
X37654819Y-96880952D02*
X37654819Y-97119047D01*
X37654819Y-97119047D02*
X37702438Y-97214285D01*
X37702438Y-97214285D02*
X37750057Y-97261904D01*
X37750057Y-97261904D02*
X37845295Y-97309523D01*
X37845295Y-97309523D02*
X37940533Y-97309523D01*
X37940533Y-97309523D02*
X38083390Y-97261904D01*
X38083390Y-97261904D02*
X38654819Y-96690476D01*
X38654819Y-96690476D02*
X38654819Y-97309523D01*
X37988152Y-98166666D02*
X38654819Y-98166666D01*
X37607200Y-97928571D02*
X38321485Y-97690476D01*
X38321485Y-97690476D02*
X38321485Y-98309523D01*
X27966666Y-64784580D02*
X28014285Y-64832200D01*
X28014285Y-64832200D02*
X28157142Y-64879819D01*
X28157142Y-64879819D02*
X28252380Y-64879819D01*
X28252380Y-64879819D02*
X28395237Y-64832200D01*
X28395237Y-64832200D02*
X28490475Y-64736961D01*
X28490475Y-64736961D02*
X28538094Y-64641723D01*
X28538094Y-64641723D02*
X28585713Y-64451247D01*
X28585713Y-64451247D02*
X28585713Y-64308390D01*
X28585713Y-64308390D02*
X28538094Y-64117914D01*
X28538094Y-64117914D02*
X28490475Y-64022676D01*
X28490475Y-64022676D02*
X28395237Y-63927438D01*
X28395237Y-63927438D02*
X28252380Y-63879819D01*
X28252380Y-63879819D02*
X28157142Y-63879819D01*
X28157142Y-63879819D02*
X28014285Y-63927438D01*
X28014285Y-63927438D02*
X27966666Y-63975057D01*
X27633332Y-63879819D02*
X27014285Y-63879819D01*
X27014285Y-63879819D02*
X27347618Y-64260771D01*
X27347618Y-64260771D02*
X27204761Y-64260771D01*
X27204761Y-64260771D02*
X27109523Y-64308390D01*
X27109523Y-64308390D02*
X27061904Y-64356009D01*
X27061904Y-64356009D02*
X27014285Y-64451247D01*
X27014285Y-64451247D02*
X27014285Y-64689342D01*
X27014285Y-64689342D02*
X27061904Y-64784580D01*
X27061904Y-64784580D02*
X27109523Y-64832200D01*
X27109523Y-64832200D02*
X27204761Y-64879819D01*
X27204761Y-64879819D02*
X27490475Y-64879819D01*
X27490475Y-64879819D02*
X27585713Y-64832200D01*
X27585713Y-64832200D02*
X27633332Y-64784580D01*
X33241666Y-60129819D02*
X33574999Y-59653628D01*
X33813094Y-60129819D02*
X33813094Y-59129819D01*
X33813094Y-59129819D02*
X33432142Y-59129819D01*
X33432142Y-59129819D02*
X33336904Y-59177438D01*
X33336904Y-59177438D02*
X33289285Y-59225057D01*
X33289285Y-59225057D02*
X33241666Y-59320295D01*
X33241666Y-59320295D02*
X33241666Y-59463152D01*
X33241666Y-59463152D02*
X33289285Y-59558390D01*
X33289285Y-59558390D02*
X33336904Y-59606009D01*
X33336904Y-59606009D02*
X33432142Y-59653628D01*
X33432142Y-59653628D02*
X33813094Y-59653628D01*
X32860713Y-59225057D02*
X32813094Y-59177438D01*
X32813094Y-59177438D02*
X32717856Y-59129819D01*
X32717856Y-59129819D02*
X32479761Y-59129819D01*
X32479761Y-59129819D02*
X32384523Y-59177438D01*
X32384523Y-59177438D02*
X32336904Y-59225057D01*
X32336904Y-59225057D02*
X32289285Y-59320295D01*
X32289285Y-59320295D02*
X32289285Y-59415533D01*
X32289285Y-59415533D02*
X32336904Y-59558390D01*
X32336904Y-59558390D02*
X32908332Y-60129819D01*
X32908332Y-60129819D02*
X32289285Y-60129819D01*
X33842857Y-62309580D02*
X33890476Y-62357200D01*
X33890476Y-62357200D02*
X34033333Y-62404819D01*
X34033333Y-62404819D02*
X34128571Y-62404819D01*
X34128571Y-62404819D02*
X34271428Y-62357200D01*
X34271428Y-62357200D02*
X34366666Y-62261961D01*
X34366666Y-62261961D02*
X34414285Y-62166723D01*
X34414285Y-62166723D02*
X34461904Y-61976247D01*
X34461904Y-61976247D02*
X34461904Y-61833390D01*
X34461904Y-61833390D02*
X34414285Y-61642914D01*
X34414285Y-61642914D02*
X34366666Y-61547676D01*
X34366666Y-61547676D02*
X34271428Y-61452438D01*
X34271428Y-61452438D02*
X34128571Y-61404819D01*
X34128571Y-61404819D02*
X34033333Y-61404819D01*
X34033333Y-61404819D02*
X33890476Y-61452438D01*
X33890476Y-61452438D02*
X33842857Y-61500057D01*
X32890476Y-62404819D02*
X33461904Y-62404819D01*
X33176190Y-62404819D02*
X33176190Y-61404819D01*
X33176190Y-61404819D02*
X33271428Y-61547676D01*
X33271428Y-61547676D02*
X33366666Y-61642914D01*
X33366666Y-61642914D02*
X33461904Y-61690533D01*
X32557142Y-61404819D02*
X31938095Y-61404819D01*
X31938095Y-61404819D02*
X32271428Y-61785771D01*
X32271428Y-61785771D02*
X32128571Y-61785771D01*
X32128571Y-61785771D02*
X32033333Y-61833390D01*
X32033333Y-61833390D02*
X31985714Y-61881009D01*
X31985714Y-61881009D02*
X31938095Y-61976247D01*
X31938095Y-61976247D02*
X31938095Y-62214342D01*
X31938095Y-62214342D02*
X31985714Y-62309580D01*
X31985714Y-62309580D02*
X32033333Y-62357200D01*
X32033333Y-62357200D02*
X32128571Y-62404819D01*
X32128571Y-62404819D02*
X32414285Y-62404819D01*
X32414285Y-62404819D02*
X32509523Y-62357200D01*
X32509523Y-62357200D02*
X32557142Y-62309580D01*
X48366666Y-71954819D02*
X48699999Y-71478628D01*
X48938094Y-71954819D02*
X48938094Y-70954819D01*
X48938094Y-70954819D02*
X48557142Y-70954819D01*
X48557142Y-70954819D02*
X48461904Y-71002438D01*
X48461904Y-71002438D02*
X48414285Y-71050057D01*
X48414285Y-71050057D02*
X48366666Y-71145295D01*
X48366666Y-71145295D02*
X48366666Y-71288152D01*
X48366666Y-71288152D02*
X48414285Y-71383390D01*
X48414285Y-71383390D02*
X48461904Y-71431009D01*
X48461904Y-71431009D02*
X48557142Y-71478628D01*
X48557142Y-71478628D02*
X48938094Y-71478628D01*
X47509523Y-70954819D02*
X47699999Y-70954819D01*
X47699999Y-70954819D02*
X47795237Y-71002438D01*
X47795237Y-71002438D02*
X47842856Y-71050057D01*
X47842856Y-71050057D02*
X47938094Y-71192914D01*
X47938094Y-71192914D02*
X47985713Y-71383390D01*
X47985713Y-71383390D02*
X47985713Y-71764342D01*
X47985713Y-71764342D02*
X47938094Y-71859580D01*
X47938094Y-71859580D02*
X47890475Y-71907200D01*
X47890475Y-71907200D02*
X47795237Y-71954819D01*
X47795237Y-71954819D02*
X47604761Y-71954819D01*
X47604761Y-71954819D02*
X47509523Y-71907200D01*
X47509523Y-71907200D02*
X47461904Y-71859580D01*
X47461904Y-71859580D02*
X47414285Y-71764342D01*
X47414285Y-71764342D02*
X47414285Y-71526247D01*
X47414285Y-71526247D02*
X47461904Y-71431009D01*
X47461904Y-71431009D02*
X47509523Y-71383390D01*
X47509523Y-71383390D02*
X47604761Y-71335771D01*
X47604761Y-71335771D02*
X47795237Y-71335771D01*
X47795237Y-71335771D02*
X47890475Y-71383390D01*
X47890475Y-71383390D02*
X47938094Y-71431009D01*
X47938094Y-71431009D02*
X47985713Y-71526247D01*
X52609580Y-42557142D02*
X52657200Y-42509523D01*
X52657200Y-42509523D02*
X52704819Y-42366666D01*
X52704819Y-42366666D02*
X52704819Y-42271428D01*
X52704819Y-42271428D02*
X52657200Y-42128571D01*
X52657200Y-42128571D02*
X52561961Y-42033333D01*
X52561961Y-42033333D02*
X52466723Y-41985714D01*
X52466723Y-41985714D02*
X52276247Y-41938095D01*
X52276247Y-41938095D02*
X52133390Y-41938095D01*
X52133390Y-41938095D02*
X51942914Y-41985714D01*
X51942914Y-41985714D02*
X51847676Y-42033333D01*
X51847676Y-42033333D02*
X51752438Y-42128571D01*
X51752438Y-42128571D02*
X51704819Y-42271428D01*
X51704819Y-42271428D02*
X51704819Y-42366666D01*
X51704819Y-42366666D02*
X51752438Y-42509523D01*
X51752438Y-42509523D02*
X51800057Y-42557142D01*
X51800057Y-42938095D02*
X51752438Y-42985714D01*
X51752438Y-42985714D02*
X51704819Y-43080952D01*
X51704819Y-43080952D02*
X51704819Y-43319047D01*
X51704819Y-43319047D02*
X51752438Y-43414285D01*
X51752438Y-43414285D02*
X51800057Y-43461904D01*
X51800057Y-43461904D02*
X51895295Y-43509523D01*
X51895295Y-43509523D02*
X51990533Y-43509523D01*
X51990533Y-43509523D02*
X52133390Y-43461904D01*
X52133390Y-43461904D02*
X52704819Y-42890476D01*
X52704819Y-42890476D02*
X52704819Y-43509523D01*
X51704819Y-43842857D02*
X51704819Y-44461904D01*
X51704819Y-44461904D02*
X52085771Y-44128571D01*
X52085771Y-44128571D02*
X52085771Y-44271428D01*
X52085771Y-44271428D02*
X52133390Y-44366666D01*
X52133390Y-44366666D02*
X52181009Y-44414285D01*
X52181009Y-44414285D02*
X52276247Y-44461904D01*
X52276247Y-44461904D02*
X52514342Y-44461904D01*
X52514342Y-44461904D02*
X52609580Y-44414285D01*
X52609580Y-44414285D02*
X52657200Y-44366666D01*
X52657200Y-44366666D02*
X52704819Y-44271428D01*
X52704819Y-44271428D02*
X52704819Y-43985714D01*
X52704819Y-43985714D02*
X52657200Y-43890476D01*
X52657200Y-43890476D02*
X52609580Y-43842857D01*
X47159580Y-49832142D02*
X47207200Y-49784523D01*
X47207200Y-49784523D02*
X47254819Y-49641666D01*
X47254819Y-49641666D02*
X47254819Y-49546428D01*
X47254819Y-49546428D02*
X47207200Y-49403571D01*
X47207200Y-49403571D02*
X47111961Y-49308333D01*
X47111961Y-49308333D02*
X47016723Y-49260714D01*
X47016723Y-49260714D02*
X46826247Y-49213095D01*
X46826247Y-49213095D02*
X46683390Y-49213095D01*
X46683390Y-49213095D02*
X46492914Y-49260714D01*
X46492914Y-49260714D02*
X46397676Y-49308333D01*
X46397676Y-49308333D02*
X46302438Y-49403571D01*
X46302438Y-49403571D02*
X46254819Y-49546428D01*
X46254819Y-49546428D02*
X46254819Y-49641666D01*
X46254819Y-49641666D02*
X46302438Y-49784523D01*
X46302438Y-49784523D02*
X46350057Y-49832142D01*
X46350057Y-50213095D02*
X46302438Y-50260714D01*
X46302438Y-50260714D02*
X46254819Y-50355952D01*
X46254819Y-50355952D02*
X46254819Y-50594047D01*
X46254819Y-50594047D02*
X46302438Y-50689285D01*
X46302438Y-50689285D02*
X46350057Y-50736904D01*
X46350057Y-50736904D02*
X46445295Y-50784523D01*
X46445295Y-50784523D02*
X46540533Y-50784523D01*
X46540533Y-50784523D02*
X46683390Y-50736904D01*
X46683390Y-50736904D02*
X47254819Y-50165476D01*
X47254819Y-50165476D02*
X47254819Y-50784523D01*
X46254819Y-51403571D02*
X46254819Y-51498809D01*
X46254819Y-51498809D02*
X46302438Y-51594047D01*
X46302438Y-51594047D02*
X46350057Y-51641666D01*
X46350057Y-51641666D02*
X46445295Y-51689285D01*
X46445295Y-51689285D02*
X46635771Y-51736904D01*
X46635771Y-51736904D02*
X46873866Y-51736904D01*
X46873866Y-51736904D02*
X47064342Y-51689285D01*
X47064342Y-51689285D02*
X47159580Y-51641666D01*
X47159580Y-51641666D02*
X47207200Y-51594047D01*
X47207200Y-51594047D02*
X47254819Y-51498809D01*
X47254819Y-51498809D02*
X47254819Y-51403571D01*
X47254819Y-51403571D02*
X47207200Y-51308333D01*
X47207200Y-51308333D02*
X47159580Y-51260714D01*
X47159580Y-51260714D02*
X47064342Y-51213095D01*
X47064342Y-51213095D02*
X46873866Y-51165476D01*
X46873866Y-51165476D02*
X46635771Y-51165476D01*
X46635771Y-51165476D02*
X46445295Y-51213095D01*
X46445295Y-51213095D02*
X46350057Y-51260714D01*
X46350057Y-51260714D02*
X46302438Y-51308333D01*
X46302438Y-51308333D02*
X46254819Y-51403571D01*
X50492857Y-48659580D02*
X50540476Y-48707200D01*
X50540476Y-48707200D02*
X50683333Y-48754819D01*
X50683333Y-48754819D02*
X50778571Y-48754819D01*
X50778571Y-48754819D02*
X50921428Y-48707200D01*
X50921428Y-48707200D02*
X51016666Y-48611961D01*
X51016666Y-48611961D02*
X51064285Y-48516723D01*
X51064285Y-48516723D02*
X51111904Y-48326247D01*
X51111904Y-48326247D02*
X51111904Y-48183390D01*
X51111904Y-48183390D02*
X51064285Y-47992914D01*
X51064285Y-47992914D02*
X51016666Y-47897676D01*
X51016666Y-47897676D02*
X50921428Y-47802438D01*
X50921428Y-47802438D02*
X50778571Y-47754819D01*
X50778571Y-47754819D02*
X50683333Y-47754819D01*
X50683333Y-47754819D02*
X50540476Y-47802438D01*
X50540476Y-47802438D02*
X50492857Y-47850057D01*
X50111904Y-47850057D02*
X50064285Y-47802438D01*
X50064285Y-47802438D02*
X49969047Y-47754819D01*
X49969047Y-47754819D02*
X49730952Y-47754819D01*
X49730952Y-47754819D02*
X49635714Y-47802438D01*
X49635714Y-47802438D02*
X49588095Y-47850057D01*
X49588095Y-47850057D02*
X49540476Y-47945295D01*
X49540476Y-47945295D02*
X49540476Y-48040533D01*
X49540476Y-48040533D02*
X49588095Y-48183390D01*
X49588095Y-48183390D02*
X50159523Y-48754819D01*
X50159523Y-48754819D02*
X49540476Y-48754819D01*
X48635714Y-47754819D02*
X49111904Y-47754819D01*
X49111904Y-47754819D02*
X49159523Y-48231009D01*
X49159523Y-48231009D02*
X49111904Y-48183390D01*
X49111904Y-48183390D02*
X49016666Y-48135771D01*
X49016666Y-48135771D02*
X48778571Y-48135771D01*
X48778571Y-48135771D02*
X48683333Y-48183390D01*
X48683333Y-48183390D02*
X48635714Y-48231009D01*
X48635714Y-48231009D02*
X48588095Y-48326247D01*
X48588095Y-48326247D02*
X48588095Y-48564342D01*
X48588095Y-48564342D02*
X48635714Y-48659580D01*
X48635714Y-48659580D02*
X48683333Y-48707200D01*
X48683333Y-48707200D02*
X48778571Y-48754819D01*
X48778571Y-48754819D02*
X49016666Y-48754819D01*
X49016666Y-48754819D02*
X49111904Y-48707200D01*
X49111904Y-48707200D02*
X49159523Y-48659580D01*
X25859580Y-40307142D02*
X25907200Y-40259523D01*
X25907200Y-40259523D02*
X25954819Y-40116666D01*
X25954819Y-40116666D02*
X25954819Y-40021428D01*
X25954819Y-40021428D02*
X25907200Y-39878571D01*
X25907200Y-39878571D02*
X25811961Y-39783333D01*
X25811961Y-39783333D02*
X25716723Y-39735714D01*
X25716723Y-39735714D02*
X25526247Y-39688095D01*
X25526247Y-39688095D02*
X25383390Y-39688095D01*
X25383390Y-39688095D02*
X25192914Y-39735714D01*
X25192914Y-39735714D02*
X25097676Y-39783333D01*
X25097676Y-39783333D02*
X25002438Y-39878571D01*
X25002438Y-39878571D02*
X24954819Y-40021428D01*
X24954819Y-40021428D02*
X24954819Y-40116666D01*
X24954819Y-40116666D02*
X25002438Y-40259523D01*
X25002438Y-40259523D02*
X25050057Y-40307142D01*
X25050057Y-40688095D02*
X25002438Y-40735714D01*
X25002438Y-40735714D02*
X24954819Y-40830952D01*
X24954819Y-40830952D02*
X24954819Y-41069047D01*
X24954819Y-41069047D02*
X25002438Y-41164285D01*
X25002438Y-41164285D02*
X25050057Y-41211904D01*
X25050057Y-41211904D02*
X25145295Y-41259523D01*
X25145295Y-41259523D02*
X25240533Y-41259523D01*
X25240533Y-41259523D02*
X25383390Y-41211904D01*
X25383390Y-41211904D02*
X25954819Y-40640476D01*
X25954819Y-40640476D02*
X25954819Y-41259523D01*
X25954819Y-41735714D02*
X25954819Y-41926190D01*
X25954819Y-41926190D02*
X25907200Y-42021428D01*
X25907200Y-42021428D02*
X25859580Y-42069047D01*
X25859580Y-42069047D02*
X25716723Y-42164285D01*
X25716723Y-42164285D02*
X25526247Y-42211904D01*
X25526247Y-42211904D02*
X25145295Y-42211904D01*
X25145295Y-42211904D02*
X25050057Y-42164285D01*
X25050057Y-42164285D02*
X25002438Y-42116666D01*
X25002438Y-42116666D02*
X24954819Y-42021428D01*
X24954819Y-42021428D02*
X24954819Y-41830952D01*
X24954819Y-41830952D02*
X25002438Y-41735714D01*
X25002438Y-41735714D02*
X25050057Y-41688095D01*
X25050057Y-41688095D02*
X25145295Y-41640476D01*
X25145295Y-41640476D02*
X25383390Y-41640476D01*
X25383390Y-41640476D02*
X25478628Y-41688095D01*
X25478628Y-41688095D02*
X25526247Y-41735714D01*
X25526247Y-41735714D02*
X25573866Y-41830952D01*
X25573866Y-41830952D02*
X25573866Y-42021428D01*
X25573866Y-42021428D02*
X25526247Y-42116666D01*
X25526247Y-42116666D02*
X25478628Y-42164285D01*
X25478628Y-42164285D02*
X25383390Y-42211904D01*
X50169580Y-58863333D02*
X50217200Y-58815714D01*
X50217200Y-58815714D02*
X50264819Y-58672857D01*
X50264819Y-58672857D02*
X50264819Y-58577619D01*
X50264819Y-58577619D02*
X50217200Y-58434762D01*
X50217200Y-58434762D02*
X50121961Y-58339524D01*
X50121961Y-58339524D02*
X50026723Y-58291905D01*
X50026723Y-58291905D02*
X49836247Y-58244286D01*
X49836247Y-58244286D02*
X49693390Y-58244286D01*
X49693390Y-58244286D02*
X49502914Y-58291905D01*
X49502914Y-58291905D02*
X49407676Y-58339524D01*
X49407676Y-58339524D02*
X49312438Y-58434762D01*
X49312438Y-58434762D02*
X49264819Y-58577619D01*
X49264819Y-58577619D02*
X49264819Y-58672857D01*
X49264819Y-58672857D02*
X49312438Y-58815714D01*
X49312438Y-58815714D02*
X49360057Y-58863333D01*
X49264819Y-59196667D02*
X49264819Y-59863333D01*
X49264819Y-59863333D02*
X50264819Y-59434762D01*
X28209580Y-25833333D02*
X28257200Y-25785714D01*
X28257200Y-25785714D02*
X28304819Y-25642857D01*
X28304819Y-25642857D02*
X28304819Y-25547619D01*
X28304819Y-25547619D02*
X28257200Y-25404762D01*
X28257200Y-25404762D02*
X28161961Y-25309524D01*
X28161961Y-25309524D02*
X28066723Y-25261905D01*
X28066723Y-25261905D02*
X27876247Y-25214286D01*
X27876247Y-25214286D02*
X27733390Y-25214286D01*
X27733390Y-25214286D02*
X27542914Y-25261905D01*
X27542914Y-25261905D02*
X27447676Y-25309524D01*
X27447676Y-25309524D02*
X27352438Y-25404762D01*
X27352438Y-25404762D02*
X27304819Y-25547619D01*
X27304819Y-25547619D02*
X27304819Y-25642857D01*
X27304819Y-25642857D02*
X27352438Y-25785714D01*
X27352438Y-25785714D02*
X27400057Y-25833333D01*
X28304819Y-26785714D02*
X28304819Y-26214286D01*
X28304819Y-26500000D02*
X27304819Y-26500000D01*
X27304819Y-26500000D02*
X27447676Y-26404762D01*
X27447676Y-26404762D02*
X27542914Y-26309524D01*
X27542914Y-26309524D02*
X27590533Y-26214286D01*
X57552857Y-79384819D02*
X57886190Y-78908628D01*
X58124285Y-79384819D02*
X58124285Y-78384819D01*
X58124285Y-78384819D02*
X57743333Y-78384819D01*
X57743333Y-78384819D02*
X57648095Y-78432438D01*
X57648095Y-78432438D02*
X57600476Y-78480057D01*
X57600476Y-78480057D02*
X57552857Y-78575295D01*
X57552857Y-78575295D02*
X57552857Y-78718152D01*
X57552857Y-78718152D02*
X57600476Y-78813390D01*
X57600476Y-78813390D02*
X57648095Y-78861009D01*
X57648095Y-78861009D02*
X57743333Y-78908628D01*
X57743333Y-78908628D02*
X58124285Y-78908628D01*
X56648095Y-78384819D02*
X57124285Y-78384819D01*
X57124285Y-78384819D02*
X57171904Y-78861009D01*
X57171904Y-78861009D02*
X57124285Y-78813390D01*
X57124285Y-78813390D02*
X57029047Y-78765771D01*
X57029047Y-78765771D02*
X56790952Y-78765771D01*
X56790952Y-78765771D02*
X56695714Y-78813390D01*
X56695714Y-78813390D02*
X56648095Y-78861009D01*
X56648095Y-78861009D02*
X56600476Y-78956247D01*
X56600476Y-78956247D02*
X56600476Y-79194342D01*
X56600476Y-79194342D02*
X56648095Y-79289580D01*
X56648095Y-79289580D02*
X56695714Y-79337200D01*
X56695714Y-79337200D02*
X56790952Y-79384819D01*
X56790952Y-79384819D02*
X57029047Y-79384819D01*
X57029047Y-79384819D02*
X57124285Y-79337200D01*
X57124285Y-79337200D02*
X57171904Y-79289580D01*
X56267142Y-78384819D02*
X55600476Y-78384819D01*
X55600476Y-78384819D02*
X56029047Y-79384819D01*
X57442857Y-91254819D02*
X57776190Y-90778628D01*
X58014285Y-91254819D02*
X58014285Y-90254819D01*
X58014285Y-90254819D02*
X57633333Y-90254819D01*
X57633333Y-90254819D02*
X57538095Y-90302438D01*
X57538095Y-90302438D02*
X57490476Y-90350057D01*
X57490476Y-90350057D02*
X57442857Y-90445295D01*
X57442857Y-90445295D02*
X57442857Y-90588152D01*
X57442857Y-90588152D02*
X57490476Y-90683390D01*
X57490476Y-90683390D02*
X57538095Y-90731009D01*
X57538095Y-90731009D02*
X57633333Y-90778628D01*
X57633333Y-90778628D02*
X58014285Y-90778628D01*
X56538095Y-90254819D02*
X57014285Y-90254819D01*
X57014285Y-90254819D02*
X57061904Y-90731009D01*
X57061904Y-90731009D02*
X57014285Y-90683390D01*
X57014285Y-90683390D02*
X56919047Y-90635771D01*
X56919047Y-90635771D02*
X56680952Y-90635771D01*
X56680952Y-90635771D02*
X56585714Y-90683390D01*
X56585714Y-90683390D02*
X56538095Y-90731009D01*
X56538095Y-90731009D02*
X56490476Y-90826247D01*
X56490476Y-90826247D02*
X56490476Y-91064342D01*
X56490476Y-91064342D02*
X56538095Y-91159580D01*
X56538095Y-91159580D02*
X56585714Y-91207200D01*
X56585714Y-91207200D02*
X56680952Y-91254819D01*
X56680952Y-91254819D02*
X56919047Y-91254819D01*
X56919047Y-91254819D02*
X57014285Y-91207200D01*
X57014285Y-91207200D02*
X57061904Y-91159580D01*
X55585714Y-90254819D02*
X56061904Y-90254819D01*
X56061904Y-90254819D02*
X56109523Y-90731009D01*
X56109523Y-90731009D02*
X56061904Y-90683390D01*
X56061904Y-90683390D02*
X55966666Y-90635771D01*
X55966666Y-90635771D02*
X55728571Y-90635771D01*
X55728571Y-90635771D02*
X55633333Y-90683390D01*
X55633333Y-90683390D02*
X55585714Y-90731009D01*
X55585714Y-90731009D02*
X55538095Y-90826247D01*
X55538095Y-90826247D02*
X55538095Y-91064342D01*
X55538095Y-91064342D02*
X55585714Y-91159580D01*
X55585714Y-91159580D02*
X55633333Y-91207200D01*
X55633333Y-91207200D02*
X55728571Y-91254819D01*
X55728571Y-91254819D02*
X55966666Y-91254819D01*
X55966666Y-91254819D02*
X56061904Y-91207200D01*
X56061904Y-91207200D02*
X56109523Y-91159580D01*
X36641666Y-72054819D02*
X36974999Y-71578628D01*
X37213094Y-72054819D02*
X37213094Y-71054819D01*
X37213094Y-71054819D02*
X36832142Y-71054819D01*
X36832142Y-71054819D02*
X36736904Y-71102438D01*
X36736904Y-71102438D02*
X36689285Y-71150057D01*
X36689285Y-71150057D02*
X36641666Y-71245295D01*
X36641666Y-71245295D02*
X36641666Y-71388152D01*
X36641666Y-71388152D02*
X36689285Y-71483390D01*
X36689285Y-71483390D02*
X36736904Y-71531009D01*
X36736904Y-71531009D02*
X36832142Y-71578628D01*
X36832142Y-71578628D02*
X37213094Y-71578628D01*
X35736904Y-71054819D02*
X36213094Y-71054819D01*
X36213094Y-71054819D02*
X36260713Y-71531009D01*
X36260713Y-71531009D02*
X36213094Y-71483390D01*
X36213094Y-71483390D02*
X36117856Y-71435771D01*
X36117856Y-71435771D02*
X35879761Y-71435771D01*
X35879761Y-71435771D02*
X35784523Y-71483390D01*
X35784523Y-71483390D02*
X35736904Y-71531009D01*
X35736904Y-71531009D02*
X35689285Y-71626247D01*
X35689285Y-71626247D02*
X35689285Y-71864342D01*
X35689285Y-71864342D02*
X35736904Y-71959580D01*
X35736904Y-71959580D02*
X35784523Y-72007200D01*
X35784523Y-72007200D02*
X35879761Y-72054819D01*
X35879761Y-72054819D02*
X36117856Y-72054819D01*
X36117856Y-72054819D02*
X36213094Y-72007200D01*
X36213094Y-72007200D02*
X36260713Y-71959580D01*
X57967857Y-71779819D02*
X58301190Y-71303628D01*
X58539285Y-71779819D02*
X58539285Y-70779819D01*
X58539285Y-70779819D02*
X58158333Y-70779819D01*
X58158333Y-70779819D02*
X58063095Y-70827438D01*
X58063095Y-70827438D02*
X58015476Y-70875057D01*
X58015476Y-70875057D02*
X57967857Y-70970295D01*
X57967857Y-70970295D02*
X57967857Y-71113152D01*
X57967857Y-71113152D02*
X58015476Y-71208390D01*
X58015476Y-71208390D02*
X58063095Y-71256009D01*
X58063095Y-71256009D02*
X58158333Y-71303628D01*
X58158333Y-71303628D02*
X58539285Y-71303628D01*
X57015476Y-71779819D02*
X57586904Y-71779819D01*
X57301190Y-71779819D02*
X57301190Y-70779819D01*
X57301190Y-70779819D02*
X57396428Y-70922676D01*
X57396428Y-70922676D02*
X57491666Y-71017914D01*
X57491666Y-71017914D02*
X57586904Y-71065533D01*
X56682142Y-70779819D02*
X56063095Y-70779819D01*
X56063095Y-70779819D02*
X56396428Y-71160771D01*
X56396428Y-71160771D02*
X56253571Y-71160771D01*
X56253571Y-71160771D02*
X56158333Y-71208390D01*
X56158333Y-71208390D02*
X56110714Y-71256009D01*
X56110714Y-71256009D02*
X56063095Y-71351247D01*
X56063095Y-71351247D02*
X56063095Y-71589342D01*
X56063095Y-71589342D02*
X56110714Y-71684580D01*
X56110714Y-71684580D02*
X56158333Y-71732200D01*
X56158333Y-71732200D02*
X56253571Y-71779819D01*
X56253571Y-71779819D02*
X56539285Y-71779819D01*
X56539285Y-71779819D02*
X56634523Y-71732200D01*
X56634523Y-71732200D02*
X56682142Y-71684580D01*
X56526666Y-57574819D02*
X56859999Y-57098628D01*
X57098094Y-57574819D02*
X57098094Y-56574819D01*
X57098094Y-56574819D02*
X56717142Y-56574819D01*
X56717142Y-56574819D02*
X56621904Y-56622438D01*
X56621904Y-56622438D02*
X56574285Y-56670057D01*
X56574285Y-56670057D02*
X56526666Y-56765295D01*
X56526666Y-56765295D02*
X56526666Y-56908152D01*
X56526666Y-56908152D02*
X56574285Y-57003390D01*
X56574285Y-57003390D02*
X56621904Y-57051009D01*
X56621904Y-57051009D02*
X56717142Y-57098628D01*
X56717142Y-57098628D02*
X57098094Y-57098628D01*
X55955237Y-57003390D02*
X56050475Y-56955771D01*
X56050475Y-56955771D02*
X56098094Y-56908152D01*
X56098094Y-56908152D02*
X56145713Y-56812914D01*
X56145713Y-56812914D02*
X56145713Y-56765295D01*
X56145713Y-56765295D02*
X56098094Y-56670057D01*
X56098094Y-56670057D02*
X56050475Y-56622438D01*
X56050475Y-56622438D02*
X55955237Y-56574819D01*
X55955237Y-56574819D02*
X55764761Y-56574819D01*
X55764761Y-56574819D02*
X55669523Y-56622438D01*
X55669523Y-56622438D02*
X55621904Y-56670057D01*
X55621904Y-56670057D02*
X55574285Y-56765295D01*
X55574285Y-56765295D02*
X55574285Y-56812914D01*
X55574285Y-56812914D02*
X55621904Y-56908152D01*
X55621904Y-56908152D02*
X55669523Y-56955771D01*
X55669523Y-56955771D02*
X55764761Y-57003390D01*
X55764761Y-57003390D02*
X55955237Y-57003390D01*
X55955237Y-57003390D02*
X56050475Y-57051009D01*
X56050475Y-57051009D02*
X56098094Y-57098628D01*
X56098094Y-57098628D02*
X56145713Y-57193866D01*
X56145713Y-57193866D02*
X56145713Y-57384342D01*
X56145713Y-57384342D02*
X56098094Y-57479580D01*
X56098094Y-57479580D02*
X56050475Y-57527200D01*
X56050475Y-57527200D02*
X55955237Y-57574819D01*
X55955237Y-57574819D02*
X55764761Y-57574819D01*
X55764761Y-57574819D02*
X55669523Y-57527200D01*
X55669523Y-57527200D02*
X55621904Y-57479580D01*
X55621904Y-57479580D02*
X55574285Y-57384342D01*
X55574285Y-57384342D02*
X55574285Y-57193866D01*
X55574285Y-57193866D02*
X55621904Y-57098628D01*
X55621904Y-57098628D02*
X55669523Y-57051009D01*
X55669523Y-57051009D02*
X55764761Y-57003390D01*
X24954819Y-33607142D02*
X24478628Y-33273809D01*
X24954819Y-33035714D02*
X23954819Y-33035714D01*
X23954819Y-33035714D02*
X23954819Y-33416666D01*
X23954819Y-33416666D02*
X24002438Y-33511904D01*
X24002438Y-33511904D02*
X24050057Y-33559523D01*
X24050057Y-33559523D02*
X24145295Y-33607142D01*
X24145295Y-33607142D02*
X24288152Y-33607142D01*
X24288152Y-33607142D02*
X24383390Y-33559523D01*
X24383390Y-33559523D02*
X24431009Y-33511904D01*
X24431009Y-33511904D02*
X24478628Y-33416666D01*
X24478628Y-33416666D02*
X24478628Y-33035714D01*
X24288152Y-34464285D02*
X24954819Y-34464285D01*
X23907200Y-34226190D02*
X24621485Y-33988095D01*
X24621485Y-33988095D02*
X24621485Y-34607142D01*
X24954819Y-35511904D02*
X24954819Y-34940476D01*
X24954819Y-35226190D02*
X23954819Y-35226190D01*
X23954819Y-35226190D02*
X24097676Y-35130952D01*
X24097676Y-35130952D02*
X24192914Y-35035714D01*
X24192914Y-35035714D02*
X24240533Y-34940476D01*
X36442857Y-97354819D02*
X36776190Y-96878628D01*
X37014285Y-97354819D02*
X37014285Y-96354819D01*
X37014285Y-96354819D02*
X36633333Y-96354819D01*
X36633333Y-96354819D02*
X36538095Y-96402438D01*
X36538095Y-96402438D02*
X36490476Y-96450057D01*
X36490476Y-96450057D02*
X36442857Y-96545295D01*
X36442857Y-96545295D02*
X36442857Y-96688152D01*
X36442857Y-96688152D02*
X36490476Y-96783390D01*
X36490476Y-96783390D02*
X36538095Y-96831009D01*
X36538095Y-96831009D02*
X36633333Y-96878628D01*
X36633333Y-96878628D02*
X37014285Y-96878628D01*
X35490476Y-97354819D02*
X36061904Y-97354819D01*
X35776190Y-97354819D02*
X35776190Y-96354819D01*
X35776190Y-96354819D02*
X35871428Y-96497676D01*
X35871428Y-96497676D02*
X35966666Y-96592914D01*
X35966666Y-96592914D02*
X36061904Y-96640533D01*
X34538095Y-97354819D02*
X35109523Y-97354819D01*
X34823809Y-97354819D02*
X34823809Y-96354819D01*
X34823809Y-96354819D02*
X34919047Y-96497676D01*
X34919047Y-96497676D02*
X35014285Y-96592914D01*
X35014285Y-96592914D02*
X35109523Y-96640533D01*
X35592857Y-58834580D02*
X35640476Y-58882200D01*
X35640476Y-58882200D02*
X35783333Y-58929819D01*
X35783333Y-58929819D02*
X35878571Y-58929819D01*
X35878571Y-58929819D02*
X36021428Y-58882200D01*
X36021428Y-58882200D02*
X36116666Y-58786961D01*
X36116666Y-58786961D02*
X36164285Y-58691723D01*
X36164285Y-58691723D02*
X36211904Y-58501247D01*
X36211904Y-58501247D02*
X36211904Y-58358390D01*
X36211904Y-58358390D02*
X36164285Y-58167914D01*
X36164285Y-58167914D02*
X36116666Y-58072676D01*
X36116666Y-58072676D02*
X36021428Y-57977438D01*
X36021428Y-57977438D02*
X35878571Y-57929819D01*
X35878571Y-57929819D02*
X35783333Y-57929819D01*
X35783333Y-57929819D02*
X35640476Y-57977438D01*
X35640476Y-57977438D02*
X35592857Y-58025057D01*
X34640476Y-58929819D02*
X35211904Y-58929819D01*
X34926190Y-58929819D02*
X34926190Y-57929819D01*
X34926190Y-57929819D02*
X35021428Y-58072676D01*
X35021428Y-58072676D02*
X35116666Y-58167914D01*
X35116666Y-58167914D02*
X35211904Y-58215533D01*
X34021428Y-57929819D02*
X33926190Y-57929819D01*
X33926190Y-57929819D02*
X33830952Y-57977438D01*
X33830952Y-57977438D02*
X33783333Y-58025057D01*
X33783333Y-58025057D02*
X33735714Y-58120295D01*
X33735714Y-58120295D02*
X33688095Y-58310771D01*
X33688095Y-58310771D02*
X33688095Y-58548866D01*
X33688095Y-58548866D02*
X33735714Y-58739342D01*
X33735714Y-58739342D02*
X33783333Y-58834580D01*
X33783333Y-58834580D02*
X33830952Y-58882200D01*
X33830952Y-58882200D02*
X33926190Y-58929819D01*
X33926190Y-58929819D02*
X34021428Y-58929819D01*
X34021428Y-58929819D02*
X34116666Y-58882200D01*
X34116666Y-58882200D02*
X34164285Y-58834580D01*
X34164285Y-58834580D02*
X34211904Y-58739342D01*
X34211904Y-58739342D02*
X34259523Y-58548866D01*
X34259523Y-58548866D02*
X34259523Y-58310771D01*
X34259523Y-58310771D02*
X34211904Y-58120295D01*
X34211904Y-58120295D02*
X34164285Y-58025057D01*
X34164285Y-58025057D02*
X34116666Y-57977438D01*
X34116666Y-57977438D02*
X34021428Y-57929819D01*
X30632857Y-82324819D02*
X30966190Y-81848628D01*
X31204285Y-82324819D02*
X31204285Y-81324819D01*
X31204285Y-81324819D02*
X30823333Y-81324819D01*
X30823333Y-81324819D02*
X30728095Y-81372438D01*
X30728095Y-81372438D02*
X30680476Y-81420057D01*
X30680476Y-81420057D02*
X30632857Y-81515295D01*
X30632857Y-81515295D02*
X30632857Y-81658152D01*
X30632857Y-81658152D02*
X30680476Y-81753390D01*
X30680476Y-81753390D02*
X30728095Y-81801009D01*
X30728095Y-81801009D02*
X30823333Y-81848628D01*
X30823333Y-81848628D02*
X31204285Y-81848628D01*
X29728095Y-81324819D02*
X30204285Y-81324819D01*
X30204285Y-81324819D02*
X30251904Y-81801009D01*
X30251904Y-81801009D02*
X30204285Y-81753390D01*
X30204285Y-81753390D02*
X30109047Y-81705771D01*
X30109047Y-81705771D02*
X29870952Y-81705771D01*
X29870952Y-81705771D02*
X29775714Y-81753390D01*
X29775714Y-81753390D02*
X29728095Y-81801009D01*
X29728095Y-81801009D02*
X29680476Y-81896247D01*
X29680476Y-81896247D02*
X29680476Y-82134342D01*
X29680476Y-82134342D02*
X29728095Y-82229580D01*
X29728095Y-82229580D02*
X29775714Y-82277200D01*
X29775714Y-82277200D02*
X29870952Y-82324819D01*
X29870952Y-82324819D02*
X30109047Y-82324819D01*
X30109047Y-82324819D02*
X30204285Y-82277200D01*
X30204285Y-82277200D02*
X30251904Y-82229580D01*
X29204285Y-82324819D02*
X29013809Y-82324819D01*
X29013809Y-82324819D02*
X28918571Y-82277200D01*
X28918571Y-82277200D02*
X28870952Y-82229580D01*
X28870952Y-82229580D02*
X28775714Y-82086723D01*
X28775714Y-82086723D02*
X28728095Y-81896247D01*
X28728095Y-81896247D02*
X28728095Y-81515295D01*
X28728095Y-81515295D02*
X28775714Y-81420057D01*
X28775714Y-81420057D02*
X28823333Y-81372438D01*
X28823333Y-81372438D02*
X28918571Y-81324819D01*
X28918571Y-81324819D02*
X29109047Y-81324819D01*
X29109047Y-81324819D02*
X29204285Y-81372438D01*
X29204285Y-81372438D02*
X29251904Y-81420057D01*
X29251904Y-81420057D02*
X29299523Y-81515295D01*
X29299523Y-81515295D02*
X29299523Y-81753390D01*
X29299523Y-81753390D02*
X29251904Y-81848628D01*
X29251904Y-81848628D02*
X29204285Y-81896247D01*
X29204285Y-81896247D02*
X29109047Y-81943866D01*
X29109047Y-81943866D02*
X28918571Y-81943866D01*
X28918571Y-81943866D02*
X28823333Y-81896247D01*
X28823333Y-81896247D02*
X28775714Y-81848628D01*
X28775714Y-81848628D02*
X28728095Y-81753390D01*
X51241666Y-54304819D02*
X51574999Y-53828628D01*
X51813094Y-54304819D02*
X51813094Y-53304819D01*
X51813094Y-53304819D02*
X51432142Y-53304819D01*
X51432142Y-53304819D02*
X51336904Y-53352438D01*
X51336904Y-53352438D02*
X51289285Y-53400057D01*
X51289285Y-53400057D02*
X51241666Y-53495295D01*
X51241666Y-53495295D02*
X51241666Y-53638152D01*
X51241666Y-53638152D02*
X51289285Y-53733390D01*
X51289285Y-53733390D02*
X51336904Y-53781009D01*
X51336904Y-53781009D02*
X51432142Y-53828628D01*
X51432142Y-53828628D02*
X51813094Y-53828628D01*
X50908332Y-53304819D02*
X50289285Y-53304819D01*
X50289285Y-53304819D02*
X50622618Y-53685771D01*
X50622618Y-53685771D02*
X50479761Y-53685771D01*
X50479761Y-53685771D02*
X50384523Y-53733390D01*
X50384523Y-53733390D02*
X50336904Y-53781009D01*
X50336904Y-53781009D02*
X50289285Y-53876247D01*
X50289285Y-53876247D02*
X50289285Y-54114342D01*
X50289285Y-54114342D02*
X50336904Y-54209580D01*
X50336904Y-54209580D02*
X50384523Y-54257200D01*
X50384523Y-54257200D02*
X50479761Y-54304819D01*
X50479761Y-54304819D02*
X50765475Y-54304819D01*
X50765475Y-54304819D02*
X50860713Y-54257200D01*
X50860713Y-54257200D02*
X50908332Y-54209580D01*
X31359580Y-49357142D02*
X31407200Y-49309523D01*
X31407200Y-49309523D02*
X31454819Y-49166666D01*
X31454819Y-49166666D02*
X31454819Y-49071428D01*
X31454819Y-49071428D02*
X31407200Y-48928571D01*
X31407200Y-48928571D02*
X31311961Y-48833333D01*
X31311961Y-48833333D02*
X31216723Y-48785714D01*
X31216723Y-48785714D02*
X31026247Y-48738095D01*
X31026247Y-48738095D02*
X30883390Y-48738095D01*
X30883390Y-48738095D02*
X30692914Y-48785714D01*
X30692914Y-48785714D02*
X30597676Y-48833333D01*
X30597676Y-48833333D02*
X30502438Y-48928571D01*
X30502438Y-48928571D02*
X30454819Y-49071428D01*
X30454819Y-49071428D02*
X30454819Y-49166666D01*
X30454819Y-49166666D02*
X30502438Y-49309523D01*
X30502438Y-49309523D02*
X30550057Y-49357142D01*
X30550057Y-49738095D02*
X30502438Y-49785714D01*
X30502438Y-49785714D02*
X30454819Y-49880952D01*
X30454819Y-49880952D02*
X30454819Y-50119047D01*
X30454819Y-50119047D02*
X30502438Y-50214285D01*
X30502438Y-50214285D02*
X30550057Y-50261904D01*
X30550057Y-50261904D02*
X30645295Y-50309523D01*
X30645295Y-50309523D02*
X30740533Y-50309523D01*
X30740533Y-50309523D02*
X30883390Y-50261904D01*
X30883390Y-50261904D02*
X31454819Y-49690476D01*
X31454819Y-49690476D02*
X31454819Y-50309523D01*
X30883390Y-50880952D02*
X30835771Y-50785714D01*
X30835771Y-50785714D02*
X30788152Y-50738095D01*
X30788152Y-50738095D02*
X30692914Y-50690476D01*
X30692914Y-50690476D02*
X30645295Y-50690476D01*
X30645295Y-50690476D02*
X30550057Y-50738095D01*
X30550057Y-50738095D02*
X30502438Y-50785714D01*
X30502438Y-50785714D02*
X30454819Y-50880952D01*
X30454819Y-50880952D02*
X30454819Y-51071428D01*
X30454819Y-51071428D02*
X30502438Y-51166666D01*
X30502438Y-51166666D02*
X30550057Y-51214285D01*
X30550057Y-51214285D02*
X30645295Y-51261904D01*
X30645295Y-51261904D02*
X30692914Y-51261904D01*
X30692914Y-51261904D02*
X30788152Y-51214285D01*
X30788152Y-51214285D02*
X30835771Y-51166666D01*
X30835771Y-51166666D02*
X30883390Y-51071428D01*
X30883390Y-51071428D02*
X30883390Y-50880952D01*
X30883390Y-50880952D02*
X30931009Y-50785714D01*
X30931009Y-50785714D02*
X30978628Y-50738095D01*
X30978628Y-50738095D02*
X31073866Y-50690476D01*
X31073866Y-50690476D02*
X31264342Y-50690476D01*
X31264342Y-50690476D02*
X31359580Y-50738095D01*
X31359580Y-50738095D02*
X31407200Y-50785714D01*
X31407200Y-50785714D02*
X31454819Y-50880952D01*
X31454819Y-50880952D02*
X31454819Y-51071428D01*
X31454819Y-51071428D02*
X31407200Y-51166666D01*
X31407200Y-51166666D02*
X31359580Y-51214285D01*
X31359580Y-51214285D02*
X31264342Y-51261904D01*
X31264342Y-51261904D02*
X31073866Y-51261904D01*
X31073866Y-51261904D02*
X30978628Y-51214285D01*
X30978628Y-51214285D02*
X30931009Y-51166666D01*
X30931009Y-51166666D02*
X30883390Y-51071428D01*
X48567857Y-96854819D02*
X48901190Y-96378628D01*
X49139285Y-96854819D02*
X49139285Y-95854819D01*
X49139285Y-95854819D02*
X48758333Y-95854819D01*
X48758333Y-95854819D02*
X48663095Y-95902438D01*
X48663095Y-95902438D02*
X48615476Y-95950057D01*
X48615476Y-95950057D02*
X48567857Y-96045295D01*
X48567857Y-96045295D02*
X48567857Y-96188152D01*
X48567857Y-96188152D02*
X48615476Y-96283390D01*
X48615476Y-96283390D02*
X48663095Y-96331009D01*
X48663095Y-96331009D02*
X48758333Y-96378628D01*
X48758333Y-96378628D02*
X49139285Y-96378628D01*
X47615476Y-96854819D02*
X48186904Y-96854819D01*
X47901190Y-96854819D02*
X47901190Y-95854819D01*
X47901190Y-95854819D02*
X47996428Y-95997676D01*
X47996428Y-95997676D02*
X48091666Y-96092914D01*
X48091666Y-96092914D02*
X48186904Y-96140533D01*
X47234523Y-95950057D02*
X47186904Y-95902438D01*
X47186904Y-95902438D02*
X47091666Y-95854819D01*
X47091666Y-95854819D02*
X46853571Y-95854819D01*
X46853571Y-95854819D02*
X46758333Y-95902438D01*
X46758333Y-95902438D02*
X46710714Y-95950057D01*
X46710714Y-95950057D02*
X46663095Y-96045295D01*
X46663095Y-96045295D02*
X46663095Y-96140533D01*
X46663095Y-96140533D02*
X46710714Y-96283390D01*
X46710714Y-96283390D02*
X47282142Y-96854819D01*
X47282142Y-96854819D02*
X46663095Y-96854819D01*
X37333333Y-37204819D02*
X37333333Y-37919104D01*
X37333333Y-37919104D02*
X37380952Y-38061961D01*
X37380952Y-38061961D02*
X37476190Y-38157200D01*
X37476190Y-38157200D02*
X37619047Y-38204819D01*
X37619047Y-38204819D02*
X37714285Y-38204819D01*
X36857142Y-38204819D02*
X36857142Y-37204819D01*
X36857142Y-37204819D02*
X36476190Y-37204819D01*
X36476190Y-37204819D02*
X36380952Y-37252438D01*
X36380952Y-37252438D02*
X36333333Y-37300057D01*
X36333333Y-37300057D02*
X36285714Y-37395295D01*
X36285714Y-37395295D02*
X36285714Y-37538152D01*
X36285714Y-37538152D02*
X36333333Y-37633390D01*
X36333333Y-37633390D02*
X36380952Y-37681009D01*
X36380952Y-37681009D02*
X36476190Y-37728628D01*
X36476190Y-37728628D02*
X36857142Y-37728628D01*
X35904761Y-37300057D02*
X35857142Y-37252438D01*
X35857142Y-37252438D02*
X35761904Y-37204819D01*
X35761904Y-37204819D02*
X35523809Y-37204819D01*
X35523809Y-37204819D02*
X35428571Y-37252438D01*
X35428571Y-37252438D02*
X35380952Y-37300057D01*
X35380952Y-37300057D02*
X35333333Y-37395295D01*
X35333333Y-37395295D02*
X35333333Y-37490533D01*
X35333333Y-37490533D02*
X35380952Y-37633390D01*
X35380952Y-37633390D02*
X35952380Y-38204819D01*
X35952380Y-38204819D02*
X35333333Y-38204819D01*
X58866666Y-60554819D02*
X59199999Y-60078628D01*
X59438094Y-60554819D02*
X59438094Y-59554819D01*
X59438094Y-59554819D02*
X59057142Y-59554819D01*
X59057142Y-59554819D02*
X58961904Y-59602438D01*
X58961904Y-59602438D02*
X58914285Y-59650057D01*
X58914285Y-59650057D02*
X58866666Y-59745295D01*
X58866666Y-59745295D02*
X58866666Y-59888152D01*
X58866666Y-59888152D02*
X58914285Y-59983390D01*
X58914285Y-59983390D02*
X58961904Y-60031009D01*
X58961904Y-60031009D02*
X59057142Y-60078628D01*
X59057142Y-60078628D02*
X59438094Y-60078628D01*
X57914285Y-60554819D02*
X58485713Y-60554819D01*
X58199999Y-60554819D02*
X58199999Y-59554819D01*
X58199999Y-59554819D02*
X58295237Y-59697676D01*
X58295237Y-59697676D02*
X58390475Y-59792914D01*
X58390475Y-59792914D02*
X58485713Y-59840533D01*
X33059580Y-104682142D02*
X33107200Y-104634523D01*
X33107200Y-104634523D02*
X33154819Y-104491666D01*
X33154819Y-104491666D02*
X33154819Y-104396428D01*
X33154819Y-104396428D02*
X33107200Y-104253571D01*
X33107200Y-104253571D02*
X33011961Y-104158333D01*
X33011961Y-104158333D02*
X32916723Y-104110714D01*
X32916723Y-104110714D02*
X32726247Y-104063095D01*
X32726247Y-104063095D02*
X32583390Y-104063095D01*
X32583390Y-104063095D02*
X32392914Y-104110714D01*
X32392914Y-104110714D02*
X32297676Y-104158333D01*
X32297676Y-104158333D02*
X32202438Y-104253571D01*
X32202438Y-104253571D02*
X32154819Y-104396428D01*
X32154819Y-104396428D02*
X32154819Y-104491666D01*
X32154819Y-104491666D02*
X32202438Y-104634523D01*
X32202438Y-104634523D02*
X32250057Y-104682142D01*
X33154819Y-105634523D02*
X33154819Y-105063095D01*
X33154819Y-105348809D02*
X32154819Y-105348809D01*
X32154819Y-105348809D02*
X32297676Y-105253571D01*
X32297676Y-105253571D02*
X32392914Y-105158333D01*
X32392914Y-105158333D02*
X32440533Y-105063095D01*
X33154819Y-106110714D02*
X33154819Y-106301190D01*
X33154819Y-106301190D02*
X33107200Y-106396428D01*
X33107200Y-106396428D02*
X33059580Y-106444047D01*
X33059580Y-106444047D02*
X32916723Y-106539285D01*
X32916723Y-106539285D02*
X32726247Y-106586904D01*
X32726247Y-106586904D02*
X32345295Y-106586904D01*
X32345295Y-106586904D02*
X32250057Y-106539285D01*
X32250057Y-106539285D02*
X32202438Y-106491666D01*
X32202438Y-106491666D02*
X32154819Y-106396428D01*
X32154819Y-106396428D02*
X32154819Y-106205952D01*
X32154819Y-106205952D02*
X32202438Y-106110714D01*
X32202438Y-106110714D02*
X32250057Y-106063095D01*
X32250057Y-106063095D02*
X32345295Y-106015476D01*
X32345295Y-106015476D02*
X32583390Y-106015476D01*
X32583390Y-106015476D02*
X32678628Y-106063095D01*
X32678628Y-106063095D02*
X32726247Y-106110714D01*
X32726247Y-106110714D02*
X32773866Y-106205952D01*
X32773866Y-106205952D02*
X32773866Y-106396428D01*
X32773866Y-106396428D02*
X32726247Y-106491666D01*
X32726247Y-106491666D02*
X32678628Y-106539285D01*
X32678628Y-106539285D02*
X32583390Y-106586904D01*
X47159580Y-68057142D02*
X47207200Y-68009523D01*
X47207200Y-68009523D02*
X47254819Y-67866666D01*
X47254819Y-67866666D02*
X47254819Y-67771428D01*
X47254819Y-67771428D02*
X47207200Y-67628571D01*
X47207200Y-67628571D02*
X47111961Y-67533333D01*
X47111961Y-67533333D02*
X47016723Y-67485714D01*
X47016723Y-67485714D02*
X46826247Y-67438095D01*
X46826247Y-67438095D02*
X46683390Y-67438095D01*
X46683390Y-67438095D02*
X46492914Y-67485714D01*
X46492914Y-67485714D02*
X46397676Y-67533333D01*
X46397676Y-67533333D02*
X46302438Y-67628571D01*
X46302438Y-67628571D02*
X46254819Y-67771428D01*
X46254819Y-67771428D02*
X46254819Y-67866666D01*
X46254819Y-67866666D02*
X46302438Y-68009523D01*
X46302438Y-68009523D02*
X46350057Y-68057142D01*
X47254819Y-69009523D02*
X47254819Y-68438095D01*
X47254819Y-68723809D02*
X46254819Y-68723809D01*
X46254819Y-68723809D02*
X46397676Y-68628571D01*
X46397676Y-68628571D02*
X46492914Y-68533333D01*
X46492914Y-68533333D02*
X46540533Y-68438095D01*
X46254819Y-69914285D02*
X46254819Y-69438095D01*
X46254819Y-69438095D02*
X46731009Y-69390476D01*
X46731009Y-69390476D02*
X46683390Y-69438095D01*
X46683390Y-69438095D02*
X46635771Y-69533333D01*
X46635771Y-69533333D02*
X46635771Y-69771428D01*
X46635771Y-69771428D02*
X46683390Y-69866666D01*
X46683390Y-69866666D02*
X46731009Y-69914285D01*
X46731009Y-69914285D02*
X46826247Y-69961904D01*
X46826247Y-69961904D02*
X47064342Y-69961904D01*
X47064342Y-69961904D02*
X47159580Y-69914285D01*
X47159580Y-69914285D02*
X47207200Y-69866666D01*
X47207200Y-69866666D02*
X47254819Y-69771428D01*
X47254819Y-69771428D02*
X47254819Y-69533333D01*
X47254819Y-69533333D02*
X47207200Y-69438095D01*
X47207200Y-69438095D02*
X47159580Y-69390476D01*
X57254819Y-97061905D02*
X56254819Y-97061905D01*
X56254819Y-97061905D02*
X56254819Y-97300000D01*
X56254819Y-97300000D02*
X56302438Y-97442857D01*
X56302438Y-97442857D02*
X56397676Y-97538095D01*
X56397676Y-97538095D02*
X56492914Y-97585714D01*
X56492914Y-97585714D02*
X56683390Y-97633333D01*
X56683390Y-97633333D02*
X56826247Y-97633333D01*
X56826247Y-97633333D02*
X57016723Y-97585714D01*
X57016723Y-97585714D02*
X57111961Y-97538095D01*
X57111961Y-97538095D02*
X57207200Y-97442857D01*
X57207200Y-97442857D02*
X57254819Y-97300000D01*
X57254819Y-97300000D02*
X57254819Y-97061905D01*
X57254819Y-98585714D02*
X57254819Y-98014286D01*
X57254819Y-98300000D02*
X56254819Y-98300000D01*
X56254819Y-98300000D02*
X56397676Y-98204762D01*
X56397676Y-98204762D02*
X56492914Y-98109524D01*
X56492914Y-98109524D02*
X56540533Y-98014286D01*
X30642857Y-109524819D02*
X30976190Y-109048628D01*
X31214285Y-109524819D02*
X31214285Y-108524819D01*
X31214285Y-108524819D02*
X30833333Y-108524819D01*
X30833333Y-108524819D02*
X30738095Y-108572438D01*
X30738095Y-108572438D02*
X30690476Y-108620057D01*
X30690476Y-108620057D02*
X30642857Y-108715295D01*
X30642857Y-108715295D02*
X30642857Y-108858152D01*
X30642857Y-108858152D02*
X30690476Y-108953390D01*
X30690476Y-108953390D02*
X30738095Y-109001009D01*
X30738095Y-109001009D02*
X30833333Y-109048628D01*
X30833333Y-109048628D02*
X31214285Y-109048628D01*
X29785714Y-108858152D02*
X29785714Y-109524819D01*
X30023809Y-108477200D02*
X30261904Y-109191485D01*
X30261904Y-109191485D02*
X29642857Y-109191485D01*
X29214285Y-109524819D02*
X29023809Y-109524819D01*
X29023809Y-109524819D02*
X28928571Y-109477200D01*
X28928571Y-109477200D02*
X28880952Y-109429580D01*
X28880952Y-109429580D02*
X28785714Y-109286723D01*
X28785714Y-109286723D02*
X28738095Y-109096247D01*
X28738095Y-109096247D02*
X28738095Y-108715295D01*
X28738095Y-108715295D02*
X28785714Y-108620057D01*
X28785714Y-108620057D02*
X28833333Y-108572438D01*
X28833333Y-108572438D02*
X28928571Y-108524819D01*
X28928571Y-108524819D02*
X29119047Y-108524819D01*
X29119047Y-108524819D02*
X29214285Y-108572438D01*
X29214285Y-108572438D02*
X29261904Y-108620057D01*
X29261904Y-108620057D02*
X29309523Y-108715295D01*
X29309523Y-108715295D02*
X29309523Y-108953390D01*
X29309523Y-108953390D02*
X29261904Y-109048628D01*
X29261904Y-109048628D02*
X29214285Y-109096247D01*
X29214285Y-109096247D02*
X29119047Y-109143866D01*
X29119047Y-109143866D02*
X28928571Y-109143866D01*
X28928571Y-109143866D02*
X28833333Y-109096247D01*
X28833333Y-109096247D02*
X28785714Y-109048628D01*
X28785714Y-109048628D02*
X28738095Y-108953390D01*
X44542857Y-115424819D02*
X44876190Y-114948628D01*
X45114285Y-115424819D02*
X45114285Y-114424819D01*
X45114285Y-114424819D02*
X44733333Y-114424819D01*
X44733333Y-114424819D02*
X44638095Y-114472438D01*
X44638095Y-114472438D02*
X44590476Y-114520057D01*
X44590476Y-114520057D02*
X44542857Y-114615295D01*
X44542857Y-114615295D02*
X44542857Y-114758152D01*
X44542857Y-114758152D02*
X44590476Y-114853390D01*
X44590476Y-114853390D02*
X44638095Y-114901009D01*
X44638095Y-114901009D02*
X44733333Y-114948628D01*
X44733333Y-114948628D02*
X45114285Y-114948628D01*
X43685714Y-114758152D02*
X43685714Y-115424819D01*
X43923809Y-114377200D02*
X44161904Y-115091485D01*
X44161904Y-115091485D02*
X43542857Y-115091485D01*
X43019047Y-114853390D02*
X43114285Y-114805771D01*
X43114285Y-114805771D02*
X43161904Y-114758152D01*
X43161904Y-114758152D02*
X43209523Y-114662914D01*
X43209523Y-114662914D02*
X43209523Y-114615295D01*
X43209523Y-114615295D02*
X43161904Y-114520057D01*
X43161904Y-114520057D02*
X43114285Y-114472438D01*
X43114285Y-114472438D02*
X43019047Y-114424819D01*
X43019047Y-114424819D02*
X42828571Y-114424819D01*
X42828571Y-114424819D02*
X42733333Y-114472438D01*
X42733333Y-114472438D02*
X42685714Y-114520057D01*
X42685714Y-114520057D02*
X42638095Y-114615295D01*
X42638095Y-114615295D02*
X42638095Y-114662914D01*
X42638095Y-114662914D02*
X42685714Y-114758152D01*
X42685714Y-114758152D02*
X42733333Y-114805771D01*
X42733333Y-114805771D02*
X42828571Y-114853390D01*
X42828571Y-114853390D02*
X43019047Y-114853390D01*
X43019047Y-114853390D02*
X43114285Y-114901009D01*
X43114285Y-114901009D02*
X43161904Y-114948628D01*
X43161904Y-114948628D02*
X43209523Y-115043866D01*
X43209523Y-115043866D02*
X43209523Y-115234342D01*
X43209523Y-115234342D02*
X43161904Y-115329580D01*
X43161904Y-115329580D02*
X43114285Y-115377200D01*
X43114285Y-115377200D02*
X43019047Y-115424819D01*
X43019047Y-115424819D02*
X42828571Y-115424819D01*
X42828571Y-115424819D02*
X42733333Y-115377200D01*
X42733333Y-115377200D02*
X42685714Y-115329580D01*
X42685714Y-115329580D02*
X42638095Y-115234342D01*
X42638095Y-115234342D02*
X42638095Y-115043866D01*
X42638095Y-115043866D02*
X42685714Y-114948628D01*
X42685714Y-114948628D02*
X42733333Y-114901009D01*
X42733333Y-114901009D02*
X42828571Y-114853390D01*
D11*
X36631582Y-22409800D02*
X36488725Y-22457419D01*
X36488725Y-22457419D02*
X36250630Y-22457419D01*
X36250630Y-22457419D02*
X36155392Y-22409800D01*
X36155392Y-22409800D02*
X36107773Y-22362180D01*
X36107773Y-22362180D02*
X36060154Y-22266942D01*
X36060154Y-22266942D02*
X36060154Y-22171704D01*
X36060154Y-22171704D02*
X36107773Y-22076466D01*
X36107773Y-22076466D02*
X36155392Y-22028847D01*
X36155392Y-22028847D02*
X36250630Y-21981228D01*
X36250630Y-21981228D02*
X36441106Y-21933609D01*
X36441106Y-21933609D02*
X36536344Y-21885990D01*
X36536344Y-21885990D02*
X36583963Y-21838371D01*
X36583963Y-21838371D02*
X36631582Y-21743133D01*
X36631582Y-21743133D02*
X36631582Y-21647895D01*
X36631582Y-21647895D02*
X36583963Y-21552657D01*
X36583963Y-21552657D02*
X36536344Y-21505038D01*
X36536344Y-21505038D02*
X36441106Y-21457419D01*
X36441106Y-21457419D02*
X36203011Y-21457419D01*
X36203011Y-21457419D02*
X36060154Y-21505038D01*
X35726820Y-21457419D02*
X35488725Y-22457419D01*
X35488725Y-22457419D02*
X35298249Y-21743133D01*
X35298249Y-21743133D02*
X35107773Y-22457419D01*
X35107773Y-22457419D02*
X34869678Y-21457419D01*
X33964916Y-22457419D02*
X34536344Y-22457419D01*
X34250630Y-22457419D02*
X34250630Y-21457419D01*
X34250630Y-21457419D02*
X34345868Y-21600276D01*
X34345868Y-21600276D02*
X34441106Y-21695514D01*
X34441106Y-21695514D02*
X34536344Y-21743133D01*
D10*
X25284819Y-30738095D02*
X26094342Y-30738095D01*
X26094342Y-30738095D02*
X26189580Y-30785714D01*
X26189580Y-30785714D02*
X26237200Y-30833333D01*
X26237200Y-30833333D02*
X26284819Y-30928571D01*
X26284819Y-30928571D02*
X26284819Y-31119047D01*
X26284819Y-31119047D02*
X26237200Y-31214285D01*
X26237200Y-31214285D02*
X26189580Y-31261904D01*
X26189580Y-31261904D02*
X26094342Y-31309523D01*
X26094342Y-31309523D02*
X25284819Y-31309523D01*
X25284819Y-31690476D02*
X25284819Y-32309523D01*
X25284819Y-32309523D02*
X25665771Y-31976190D01*
X25665771Y-31976190D02*
X25665771Y-32119047D01*
X25665771Y-32119047D02*
X25713390Y-32214285D01*
X25713390Y-32214285D02*
X25761009Y-32261904D01*
X25761009Y-32261904D02*
X25856247Y-32309523D01*
X25856247Y-32309523D02*
X26094342Y-32309523D01*
X26094342Y-32309523D02*
X26189580Y-32261904D01*
X26189580Y-32261904D02*
X26237200Y-32214285D01*
X26237200Y-32214285D02*
X26284819Y-32119047D01*
X26284819Y-32119047D02*
X26284819Y-31833333D01*
X26284819Y-31833333D02*
X26237200Y-31738095D01*
X26237200Y-31738095D02*
X26189580Y-31690476D01*
X51342857Y-93254819D02*
X51676190Y-92778628D01*
X51914285Y-93254819D02*
X51914285Y-92254819D01*
X51914285Y-92254819D02*
X51533333Y-92254819D01*
X51533333Y-92254819D02*
X51438095Y-92302438D01*
X51438095Y-92302438D02*
X51390476Y-92350057D01*
X51390476Y-92350057D02*
X51342857Y-92445295D01*
X51342857Y-92445295D02*
X51342857Y-92588152D01*
X51342857Y-92588152D02*
X51390476Y-92683390D01*
X51390476Y-92683390D02*
X51438095Y-92731009D01*
X51438095Y-92731009D02*
X51533333Y-92778628D01*
X51533333Y-92778628D02*
X51914285Y-92778628D01*
X51009523Y-92254819D02*
X50390476Y-92254819D01*
X50390476Y-92254819D02*
X50723809Y-92635771D01*
X50723809Y-92635771D02*
X50580952Y-92635771D01*
X50580952Y-92635771D02*
X50485714Y-92683390D01*
X50485714Y-92683390D02*
X50438095Y-92731009D01*
X50438095Y-92731009D02*
X50390476Y-92826247D01*
X50390476Y-92826247D02*
X50390476Y-93064342D01*
X50390476Y-93064342D02*
X50438095Y-93159580D01*
X50438095Y-93159580D02*
X50485714Y-93207200D01*
X50485714Y-93207200D02*
X50580952Y-93254819D01*
X50580952Y-93254819D02*
X50866666Y-93254819D01*
X50866666Y-93254819D02*
X50961904Y-93207200D01*
X50961904Y-93207200D02*
X51009523Y-93159580D01*
X49533333Y-92254819D02*
X49723809Y-92254819D01*
X49723809Y-92254819D02*
X49819047Y-92302438D01*
X49819047Y-92302438D02*
X49866666Y-92350057D01*
X49866666Y-92350057D02*
X49961904Y-92492914D01*
X49961904Y-92492914D02*
X50009523Y-92683390D01*
X50009523Y-92683390D02*
X50009523Y-93064342D01*
X50009523Y-93064342D02*
X49961904Y-93159580D01*
X49961904Y-93159580D02*
X49914285Y-93207200D01*
X49914285Y-93207200D02*
X49819047Y-93254819D01*
X49819047Y-93254819D02*
X49628571Y-93254819D01*
X49628571Y-93254819D02*
X49533333Y-93207200D01*
X49533333Y-93207200D02*
X49485714Y-93159580D01*
X49485714Y-93159580D02*
X49438095Y-93064342D01*
X49438095Y-93064342D02*
X49438095Y-92826247D01*
X49438095Y-92826247D02*
X49485714Y-92731009D01*
X49485714Y-92731009D02*
X49533333Y-92683390D01*
X49533333Y-92683390D02*
X49628571Y-92635771D01*
X49628571Y-92635771D02*
X49819047Y-92635771D01*
X49819047Y-92635771D02*
X49914285Y-92683390D01*
X49914285Y-92683390D02*
X49961904Y-92731009D01*
X49961904Y-92731009D02*
X50009523Y-92826247D01*
X30603628Y-64223809D02*
X31079819Y-64223809D01*
X30079819Y-63890476D02*
X30603628Y-64223809D01*
X30603628Y-64223809D02*
X30079819Y-64557142D01*
X31079819Y-65414285D02*
X31079819Y-64842857D01*
X31079819Y-65128571D02*
X30079819Y-65128571D01*
X30079819Y-65128571D02*
X30222676Y-65033333D01*
X30222676Y-65033333D02*
X30317914Y-64938095D01*
X30317914Y-64938095D02*
X30365533Y-64842857D01*
X44084580Y-66783333D02*
X44132200Y-66735714D01*
X44132200Y-66735714D02*
X44179819Y-66592857D01*
X44179819Y-66592857D02*
X44179819Y-66497619D01*
X44179819Y-66497619D02*
X44132200Y-66354762D01*
X44132200Y-66354762D02*
X44036961Y-66259524D01*
X44036961Y-66259524D02*
X43941723Y-66211905D01*
X43941723Y-66211905D02*
X43751247Y-66164286D01*
X43751247Y-66164286D02*
X43608390Y-66164286D01*
X43608390Y-66164286D02*
X43417914Y-66211905D01*
X43417914Y-66211905D02*
X43322676Y-66259524D01*
X43322676Y-66259524D02*
X43227438Y-66354762D01*
X43227438Y-66354762D02*
X43179819Y-66497619D01*
X43179819Y-66497619D02*
X43179819Y-66592857D01*
X43179819Y-66592857D02*
X43227438Y-66735714D01*
X43227438Y-66735714D02*
X43275057Y-66783333D01*
X43608390Y-67354762D02*
X43560771Y-67259524D01*
X43560771Y-67259524D02*
X43513152Y-67211905D01*
X43513152Y-67211905D02*
X43417914Y-67164286D01*
X43417914Y-67164286D02*
X43370295Y-67164286D01*
X43370295Y-67164286D02*
X43275057Y-67211905D01*
X43275057Y-67211905D02*
X43227438Y-67259524D01*
X43227438Y-67259524D02*
X43179819Y-67354762D01*
X43179819Y-67354762D02*
X43179819Y-67545238D01*
X43179819Y-67545238D02*
X43227438Y-67640476D01*
X43227438Y-67640476D02*
X43275057Y-67688095D01*
X43275057Y-67688095D02*
X43370295Y-67735714D01*
X43370295Y-67735714D02*
X43417914Y-67735714D01*
X43417914Y-67735714D02*
X43513152Y-67688095D01*
X43513152Y-67688095D02*
X43560771Y-67640476D01*
X43560771Y-67640476D02*
X43608390Y-67545238D01*
X43608390Y-67545238D02*
X43608390Y-67354762D01*
X43608390Y-67354762D02*
X43656009Y-67259524D01*
X43656009Y-67259524D02*
X43703628Y-67211905D01*
X43703628Y-67211905D02*
X43798866Y-67164286D01*
X43798866Y-67164286D02*
X43989342Y-67164286D01*
X43989342Y-67164286D02*
X44084580Y-67211905D01*
X44084580Y-67211905D02*
X44132200Y-67259524D01*
X44132200Y-67259524D02*
X44179819Y-67354762D01*
X44179819Y-67354762D02*
X44179819Y-67545238D01*
X44179819Y-67545238D02*
X44132200Y-67640476D01*
X44132200Y-67640476D02*
X44084580Y-67688095D01*
X44084580Y-67688095D02*
X43989342Y-67735714D01*
X43989342Y-67735714D02*
X43798866Y-67735714D01*
X43798866Y-67735714D02*
X43703628Y-67688095D01*
X43703628Y-67688095D02*
X43656009Y-67640476D01*
X43656009Y-67640476D02*
X43608390Y-67545238D01*
D11*
X34500000Y-29800000D02*
X38800000Y-29800000D01*
X38800000Y-26200000D01*
X34500000Y-26200000D01*
X34500000Y-29800000D01*
D12*
X29810000Y-75485000D02*
X29810000Y-73215000D01*
X25925000Y-75485000D02*
X29810000Y-75485000D01*
X29810000Y-73215000D02*
X25925000Y-73215000D01*
D11*
X28225000Y-75150000D02*
X28325000Y-75150000D01*
X28325000Y-73550000D01*
X28225000Y-73550000D01*
X28225000Y-75150000D01*
D12*
X35615000Y-73215000D02*
X35615000Y-75485000D01*
X39500000Y-73215000D02*
X35615000Y-73215000D01*
X35615000Y-75485000D02*
X39500000Y-75485000D01*
D11*
X37200000Y-73550000D02*
X37100000Y-73550000D01*
X37100000Y-75150000D01*
X37200000Y-75150000D01*
X37200000Y-73550000D01*
D12*
X49410000Y-75485000D02*
X49410000Y-73215000D01*
X45525000Y-75485000D02*
X49410000Y-75485000D01*
X49410000Y-73215000D02*
X45525000Y-73215000D01*
D11*
X47825000Y-75150000D02*
X47925000Y-75150000D01*
X47925000Y-73550000D01*
X47825000Y-73550000D01*
X47825000Y-75150000D01*
D12*
X37310000Y-101135000D02*
X37310000Y-98865000D01*
X33425000Y-101135000D02*
X37310000Y-101135000D01*
X37310000Y-98865000D02*
X33425000Y-98865000D01*
D11*
X35725000Y-100800000D02*
X35825000Y-100800000D01*
X35825000Y-99200000D01*
X35725000Y-99200000D01*
X35725000Y-100800000D01*
D12*
X55215000Y-73240000D02*
X55215000Y-75510000D01*
X59100000Y-73240000D02*
X55215000Y-73240000D01*
X55215000Y-75510000D02*
X59100000Y-75510000D01*
D11*
X56800000Y-73575000D02*
X56700000Y-73575000D01*
X56700000Y-75175000D01*
X56800000Y-75175000D01*
X56800000Y-73575000D01*
D12*
X33615000Y-116160000D02*
X35885000Y-116160000D01*
X33615000Y-112275000D02*
X33615000Y-116160000D01*
X35885000Y-116160000D02*
X35885000Y-112275000D01*
D11*
X33950000Y-114575000D02*
X35550000Y-114575000D01*
X35550000Y-114675000D01*
X33950000Y-114675000D01*
X33950000Y-114575000D01*
D12*
X51385000Y-111065000D02*
X49115000Y-111065000D01*
X51385000Y-114950000D02*
X51385000Y-111065000D01*
X49115000Y-111065000D02*
X49115000Y-114950000D01*
D11*
X51050000Y-112650000D02*
X49450000Y-112650000D01*
X49450000Y-112550000D01*
X51050000Y-112550000D01*
X51050000Y-112650000D01*
D12*
X51385000Y-97465000D02*
X49115000Y-97465000D01*
X51385000Y-101350000D02*
X51385000Y-97465000D01*
X49115000Y-97465000D02*
X49115000Y-101350000D01*
D11*
X51050000Y-99050000D02*
X49450000Y-99050000D01*
X49450000Y-98950000D01*
X51050000Y-98950000D01*
X51050000Y-99050000D01*
D12*
X37346500Y-55050000D02*
X37346500Y-56000000D01*
X37346500Y-65350000D02*
X37346500Y-64400000D01*
X38296500Y-55050000D02*
X37346500Y-55050000D01*
X38296500Y-65350000D02*
X37346500Y-65350000D01*
X46696500Y-55050000D02*
X47646500Y-55050000D01*
X47646500Y-55050000D02*
X47646500Y-56000000D01*
X47646500Y-65590000D02*
X47646500Y-64400000D01*
D11*
X42600000Y-93050000D02*
X42600000Y-93050000D01*
X42600000Y-93150000D02*
X42600000Y-93150000D01*
X42600000Y-93050000D02*
G75*
G02*
X42600000Y-93150000I0J-50000D01*
G01*
X42600000Y-93150000D02*
G75*
G02*
X42600000Y-93050000I0J50000D01*
G01*
D13*
X52787500Y-58100000D02*
G75*
G02*
X52596080Y-58100000I-95710J0D01*
G01*
X52596080Y-58100000D02*
G75*
G02*
X52787500Y-58100000I95710J0D01*
G01*
D12*
X54075000Y-60905000D02*
X56800000Y-60905000D01*
X54075000Y-61165000D02*
X54075000Y-60905000D01*
X54075000Y-66095000D02*
X54075000Y-66355000D01*
X54075000Y-66355000D02*
X56800000Y-66355000D01*
X59525000Y-60905000D02*
X56800000Y-60905000D01*
X59525000Y-61165000D02*
X59525000Y-60905000D01*
X59525000Y-66095000D02*
X59525000Y-66355000D01*
X59525000Y-66355000D02*
X56800000Y-66355000D01*
X60307500Y-61165000D02*
X60067500Y-60835000D01*
X60547500Y-60835000D01*
X60307500Y-61165000D01*
G36*
X60307500Y-61165000D02*
G01*
X60067500Y-60835000D01*
X60547500Y-60835000D01*
X60307500Y-61165000D01*
G37*
X29965000Y-72912500D02*
X29965000Y-73562500D01*
X29965000Y-74212500D02*
X29965000Y-73562500D01*
X33085000Y-72912500D02*
X33085000Y-73562500D01*
X33085000Y-74212500D02*
X33085000Y-73562500D01*
X33365000Y-74965000D02*
X33035000Y-74725000D01*
X33365000Y-74485000D01*
X33365000Y-74965000D01*
G36*
X33365000Y-74965000D02*
G01*
X33035000Y-74725000D01*
X33365000Y-74485000D01*
X33365000Y-74965000D01*
G37*
X45565000Y-99287500D02*
X45565000Y-99937500D01*
X45565000Y-100587500D02*
X45565000Y-99937500D01*
X48685000Y-99287500D02*
X48685000Y-99937500D01*
X48685000Y-100587500D02*
X48685000Y-99937500D01*
X48965000Y-101340000D02*
X48635000Y-101100000D01*
X48965000Y-100860000D01*
X48965000Y-101340000D01*
G36*
X48965000Y-101340000D02*
G01*
X48635000Y-101100000D01*
X48965000Y-100860000D01*
X48965000Y-101340000D01*
G37*
X26305000Y-46468748D02*
X26305000Y-46991252D01*
X27775000Y-46468748D02*
X27775000Y-46991252D01*
X47653641Y-22870000D02*
X47346359Y-22870000D01*
X47653641Y-23630000D02*
X47346359Y-23630000D01*
X30743641Y-115620000D02*
X30436359Y-115620000D01*
X30743641Y-116380000D02*
X30436359Y-116380000D01*
X47836359Y-94520000D02*
X48143641Y-94520000D01*
X47836359Y-95280000D02*
X48143641Y-95280000D01*
X40856359Y-89520000D02*
X41163641Y-89520000D01*
X40856359Y-90280000D02*
X41163641Y-90280000D01*
X49097836Y-60100000D02*
X48882164Y-60100000D01*
X49097836Y-60820000D02*
X48882164Y-60820000D01*
X54843641Y-99820000D02*
X54536359Y-99820000D01*
X54843641Y-100580000D02*
X54536359Y-100580000D01*
X51590000Y-113062500D02*
X51590000Y-113712500D01*
X51590000Y-114362500D02*
X51590000Y-113712500D01*
X54710000Y-113062500D02*
X54710000Y-113712500D01*
X54710000Y-114362500D02*
X54710000Y-113712500D01*
X54990000Y-115115000D02*
X54660000Y-114875000D01*
X54990000Y-114635000D01*
X54990000Y-115115000D01*
G36*
X54990000Y-115115000D02*
G01*
X54660000Y-114875000D01*
X54990000Y-114635000D01*
X54990000Y-115115000D01*
G37*
X42120000Y-116756359D02*
X42120000Y-117063641D01*
X42880000Y-116756359D02*
X42880000Y-117063641D01*
X28265000Y-46438748D02*
X28265000Y-46961252D01*
X29735000Y-46438748D02*
X29735000Y-46961252D01*
X49856359Y-84120000D02*
X50163641Y-84120000D01*
X49856359Y-84880000D02*
X50163641Y-84880000D01*
X28265000Y-40738748D02*
X28265000Y-41261252D01*
X29735000Y-40738748D02*
X29735000Y-41261252D01*
X38040000Y-53492164D02*
X38040000Y-53707836D01*
X38760000Y-53492164D02*
X38760000Y-53707836D01*
X56212500Y-93390000D02*
X56862500Y-93390000D01*
X56212500Y-96510000D02*
X56862500Y-96510000D01*
X57512500Y-93390000D02*
X56862500Y-93390000D01*
X57512500Y-96510000D02*
X56862500Y-96510000D01*
X58025000Y-93440000D02*
X57785000Y-93110000D01*
X58265000Y-93110000D01*
X58025000Y-93440000D01*
G36*
X58025000Y-93440000D02*
G01*
X57785000Y-93110000D01*
X58265000Y-93110000D01*
X58025000Y-93440000D01*
G37*
X42965000Y-52662164D02*
X42965000Y-52877836D01*
X43685000Y-52662164D02*
X43685000Y-52877836D01*
X42990000Y-24812500D02*
X42990000Y-25612500D01*
X42990000Y-26412500D02*
X42990000Y-25612500D01*
X46110000Y-24812500D02*
X46110000Y-25612500D01*
X46110000Y-26412500D02*
X46110000Y-25612500D01*
X43040000Y-24312500D02*
X42710000Y-24552500D01*
X42710000Y-24072500D01*
X43040000Y-24312500D01*
G36*
X43040000Y-24312500D02*
G01*
X42710000Y-24552500D01*
X42710000Y-24072500D01*
X43040000Y-24312500D01*
G37*
X55536359Y-58820000D02*
X55843641Y-58820000D01*
X55536359Y-59580000D02*
X55843641Y-59580000D01*
X41353641Y-101020000D02*
X41046359Y-101020000D01*
X41353641Y-101780000D02*
X41046359Y-101780000D01*
X52206359Y-110920000D02*
X52513641Y-110920000D01*
X52206359Y-111680000D02*
X52513641Y-111680000D01*
X41840000Y-52647164D02*
X41840000Y-52862836D01*
X42560000Y-52647164D02*
X42560000Y-52862836D01*
X36736359Y-114795000D02*
X37043641Y-114795000D01*
X36736359Y-115555000D02*
X37043641Y-115555000D01*
X54636359Y-115920000D02*
X54943641Y-115920000D01*
X54636359Y-116680000D02*
X54943641Y-116680000D01*
X47725000Y-24125000D02*
X47725000Y-24245000D01*
X47725000Y-25255000D02*
X47725000Y-26395000D01*
X47725000Y-27405000D02*
X47725000Y-27525000D01*
X47725000Y-27525000D02*
X52125000Y-27525000D01*
X52125000Y-24125000D02*
X47725000Y-24125000D01*
X52125000Y-24245000D02*
X52125000Y-24125000D01*
X52125000Y-26395000D02*
X52125000Y-25255000D01*
X52125000Y-27525000D02*
X52125000Y-27405000D01*
X37627836Y-39840000D02*
X37412164Y-39840000D01*
X37627836Y-40560000D02*
X37412164Y-40560000D01*
X34352500Y-123810000D02*
X34352500Y-122040000D01*
X34352500Y-126350000D02*
X34352500Y-126090000D01*
X34732500Y-122040000D02*
X34352500Y-122040000D01*
X41592500Y-122040000D02*
X41972500Y-122040000D01*
X41972500Y-122040000D02*
X41972500Y-123810000D01*
X41972500Y-126090000D02*
X41972500Y-126350000D01*
X39140000Y-95607836D02*
X39140000Y-95392164D01*
X39860000Y-95607836D02*
X39860000Y-95392164D01*
X29463641Y-99820000D02*
X29156359Y-99820000D01*
X29463641Y-100580000D02*
X29156359Y-100580000D01*
X47836359Y-93520000D02*
X48143641Y-93520000D01*
X47836359Y-94280000D02*
X48143641Y-94280000D01*
X27856359Y-91620000D02*
X28163641Y-91620000D01*
X27856359Y-92380000D02*
X28163641Y-92380000D01*
X44143641Y-96120000D02*
X43836359Y-96120000D01*
X44143641Y-96880000D02*
X43836359Y-96880000D01*
X51615000Y-72887500D02*
X51615000Y-73537500D01*
X51615000Y-74187500D02*
X51615000Y-73537500D01*
X54735000Y-72887500D02*
X54735000Y-73537500D01*
X54735000Y-74187500D02*
X54735000Y-73537500D01*
X55015000Y-74940000D02*
X54685000Y-74700000D01*
X55015000Y-74460000D01*
X55015000Y-74940000D01*
G36*
X55015000Y-74940000D02*
G01*
X54685000Y-74700000D01*
X55015000Y-74460000D01*
X55015000Y-74940000D01*
G37*
X49912836Y-63665000D02*
X49697164Y-63665000D01*
X49912836Y-64385000D02*
X49697164Y-64385000D01*
X48972164Y-54640000D02*
X49187836Y-54640000D01*
X48972164Y-55360000D02*
X49187836Y-55360000D01*
X28731359Y-72320000D02*
X29038641Y-72320000D01*
X28731359Y-73080000D02*
X29038641Y-73080000D01*
X53827836Y-59865000D02*
X53612164Y-59865000D01*
X53827836Y-60585000D02*
X53612164Y-60585000D01*
X54090000Y-52260000D02*
X54090000Y-48500000D01*
X55350000Y-52260000D02*
X54090000Y-52260000D01*
X59650000Y-52260000D02*
X60910000Y-52260000D01*
X60910000Y-52260000D02*
X60910000Y-48500000D01*
X54190000Y-47220000D02*
X53860000Y-47460000D01*
X53860000Y-46980000D01*
X54190000Y-47220000D01*
G36*
X54190000Y-47220000D02*
G01*
X53860000Y-47460000D01*
X53860000Y-46980000D01*
X54190000Y-47220000D01*
G37*
X36820000Y-94863641D02*
X36820000Y-94556359D01*
X37580000Y-94863641D02*
X37580000Y-94556359D01*
X55995000Y-110743641D02*
X55995000Y-110436359D01*
X56755000Y-110743641D02*
X56755000Y-110436359D01*
X48220000Y-57072164D02*
X48220000Y-57287836D01*
X48940000Y-57072164D02*
X48940000Y-57287836D01*
X42120000Y-78463641D02*
X42120000Y-78156359D01*
X42880000Y-78463641D02*
X42880000Y-78156359D01*
X30265000Y-40738748D02*
X30265000Y-41261252D01*
X31735000Y-40738748D02*
X31735000Y-41261252D01*
X35612164Y-63040000D02*
X35827836Y-63040000D01*
X35612164Y-63760000D02*
X35827836Y-63760000D01*
X27060000Y-35800000D02*
X32570000Y-35800000D01*
X27060000Y-39100000D02*
X32570000Y-39100000D01*
X32570000Y-39100000D02*
X32570000Y-35800000D01*
X40115000Y-67777836D02*
X40115000Y-67562164D01*
X40835000Y-67777836D02*
X40835000Y-67562164D01*
X43300000Y-31175000D02*
X43300000Y-36375000D01*
X43300000Y-31175000D02*
X43870000Y-31175000D01*
X43300000Y-36375000D02*
X43870000Y-36375000D01*
X45390000Y-31175000D02*
X46410000Y-31175000D01*
X45390000Y-36375000D02*
X46410000Y-36375000D01*
X47930000Y-31175000D02*
X48950000Y-31175000D01*
X47930000Y-36375000D02*
X48950000Y-36375000D01*
X50470000Y-31175000D02*
X51490000Y-31175000D01*
X50470000Y-36375000D02*
X51490000Y-36375000D01*
X53010000Y-31175000D02*
X53580000Y-31175000D01*
X53010000Y-36375000D02*
X53010000Y-37815000D01*
X53010000Y-36375000D02*
X53580000Y-36375000D01*
X53580000Y-31175000D02*
X53580000Y-36375000D01*
X39120000Y-93346359D02*
X39120000Y-93653641D01*
X39880000Y-93346359D02*
X39880000Y-93653641D01*
X27642164Y-61890000D02*
X27857836Y-61890000D01*
X27642164Y-62610000D02*
X27857836Y-62610000D01*
X37940000Y-94787836D02*
X37940000Y-94572164D01*
X38660000Y-94787836D02*
X38660000Y-94572164D01*
X27642164Y-62890000D02*
X27857836Y-62890000D01*
X27642164Y-63610000D02*
X27857836Y-63610000D01*
X33096359Y-60370000D02*
X33403641Y-60370000D01*
X33096359Y-61130000D02*
X33403641Y-61130000D01*
X35392164Y-61315000D02*
X35607836Y-61315000D01*
X35392164Y-62035000D02*
X35607836Y-62035000D01*
X48331359Y-72320000D02*
X48638641Y-72320000D01*
X48331359Y-73080000D02*
X48638641Y-73080000D01*
X51515000Y-46611252D02*
X51515000Y-46088748D01*
X52985000Y-46611252D02*
X52985000Y-46088748D01*
X46440000Y-53492164D02*
X46440000Y-53707836D01*
X47160000Y-53492164D02*
X47160000Y-53707836D01*
X51515000Y-49488748D02*
X51515000Y-50011252D01*
X52985000Y-49488748D02*
X52985000Y-50011252D01*
X26265000Y-40738748D02*
X26265000Y-41261252D01*
X27735000Y-40738748D02*
X27735000Y-41261252D01*
X49230000Y-57072164D02*
X49230000Y-57287836D01*
X49950000Y-57072164D02*
X49950000Y-57287836D01*
X30561252Y-25265000D02*
X30038748Y-25265000D01*
X30561252Y-26735000D02*
X30038748Y-26735000D01*
X56756359Y-79720000D02*
X57063641Y-79720000D01*
X56756359Y-80480000D02*
X57063641Y-80480000D01*
X56963641Y-91620000D02*
X56656359Y-91620000D01*
X56963641Y-92380000D02*
X56656359Y-92380000D01*
X36688641Y-72320000D02*
X36381359Y-72320000D01*
X36688641Y-73080000D02*
X36381359Y-73080000D01*
X56838641Y-72095000D02*
X56531359Y-72095000D01*
X56838641Y-72855000D02*
X56531359Y-72855000D01*
X55536359Y-57820000D02*
X55843641Y-57820000D01*
X55536359Y-58580000D02*
X55843641Y-58580000D01*
X25370000Y-34653641D02*
X25370000Y-34346359D01*
X26130000Y-34653641D02*
X26130000Y-34346359D01*
X36511359Y-97920000D02*
X36818641Y-97920000D01*
X36511359Y-98680000D02*
X36818641Y-98680000D01*
X34892164Y-59440000D02*
X35107836Y-59440000D01*
X34892164Y-60160000D02*
X35107836Y-60160000D01*
X30143641Y-80320000D02*
X29836359Y-80320000D01*
X30143641Y-81080000D02*
X29836359Y-81080000D01*
X50846359Y-54620000D02*
X51153641Y-54620000D01*
X50846359Y-55380000D02*
X51153641Y-55380000D01*
X30295000Y-46388748D02*
X30295000Y-46911252D01*
X31765000Y-46388748D02*
X31765000Y-46911252D01*
X48278641Y-97120000D02*
X47971359Y-97120000D01*
X48278641Y-97880000D02*
X47971359Y-97880000D01*
X33000000Y-38050000D02*
X33000000Y-36650000D01*
X33700000Y-35950000D02*
X34300000Y-35950000D01*
X34300000Y-38750000D02*
X33700000Y-38750000D01*
X35000000Y-36650000D02*
X35000000Y-38050000D01*
X33000000Y-36650000D02*
G75*
G02*
X33700000Y-35950000I700000J0D01*
G01*
X33700000Y-38750000D02*
G75*
G02*
X33000000Y-38050000I-1J699999D01*
G01*
X34300000Y-35950000D02*
G75*
G02*
X35000000Y-36650000I0J-700000D01*
G01*
X35000000Y-38050000D02*
G75*
G02*
X34300000Y-38750000I-699999J-1D01*
G01*
X56676359Y-59800000D02*
X56983641Y-59800000D01*
X56676359Y-60560000D02*
X56983641Y-60560000D01*
X34788748Y-103665000D02*
X35311252Y-103665000D01*
X34788748Y-105135000D02*
X35311252Y-105135000D01*
X45260000Y-68317836D02*
X45260000Y-68102164D01*
X45980000Y-68317836D02*
X45980000Y-68102164D01*
D11*
X55350000Y-98875000D02*
G75*
G02*
X55250000Y-98875000I-50000J0D01*
G01*
X55250000Y-98875000D02*
G75*
G02*
X55350000Y-98875000I50000J0D01*
G01*
D12*
X30153641Y-107520000D02*
X29846359Y-107520000D01*
X30153641Y-108280000D02*
X29846359Y-108280000D01*
X44053641Y-113420000D02*
X43746359Y-113420000D01*
X44053641Y-114180000D02*
X43746359Y-114180000D01*
X26595000Y-29725000D02*
X26595000Y-31675000D01*
X26595000Y-33625000D02*
X26595000Y-31675000D01*
X31715000Y-29725000D02*
X31715000Y-31675000D01*
X31715000Y-33625000D02*
X31715000Y-31675000D01*
X31950000Y-34615000D02*
X31620000Y-34375000D01*
X31950000Y-34135000D01*
X31950000Y-34615000D01*
G36*
X31950000Y-34615000D02*
G01*
X31620000Y-34375000D01*
X31950000Y-34135000D01*
X31950000Y-34615000D01*
G37*
X47846359Y-92520000D02*
X48153641Y-92520000D01*
X47846359Y-93280000D02*
X48153641Y-93280000D01*
X28750000Y-59600000D02*
X28750000Y-63600000D01*
X28750000Y-63600000D02*
X32050000Y-63600000D01*
X42265000Y-67187836D02*
X42265000Y-66972164D01*
X42985000Y-67187836D02*
X42985000Y-66972164D01*
%LPC*%
D14*
X38100000Y-28000000D03*
X35100000Y-28000000D03*
D15*
X28775000Y-74350000D03*
X25725000Y-74350000D03*
D16*
X36650000Y-74350000D03*
X39700000Y-74350000D03*
D15*
X48375000Y-74350000D03*
X45325000Y-74350000D03*
X36275000Y-100000000D03*
X33225000Y-100000000D03*
D16*
X56250000Y-74375000D03*
X59300000Y-74375000D03*
D17*
X34750000Y-115125000D03*
X34750000Y-112075000D03*
D18*
X50250000Y-112100000D03*
X50250000Y-115150000D03*
X50250000Y-98500000D03*
X50250000Y-101550000D03*
D19*
X46296500Y-65203250D03*
X45896500Y-65203250D03*
X45496500Y-65203250D03*
X45096500Y-65203250D03*
X44696500Y-65203250D03*
X44296500Y-65203250D03*
X43896500Y-65203250D03*
X43496500Y-65203250D03*
X43096500Y-65203250D03*
X42696500Y-65203250D03*
X42296500Y-65203250D03*
X41896500Y-65203250D03*
X41496500Y-65203250D03*
X41096500Y-65203250D03*
X40696500Y-65203250D03*
X40296500Y-65203250D03*
D20*
X39891500Y-65203250D03*
D19*
X39496500Y-65203250D03*
X39096500Y-65203250D03*
X38696500Y-65203250D03*
D21*
X37493250Y-64000000D03*
X37493250Y-63600000D03*
X37493250Y-63200000D03*
X37493250Y-62800000D03*
X37493250Y-62400000D03*
X37493250Y-62000000D03*
X37493250Y-61600000D03*
X37493250Y-61200000D03*
X37493250Y-60800000D03*
X37493250Y-60400000D03*
X37493250Y-60000000D03*
X37493250Y-59600000D03*
X37493250Y-59200000D03*
X37493250Y-58800000D03*
X37493250Y-58400000D03*
X37493250Y-58000000D03*
X37493250Y-57600000D03*
X37493250Y-57200000D03*
X37493250Y-56800000D03*
X37493250Y-56400000D03*
D19*
X38696500Y-55196750D03*
X39096500Y-55196750D03*
X39496500Y-55196750D03*
X39896500Y-55196750D03*
X40296500Y-55196750D03*
X40696500Y-55196750D03*
X41096500Y-55196750D03*
X41496500Y-55196750D03*
D20*
X41891500Y-55196750D03*
D19*
X42296500Y-55196750D03*
X42696500Y-55196750D03*
X43096500Y-55196750D03*
X43496500Y-55196750D03*
D20*
X43891500Y-55196750D03*
D19*
X44296500Y-55196750D03*
X44696500Y-55196750D03*
X45096500Y-55196750D03*
X45496500Y-55196750D03*
X45896500Y-55196750D03*
X46296500Y-55196750D03*
D21*
X47499750Y-56400000D03*
D22*
X47499750Y-56805000D03*
D21*
X47499750Y-57200000D03*
X47499750Y-57600000D03*
X47499750Y-58000000D03*
X47499750Y-58400000D03*
D22*
X47499750Y-58805000D03*
D21*
X47499750Y-59200000D03*
X47499750Y-59600000D03*
X47499750Y-60000000D03*
X47499750Y-60400000D03*
X47499750Y-60800000D03*
X47499750Y-61200000D03*
X47499750Y-61600000D03*
X47499750Y-62000000D03*
X47499750Y-62400000D03*
X47499750Y-62800000D03*
X47499750Y-63200000D03*
X47499750Y-63600000D03*
X47499750Y-64000000D03*
D23*
X41363167Y-61333333D03*
D24*
X41363167Y-61333333D03*
D23*
X42496500Y-61333333D03*
D24*
X42496500Y-61333333D03*
D23*
X43629833Y-61333333D03*
D24*
X43629833Y-61333333D03*
D23*
X41363167Y-60200000D03*
D24*
X41363167Y-60200000D03*
D23*
X42496500Y-60200000D03*
D24*
X42496500Y-60200000D03*
D23*
X43629833Y-60200000D03*
D24*
X43629833Y-60200000D03*
D23*
X41363167Y-59066667D03*
D24*
X41363167Y-59066667D03*
D23*
X42496500Y-59066667D03*
D24*
X42496500Y-59066667D03*
D23*
X43629833Y-59066667D03*
D24*
X43629833Y-59066667D03*
D25*
X42000000Y-93100000D03*
X42000000Y-94000000D03*
X42000000Y-94900000D03*
X42000000Y-95800000D03*
X40800000Y-95800000D03*
X40800000Y-94900000D03*
X40800000Y-94000000D03*
X40800000Y-93100000D03*
D26*
X51391790Y-57900000D03*
X51391790Y-56500000D03*
D27*
X23750000Y-43250000D03*
X23750000Y-40500000D03*
D28*
X60400000Y-61725000D03*
X60400000Y-62995000D03*
X60400000Y-64265000D03*
X60400000Y-65535000D03*
X53200000Y-65535000D03*
X53200000Y-64265000D03*
X53200000Y-62995000D03*
X53200000Y-61725000D03*
D29*
X32475000Y-74500000D03*
X30575000Y-74500000D03*
X31525000Y-72625000D03*
X48075000Y-100875000D03*
X46175000Y-100875000D03*
X47125000Y-99000000D03*
D30*
X27040000Y-47680000D03*
X27040000Y-45780000D03*
D31*
X46990000Y-23250000D03*
X48010000Y-23250000D03*
X30080000Y-116000000D03*
X31100000Y-116000000D03*
D32*
X48500000Y-94900000D03*
X47480000Y-94900000D03*
X41520000Y-89900000D03*
X40500000Y-89900000D03*
D33*
X48510000Y-60460000D03*
X49470000Y-60460000D03*
D31*
X54180000Y-100200000D03*
X55200000Y-100200000D03*
D29*
X54100000Y-114650000D03*
X52200000Y-114650000D03*
X53150000Y-112775000D03*
D34*
X42500000Y-117420000D03*
X42500000Y-116400000D03*
D30*
X29000000Y-47650000D03*
X29000000Y-45750000D03*
D32*
X50520000Y-84500000D03*
X49500000Y-84500000D03*
D30*
X29000000Y-41950000D03*
X29000000Y-40050000D03*
D35*
X38400000Y-54080000D03*
X38400000Y-53120000D03*
D36*
X57800000Y-94000000D03*
X57800000Y-95900000D03*
X55925000Y-94950000D03*
D35*
X43325000Y-53250000D03*
X43325000Y-52290000D03*
D37*
X43600000Y-24475000D03*
X44550000Y-24475000D03*
X45500000Y-24475000D03*
X45500000Y-26750000D03*
X44550000Y-26750000D03*
X43600000Y-26750000D03*
D32*
X56200000Y-59200000D03*
X55180000Y-59200000D03*
D31*
X40690000Y-101400000D03*
X41710000Y-101400000D03*
D32*
X52870000Y-111300000D03*
X51850000Y-111300000D03*
D35*
X42200000Y-53235000D03*
X42200000Y-52275000D03*
D38*
X26178713Y-107300000D03*
D39*
X27178713Y-114300000D03*
D32*
X37400000Y-115175000D03*
X36380000Y-115175000D03*
X55300000Y-116300000D03*
X54280000Y-116300000D03*
D40*
X47850000Y-26900000D03*
X52000000Y-26900000D03*
X47850000Y-24750000D03*
X52000000Y-24750000D03*
D33*
X37040000Y-40200000D03*
X38000000Y-40200000D03*
D41*
X39462500Y-122290000D03*
X38812500Y-122290000D03*
X38162500Y-122290000D03*
X37512500Y-122290000D03*
X36862500Y-122290000D03*
D42*
X41537500Y-124950000D03*
D43*
X40650000Y-122375000D03*
D44*
X39312500Y-124950000D03*
D45*
X36612500Y-124950000D03*
D43*
X35675000Y-122375000D03*
D42*
X34787500Y-124950000D03*
D46*
X39500000Y-95020000D03*
X39500000Y-95980000D03*
D31*
X28800000Y-100200000D03*
X29820000Y-100200000D03*
D32*
X48500000Y-93900000D03*
X47480000Y-93900000D03*
D47*
X43288102Y-42600000D03*
D48*
X40288102Y-42600000D03*
X37788102Y-42600000D03*
D47*
X34788102Y-42600000D03*
D32*
X28520000Y-92000000D03*
X27500000Y-92000000D03*
D31*
X43480000Y-96500000D03*
X44500000Y-96500000D03*
D29*
X54125000Y-74475000D03*
X52225000Y-74475000D03*
X53175000Y-72600000D03*
D33*
X49325000Y-64025000D03*
X50285000Y-64025000D03*
D49*
X49560000Y-55000000D03*
X48600000Y-55000000D03*
D32*
X29395000Y-72700000D03*
X28375000Y-72700000D03*
D33*
X53240000Y-60225000D03*
X54200000Y-60225000D03*
D50*
X55200000Y-47200000D03*
X57500000Y-47200000D03*
D51*
X57500000Y-53500000D03*
D50*
X59800000Y-47200000D03*
D52*
X37200000Y-94200000D03*
X37200000Y-95220000D03*
X56375000Y-110080000D03*
X56375000Y-111100000D03*
D35*
X48580000Y-57660000D03*
X48580000Y-56700000D03*
D52*
X42500000Y-77800000D03*
X42500000Y-78820000D03*
D30*
X31000000Y-41950000D03*
X31000000Y-40050000D03*
D49*
X36200000Y-63400000D03*
X35240000Y-63400000D03*
D53*
X31060000Y-37450000D03*
X27060000Y-37450000D03*
D46*
X40475000Y-67190000D03*
X40475000Y-68150000D03*
D54*
X52250000Y-36300000D03*
X52250000Y-31250000D03*
X49710000Y-36300000D03*
X49710000Y-31250000D03*
X47170000Y-36300000D03*
X47170000Y-31250000D03*
X44630000Y-36300000D03*
X44630000Y-31250000D03*
D34*
X39500000Y-94010000D03*
X39500000Y-92990000D03*
D49*
X28230000Y-62250000D03*
X27270000Y-62250000D03*
D46*
X38300000Y-94200000D03*
X38300000Y-95160000D03*
D49*
X28230000Y-63250000D03*
X27270000Y-63250000D03*
D32*
X33760000Y-60750000D03*
X32740000Y-60750000D03*
D49*
X35980000Y-61675000D03*
X35020000Y-61675000D03*
D32*
X48995000Y-72700000D03*
X47975000Y-72700000D03*
D55*
X52250000Y-45400000D03*
X52250000Y-47300000D03*
D35*
X46800000Y-54080000D03*
X46800000Y-53120000D03*
D30*
X52250000Y-50700000D03*
X52250000Y-48800000D03*
X27000000Y-41950000D03*
X27000000Y-40050000D03*
D35*
X49590000Y-57660000D03*
X49590000Y-56700000D03*
D56*
X29350000Y-26000000D03*
X31250000Y-26000000D03*
D32*
X57420000Y-80100000D03*
X56400000Y-80100000D03*
D31*
X56300000Y-92000000D03*
X57320000Y-92000000D03*
X36025000Y-72700000D03*
X37045000Y-72700000D03*
X56175000Y-72475000D03*
X57195000Y-72475000D03*
D32*
X56200000Y-58200000D03*
X55180000Y-58200000D03*
D52*
X25750000Y-33990000D03*
X25750000Y-35010000D03*
D32*
X37175000Y-98300000D03*
X36155000Y-98300000D03*
D49*
X35480000Y-59800000D03*
X34520000Y-59800000D03*
D31*
X29480000Y-80700000D03*
X30500000Y-80700000D03*
D32*
X51510000Y-55000000D03*
X50490000Y-55000000D03*
D30*
X31030000Y-47600000D03*
X31030000Y-45700000D03*
D31*
X47615000Y-97500000D03*
X48635000Y-97500000D03*
D57*
X57100000Y-105675000D03*
X53900000Y-105675000D03*
D58*
X34000000Y-38000000D03*
D59*
X34000000Y-36700000D03*
D32*
X57340000Y-60180000D03*
X56320000Y-60180000D03*
D60*
X36000000Y-104400000D03*
X34100000Y-104400000D03*
D46*
X45620000Y-67730000D03*
X45620000Y-68690000D03*
D61*
X55300000Y-98270000D03*
X55300000Y-97300000D03*
D31*
X29490000Y-107900000D03*
X30510000Y-107900000D03*
X43390000Y-113800000D03*
X44410000Y-113800000D03*
D62*
X38000000Y-21000000D03*
D63*
X32698250Y-21000000D03*
D62*
X38000000Y-22700000D03*
D63*
X32698250Y-22700000D03*
D64*
X31060000Y-34150000D03*
X29790000Y-34150000D03*
X28520000Y-34150000D03*
X27250000Y-34150000D03*
X27250000Y-29200000D03*
X28520000Y-29200000D03*
X29790000Y-29200000D03*
X31060000Y-29200000D03*
D32*
X48510000Y-92900000D03*
X47490000Y-92900000D03*
D65*
X29550000Y-62700000D03*
X29550000Y-60500000D03*
X31250000Y-60500000D03*
X31250000Y-62700000D03*
D46*
X42625000Y-66600000D03*
X42625000Y-67560000D03*
%LPD*%
M02*
